%TF.GenerationSoftware,KiCad,Pcbnew,10.0.5*%
%TF.CreationDate,2026-07-28T13:56:40-03:00*%
%TF.ProjectId,inputBoard,696e7075-7442-46f6-9172-642e6b696361,rev?*%
%TF.SameCoordinates,Original*%
%TF.FileFunction,Soldermask,Bot*%
%TF.FilePolarity,Negative*%
%FSLAX46Y46*%
G04 Gerber Fmt 4.6, Leading zero omitted, Abs format (unit mm)*
G04 Created by KiCad (PCBNEW 10.0.5) date 2026-07-28 13:56:40*
%MOMM*%
%LPD*%
G01*
G04 APERTURE LIST*
G04 Aperture macros list*
%AMRoundRect*
0 Rectangle with rounded corners*
0 $1 Rounding radius*
0 $2 $3 $4 $5 $6 $7 $8 $9 X,Y pos of 4 corners*
0 Add a 4 corners polygon primitive as box body*
4,1,4,$2,$3,$4,$5,$6,$7,$8,$9,$2,$3,0*
0 Add four circle primitives for the rounded corners*
1,1,$1+$1,$2,$3*
1,1,$1+$1,$4,$5*
1,1,$1+$1,$6,$7*
1,1,$1+$1,$8,$9*
0 Add four rect primitives between the rounded corners*
20,1,$1+$1,$2,$3,$4,$5,0*
20,1,$1+$1,$4,$5,$6,$7,0*
20,1,$1+$1,$6,$7,$8,$9,0*
20,1,$1+$1,$8,$9,$2,$3,0*%
G04 Aperture macros list end*
%ADD10C,1.700000*%
%ADD11C,4.000000*%
%ADD12C,2.200000*%
%ADD13R,2.000000X2.000000*%
%ADD14C,2.000000*%
%ADD15R,3.200000X2.000000*%
%ADD16C,3.200000*%
%ADD17RoundRect,0.250000X0.600000X0.725000X-0.600000X0.725000X-0.600000X-0.725000X0.600000X-0.725000X0*%
%ADD18O,1.700000X1.950000*%
G04 APERTURE END LIST*
D10*
%TO.C,SW104*%
X130685000Y-93519125D03*
D11*
X135765000Y-93519125D03*
D10*
X140845000Y-93519125D03*
D12*
X138305000Y-88439125D03*
X131955000Y-90979125D03*
%TD*%
D13*
%TO.C,SW109*%
X151750000Y-91019125D03*
D14*
X151750000Y-96019125D03*
X151750000Y-93519125D03*
D15*
X159250000Y-87919125D03*
X159250000Y-99119125D03*
D14*
X166250000Y-96019125D03*
X166250000Y-91019125D03*
%TD*%
D10*
%TO.C,SW102*%
X87675000Y-93519125D03*
D11*
X92755000Y-93519125D03*
D10*
X97835000Y-93519125D03*
D12*
X95295000Y-88439125D03*
X88945000Y-90979125D03*
%TD*%
D10*
%TO.C,SW106*%
X198660000Y-93519125D03*
D11*
X203740000Y-93519125D03*
D10*
X208820000Y-93519125D03*
D12*
X206280000Y-88439125D03*
X199930000Y-90979125D03*
%TD*%
D10*
%TO.C,SW105*%
X177155000Y-93519125D03*
D11*
X182235000Y-93519125D03*
D10*
X187315000Y-93519125D03*
D12*
X184775000Y-88439125D03*
X178425000Y-90979125D03*
%TD*%
D10*
%TO.C,SW107*%
X220165000Y-93519125D03*
D11*
X225245000Y-93519125D03*
D10*
X230325000Y-93519125D03*
D12*
X227785000Y-88439125D03*
X221435000Y-90979125D03*
%TD*%
D10*
%TO.C,SW103*%
X109180000Y-93519125D03*
D11*
X114260000Y-93519125D03*
D10*
X119340000Y-93519125D03*
D12*
X116800000Y-88439125D03*
X110450000Y-90979125D03*
%TD*%
D16*
%TO.C,REF\u002A\u002A*%
X66000000Y-77000000D03*
%TD*%
%TO.C,REF\u002A\u002A*%
X128000000Y-77000000D03*
%TD*%
D10*
%TO.C,SW101*%
X66170000Y-93519125D03*
D11*
X71250000Y-93519125D03*
D10*
X76330000Y-93519125D03*
D12*
X73790000Y-88439125D03*
X67440000Y-90979125D03*
%TD*%
D16*
%TO.C,REF\u002A\u002A*%
X190000000Y-77000000D03*
%TD*%
D10*
%TO.C,SW108*%
X241670000Y-93519125D03*
D11*
X246750000Y-93519125D03*
D10*
X251830000Y-93519125D03*
D12*
X249290000Y-88439125D03*
X242940000Y-90979125D03*
%TD*%
D16*
%TO.C,REF\u002A\u002A*%
X252000000Y-77000000D03*
%TD*%
D17*
%TO.C,J102*%
X225040000Y-76279125D03*
D18*
X222540000Y-76279125D03*
X220040000Y-76279125D03*
X217540000Y-76279125D03*
X215040000Y-76279125D03*
%TD*%
D17*
%TO.C,J101*%
X111740000Y-76279125D03*
D18*
X109240000Y-76279125D03*
X106740000Y-76279125D03*
X104240000Y-76279125D03*
X101740000Y-76279125D03*
%TD*%
D17*
%TO.C,J103*%
X162340000Y-76279125D03*
D18*
X159840000Y-76279125D03*
X157340000Y-76279125D03*
X154840000Y-76279125D03*
%TD*%
M02*
