%TF.GenerationSoftware,KiCad,Pcbnew,10.0.5*%
%TF.CreationDate,2026-07-28T13:56:40-03:00*%
%TF.ProjectId,inputBoard,696e7075-7442-46f6-9172-642e6b696361,rev?*%
%TF.SameCoordinates,Original*%
%TF.FileFunction,Legend,Top*%
%TF.FilePolarity,Positive*%
%FSLAX46Y46*%
G04 Gerber Fmt 4.6, Leading zero omitted, Abs format (unit mm)*
G04 Created by KiCad (PCBNEW 10.0.5) date 2026-07-28 13:56:40*
%MOMM*%
%LPD*%
G01*
G04 APERTURE LIST*
%ADD10C,0.125000*%
%ADD11C,0.187500*%
%ADD12C,0.150000*%
%ADD13C,0.000000*%
%ADD14C,0.120000*%
G04 APERTURE END LIST*
D10*
X102134125Y-73327287D02*
X102181744Y-73184430D01*
X102181744Y-73184430D02*
X102181744Y-72946335D01*
X102181744Y-72946335D02*
X102134125Y-72851097D01*
X102134125Y-72851097D02*
X102086505Y-72803478D01*
X102086505Y-72803478D02*
X101991267Y-72755859D01*
X101991267Y-72755859D02*
X101896029Y-72755859D01*
X101896029Y-72755859D02*
X101800791Y-72803478D01*
X101800791Y-72803478D02*
X101753172Y-72851097D01*
X101753172Y-72851097D02*
X101705553Y-72946335D01*
X101705553Y-72946335D02*
X101657934Y-73136811D01*
X101657934Y-73136811D02*
X101610315Y-73232049D01*
X101610315Y-73232049D02*
X101562696Y-73279668D01*
X101562696Y-73279668D02*
X101467458Y-73327287D01*
X101467458Y-73327287D02*
X101372220Y-73327287D01*
X101372220Y-73327287D02*
X101276982Y-73279668D01*
X101276982Y-73279668D02*
X101229363Y-73232049D01*
X101229363Y-73232049D02*
X101181744Y-73136811D01*
X101181744Y-73136811D02*
X101181744Y-72898716D01*
X101181744Y-72898716D02*
X101229363Y-72755859D01*
X101181744Y-72422525D02*
X102181744Y-72184430D01*
X102181744Y-72184430D02*
X101467458Y-71993954D01*
X101467458Y-71993954D02*
X102181744Y-71803478D01*
X102181744Y-71803478D02*
X101181744Y-71565383D01*
X102181744Y-70660621D02*
X102181744Y-71232049D01*
X102181744Y-70946335D02*
X101181744Y-70946335D01*
X101181744Y-70946335D02*
X101324601Y-71041573D01*
X101324601Y-71041573D02*
X101419839Y-71136811D01*
X101419839Y-71136811D02*
X101467458Y-71232049D01*
X104634125Y-73327287D02*
X104681744Y-73184430D01*
X104681744Y-73184430D02*
X104681744Y-72946335D01*
X104681744Y-72946335D02*
X104634125Y-72851097D01*
X104634125Y-72851097D02*
X104586505Y-72803478D01*
X104586505Y-72803478D02*
X104491267Y-72755859D01*
X104491267Y-72755859D02*
X104396029Y-72755859D01*
X104396029Y-72755859D02*
X104300791Y-72803478D01*
X104300791Y-72803478D02*
X104253172Y-72851097D01*
X104253172Y-72851097D02*
X104205553Y-72946335D01*
X104205553Y-72946335D02*
X104157934Y-73136811D01*
X104157934Y-73136811D02*
X104110315Y-73232049D01*
X104110315Y-73232049D02*
X104062696Y-73279668D01*
X104062696Y-73279668D02*
X103967458Y-73327287D01*
X103967458Y-73327287D02*
X103872220Y-73327287D01*
X103872220Y-73327287D02*
X103776982Y-73279668D01*
X103776982Y-73279668D02*
X103729363Y-73232049D01*
X103729363Y-73232049D02*
X103681744Y-73136811D01*
X103681744Y-73136811D02*
X103681744Y-72898716D01*
X103681744Y-72898716D02*
X103729363Y-72755859D01*
X103681744Y-72422525D02*
X104681744Y-72184430D01*
X104681744Y-72184430D02*
X103967458Y-71993954D01*
X103967458Y-71993954D02*
X104681744Y-71803478D01*
X104681744Y-71803478D02*
X103681744Y-71565383D01*
X103776982Y-71232049D02*
X103729363Y-71184430D01*
X103729363Y-71184430D02*
X103681744Y-71089192D01*
X103681744Y-71089192D02*
X103681744Y-70851097D01*
X103681744Y-70851097D02*
X103729363Y-70755859D01*
X103729363Y-70755859D02*
X103776982Y-70708240D01*
X103776982Y-70708240D02*
X103872220Y-70660621D01*
X103872220Y-70660621D02*
X103967458Y-70660621D01*
X103967458Y-70660621D02*
X104110315Y-70708240D01*
X104110315Y-70708240D02*
X104681744Y-71279668D01*
X104681744Y-71279668D02*
X104681744Y-70660621D01*
X107134125Y-73327287D02*
X107181744Y-73184430D01*
X107181744Y-73184430D02*
X107181744Y-72946335D01*
X107181744Y-72946335D02*
X107134125Y-72851097D01*
X107134125Y-72851097D02*
X107086505Y-72803478D01*
X107086505Y-72803478D02*
X106991267Y-72755859D01*
X106991267Y-72755859D02*
X106896029Y-72755859D01*
X106896029Y-72755859D02*
X106800791Y-72803478D01*
X106800791Y-72803478D02*
X106753172Y-72851097D01*
X106753172Y-72851097D02*
X106705553Y-72946335D01*
X106705553Y-72946335D02*
X106657934Y-73136811D01*
X106657934Y-73136811D02*
X106610315Y-73232049D01*
X106610315Y-73232049D02*
X106562696Y-73279668D01*
X106562696Y-73279668D02*
X106467458Y-73327287D01*
X106467458Y-73327287D02*
X106372220Y-73327287D01*
X106372220Y-73327287D02*
X106276982Y-73279668D01*
X106276982Y-73279668D02*
X106229363Y-73232049D01*
X106229363Y-73232049D02*
X106181744Y-73136811D01*
X106181744Y-73136811D02*
X106181744Y-72898716D01*
X106181744Y-72898716D02*
X106229363Y-72755859D01*
X106181744Y-72422525D02*
X107181744Y-72184430D01*
X107181744Y-72184430D02*
X106467458Y-71993954D01*
X106467458Y-71993954D02*
X107181744Y-71803478D01*
X107181744Y-71803478D02*
X106181744Y-71565383D01*
X106181744Y-71279668D02*
X106181744Y-70660621D01*
X106181744Y-70660621D02*
X106562696Y-70993954D01*
X106562696Y-70993954D02*
X106562696Y-70851097D01*
X106562696Y-70851097D02*
X106610315Y-70755859D01*
X106610315Y-70755859D02*
X106657934Y-70708240D01*
X106657934Y-70708240D02*
X106753172Y-70660621D01*
X106753172Y-70660621D02*
X106991267Y-70660621D01*
X106991267Y-70660621D02*
X107086505Y-70708240D01*
X107086505Y-70708240D02*
X107134125Y-70755859D01*
X107134125Y-70755859D02*
X107181744Y-70851097D01*
X107181744Y-70851097D02*
X107181744Y-71136811D01*
X107181744Y-71136811D02*
X107134125Y-71232049D01*
X107134125Y-71232049D02*
X107086505Y-71279668D01*
X109634125Y-73327287D02*
X109681744Y-73184430D01*
X109681744Y-73184430D02*
X109681744Y-72946335D01*
X109681744Y-72946335D02*
X109634125Y-72851097D01*
X109634125Y-72851097D02*
X109586505Y-72803478D01*
X109586505Y-72803478D02*
X109491267Y-72755859D01*
X109491267Y-72755859D02*
X109396029Y-72755859D01*
X109396029Y-72755859D02*
X109300791Y-72803478D01*
X109300791Y-72803478D02*
X109253172Y-72851097D01*
X109253172Y-72851097D02*
X109205553Y-72946335D01*
X109205553Y-72946335D02*
X109157934Y-73136811D01*
X109157934Y-73136811D02*
X109110315Y-73232049D01*
X109110315Y-73232049D02*
X109062696Y-73279668D01*
X109062696Y-73279668D02*
X108967458Y-73327287D01*
X108967458Y-73327287D02*
X108872220Y-73327287D01*
X108872220Y-73327287D02*
X108776982Y-73279668D01*
X108776982Y-73279668D02*
X108729363Y-73232049D01*
X108729363Y-73232049D02*
X108681744Y-73136811D01*
X108681744Y-73136811D02*
X108681744Y-72898716D01*
X108681744Y-72898716D02*
X108729363Y-72755859D01*
X108681744Y-72422525D02*
X109681744Y-72184430D01*
X109681744Y-72184430D02*
X108967458Y-71993954D01*
X108967458Y-71993954D02*
X109681744Y-71803478D01*
X109681744Y-71803478D02*
X108681744Y-71565383D01*
X109015077Y-70755859D02*
X109681744Y-70755859D01*
X108634125Y-70993954D02*
X109348410Y-71232049D01*
X109348410Y-71232049D02*
X109348410Y-70613002D01*
X111229363Y-72755859D02*
X111181744Y-72851097D01*
X111181744Y-72851097D02*
X111181744Y-72993954D01*
X111181744Y-72993954D02*
X111229363Y-73136811D01*
X111229363Y-73136811D02*
X111324601Y-73232049D01*
X111324601Y-73232049D02*
X111419839Y-73279668D01*
X111419839Y-73279668D02*
X111610315Y-73327287D01*
X111610315Y-73327287D02*
X111753172Y-73327287D01*
X111753172Y-73327287D02*
X111943648Y-73279668D01*
X111943648Y-73279668D02*
X112038886Y-73232049D01*
X112038886Y-73232049D02*
X112134125Y-73136811D01*
X112134125Y-73136811D02*
X112181744Y-72993954D01*
X112181744Y-72993954D02*
X112181744Y-72898716D01*
X112181744Y-72898716D02*
X112134125Y-72755859D01*
X112134125Y-72755859D02*
X112086505Y-72708240D01*
X112086505Y-72708240D02*
X111753172Y-72708240D01*
X111753172Y-72708240D02*
X111753172Y-72898716D01*
X112181744Y-72279668D02*
X111181744Y-72279668D01*
X111181744Y-72279668D02*
X112181744Y-71708240D01*
X112181744Y-71708240D02*
X111181744Y-71708240D01*
X112181744Y-71232049D02*
X111181744Y-71232049D01*
X111181744Y-71232049D02*
X111181744Y-70993954D01*
X111181744Y-70993954D02*
X111229363Y-70851097D01*
X111229363Y-70851097D02*
X111324601Y-70755859D01*
X111324601Y-70755859D02*
X111419839Y-70708240D01*
X111419839Y-70708240D02*
X111610315Y-70660621D01*
X111610315Y-70660621D02*
X111753172Y-70660621D01*
X111753172Y-70660621D02*
X111943648Y-70708240D01*
X111943648Y-70708240D02*
X112038886Y-70755859D01*
X112038886Y-70755859D02*
X112134125Y-70851097D01*
X112134125Y-70851097D02*
X112181744Y-70993954D01*
X112181744Y-70993954D02*
X112181744Y-71232049D01*
X154757934Y-72768954D02*
X154805553Y-72626097D01*
X154805553Y-72626097D02*
X154853172Y-72578478D01*
X154853172Y-72578478D02*
X154948410Y-72530859D01*
X154948410Y-72530859D02*
X155091267Y-72530859D01*
X155091267Y-72530859D02*
X155186505Y-72578478D01*
X155186505Y-72578478D02*
X155234125Y-72626097D01*
X155234125Y-72626097D02*
X155281744Y-72721335D01*
X155281744Y-72721335D02*
X155281744Y-73102287D01*
X155281744Y-73102287D02*
X154281744Y-73102287D01*
X154281744Y-73102287D02*
X154281744Y-72768954D01*
X154281744Y-72768954D02*
X154329363Y-72673716D01*
X154329363Y-72673716D02*
X154376982Y-72626097D01*
X154376982Y-72626097D02*
X154472220Y-72578478D01*
X154472220Y-72578478D02*
X154567458Y-72578478D01*
X154567458Y-72578478D02*
X154662696Y-72626097D01*
X154662696Y-72626097D02*
X154710315Y-72673716D01*
X154710315Y-72673716D02*
X154757934Y-72768954D01*
X154757934Y-72768954D02*
X154757934Y-73102287D01*
X157496029Y-73117763D02*
X157496029Y-72641573D01*
X157781744Y-73213001D02*
X156781744Y-72879668D01*
X156781744Y-72879668D02*
X157781744Y-72546335D01*
X160234125Y-73079668D02*
X160281744Y-72936811D01*
X160281744Y-72936811D02*
X160281744Y-72698716D01*
X160281744Y-72698716D02*
X160234125Y-72603478D01*
X160234125Y-72603478D02*
X160186505Y-72555859D01*
X160186505Y-72555859D02*
X160091267Y-72508240D01*
X160091267Y-72508240D02*
X159996029Y-72508240D01*
X159996029Y-72508240D02*
X159900791Y-72555859D01*
X159900791Y-72555859D02*
X159853172Y-72603478D01*
X159853172Y-72603478D02*
X159805553Y-72698716D01*
X159805553Y-72698716D02*
X159757934Y-72889192D01*
X159757934Y-72889192D02*
X159710315Y-72984430D01*
X159710315Y-72984430D02*
X159662696Y-73032049D01*
X159662696Y-73032049D02*
X159567458Y-73079668D01*
X159567458Y-73079668D02*
X159472220Y-73079668D01*
X159472220Y-73079668D02*
X159376982Y-73032049D01*
X159376982Y-73032049D02*
X159329363Y-72984430D01*
X159329363Y-72984430D02*
X159281744Y-72889192D01*
X159281744Y-72889192D02*
X159281744Y-72651097D01*
X159281744Y-72651097D02*
X159329363Y-72508240D01*
X159281744Y-72174906D02*
X160281744Y-71936811D01*
X160281744Y-71936811D02*
X159567458Y-71746335D01*
X159567458Y-71746335D02*
X160281744Y-71555859D01*
X160281744Y-71555859D02*
X159281744Y-71317764D01*
X161918738Y-72555859D02*
X161871119Y-72651097D01*
X161871119Y-72651097D02*
X161871119Y-72793954D01*
X161871119Y-72793954D02*
X161918738Y-72936811D01*
X161918738Y-72936811D02*
X162013976Y-73032049D01*
X162013976Y-73032049D02*
X162109214Y-73079668D01*
X162109214Y-73079668D02*
X162299690Y-73127287D01*
X162299690Y-73127287D02*
X162442547Y-73127287D01*
X162442547Y-73127287D02*
X162633023Y-73079668D01*
X162633023Y-73079668D02*
X162728261Y-73032049D01*
X162728261Y-73032049D02*
X162823500Y-72936811D01*
X162823500Y-72936811D02*
X162871119Y-72793954D01*
X162871119Y-72793954D02*
X162871119Y-72698716D01*
X162871119Y-72698716D02*
X162823500Y-72555859D01*
X162823500Y-72555859D02*
X162775880Y-72508240D01*
X162775880Y-72508240D02*
X162442547Y-72508240D01*
X162442547Y-72508240D02*
X162442547Y-72698716D01*
X162871119Y-72079668D02*
X161871119Y-72079668D01*
X161871119Y-72079668D02*
X162871119Y-71508240D01*
X162871119Y-71508240D02*
X161871119Y-71508240D01*
X162871119Y-71032049D02*
X161871119Y-71032049D01*
X161871119Y-71032049D02*
X161871119Y-70793954D01*
X161871119Y-70793954D02*
X161918738Y-70651097D01*
X161918738Y-70651097D02*
X162013976Y-70555859D01*
X162013976Y-70555859D02*
X162109214Y-70508240D01*
X162109214Y-70508240D02*
X162299690Y-70460621D01*
X162299690Y-70460621D02*
X162442547Y-70460621D01*
X162442547Y-70460621D02*
X162633023Y-70508240D01*
X162633023Y-70508240D02*
X162728261Y-70555859D01*
X162728261Y-70555859D02*
X162823500Y-70651097D01*
X162823500Y-70651097D02*
X162871119Y-70793954D01*
X162871119Y-70793954D02*
X162871119Y-71032049D01*
X215434125Y-73327287D02*
X215481744Y-73184430D01*
X215481744Y-73184430D02*
X215481744Y-72946335D01*
X215481744Y-72946335D02*
X215434125Y-72851097D01*
X215434125Y-72851097D02*
X215386505Y-72803478D01*
X215386505Y-72803478D02*
X215291267Y-72755859D01*
X215291267Y-72755859D02*
X215196029Y-72755859D01*
X215196029Y-72755859D02*
X215100791Y-72803478D01*
X215100791Y-72803478D02*
X215053172Y-72851097D01*
X215053172Y-72851097D02*
X215005553Y-72946335D01*
X215005553Y-72946335D02*
X214957934Y-73136811D01*
X214957934Y-73136811D02*
X214910315Y-73232049D01*
X214910315Y-73232049D02*
X214862696Y-73279668D01*
X214862696Y-73279668D02*
X214767458Y-73327287D01*
X214767458Y-73327287D02*
X214672220Y-73327287D01*
X214672220Y-73327287D02*
X214576982Y-73279668D01*
X214576982Y-73279668D02*
X214529363Y-73232049D01*
X214529363Y-73232049D02*
X214481744Y-73136811D01*
X214481744Y-73136811D02*
X214481744Y-72898716D01*
X214481744Y-72898716D02*
X214529363Y-72755859D01*
X214481744Y-72422525D02*
X215481744Y-72184430D01*
X215481744Y-72184430D02*
X214767458Y-71993954D01*
X214767458Y-71993954D02*
X215481744Y-71803478D01*
X215481744Y-71803478D02*
X214481744Y-71565383D01*
X214481744Y-70708240D02*
X214481744Y-71184430D01*
X214481744Y-71184430D02*
X214957934Y-71232049D01*
X214957934Y-71232049D02*
X214910315Y-71184430D01*
X214910315Y-71184430D02*
X214862696Y-71089192D01*
X214862696Y-71089192D02*
X214862696Y-70851097D01*
X214862696Y-70851097D02*
X214910315Y-70755859D01*
X214910315Y-70755859D02*
X214957934Y-70708240D01*
X214957934Y-70708240D02*
X215053172Y-70660621D01*
X215053172Y-70660621D02*
X215291267Y-70660621D01*
X215291267Y-70660621D02*
X215386505Y-70708240D01*
X215386505Y-70708240D02*
X215434125Y-70755859D01*
X215434125Y-70755859D02*
X215481744Y-70851097D01*
X215481744Y-70851097D02*
X215481744Y-71089192D01*
X215481744Y-71089192D02*
X215434125Y-71184430D01*
X215434125Y-71184430D02*
X215386505Y-71232049D01*
X217934125Y-73327287D02*
X217981744Y-73184430D01*
X217981744Y-73184430D02*
X217981744Y-72946335D01*
X217981744Y-72946335D02*
X217934125Y-72851097D01*
X217934125Y-72851097D02*
X217886505Y-72803478D01*
X217886505Y-72803478D02*
X217791267Y-72755859D01*
X217791267Y-72755859D02*
X217696029Y-72755859D01*
X217696029Y-72755859D02*
X217600791Y-72803478D01*
X217600791Y-72803478D02*
X217553172Y-72851097D01*
X217553172Y-72851097D02*
X217505553Y-72946335D01*
X217505553Y-72946335D02*
X217457934Y-73136811D01*
X217457934Y-73136811D02*
X217410315Y-73232049D01*
X217410315Y-73232049D02*
X217362696Y-73279668D01*
X217362696Y-73279668D02*
X217267458Y-73327287D01*
X217267458Y-73327287D02*
X217172220Y-73327287D01*
X217172220Y-73327287D02*
X217076982Y-73279668D01*
X217076982Y-73279668D02*
X217029363Y-73232049D01*
X217029363Y-73232049D02*
X216981744Y-73136811D01*
X216981744Y-73136811D02*
X216981744Y-72898716D01*
X216981744Y-72898716D02*
X217029363Y-72755859D01*
X216981744Y-72422525D02*
X217981744Y-72184430D01*
X217981744Y-72184430D02*
X217267458Y-71993954D01*
X217267458Y-71993954D02*
X217981744Y-71803478D01*
X217981744Y-71803478D02*
X216981744Y-71565383D01*
X216981744Y-70755859D02*
X216981744Y-70946335D01*
X216981744Y-70946335D02*
X217029363Y-71041573D01*
X217029363Y-71041573D02*
X217076982Y-71089192D01*
X217076982Y-71089192D02*
X217219839Y-71184430D01*
X217219839Y-71184430D02*
X217410315Y-71232049D01*
X217410315Y-71232049D02*
X217791267Y-71232049D01*
X217791267Y-71232049D02*
X217886505Y-71184430D01*
X217886505Y-71184430D02*
X217934125Y-71136811D01*
X217934125Y-71136811D02*
X217981744Y-71041573D01*
X217981744Y-71041573D02*
X217981744Y-70851097D01*
X217981744Y-70851097D02*
X217934125Y-70755859D01*
X217934125Y-70755859D02*
X217886505Y-70708240D01*
X217886505Y-70708240D02*
X217791267Y-70660621D01*
X217791267Y-70660621D02*
X217553172Y-70660621D01*
X217553172Y-70660621D02*
X217457934Y-70708240D01*
X217457934Y-70708240D02*
X217410315Y-70755859D01*
X217410315Y-70755859D02*
X217362696Y-70851097D01*
X217362696Y-70851097D02*
X217362696Y-71041573D01*
X217362696Y-71041573D02*
X217410315Y-71136811D01*
X217410315Y-71136811D02*
X217457934Y-71184430D01*
X217457934Y-71184430D02*
X217553172Y-71232049D01*
X220434125Y-73327287D02*
X220481744Y-73184430D01*
X220481744Y-73184430D02*
X220481744Y-72946335D01*
X220481744Y-72946335D02*
X220434125Y-72851097D01*
X220434125Y-72851097D02*
X220386505Y-72803478D01*
X220386505Y-72803478D02*
X220291267Y-72755859D01*
X220291267Y-72755859D02*
X220196029Y-72755859D01*
X220196029Y-72755859D02*
X220100791Y-72803478D01*
X220100791Y-72803478D02*
X220053172Y-72851097D01*
X220053172Y-72851097D02*
X220005553Y-72946335D01*
X220005553Y-72946335D02*
X219957934Y-73136811D01*
X219957934Y-73136811D02*
X219910315Y-73232049D01*
X219910315Y-73232049D02*
X219862696Y-73279668D01*
X219862696Y-73279668D02*
X219767458Y-73327287D01*
X219767458Y-73327287D02*
X219672220Y-73327287D01*
X219672220Y-73327287D02*
X219576982Y-73279668D01*
X219576982Y-73279668D02*
X219529363Y-73232049D01*
X219529363Y-73232049D02*
X219481744Y-73136811D01*
X219481744Y-73136811D02*
X219481744Y-72898716D01*
X219481744Y-72898716D02*
X219529363Y-72755859D01*
X219481744Y-72422525D02*
X220481744Y-72184430D01*
X220481744Y-72184430D02*
X219767458Y-71993954D01*
X219767458Y-71993954D02*
X220481744Y-71803478D01*
X220481744Y-71803478D02*
X219481744Y-71565383D01*
X219481744Y-71279668D02*
X219481744Y-70613002D01*
X219481744Y-70613002D02*
X220481744Y-71041573D01*
X222934125Y-73327287D02*
X222981744Y-73184430D01*
X222981744Y-73184430D02*
X222981744Y-72946335D01*
X222981744Y-72946335D02*
X222934125Y-72851097D01*
X222934125Y-72851097D02*
X222886505Y-72803478D01*
X222886505Y-72803478D02*
X222791267Y-72755859D01*
X222791267Y-72755859D02*
X222696029Y-72755859D01*
X222696029Y-72755859D02*
X222600791Y-72803478D01*
X222600791Y-72803478D02*
X222553172Y-72851097D01*
X222553172Y-72851097D02*
X222505553Y-72946335D01*
X222505553Y-72946335D02*
X222457934Y-73136811D01*
X222457934Y-73136811D02*
X222410315Y-73232049D01*
X222410315Y-73232049D02*
X222362696Y-73279668D01*
X222362696Y-73279668D02*
X222267458Y-73327287D01*
X222267458Y-73327287D02*
X222172220Y-73327287D01*
X222172220Y-73327287D02*
X222076982Y-73279668D01*
X222076982Y-73279668D02*
X222029363Y-73232049D01*
X222029363Y-73232049D02*
X221981744Y-73136811D01*
X221981744Y-73136811D02*
X221981744Y-72898716D01*
X221981744Y-72898716D02*
X222029363Y-72755859D01*
X221981744Y-72422525D02*
X222981744Y-72184430D01*
X222981744Y-72184430D02*
X222267458Y-71993954D01*
X222267458Y-71993954D02*
X222981744Y-71803478D01*
X222981744Y-71803478D02*
X221981744Y-71565383D01*
X222410315Y-71041573D02*
X222362696Y-71136811D01*
X222362696Y-71136811D02*
X222315077Y-71184430D01*
X222315077Y-71184430D02*
X222219839Y-71232049D01*
X222219839Y-71232049D02*
X222172220Y-71232049D01*
X222172220Y-71232049D02*
X222076982Y-71184430D01*
X222076982Y-71184430D02*
X222029363Y-71136811D01*
X222029363Y-71136811D02*
X221981744Y-71041573D01*
X221981744Y-71041573D02*
X221981744Y-70851097D01*
X221981744Y-70851097D02*
X222029363Y-70755859D01*
X222029363Y-70755859D02*
X222076982Y-70708240D01*
X222076982Y-70708240D02*
X222172220Y-70660621D01*
X222172220Y-70660621D02*
X222219839Y-70660621D01*
X222219839Y-70660621D02*
X222315077Y-70708240D01*
X222315077Y-70708240D02*
X222362696Y-70755859D01*
X222362696Y-70755859D02*
X222410315Y-70851097D01*
X222410315Y-70851097D02*
X222410315Y-71041573D01*
X222410315Y-71041573D02*
X222457934Y-71136811D01*
X222457934Y-71136811D02*
X222505553Y-71184430D01*
X222505553Y-71184430D02*
X222600791Y-71232049D01*
X222600791Y-71232049D02*
X222791267Y-71232049D01*
X222791267Y-71232049D02*
X222886505Y-71184430D01*
X222886505Y-71184430D02*
X222934125Y-71136811D01*
X222934125Y-71136811D02*
X222981744Y-71041573D01*
X222981744Y-71041573D02*
X222981744Y-70851097D01*
X222981744Y-70851097D02*
X222934125Y-70755859D01*
X222934125Y-70755859D02*
X222886505Y-70708240D01*
X222886505Y-70708240D02*
X222791267Y-70660621D01*
X222791267Y-70660621D02*
X222600791Y-70660621D01*
X222600791Y-70660621D02*
X222505553Y-70708240D01*
X222505553Y-70708240D02*
X222457934Y-70755859D01*
X222457934Y-70755859D02*
X222410315Y-70851097D01*
X224529363Y-72755859D02*
X224481744Y-72851097D01*
X224481744Y-72851097D02*
X224481744Y-72993954D01*
X224481744Y-72993954D02*
X224529363Y-73136811D01*
X224529363Y-73136811D02*
X224624601Y-73232049D01*
X224624601Y-73232049D02*
X224719839Y-73279668D01*
X224719839Y-73279668D02*
X224910315Y-73327287D01*
X224910315Y-73327287D02*
X225053172Y-73327287D01*
X225053172Y-73327287D02*
X225243648Y-73279668D01*
X225243648Y-73279668D02*
X225338886Y-73232049D01*
X225338886Y-73232049D02*
X225434125Y-73136811D01*
X225434125Y-73136811D02*
X225481744Y-72993954D01*
X225481744Y-72993954D02*
X225481744Y-72898716D01*
X225481744Y-72898716D02*
X225434125Y-72755859D01*
X225434125Y-72755859D02*
X225386505Y-72708240D01*
X225386505Y-72708240D02*
X225053172Y-72708240D01*
X225053172Y-72708240D02*
X225053172Y-72898716D01*
X225481744Y-72279668D02*
X224481744Y-72279668D01*
X224481744Y-72279668D02*
X225481744Y-71708240D01*
X225481744Y-71708240D02*
X224481744Y-71708240D01*
X225481744Y-71232049D02*
X224481744Y-71232049D01*
X224481744Y-71232049D02*
X224481744Y-70993954D01*
X224481744Y-70993954D02*
X224529363Y-70851097D01*
X224529363Y-70851097D02*
X224624601Y-70755859D01*
X224624601Y-70755859D02*
X224719839Y-70708240D01*
X224719839Y-70708240D02*
X224910315Y-70660621D01*
X224910315Y-70660621D02*
X225053172Y-70660621D01*
X225053172Y-70660621D02*
X225243648Y-70708240D01*
X225243648Y-70708240D02*
X225338886Y-70755859D01*
X225338886Y-70755859D02*
X225434125Y-70851097D01*
X225434125Y-70851097D02*
X225481744Y-70993954D01*
X225481744Y-70993954D02*
X225481744Y-71232049D01*
D11*
X230361450Y-71867869D02*
X230361450Y-70867869D01*
X230361450Y-70867869D02*
X230599545Y-70867869D01*
X230599545Y-70867869D02*
X230742402Y-70915488D01*
X230742402Y-70915488D02*
X230837640Y-71010726D01*
X230837640Y-71010726D02*
X230885259Y-71105964D01*
X230885259Y-71105964D02*
X230932878Y-71296440D01*
X230932878Y-71296440D02*
X230932878Y-71439297D01*
X230932878Y-71439297D02*
X230885259Y-71629773D01*
X230885259Y-71629773D02*
X230837640Y-71725011D01*
X230837640Y-71725011D02*
X230742402Y-71820250D01*
X230742402Y-71820250D02*
X230599545Y-71867869D01*
X230599545Y-71867869D02*
X230361450Y-71867869D01*
X231742402Y-71820250D02*
X231647164Y-71867869D01*
X231647164Y-71867869D02*
X231456688Y-71867869D01*
X231456688Y-71867869D02*
X231361450Y-71820250D01*
X231361450Y-71820250D02*
X231313831Y-71725011D01*
X231313831Y-71725011D02*
X231313831Y-71344059D01*
X231313831Y-71344059D02*
X231361450Y-71248821D01*
X231361450Y-71248821D02*
X231456688Y-71201202D01*
X231456688Y-71201202D02*
X231647164Y-71201202D01*
X231647164Y-71201202D02*
X231742402Y-71248821D01*
X231742402Y-71248821D02*
X231790021Y-71344059D01*
X231790021Y-71344059D02*
X231790021Y-71439297D01*
X231790021Y-71439297D02*
X231313831Y-71534535D01*
X232170974Y-71820250D02*
X232266212Y-71867869D01*
X232266212Y-71867869D02*
X232456688Y-71867869D01*
X232456688Y-71867869D02*
X232551926Y-71820250D01*
X232551926Y-71820250D02*
X232599545Y-71725011D01*
X232599545Y-71725011D02*
X232599545Y-71677392D01*
X232599545Y-71677392D02*
X232551926Y-71582154D01*
X232551926Y-71582154D02*
X232456688Y-71534535D01*
X232456688Y-71534535D02*
X232313831Y-71534535D01*
X232313831Y-71534535D02*
X232218593Y-71486916D01*
X232218593Y-71486916D02*
X232170974Y-71391678D01*
X232170974Y-71391678D02*
X232170974Y-71344059D01*
X232170974Y-71344059D02*
X232218593Y-71248821D01*
X232218593Y-71248821D02*
X232313831Y-71201202D01*
X232313831Y-71201202D02*
X232456688Y-71201202D01*
X232456688Y-71201202D02*
X232551926Y-71248821D01*
X233028117Y-71867869D02*
X233028117Y-71201202D01*
X233028117Y-70867869D02*
X232980498Y-70915488D01*
X232980498Y-70915488D02*
X233028117Y-70963107D01*
X233028117Y-70963107D02*
X233075736Y-70915488D01*
X233075736Y-70915488D02*
X233028117Y-70867869D01*
X233028117Y-70867869D02*
X233028117Y-70963107D01*
X233932878Y-71201202D02*
X233932878Y-72010726D01*
X233932878Y-72010726D02*
X233885259Y-72105964D01*
X233885259Y-72105964D02*
X233837640Y-72153583D01*
X233837640Y-72153583D02*
X233742402Y-72201202D01*
X233742402Y-72201202D02*
X233599545Y-72201202D01*
X233599545Y-72201202D02*
X233504307Y-72153583D01*
X233932878Y-71820250D02*
X233837640Y-71867869D01*
X233837640Y-71867869D02*
X233647164Y-71867869D01*
X233647164Y-71867869D02*
X233551926Y-71820250D01*
X233551926Y-71820250D02*
X233504307Y-71772630D01*
X233504307Y-71772630D02*
X233456688Y-71677392D01*
X233456688Y-71677392D02*
X233456688Y-71391678D01*
X233456688Y-71391678D02*
X233504307Y-71296440D01*
X233504307Y-71296440D02*
X233551926Y-71248821D01*
X233551926Y-71248821D02*
X233647164Y-71201202D01*
X233647164Y-71201202D02*
X233837640Y-71201202D01*
X233837640Y-71201202D02*
X233932878Y-71248821D01*
X234409069Y-71201202D02*
X234409069Y-71867869D01*
X234409069Y-71296440D02*
X234456688Y-71248821D01*
X234456688Y-71248821D02*
X234551926Y-71201202D01*
X234551926Y-71201202D02*
X234694783Y-71201202D01*
X234694783Y-71201202D02*
X234790021Y-71248821D01*
X234790021Y-71248821D02*
X234837640Y-71344059D01*
X234837640Y-71344059D02*
X234837640Y-71867869D01*
X235694783Y-71820250D02*
X235599545Y-71867869D01*
X235599545Y-71867869D02*
X235409069Y-71867869D01*
X235409069Y-71867869D02*
X235313831Y-71820250D01*
X235313831Y-71820250D02*
X235266212Y-71725011D01*
X235266212Y-71725011D02*
X235266212Y-71344059D01*
X235266212Y-71344059D02*
X235313831Y-71248821D01*
X235313831Y-71248821D02*
X235409069Y-71201202D01*
X235409069Y-71201202D02*
X235599545Y-71201202D01*
X235599545Y-71201202D02*
X235694783Y-71248821D01*
X235694783Y-71248821D02*
X235742402Y-71344059D01*
X235742402Y-71344059D02*
X235742402Y-71439297D01*
X235742402Y-71439297D02*
X235266212Y-71534535D01*
X236599545Y-71867869D02*
X236599545Y-70867869D01*
X236599545Y-71820250D02*
X236504307Y-71867869D01*
X236504307Y-71867869D02*
X236313831Y-71867869D01*
X236313831Y-71867869D02*
X236218593Y-71820250D01*
X236218593Y-71820250D02*
X236170974Y-71772630D01*
X236170974Y-71772630D02*
X236123355Y-71677392D01*
X236123355Y-71677392D02*
X236123355Y-71391678D01*
X236123355Y-71391678D02*
X236170974Y-71296440D01*
X236170974Y-71296440D02*
X236218593Y-71248821D01*
X236218593Y-71248821D02*
X236313831Y-71201202D01*
X236313831Y-71201202D02*
X236504307Y-71201202D01*
X236504307Y-71201202D02*
X236599545Y-71248821D01*
X237837641Y-71867869D02*
X237837641Y-70867869D01*
X237837641Y-71248821D02*
X237932879Y-71201202D01*
X237932879Y-71201202D02*
X238123355Y-71201202D01*
X238123355Y-71201202D02*
X238218593Y-71248821D01*
X238218593Y-71248821D02*
X238266212Y-71296440D01*
X238266212Y-71296440D02*
X238313831Y-71391678D01*
X238313831Y-71391678D02*
X238313831Y-71677392D01*
X238313831Y-71677392D02*
X238266212Y-71772630D01*
X238266212Y-71772630D02*
X238218593Y-71820250D01*
X238218593Y-71820250D02*
X238123355Y-71867869D01*
X238123355Y-71867869D02*
X237932879Y-71867869D01*
X237932879Y-71867869D02*
X237837641Y-71820250D01*
X238647165Y-71201202D02*
X238885260Y-71867869D01*
X239123355Y-71201202D02*
X238885260Y-71867869D01*
X238885260Y-71867869D02*
X238790022Y-72105964D01*
X238790022Y-72105964D02*
X238742403Y-72153583D01*
X238742403Y-72153583D02*
X238647165Y-72201202D01*
X240694784Y-71201202D02*
X240694784Y-72010726D01*
X240694784Y-72010726D02*
X240647165Y-72105964D01*
X240647165Y-72105964D02*
X240599546Y-72153583D01*
X240599546Y-72153583D02*
X240504308Y-72201202D01*
X240504308Y-72201202D02*
X240361451Y-72201202D01*
X240361451Y-72201202D02*
X240266213Y-72153583D01*
X240694784Y-71820250D02*
X240599546Y-71867869D01*
X240599546Y-71867869D02*
X240409070Y-71867869D01*
X240409070Y-71867869D02*
X240313832Y-71820250D01*
X240313832Y-71820250D02*
X240266213Y-71772630D01*
X240266213Y-71772630D02*
X240218594Y-71677392D01*
X240218594Y-71677392D02*
X240218594Y-71391678D01*
X240218594Y-71391678D02*
X240266213Y-71296440D01*
X240266213Y-71296440D02*
X240313832Y-71248821D01*
X240313832Y-71248821D02*
X240409070Y-71201202D01*
X240409070Y-71201202D02*
X240599546Y-71201202D01*
X240599546Y-71201202D02*
X240694784Y-71248821D01*
X241170975Y-71867869D02*
X241170975Y-71201202D01*
X241170975Y-70867869D02*
X241123356Y-70915488D01*
X241123356Y-70915488D02*
X241170975Y-70963107D01*
X241170975Y-70963107D02*
X241218594Y-70915488D01*
X241218594Y-70915488D02*
X241170975Y-70867869D01*
X241170975Y-70867869D02*
X241170975Y-70963107D01*
X241504308Y-71201202D02*
X241885260Y-71201202D01*
X241647165Y-70867869D02*
X241647165Y-71725011D01*
X241647165Y-71725011D02*
X241694784Y-71820250D01*
X241694784Y-71820250D02*
X241790022Y-71867869D01*
X241790022Y-71867869D02*
X241885260Y-71867869D01*
X242218594Y-71867869D02*
X242218594Y-70867869D01*
X242647165Y-71867869D02*
X242647165Y-71344059D01*
X242647165Y-71344059D02*
X242599546Y-71248821D01*
X242599546Y-71248821D02*
X242504308Y-71201202D01*
X242504308Y-71201202D02*
X242361451Y-71201202D01*
X242361451Y-71201202D02*
X242266213Y-71248821D01*
X242266213Y-71248821D02*
X242218594Y-71296440D01*
X243551927Y-71201202D02*
X243551927Y-71867869D01*
X243123356Y-71201202D02*
X243123356Y-71725011D01*
X243123356Y-71725011D02*
X243170975Y-71820250D01*
X243170975Y-71820250D02*
X243266213Y-71867869D01*
X243266213Y-71867869D02*
X243409070Y-71867869D01*
X243409070Y-71867869D02*
X243504308Y-71820250D01*
X243504308Y-71820250D02*
X243551927Y-71772630D01*
X244028118Y-71867869D02*
X244028118Y-70867869D01*
X244028118Y-71248821D02*
X244123356Y-71201202D01*
X244123356Y-71201202D02*
X244313832Y-71201202D01*
X244313832Y-71201202D02*
X244409070Y-71248821D01*
X244409070Y-71248821D02*
X244456689Y-71296440D01*
X244456689Y-71296440D02*
X244504308Y-71391678D01*
X244504308Y-71391678D02*
X244504308Y-71677392D01*
X244504308Y-71677392D02*
X244456689Y-71772630D01*
X244456689Y-71772630D02*
X244409070Y-71820250D01*
X244409070Y-71820250D02*
X244313832Y-71867869D01*
X244313832Y-71867869D02*
X244123356Y-71867869D01*
X244123356Y-71867869D02*
X244028118Y-71820250D01*
X244932880Y-71772630D02*
X244980499Y-71820250D01*
X244980499Y-71820250D02*
X244932880Y-71867869D01*
X244932880Y-71867869D02*
X244885261Y-71820250D01*
X244885261Y-71820250D02*
X244932880Y-71772630D01*
X244932880Y-71772630D02*
X244932880Y-71867869D01*
X245837641Y-71820250D02*
X245742403Y-71867869D01*
X245742403Y-71867869D02*
X245551927Y-71867869D01*
X245551927Y-71867869D02*
X245456689Y-71820250D01*
X245456689Y-71820250D02*
X245409070Y-71772630D01*
X245409070Y-71772630D02*
X245361451Y-71677392D01*
X245361451Y-71677392D02*
X245361451Y-71391678D01*
X245361451Y-71391678D02*
X245409070Y-71296440D01*
X245409070Y-71296440D02*
X245456689Y-71248821D01*
X245456689Y-71248821D02*
X245551927Y-71201202D01*
X245551927Y-71201202D02*
X245742403Y-71201202D01*
X245742403Y-71201202D02*
X245837641Y-71248821D01*
X246409070Y-71867869D02*
X246313832Y-71820250D01*
X246313832Y-71820250D02*
X246266213Y-71772630D01*
X246266213Y-71772630D02*
X246218594Y-71677392D01*
X246218594Y-71677392D02*
X246218594Y-71391678D01*
X246218594Y-71391678D02*
X246266213Y-71296440D01*
X246266213Y-71296440D02*
X246313832Y-71248821D01*
X246313832Y-71248821D02*
X246409070Y-71201202D01*
X246409070Y-71201202D02*
X246551927Y-71201202D01*
X246551927Y-71201202D02*
X246647165Y-71248821D01*
X246647165Y-71248821D02*
X246694784Y-71296440D01*
X246694784Y-71296440D02*
X246742403Y-71391678D01*
X246742403Y-71391678D02*
X246742403Y-71677392D01*
X246742403Y-71677392D02*
X246694784Y-71772630D01*
X246694784Y-71772630D02*
X246647165Y-71820250D01*
X246647165Y-71820250D02*
X246551927Y-71867869D01*
X246551927Y-71867869D02*
X246409070Y-71867869D01*
X247170975Y-71867869D02*
X247170975Y-71201202D01*
X247170975Y-71296440D02*
X247218594Y-71248821D01*
X247218594Y-71248821D02*
X247313832Y-71201202D01*
X247313832Y-71201202D02*
X247456689Y-71201202D01*
X247456689Y-71201202D02*
X247551927Y-71248821D01*
X247551927Y-71248821D02*
X247599546Y-71344059D01*
X247599546Y-71344059D02*
X247599546Y-71867869D01*
X247599546Y-71344059D02*
X247647165Y-71248821D01*
X247647165Y-71248821D02*
X247742403Y-71201202D01*
X247742403Y-71201202D02*
X247885260Y-71201202D01*
X247885260Y-71201202D02*
X247980499Y-71248821D01*
X247980499Y-71248821D02*
X248028118Y-71344059D01*
X248028118Y-71344059D02*
X248028118Y-71867869D01*
X249218593Y-70820250D02*
X248361451Y-72105964D01*
X249551927Y-71867869D02*
X249551927Y-70867869D01*
X249551927Y-70867869D02*
X249885260Y-71582154D01*
X249885260Y-71582154D02*
X250218593Y-70867869D01*
X250218593Y-70867869D02*
X250218593Y-71867869D01*
X250694784Y-71867869D02*
X250694784Y-71201202D01*
X250694784Y-70867869D02*
X250647165Y-70915488D01*
X250647165Y-70915488D02*
X250694784Y-70963107D01*
X250694784Y-70963107D02*
X250742403Y-70915488D01*
X250742403Y-70915488D02*
X250694784Y-70867869D01*
X250694784Y-70867869D02*
X250694784Y-70963107D01*
X251170974Y-71867869D02*
X251170974Y-71201202D01*
X251170974Y-71391678D02*
X251218593Y-71296440D01*
X251218593Y-71296440D02*
X251266212Y-71248821D01*
X251266212Y-71248821D02*
X251361450Y-71201202D01*
X251361450Y-71201202D02*
X251456688Y-71201202D01*
X252218593Y-71820250D02*
X252123355Y-71867869D01*
X252123355Y-71867869D02*
X251932879Y-71867869D01*
X251932879Y-71867869D02*
X251837641Y-71820250D01*
X251837641Y-71820250D02*
X251790022Y-71772630D01*
X251790022Y-71772630D02*
X251742403Y-71677392D01*
X251742403Y-71677392D02*
X251742403Y-71391678D01*
X251742403Y-71391678D02*
X251790022Y-71296440D01*
X251790022Y-71296440D02*
X251837641Y-71248821D01*
X251837641Y-71248821D02*
X251932879Y-71201202D01*
X251932879Y-71201202D02*
X252123355Y-71201202D01*
X252123355Y-71201202D02*
X252218593Y-71248821D01*
X253075736Y-71867869D02*
X253075736Y-71344059D01*
X253075736Y-71344059D02*
X253028117Y-71248821D01*
X253028117Y-71248821D02*
X252932879Y-71201202D01*
X252932879Y-71201202D02*
X252742403Y-71201202D01*
X252742403Y-71201202D02*
X252647165Y-71248821D01*
X253075736Y-71820250D02*
X252980498Y-71867869D01*
X252980498Y-71867869D02*
X252742403Y-71867869D01*
X252742403Y-71867869D02*
X252647165Y-71820250D01*
X252647165Y-71820250D02*
X252599546Y-71725011D01*
X252599546Y-71725011D02*
X252599546Y-71629773D01*
X252599546Y-71629773D02*
X252647165Y-71534535D01*
X252647165Y-71534535D02*
X252742403Y-71486916D01*
X252742403Y-71486916D02*
X252980498Y-71486916D01*
X252980498Y-71486916D02*
X253075736Y-71439297D01*
X253504308Y-71820250D02*
X253599546Y-71867869D01*
X253599546Y-71867869D02*
X253790022Y-71867869D01*
X253790022Y-71867869D02*
X253885260Y-71820250D01*
X253885260Y-71820250D02*
X253932879Y-71725011D01*
X253932879Y-71725011D02*
X253932879Y-71677392D01*
X253932879Y-71677392D02*
X253885260Y-71582154D01*
X253885260Y-71582154D02*
X253790022Y-71534535D01*
X253790022Y-71534535D02*
X253647165Y-71534535D01*
X253647165Y-71534535D02*
X253551927Y-71486916D01*
X253551927Y-71486916D02*
X253504308Y-71391678D01*
X253504308Y-71391678D02*
X253504308Y-71344059D01*
X253504308Y-71344059D02*
X253551927Y-71248821D01*
X253551927Y-71248821D02*
X253647165Y-71201202D01*
X253647165Y-71201202D02*
X253790022Y-71201202D01*
X253790022Y-71201202D02*
X253885260Y-71248821D01*
X254551927Y-70867869D02*
X254647165Y-70867869D01*
X254647165Y-70867869D02*
X254742403Y-70915488D01*
X254742403Y-70915488D02*
X254790022Y-70963107D01*
X254790022Y-70963107D02*
X254837641Y-71058345D01*
X254837641Y-71058345D02*
X254885260Y-71248821D01*
X254885260Y-71248821D02*
X254885260Y-71486916D01*
X254885260Y-71486916D02*
X254837641Y-71677392D01*
X254837641Y-71677392D02*
X254790022Y-71772630D01*
X254790022Y-71772630D02*
X254742403Y-71820250D01*
X254742403Y-71820250D02*
X254647165Y-71867869D01*
X254647165Y-71867869D02*
X254551927Y-71867869D01*
X254551927Y-71867869D02*
X254456689Y-71820250D01*
X254456689Y-71820250D02*
X254409070Y-71772630D01*
X254409070Y-71772630D02*
X254361451Y-71677392D01*
X254361451Y-71677392D02*
X254313832Y-71486916D01*
X254313832Y-71486916D02*
X254313832Y-71248821D01*
X254313832Y-71248821D02*
X254361451Y-71058345D01*
X254361451Y-71058345D02*
X254409070Y-70963107D01*
X254409070Y-70963107D02*
X254456689Y-70915488D01*
X254456689Y-70915488D02*
X254551927Y-70867869D01*
X255504308Y-70867869D02*
X255599546Y-70867869D01*
X255599546Y-70867869D02*
X255694784Y-70915488D01*
X255694784Y-70915488D02*
X255742403Y-70963107D01*
X255742403Y-70963107D02*
X255790022Y-71058345D01*
X255790022Y-71058345D02*
X255837641Y-71248821D01*
X255837641Y-71248821D02*
X255837641Y-71486916D01*
X255837641Y-71486916D02*
X255790022Y-71677392D01*
X255790022Y-71677392D02*
X255742403Y-71772630D01*
X255742403Y-71772630D02*
X255694784Y-71820250D01*
X255694784Y-71820250D02*
X255599546Y-71867869D01*
X255599546Y-71867869D02*
X255504308Y-71867869D01*
X255504308Y-71867869D02*
X255409070Y-71820250D01*
X255409070Y-71820250D02*
X255361451Y-71772630D01*
X255361451Y-71772630D02*
X255313832Y-71677392D01*
X255313832Y-71677392D02*
X255266213Y-71486916D01*
X255266213Y-71486916D02*
X255266213Y-71248821D01*
X255266213Y-71248821D02*
X255313832Y-71058345D01*
X255313832Y-71058345D02*
X255361451Y-70963107D01*
X255361451Y-70963107D02*
X255409070Y-70915488D01*
X255409070Y-70915488D02*
X255504308Y-70867869D01*
X256790022Y-71867869D02*
X256218594Y-71867869D01*
X256504308Y-71867869D02*
X256504308Y-70867869D01*
X256504308Y-70867869D02*
X256409070Y-71010726D01*
X256409070Y-71010726D02*
X256313832Y-71105964D01*
X256313832Y-71105964D02*
X256218594Y-71153583D01*
D12*
X133479286Y-86052325D02*
X133622143Y-86099944D01*
X133622143Y-86099944D02*
X133860238Y-86099944D01*
X133860238Y-86099944D02*
X133955476Y-86052325D01*
X133955476Y-86052325D02*
X134003095Y-86004705D01*
X134003095Y-86004705D02*
X134050714Y-85909467D01*
X134050714Y-85909467D02*
X134050714Y-85814229D01*
X134050714Y-85814229D02*
X134003095Y-85718991D01*
X134003095Y-85718991D02*
X133955476Y-85671372D01*
X133955476Y-85671372D02*
X133860238Y-85623753D01*
X133860238Y-85623753D02*
X133669762Y-85576134D01*
X133669762Y-85576134D02*
X133574524Y-85528515D01*
X133574524Y-85528515D02*
X133526905Y-85480896D01*
X133526905Y-85480896D02*
X133479286Y-85385658D01*
X133479286Y-85385658D02*
X133479286Y-85290420D01*
X133479286Y-85290420D02*
X133526905Y-85195182D01*
X133526905Y-85195182D02*
X133574524Y-85147563D01*
X133574524Y-85147563D02*
X133669762Y-85099944D01*
X133669762Y-85099944D02*
X133907857Y-85099944D01*
X133907857Y-85099944D02*
X134050714Y-85147563D01*
X134384048Y-85099944D02*
X134622143Y-86099944D01*
X134622143Y-86099944D02*
X134812619Y-85385658D01*
X134812619Y-85385658D02*
X135003095Y-86099944D01*
X135003095Y-86099944D02*
X135241191Y-85099944D01*
X136145952Y-86099944D02*
X135574524Y-86099944D01*
X135860238Y-86099944D02*
X135860238Y-85099944D01*
X135860238Y-85099944D02*
X135765000Y-85242801D01*
X135765000Y-85242801D02*
X135669762Y-85338039D01*
X135669762Y-85338039D02*
X135574524Y-85385658D01*
X136765000Y-85099944D02*
X136860238Y-85099944D01*
X136860238Y-85099944D02*
X136955476Y-85147563D01*
X136955476Y-85147563D02*
X137003095Y-85195182D01*
X137003095Y-85195182D02*
X137050714Y-85290420D01*
X137050714Y-85290420D02*
X137098333Y-85480896D01*
X137098333Y-85480896D02*
X137098333Y-85718991D01*
X137098333Y-85718991D02*
X137050714Y-85909467D01*
X137050714Y-85909467D02*
X137003095Y-86004705D01*
X137003095Y-86004705D02*
X136955476Y-86052325D01*
X136955476Y-86052325D02*
X136860238Y-86099944D01*
X136860238Y-86099944D02*
X136765000Y-86099944D01*
X136765000Y-86099944D02*
X136669762Y-86052325D01*
X136669762Y-86052325D02*
X136622143Y-86004705D01*
X136622143Y-86004705D02*
X136574524Y-85909467D01*
X136574524Y-85909467D02*
X136526905Y-85718991D01*
X136526905Y-85718991D02*
X136526905Y-85480896D01*
X136526905Y-85480896D02*
X136574524Y-85290420D01*
X136574524Y-85290420D02*
X136622143Y-85195182D01*
X136622143Y-85195182D02*
X136669762Y-85147563D01*
X136669762Y-85147563D02*
X136765000Y-85099944D01*
X137955476Y-85433277D02*
X137955476Y-86099944D01*
X137717381Y-85052325D02*
X137479286Y-85766610D01*
X137479286Y-85766610D02*
X138098333Y-85766610D01*
X152264286Y-86726325D02*
X152407143Y-86773944D01*
X152407143Y-86773944D02*
X152645238Y-86773944D01*
X152645238Y-86773944D02*
X152740476Y-86726325D01*
X152740476Y-86726325D02*
X152788095Y-86678705D01*
X152788095Y-86678705D02*
X152835714Y-86583467D01*
X152835714Y-86583467D02*
X152835714Y-86488229D01*
X152835714Y-86488229D02*
X152788095Y-86392991D01*
X152788095Y-86392991D02*
X152740476Y-86345372D01*
X152740476Y-86345372D02*
X152645238Y-86297753D01*
X152645238Y-86297753D02*
X152454762Y-86250134D01*
X152454762Y-86250134D02*
X152359524Y-86202515D01*
X152359524Y-86202515D02*
X152311905Y-86154896D01*
X152311905Y-86154896D02*
X152264286Y-86059658D01*
X152264286Y-86059658D02*
X152264286Y-85964420D01*
X152264286Y-85964420D02*
X152311905Y-85869182D01*
X152311905Y-85869182D02*
X152359524Y-85821563D01*
X152359524Y-85821563D02*
X152454762Y-85773944D01*
X152454762Y-85773944D02*
X152692857Y-85773944D01*
X152692857Y-85773944D02*
X152835714Y-85821563D01*
X153169048Y-85773944D02*
X153407143Y-86773944D01*
X153407143Y-86773944D02*
X153597619Y-86059658D01*
X153597619Y-86059658D02*
X153788095Y-86773944D01*
X153788095Y-86773944D02*
X154026191Y-85773944D01*
X154930952Y-86773944D02*
X154359524Y-86773944D01*
X154645238Y-86773944D02*
X154645238Y-85773944D01*
X154645238Y-85773944D02*
X154550000Y-85916801D01*
X154550000Y-85916801D02*
X154454762Y-86012039D01*
X154454762Y-86012039D02*
X154359524Y-86059658D01*
X155550000Y-85773944D02*
X155645238Y-85773944D01*
X155645238Y-85773944D02*
X155740476Y-85821563D01*
X155740476Y-85821563D02*
X155788095Y-85869182D01*
X155788095Y-85869182D02*
X155835714Y-85964420D01*
X155835714Y-85964420D02*
X155883333Y-86154896D01*
X155883333Y-86154896D02*
X155883333Y-86392991D01*
X155883333Y-86392991D02*
X155835714Y-86583467D01*
X155835714Y-86583467D02*
X155788095Y-86678705D01*
X155788095Y-86678705D02*
X155740476Y-86726325D01*
X155740476Y-86726325D02*
X155645238Y-86773944D01*
X155645238Y-86773944D02*
X155550000Y-86773944D01*
X155550000Y-86773944D02*
X155454762Y-86726325D01*
X155454762Y-86726325D02*
X155407143Y-86678705D01*
X155407143Y-86678705D02*
X155359524Y-86583467D01*
X155359524Y-86583467D02*
X155311905Y-86392991D01*
X155311905Y-86392991D02*
X155311905Y-86154896D01*
X155311905Y-86154896D02*
X155359524Y-85964420D01*
X155359524Y-85964420D02*
X155407143Y-85869182D01*
X155407143Y-85869182D02*
X155454762Y-85821563D01*
X155454762Y-85821563D02*
X155550000Y-85773944D01*
X156359524Y-86773944D02*
X156550000Y-86773944D01*
X156550000Y-86773944D02*
X156645238Y-86726325D01*
X156645238Y-86726325D02*
X156692857Y-86678705D01*
X156692857Y-86678705D02*
X156788095Y-86535848D01*
X156788095Y-86535848D02*
X156835714Y-86345372D01*
X156835714Y-86345372D02*
X156835714Y-85964420D01*
X156835714Y-85964420D02*
X156788095Y-85869182D01*
X156788095Y-85869182D02*
X156740476Y-85821563D01*
X156740476Y-85821563D02*
X156645238Y-85773944D01*
X156645238Y-85773944D02*
X156454762Y-85773944D01*
X156454762Y-85773944D02*
X156359524Y-85821563D01*
X156359524Y-85821563D02*
X156311905Y-85869182D01*
X156311905Y-85869182D02*
X156264286Y-85964420D01*
X156264286Y-85964420D02*
X156264286Y-86202515D01*
X156264286Y-86202515D02*
X156311905Y-86297753D01*
X156311905Y-86297753D02*
X156359524Y-86345372D01*
X156359524Y-86345372D02*
X156454762Y-86392991D01*
X156454762Y-86392991D02*
X156645238Y-86392991D01*
X156645238Y-86392991D02*
X156740476Y-86345372D01*
X156740476Y-86345372D02*
X156788095Y-86297753D01*
X156788095Y-86297753D02*
X156835714Y-86202515D01*
X90469286Y-86052325D02*
X90612143Y-86099944D01*
X90612143Y-86099944D02*
X90850238Y-86099944D01*
X90850238Y-86099944D02*
X90945476Y-86052325D01*
X90945476Y-86052325D02*
X90993095Y-86004705D01*
X90993095Y-86004705D02*
X91040714Y-85909467D01*
X91040714Y-85909467D02*
X91040714Y-85814229D01*
X91040714Y-85814229D02*
X90993095Y-85718991D01*
X90993095Y-85718991D02*
X90945476Y-85671372D01*
X90945476Y-85671372D02*
X90850238Y-85623753D01*
X90850238Y-85623753D02*
X90659762Y-85576134D01*
X90659762Y-85576134D02*
X90564524Y-85528515D01*
X90564524Y-85528515D02*
X90516905Y-85480896D01*
X90516905Y-85480896D02*
X90469286Y-85385658D01*
X90469286Y-85385658D02*
X90469286Y-85290420D01*
X90469286Y-85290420D02*
X90516905Y-85195182D01*
X90516905Y-85195182D02*
X90564524Y-85147563D01*
X90564524Y-85147563D02*
X90659762Y-85099944D01*
X90659762Y-85099944D02*
X90897857Y-85099944D01*
X90897857Y-85099944D02*
X91040714Y-85147563D01*
X91374048Y-85099944D02*
X91612143Y-86099944D01*
X91612143Y-86099944D02*
X91802619Y-85385658D01*
X91802619Y-85385658D02*
X91993095Y-86099944D01*
X91993095Y-86099944D02*
X92231191Y-85099944D01*
X93135952Y-86099944D02*
X92564524Y-86099944D01*
X92850238Y-86099944D02*
X92850238Y-85099944D01*
X92850238Y-85099944D02*
X92755000Y-85242801D01*
X92755000Y-85242801D02*
X92659762Y-85338039D01*
X92659762Y-85338039D02*
X92564524Y-85385658D01*
X93755000Y-85099944D02*
X93850238Y-85099944D01*
X93850238Y-85099944D02*
X93945476Y-85147563D01*
X93945476Y-85147563D02*
X93993095Y-85195182D01*
X93993095Y-85195182D02*
X94040714Y-85290420D01*
X94040714Y-85290420D02*
X94088333Y-85480896D01*
X94088333Y-85480896D02*
X94088333Y-85718991D01*
X94088333Y-85718991D02*
X94040714Y-85909467D01*
X94040714Y-85909467D02*
X93993095Y-86004705D01*
X93993095Y-86004705D02*
X93945476Y-86052325D01*
X93945476Y-86052325D02*
X93850238Y-86099944D01*
X93850238Y-86099944D02*
X93755000Y-86099944D01*
X93755000Y-86099944D02*
X93659762Y-86052325D01*
X93659762Y-86052325D02*
X93612143Y-86004705D01*
X93612143Y-86004705D02*
X93564524Y-85909467D01*
X93564524Y-85909467D02*
X93516905Y-85718991D01*
X93516905Y-85718991D02*
X93516905Y-85480896D01*
X93516905Y-85480896D02*
X93564524Y-85290420D01*
X93564524Y-85290420D02*
X93612143Y-85195182D01*
X93612143Y-85195182D02*
X93659762Y-85147563D01*
X93659762Y-85147563D02*
X93755000Y-85099944D01*
X94469286Y-85195182D02*
X94516905Y-85147563D01*
X94516905Y-85147563D02*
X94612143Y-85099944D01*
X94612143Y-85099944D02*
X94850238Y-85099944D01*
X94850238Y-85099944D02*
X94945476Y-85147563D01*
X94945476Y-85147563D02*
X94993095Y-85195182D01*
X94993095Y-85195182D02*
X95040714Y-85290420D01*
X95040714Y-85290420D02*
X95040714Y-85385658D01*
X95040714Y-85385658D02*
X94993095Y-85528515D01*
X94993095Y-85528515D02*
X94421667Y-86099944D01*
X94421667Y-86099944D02*
X95040714Y-86099944D01*
X201454286Y-86052325D02*
X201597143Y-86099944D01*
X201597143Y-86099944D02*
X201835238Y-86099944D01*
X201835238Y-86099944D02*
X201930476Y-86052325D01*
X201930476Y-86052325D02*
X201978095Y-86004705D01*
X201978095Y-86004705D02*
X202025714Y-85909467D01*
X202025714Y-85909467D02*
X202025714Y-85814229D01*
X202025714Y-85814229D02*
X201978095Y-85718991D01*
X201978095Y-85718991D02*
X201930476Y-85671372D01*
X201930476Y-85671372D02*
X201835238Y-85623753D01*
X201835238Y-85623753D02*
X201644762Y-85576134D01*
X201644762Y-85576134D02*
X201549524Y-85528515D01*
X201549524Y-85528515D02*
X201501905Y-85480896D01*
X201501905Y-85480896D02*
X201454286Y-85385658D01*
X201454286Y-85385658D02*
X201454286Y-85290420D01*
X201454286Y-85290420D02*
X201501905Y-85195182D01*
X201501905Y-85195182D02*
X201549524Y-85147563D01*
X201549524Y-85147563D02*
X201644762Y-85099944D01*
X201644762Y-85099944D02*
X201882857Y-85099944D01*
X201882857Y-85099944D02*
X202025714Y-85147563D01*
X202359048Y-85099944D02*
X202597143Y-86099944D01*
X202597143Y-86099944D02*
X202787619Y-85385658D01*
X202787619Y-85385658D02*
X202978095Y-86099944D01*
X202978095Y-86099944D02*
X203216191Y-85099944D01*
X204120952Y-86099944D02*
X203549524Y-86099944D01*
X203835238Y-86099944D02*
X203835238Y-85099944D01*
X203835238Y-85099944D02*
X203740000Y-85242801D01*
X203740000Y-85242801D02*
X203644762Y-85338039D01*
X203644762Y-85338039D02*
X203549524Y-85385658D01*
X204740000Y-85099944D02*
X204835238Y-85099944D01*
X204835238Y-85099944D02*
X204930476Y-85147563D01*
X204930476Y-85147563D02*
X204978095Y-85195182D01*
X204978095Y-85195182D02*
X205025714Y-85290420D01*
X205025714Y-85290420D02*
X205073333Y-85480896D01*
X205073333Y-85480896D02*
X205073333Y-85718991D01*
X205073333Y-85718991D02*
X205025714Y-85909467D01*
X205025714Y-85909467D02*
X204978095Y-86004705D01*
X204978095Y-86004705D02*
X204930476Y-86052325D01*
X204930476Y-86052325D02*
X204835238Y-86099944D01*
X204835238Y-86099944D02*
X204740000Y-86099944D01*
X204740000Y-86099944D02*
X204644762Y-86052325D01*
X204644762Y-86052325D02*
X204597143Y-86004705D01*
X204597143Y-86004705D02*
X204549524Y-85909467D01*
X204549524Y-85909467D02*
X204501905Y-85718991D01*
X204501905Y-85718991D02*
X204501905Y-85480896D01*
X204501905Y-85480896D02*
X204549524Y-85290420D01*
X204549524Y-85290420D02*
X204597143Y-85195182D01*
X204597143Y-85195182D02*
X204644762Y-85147563D01*
X204644762Y-85147563D02*
X204740000Y-85099944D01*
X205930476Y-85099944D02*
X205740000Y-85099944D01*
X205740000Y-85099944D02*
X205644762Y-85147563D01*
X205644762Y-85147563D02*
X205597143Y-85195182D01*
X205597143Y-85195182D02*
X205501905Y-85338039D01*
X205501905Y-85338039D02*
X205454286Y-85528515D01*
X205454286Y-85528515D02*
X205454286Y-85909467D01*
X205454286Y-85909467D02*
X205501905Y-86004705D01*
X205501905Y-86004705D02*
X205549524Y-86052325D01*
X205549524Y-86052325D02*
X205644762Y-86099944D01*
X205644762Y-86099944D02*
X205835238Y-86099944D01*
X205835238Y-86099944D02*
X205930476Y-86052325D01*
X205930476Y-86052325D02*
X205978095Y-86004705D01*
X205978095Y-86004705D02*
X206025714Y-85909467D01*
X206025714Y-85909467D02*
X206025714Y-85671372D01*
X206025714Y-85671372D02*
X205978095Y-85576134D01*
X205978095Y-85576134D02*
X205930476Y-85528515D01*
X205930476Y-85528515D02*
X205835238Y-85480896D01*
X205835238Y-85480896D02*
X205644762Y-85480896D01*
X205644762Y-85480896D02*
X205549524Y-85528515D01*
X205549524Y-85528515D02*
X205501905Y-85576134D01*
X205501905Y-85576134D02*
X205454286Y-85671372D01*
X179949286Y-86052325D02*
X180092143Y-86099944D01*
X180092143Y-86099944D02*
X180330238Y-86099944D01*
X180330238Y-86099944D02*
X180425476Y-86052325D01*
X180425476Y-86052325D02*
X180473095Y-86004705D01*
X180473095Y-86004705D02*
X180520714Y-85909467D01*
X180520714Y-85909467D02*
X180520714Y-85814229D01*
X180520714Y-85814229D02*
X180473095Y-85718991D01*
X180473095Y-85718991D02*
X180425476Y-85671372D01*
X180425476Y-85671372D02*
X180330238Y-85623753D01*
X180330238Y-85623753D02*
X180139762Y-85576134D01*
X180139762Y-85576134D02*
X180044524Y-85528515D01*
X180044524Y-85528515D02*
X179996905Y-85480896D01*
X179996905Y-85480896D02*
X179949286Y-85385658D01*
X179949286Y-85385658D02*
X179949286Y-85290420D01*
X179949286Y-85290420D02*
X179996905Y-85195182D01*
X179996905Y-85195182D02*
X180044524Y-85147563D01*
X180044524Y-85147563D02*
X180139762Y-85099944D01*
X180139762Y-85099944D02*
X180377857Y-85099944D01*
X180377857Y-85099944D02*
X180520714Y-85147563D01*
X180854048Y-85099944D02*
X181092143Y-86099944D01*
X181092143Y-86099944D02*
X181282619Y-85385658D01*
X181282619Y-85385658D02*
X181473095Y-86099944D01*
X181473095Y-86099944D02*
X181711191Y-85099944D01*
X182615952Y-86099944D02*
X182044524Y-86099944D01*
X182330238Y-86099944D02*
X182330238Y-85099944D01*
X182330238Y-85099944D02*
X182235000Y-85242801D01*
X182235000Y-85242801D02*
X182139762Y-85338039D01*
X182139762Y-85338039D02*
X182044524Y-85385658D01*
X183235000Y-85099944D02*
X183330238Y-85099944D01*
X183330238Y-85099944D02*
X183425476Y-85147563D01*
X183425476Y-85147563D02*
X183473095Y-85195182D01*
X183473095Y-85195182D02*
X183520714Y-85290420D01*
X183520714Y-85290420D02*
X183568333Y-85480896D01*
X183568333Y-85480896D02*
X183568333Y-85718991D01*
X183568333Y-85718991D02*
X183520714Y-85909467D01*
X183520714Y-85909467D02*
X183473095Y-86004705D01*
X183473095Y-86004705D02*
X183425476Y-86052325D01*
X183425476Y-86052325D02*
X183330238Y-86099944D01*
X183330238Y-86099944D02*
X183235000Y-86099944D01*
X183235000Y-86099944D02*
X183139762Y-86052325D01*
X183139762Y-86052325D02*
X183092143Y-86004705D01*
X183092143Y-86004705D02*
X183044524Y-85909467D01*
X183044524Y-85909467D02*
X182996905Y-85718991D01*
X182996905Y-85718991D02*
X182996905Y-85480896D01*
X182996905Y-85480896D02*
X183044524Y-85290420D01*
X183044524Y-85290420D02*
X183092143Y-85195182D01*
X183092143Y-85195182D02*
X183139762Y-85147563D01*
X183139762Y-85147563D02*
X183235000Y-85099944D01*
X184473095Y-85099944D02*
X183996905Y-85099944D01*
X183996905Y-85099944D02*
X183949286Y-85576134D01*
X183949286Y-85576134D02*
X183996905Y-85528515D01*
X183996905Y-85528515D02*
X184092143Y-85480896D01*
X184092143Y-85480896D02*
X184330238Y-85480896D01*
X184330238Y-85480896D02*
X184425476Y-85528515D01*
X184425476Y-85528515D02*
X184473095Y-85576134D01*
X184473095Y-85576134D02*
X184520714Y-85671372D01*
X184520714Y-85671372D02*
X184520714Y-85909467D01*
X184520714Y-85909467D02*
X184473095Y-86004705D01*
X184473095Y-86004705D02*
X184425476Y-86052325D01*
X184425476Y-86052325D02*
X184330238Y-86099944D01*
X184330238Y-86099944D02*
X184092143Y-86099944D01*
X184092143Y-86099944D02*
X183996905Y-86052325D01*
X183996905Y-86052325D02*
X183949286Y-86004705D01*
X222959286Y-86052325D02*
X223102143Y-86099944D01*
X223102143Y-86099944D02*
X223340238Y-86099944D01*
X223340238Y-86099944D02*
X223435476Y-86052325D01*
X223435476Y-86052325D02*
X223483095Y-86004705D01*
X223483095Y-86004705D02*
X223530714Y-85909467D01*
X223530714Y-85909467D02*
X223530714Y-85814229D01*
X223530714Y-85814229D02*
X223483095Y-85718991D01*
X223483095Y-85718991D02*
X223435476Y-85671372D01*
X223435476Y-85671372D02*
X223340238Y-85623753D01*
X223340238Y-85623753D02*
X223149762Y-85576134D01*
X223149762Y-85576134D02*
X223054524Y-85528515D01*
X223054524Y-85528515D02*
X223006905Y-85480896D01*
X223006905Y-85480896D02*
X222959286Y-85385658D01*
X222959286Y-85385658D02*
X222959286Y-85290420D01*
X222959286Y-85290420D02*
X223006905Y-85195182D01*
X223006905Y-85195182D02*
X223054524Y-85147563D01*
X223054524Y-85147563D02*
X223149762Y-85099944D01*
X223149762Y-85099944D02*
X223387857Y-85099944D01*
X223387857Y-85099944D02*
X223530714Y-85147563D01*
X223864048Y-85099944D02*
X224102143Y-86099944D01*
X224102143Y-86099944D02*
X224292619Y-85385658D01*
X224292619Y-85385658D02*
X224483095Y-86099944D01*
X224483095Y-86099944D02*
X224721191Y-85099944D01*
X225625952Y-86099944D02*
X225054524Y-86099944D01*
X225340238Y-86099944D02*
X225340238Y-85099944D01*
X225340238Y-85099944D02*
X225245000Y-85242801D01*
X225245000Y-85242801D02*
X225149762Y-85338039D01*
X225149762Y-85338039D02*
X225054524Y-85385658D01*
X226245000Y-85099944D02*
X226340238Y-85099944D01*
X226340238Y-85099944D02*
X226435476Y-85147563D01*
X226435476Y-85147563D02*
X226483095Y-85195182D01*
X226483095Y-85195182D02*
X226530714Y-85290420D01*
X226530714Y-85290420D02*
X226578333Y-85480896D01*
X226578333Y-85480896D02*
X226578333Y-85718991D01*
X226578333Y-85718991D02*
X226530714Y-85909467D01*
X226530714Y-85909467D02*
X226483095Y-86004705D01*
X226483095Y-86004705D02*
X226435476Y-86052325D01*
X226435476Y-86052325D02*
X226340238Y-86099944D01*
X226340238Y-86099944D02*
X226245000Y-86099944D01*
X226245000Y-86099944D02*
X226149762Y-86052325D01*
X226149762Y-86052325D02*
X226102143Y-86004705D01*
X226102143Y-86004705D02*
X226054524Y-85909467D01*
X226054524Y-85909467D02*
X226006905Y-85718991D01*
X226006905Y-85718991D02*
X226006905Y-85480896D01*
X226006905Y-85480896D02*
X226054524Y-85290420D01*
X226054524Y-85290420D02*
X226102143Y-85195182D01*
X226102143Y-85195182D02*
X226149762Y-85147563D01*
X226149762Y-85147563D02*
X226245000Y-85099944D01*
X226911667Y-85099944D02*
X227578333Y-85099944D01*
X227578333Y-85099944D02*
X227149762Y-86099944D01*
X111974286Y-86052325D02*
X112117143Y-86099944D01*
X112117143Y-86099944D02*
X112355238Y-86099944D01*
X112355238Y-86099944D02*
X112450476Y-86052325D01*
X112450476Y-86052325D02*
X112498095Y-86004705D01*
X112498095Y-86004705D02*
X112545714Y-85909467D01*
X112545714Y-85909467D02*
X112545714Y-85814229D01*
X112545714Y-85814229D02*
X112498095Y-85718991D01*
X112498095Y-85718991D02*
X112450476Y-85671372D01*
X112450476Y-85671372D02*
X112355238Y-85623753D01*
X112355238Y-85623753D02*
X112164762Y-85576134D01*
X112164762Y-85576134D02*
X112069524Y-85528515D01*
X112069524Y-85528515D02*
X112021905Y-85480896D01*
X112021905Y-85480896D02*
X111974286Y-85385658D01*
X111974286Y-85385658D02*
X111974286Y-85290420D01*
X111974286Y-85290420D02*
X112021905Y-85195182D01*
X112021905Y-85195182D02*
X112069524Y-85147563D01*
X112069524Y-85147563D02*
X112164762Y-85099944D01*
X112164762Y-85099944D02*
X112402857Y-85099944D01*
X112402857Y-85099944D02*
X112545714Y-85147563D01*
X112879048Y-85099944D02*
X113117143Y-86099944D01*
X113117143Y-86099944D02*
X113307619Y-85385658D01*
X113307619Y-85385658D02*
X113498095Y-86099944D01*
X113498095Y-86099944D02*
X113736191Y-85099944D01*
X114640952Y-86099944D02*
X114069524Y-86099944D01*
X114355238Y-86099944D02*
X114355238Y-85099944D01*
X114355238Y-85099944D02*
X114260000Y-85242801D01*
X114260000Y-85242801D02*
X114164762Y-85338039D01*
X114164762Y-85338039D02*
X114069524Y-85385658D01*
X115260000Y-85099944D02*
X115355238Y-85099944D01*
X115355238Y-85099944D02*
X115450476Y-85147563D01*
X115450476Y-85147563D02*
X115498095Y-85195182D01*
X115498095Y-85195182D02*
X115545714Y-85290420D01*
X115545714Y-85290420D02*
X115593333Y-85480896D01*
X115593333Y-85480896D02*
X115593333Y-85718991D01*
X115593333Y-85718991D02*
X115545714Y-85909467D01*
X115545714Y-85909467D02*
X115498095Y-86004705D01*
X115498095Y-86004705D02*
X115450476Y-86052325D01*
X115450476Y-86052325D02*
X115355238Y-86099944D01*
X115355238Y-86099944D02*
X115260000Y-86099944D01*
X115260000Y-86099944D02*
X115164762Y-86052325D01*
X115164762Y-86052325D02*
X115117143Y-86004705D01*
X115117143Y-86004705D02*
X115069524Y-85909467D01*
X115069524Y-85909467D02*
X115021905Y-85718991D01*
X115021905Y-85718991D02*
X115021905Y-85480896D01*
X115021905Y-85480896D02*
X115069524Y-85290420D01*
X115069524Y-85290420D02*
X115117143Y-85195182D01*
X115117143Y-85195182D02*
X115164762Y-85147563D01*
X115164762Y-85147563D02*
X115260000Y-85099944D01*
X115926667Y-85099944D02*
X116545714Y-85099944D01*
X116545714Y-85099944D02*
X116212381Y-85480896D01*
X116212381Y-85480896D02*
X116355238Y-85480896D01*
X116355238Y-85480896D02*
X116450476Y-85528515D01*
X116450476Y-85528515D02*
X116498095Y-85576134D01*
X116498095Y-85576134D02*
X116545714Y-85671372D01*
X116545714Y-85671372D02*
X116545714Y-85909467D01*
X116545714Y-85909467D02*
X116498095Y-86004705D01*
X116498095Y-86004705D02*
X116450476Y-86052325D01*
X116450476Y-86052325D02*
X116355238Y-86099944D01*
X116355238Y-86099944D02*
X116069524Y-86099944D01*
X116069524Y-86099944D02*
X115974286Y-86052325D01*
X115974286Y-86052325D02*
X115926667Y-86004705D01*
X68964286Y-86052325D02*
X69107143Y-86099944D01*
X69107143Y-86099944D02*
X69345238Y-86099944D01*
X69345238Y-86099944D02*
X69440476Y-86052325D01*
X69440476Y-86052325D02*
X69488095Y-86004705D01*
X69488095Y-86004705D02*
X69535714Y-85909467D01*
X69535714Y-85909467D02*
X69535714Y-85814229D01*
X69535714Y-85814229D02*
X69488095Y-85718991D01*
X69488095Y-85718991D02*
X69440476Y-85671372D01*
X69440476Y-85671372D02*
X69345238Y-85623753D01*
X69345238Y-85623753D02*
X69154762Y-85576134D01*
X69154762Y-85576134D02*
X69059524Y-85528515D01*
X69059524Y-85528515D02*
X69011905Y-85480896D01*
X69011905Y-85480896D02*
X68964286Y-85385658D01*
X68964286Y-85385658D02*
X68964286Y-85290420D01*
X68964286Y-85290420D02*
X69011905Y-85195182D01*
X69011905Y-85195182D02*
X69059524Y-85147563D01*
X69059524Y-85147563D02*
X69154762Y-85099944D01*
X69154762Y-85099944D02*
X69392857Y-85099944D01*
X69392857Y-85099944D02*
X69535714Y-85147563D01*
X69869048Y-85099944D02*
X70107143Y-86099944D01*
X70107143Y-86099944D02*
X70297619Y-85385658D01*
X70297619Y-85385658D02*
X70488095Y-86099944D01*
X70488095Y-86099944D02*
X70726191Y-85099944D01*
X71630952Y-86099944D02*
X71059524Y-86099944D01*
X71345238Y-86099944D02*
X71345238Y-85099944D01*
X71345238Y-85099944D02*
X71250000Y-85242801D01*
X71250000Y-85242801D02*
X71154762Y-85338039D01*
X71154762Y-85338039D02*
X71059524Y-85385658D01*
X72250000Y-85099944D02*
X72345238Y-85099944D01*
X72345238Y-85099944D02*
X72440476Y-85147563D01*
X72440476Y-85147563D02*
X72488095Y-85195182D01*
X72488095Y-85195182D02*
X72535714Y-85290420D01*
X72535714Y-85290420D02*
X72583333Y-85480896D01*
X72583333Y-85480896D02*
X72583333Y-85718991D01*
X72583333Y-85718991D02*
X72535714Y-85909467D01*
X72535714Y-85909467D02*
X72488095Y-86004705D01*
X72488095Y-86004705D02*
X72440476Y-86052325D01*
X72440476Y-86052325D02*
X72345238Y-86099944D01*
X72345238Y-86099944D02*
X72250000Y-86099944D01*
X72250000Y-86099944D02*
X72154762Y-86052325D01*
X72154762Y-86052325D02*
X72107143Y-86004705D01*
X72107143Y-86004705D02*
X72059524Y-85909467D01*
X72059524Y-85909467D02*
X72011905Y-85718991D01*
X72011905Y-85718991D02*
X72011905Y-85480896D01*
X72011905Y-85480896D02*
X72059524Y-85290420D01*
X72059524Y-85290420D02*
X72107143Y-85195182D01*
X72107143Y-85195182D02*
X72154762Y-85147563D01*
X72154762Y-85147563D02*
X72250000Y-85099944D01*
X73535714Y-86099944D02*
X72964286Y-86099944D01*
X73250000Y-86099944D02*
X73250000Y-85099944D01*
X73250000Y-85099944D02*
X73154762Y-85242801D01*
X73154762Y-85242801D02*
X73059524Y-85338039D01*
X73059524Y-85338039D02*
X72964286Y-85385658D01*
X244464286Y-86052325D02*
X244607143Y-86099944D01*
X244607143Y-86099944D02*
X244845238Y-86099944D01*
X244845238Y-86099944D02*
X244940476Y-86052325D01*
X244940476Y-86052325D02*
X244988095Y-86004705D01*
X244988095Y-86004705D02*
X245035714Y-85909467D01*
X245035714Y-85909467D02*
X245035714Y-85814229D01*
X245035714Y-85814229D02*
X244988095Y-85718991D01*
X244988095Y-85718991D02*
X244940476Y-85671372D01*
X244940476Y-85671372D02*
X244845238Y-85623753D01*
X244845238Y-85623753D02*
X244654762Y-85576134D01*
X244654762Y-85576134D02*
X244559524Y-85528515D01*
X244559524Y-85528515D02*
X244511905Y-85480896D01*
X244511905Y-85480896D02*
X244464286Y-85385658D01*
X244464286Y-85385658D02*
X244464286Y-85290420D01*
X244464286Y-85290420D02*
X244511905Y-85195182D01*
X244511905Y-85195182D02*
X244559524Y-85147563D01*
X244559524Y-85147563D02*
X244654762Y-85099944D01*
X244654762Y-85099944D02*
X244892857Y-85099944D01*
X244892857Y-85099944D02*
X245035714Y-85147563D01*
X245369048Y-85099944D02*
X245607143Y-86099944D01*
X245607143Y-86099944D02*
X245797619Y-85385658D01*
X245797619Y-85385658D02*
X245988095Y-86099944D01*
X245988095Y-86099944D02*
X246226191Y-85099944D01*
X247130952Y-86099944D02*
X246559524Y-86099944D01*
X246845238Y-86099944D02*
X246845238Y-85099944D01*
X246845238Y-85099944D02*
X246750000Y-85242801D01*
X246750000Y-85242801D02*
X246654762Y-85338039D01*
X246654762Y-85338039D02*
X246559524Y-85385658D01*
X247750000Y-85099944D02*
X247845238Y-85099944D01*
X247845238Y-85099944D02*
X247940476Y-85147563D01*
X247940476Y-85147563D02*
X247988095Y-85195182D01*
X247988095Y-85195182D02*
X248035714Y-85290420D01*
X248035714Y-85290420D02*
X248083333Y-85480896D01*
X248083333Y-85480896D02*
X248083333Y-85718991D01*
X248083333Y-85718991D02*
X248035714Y-85909467D01*
X248035714Y-85909467D02*
X247988095Y-86004705D01*
X247988095Y-86004705D02*
X247940476Y-86052325D01*
X247940476Y-86052325D02*
X247845238Y-86099944D01*
X247845238Y-86099944D02*
X247750000Y-86099944D01*
X247750000Y-86099944D02*
X247654762Y-86052325D01*
X247654762Y-86052325D02*
X247607143Y-86004705D01*
X247607143Y-86004705D02*
X247559524Y-85909467D01*
X247559524Y-85909467D02*
X247511905Y-85718991D01*
X247511905Y-85718991D02*
X247511905Y-85480896D01*
X247511905Y-85480896D02*
X247559524Y-85290420D01*
X247559524Y-85290420D02*
X247607143Y-85195182D01*
X247607143Y-85195182D02*
X247654762Y-85147563D01*
X247654762Y-85147563D02*
X247750000Y-85099944D01*
X248654762Y-85528515D02*
X248559524Y-85480896D01*
X248559524Y-85480896D02*
X248511905Y-85433277D01*
X248511905Y-85433277D02*
X248464286Y-85338039D01*
X248464286Y-85338039D02*
X248464286Y-85290420D01*
X248464286Y-85290420D02*
X248511905Y-85195182D01*
X248511905Y-85195182D02*
X248559524Y-85147563D01*
X248559524Y-85147563D02*
X248654762Y-85099944D01*
X248654762Y-85099944D02*
X248845238Y-85099944D01*
X248845238Y-85099944D02*
X248940476Y-85147563D01*
X248940476Y-85147563D02*
X248988095Y-85195182D01*
X248988095Y-85195182D02*
X249035714Y-85290420D01*
X249035714Y-85290420D02*
X249035714Y-85338039D01*
X249035714Y-85338039D02*
X248988095Y-85433277D01*
X248988095Y-85433277D02*
X248940476Y-85480896D01*
X248940476Y-85480896D02*
X248845238Y-85528515D01*
X248845238Y-85528515D02*
X248654762Y-85528515D01*
X248654762Y-85528515D02*
X248559524Y-85576134D01*
X248559524Y-85576134D02*
X248511905Y-85623753D01*
X248511905Y-85623753D02*
X248464286Y-85718991D01*
X248464286Y-85718991D02*
X248464286Y-85909467D01*
X248464286Y-85909467D02*
X248511905Y-86004705D01*
X248511905Y-86004705D02*
X248559524Y-86052325D01*
X248559524Y-86052325D02*
X248654762Y-86099944D01*
X248654762Y-86099944D02*
X248845238Y-86099944D01*
X248845238Y-86099944D02*
X248940476Y-86052325D01*
X248940476Y-86052325D02*
X248988095Y-86004705D01*
X248988095Y-86004705D02*
X249035714Y-85909467D01*
X249035714Y-85909467D02*
X249035714Y-85718991D01*
X249035714Y-85718991D02*
X248988095Y-85623753D01*
X248988095Y-85623753D02*
X248940476Y-85576134D01*
X248940476Y-85576134D02*
X248845238Y-85528515D01*
D13*
%TO.C,G\u002A\u002A\u002A*%
G36*
X84247727Y-80434772D02*
G01*
X84238106Y-80444393D01*
X84228485Y-80434772D01*
X84238106Y-80425151D01*
X84247727Y-80434772D01*
G37*
G36*
X89212273Y-82512954D02*
G01*
X89202651Y-82522575D01*
X89193030Y-82512954D01*
X89202651Y-82503333D01*
X89212273Y-82512954D01*
G37*
G36*
X89385454Y-81300681D02*
G01*
X89375833Y-81310302D01*
X89366212Y-81300681D01*
X89375833Y-81291060D01*
X89385454Y-81300681D01*
G37*
G36*
X90770909Y-82262802D02*
G01*
X90761288Y-82272423D01*
X90751666Y-82262802D01*
X90761288Y-82253181D01*
X90770909Y-82262802D01*
G37*
G36*
X90963333Y-81493105D02*
G01*
X90953712Y-81502727D01*
X90944091Y-81493105D01*
X90953712Y-81483484D01*
X90963333Y-81493105D01*
G37*
G36*
X91271212Y-81031287D02*
G01*
X91261591Y-81040908D01*
X91251970Y-81031287D01*
X91261591Y-81021666D01*
X91271212Y-81031287D01*
G37*
G36*
X91309697Y-75508711D02*
G01*
X91300076Y-75518333D01*
X91290454Y-75508711D01*
X91300076Y-75499090D01*
X91309697Y-75508711D01*
G37*
G36*
X91425151Y-81185227D02*
G01*
X91415530Y-81194848D01*
X91405909Y-81185227D01*
X91415530Y-81175605D01*
X91425151Y-81185227D01*
G37*
G36*
X91425151Y-81647045D02*
G01*
X91415530Y-81656666D01*
X91405909Y-81647045D01*
X91415530Y-81637423D01*
X91425151Y-81647045D01*
G37*
G36*
X91502121Y-81396893D02*
G01*
X91492500Y-81406514D01*
X91482879Y-81396893D01*
X91492500Y-81387272D01*
X91502121Y-81396893D01*
G37*
G36*
X91636818Y-80377045D02*
G01*
X91627197Y-80386666D01*
X91617576Y-80377045D01*
X91627197Y-80367423D01*
X91636818Y-80377045D01*
G37*
G36*
X91771515Y-79992196D02*
G01*
X91761894Y-80001817D01*
X91752273Y-79992196D01*
X91761894Y-79982575D01*
X91771515Y-79992196D01*
G37*
G36*
X92079394Y-80126893D02*
G01*
X92069773Y-80136514D01*
X92060151Y-80126893D01*
X92069773Y-80117272D01*
X92079394Y-80126893D01*
G37*
G36*
X88513131Y-82644444D02*
G01*
X88510490Y-82655883D01*
X88500303Y-82657272D01*
X88484464Y-82650231D01*
X88487475Y-82644444D01*
X88510311Y-82642141D01*
X88513131Y-82644444D01*
G37*
G36*
X88551616Y-81701565D02*
G01*
X88553919Y-81724401D01*
X88551616Y-81727221D01*
X88540176Y-81724580D01*
X88538788Y-81714393D01*
X88545828Y-81698554D01*
X88551616Y-81701565D01*
G37*
G36*
X88917222Y-82548232D02*
G01*
X88919525Y-82571068D01*
X88917222Y-82573888D01*
X88905782Y-82571247D01*
X88904394Y-82561060D01*
X88911434Y-82545221D01*
X88917222Y-82548232D01*
G37*
G36*
X91341767Y-73638989D02*
G01*
X91339126Y-73650429D01*
X91328939Y-73651817D01*
X91313101Y-73644777D01*
X91316111Y-73638989D01*
X91338947Y-73636686D01*
X91341767Y-73638989D01*
G37*
G36*
X91457222Y-80373838D02*
G01*
X91454581Y-80385277D01*
X91444394Y-80386666D01*
X91428555Y-80379625D01*
X91431565Y-80373838D01*
X91454402Y-80371535D01*
X91457222Y-80373838D01*
G37*
G36*
X91938283Y-75313080D02*
G01*
X91940586Y-75335916D01*
X91938283Y-75338737D01*
X91926843Y-75336095D01*
X91925454Y-75325908D01*
X91932495Y-75310070D01*
X91938283Y-75313080D01*
G37*
G36*
X91976683Y-80227916D02*
G01*
X91979225Y-80267312D01*
X91976683Y-80276022D01*
X91969660Y-80278439D01*
X91966977Y-80251969D01*
X91970001Y-80224652D01*
X91976683Y-80227916D01*
G37*
G36*
X92034495Y-80258383D02*
G01*
X92031853Y-80269823D01*
X92021666Y-80271211D01*
X92005828Y-80264171D01*
X92008838Y-80258383D01*
X92031674Y-80256080D01*
X92034495Y-80258383D01*
G37*
G36*
X91069883Y-81700307D02*
G01*
X91089826Y-81718746D01*
X91111952Y-81747724D01*
X91112876Y-81763689D01*
X91096880Y-81757846D01*
X91078099Y-81730473D01*
X91063475Y-81699885D01*
X91069883Y-81700307D01*
G37*
G36*
X91769780Y-80255976D02*
G01*
X91767421Y-80273872D01*
X91756823Y-80288356D01*
X91744247Y-80273794D01*
X91737187Y-80245466D01*
X91740724Y-80237860D01*
X91759747Y-80234701D01*
X91769780Y-80255976D01*
G37*
G36*
X83147701Y-80017245D02*
G01*
X83150909Y-80030681D01*
X83143738Y-80054484D01*
X83116473Y-80053538D01*
X83097872Y-80046761D01*
X83082666Y-80028779D01*
X83095340Y-80009369D01*
X83123181Y-80001817D01*
X83147701Y-80017245D01*
G37*
G36*
X84381641Y-80439119D02*
G01*
X84382424Y-80444393D01*
X84375859Y-80463135D01*
X84373938Y-80463636D01*
X84357510Y-80450152D01*
X84353560Y-80444393D01*
X84355086Y-80426662D01*
X84362046Y-80425151D01*
X84381641Y-80439119D01*
G37*
G36*
X84401666Y-71775681D02*
G01*
X84420023Y-71792972D01*
X84420909Y-71796059D01*
X84406021Y-71804324D01*
X84401666Y-71804545D01*
X84383163Y-71789752D01*
X84382424Y-71784167D01*
X84394213Y-71772674D01*
X84401666Y-71775681D01*
G37*
G36*
X88534318Y-82260328D02*
G01*
X88534599Y-82275396D01*
X88510312Y-82300942D01*
X88491682Y-82307935D01*
X88466287Y-82303762D01*
X88466007Y-82288693D01*
X88490294Y-82263148D01*
X88508924Y-82256154D01*
X88534318Y-82260328D01*
G37*
G36*
X88652705Y-82579280D02*
G01*
X88654242Y-82591059D01*
X88643483Y-82615929D01*
X88635000Y-82618787D01*
X88619517Y-82602622D01*
X88615757Y-82579167D01*
X88623165Y-82552560D01*
X88635000Y-82551439D01*
X88652705Y-82579280D01*
G37*
G36*
X90944091Y-81242954D02*
G01*
X90962448Y-81260245D01*
X90963333Y-81263332D01*
X90948445Y-81271597D01*
X90944091Y-81271817D01*
X90925588Y-81257025D01*
X90924848Y-81251439D01*
X90936637Y-81239947D01*
X90944091Y-81242954D01*
G37*
G36*
X91308914Y-81247301D02*
G01*
X91309697Y-81252575D01*
X91303132Y-81271317D01*
X91301211Y-81271817D01*
X91284783Y-81258334D01*
X91280833Y-81252575D01*
X91282359Y-81234843D01*
X91289319Y-81233333D01*
X91308914Y-81247301D01*
G37*
G36*
X91347622Y-73781915D02*
G01*
X91348182Y-73786514D01*
X91333539Y-73805198D01*
X91328939Y-73805757D01*
X91310256Y-73791114D01*
X91309697Y-73786514D01*
X91324340Y-73767831D01*
X91328939Y-73767272D01*
X91347622Y-73781915D01*
G37*
G36*
X91848081Y-79992274D02*
G01*
X91861804Y-80012266D01*
X91853609Y-80026755D01*
X91823898Y-80028919D01*
X91814810Y-80026481D01*
X91792408Y-80007189D01*
X91799254Y-79987525D01*
X91818485Y-79982575D01*
X91848081Y-79992274D01*
G37*
G36*
X88190967Y-81599572D02*
G01*
X88189111Y-81611553D01*
X88173005Y-81637833D01*
X88145838Y-81653542D01*
X88122166Y-81653154D01*
X88115454Y-81639511D01*
X88130542Y-81615867D01*
X88155658Y-81598019D01*
X88184864Y-81586152D01*
X88190967Y-81599572D01*
G37*
G36*
X91510255Y-81219688D02*
G01*
X91560217Y-81227815D01*
X91590667Y-81243018D01*
X91593639Y-81247764D01*
X91588329Y-81267814D01*
X91554409Y-81266553D01*
X91495207Y-81244141D01*
X91492500Y-81242873D01*
X91434773Y-81215664D01*
X91510255Y-81219688D01*
G37*
G36*
X89878804Y-80938860D02*
G01*
X89902959Y-80968561D01*
X89913898Y-80998775D01*
X89910281Y-81009970D01*
X89881015Y-81020077D01*
X89852175Y-80991900D01*
X89847950Y-80984446D01*
X89830219Y-80944702D01*
X89835303Y-80927976D01*
X89852265Y-80925454D01*
X89878804Y-80938860D01*
G37*
G36*
X84218772Y-79057700D02*
G01*
X84225468Y-79106852D01*
X84228421Y-79179864D01*
X84228485Y-79193636D01*
X84226234Y-79269870D01*
X84220090Y-79323442D01*
X84210964Y-79347062D01*
X84209242Y-79347575D01*
X84199713Y-79329571D01*
X84193016Y-79280419D01*
X84190064Y-79207407D01*
X84190000Y-79193636D01*
X84192250Y-79117401D01*
X84198394Y-79063829D01*
X84207521Y-79040209D01*
X84209242Y-79039696D01*
X84218772Y-79057700D01*
G37*
G36*
X88742927Y-82137358D02*
G01*
X88747271Y-82168773D01*
X88738142Y-82252367D01*
X88695477Y-82323806D01*
X88681857Y-82338271D01*
X88644209Y-82365585D01*
X88621533Y-82359024D01*
X88615757Y-82330151D01*
X88628763Y-82298071D01*
X88646977Y-82291666D01*
X88667349Y-82286314D01*
X88655836Y-82264728D01*
X88654983Y-82263695D01*
X88643055Y-82236184D01*
X88654052Y-82199411D01*
X88666041Y-82177708D01*
X88701800Y-82127181D01*
X88727449Y-82113729D01*
X88742927Y-82137358D01*
G37*
G36*
X91155068Y-81439990D02*
G01*
X91155757Y-81444999D01*
X91171034Y-81462726D01*
X91180716Y-81464242D01*
X91208676Y-81477799D01*
X91249666Y-81511522D01*
X91293366Y-81554982D01*
X91329454Y-81597753D01*
X91347610Y-81629409D01*
X91348182Y-81633424D01*
X91342112Y-81653264D01*
X91321172Y-81649667D01*
X91281266Y-81620781D01*
X91239804Y-81584480D01*
X91186749Y-81531467D01*
X91147877Y-81483290D01*
X91127393Y-81446372D01*
X91129505Y-81427132D01*
X91135838Y-81425757D01*
X91155068Y-81439990D01*
G37*
G36*
X89008313Y-82313232D02*
G01*
X89010485Y-82337254D01*
X88997702Y-82376946D01*
X88972688Y-82413822D01*
X88939701Y-82419786D01*
X88931834Y-82418104D01*
X88885554Y-82421570D01*
X88865755Y-82436170D01*
X88833694Y-82462408D01*
X88813199Y-82454139D01*
X88808182Y-82426363D01*
X88821241Y-82384473D01*
X88846666Y-82349393D01*
X88886360Y-82318368D01*
X88914425Y-82312610D01*
X88923636Y-82330151D01*
X88936928Y-82347328D01*
X88963989Y-82346151D01*
X88985601Y-82328085D01*
X88986747Y-82325340D01*
X89001938Y-82310449D01*
X89008313Y-82313232D01*
G37*
G36*
X91743831Y-80941816D02*
G01*
X91769304Y-80970859D01*
X91771515Y-80987118D01*
X91784280Y-81030615D01*
X91813354Y-81073342D01*
X91842376Y-81107100D01*
X91842574Y-81115404D01*
X91814287Y-81097863D01*
X91800799Y-81087882D01*
X91753983Y-81068858D01*
X91685459Y-81070714D01*
X91681505Y-81071290D01*
X91625941Y-81075963D01*
X91589092Y-81064785D01*
X91552515Y-81031931D01*
X91550708Y-81029987D01*
X91515375Y-80983603D01*
X91513488Y-80953384D01*
X91546645Y-80935943D01*
X91598285Y-80928998D01*
X91687719Y-80928162D01*
X91743831Y-80941816D01*
G37*
G36*
X89614476Y-81286101D02*
G01*
X89667345Y-81357791D01*
X89690709Y-81426384D01*
X89685524Y-81476080D01*
X89673685Y-81492612D01*
X89655070Y-81481854D01*
X89633946Y-81456881D01*
X89595131Y-81421792D01*
X89556036Y-81406535D01*
X89554883Y-81406514D01*
X89528461Y-81411919D01*
X89535448Y-81430624D01*
X89544569Y-81465956D01*
X89532921Y-81496844D01*
X89510384Y-81538954D01*
X89486404Y-81488140D01*
X89464224Y-81428481D01*
X89468313Y-81393641D01*
X89500335Y-81378850D01*
X89524962Y-81377465D01*
X89566442Y-81372376D01*
X89584231Y-81359714D01*
X89584173Y-81358050D01*
X89577913Y-81326324D01*
X89568258Y-81281080D01*
X89555669Y-81223711D01*
X89614476Y-81286101D01*
G37*
G36*
X90347147Y-77758285D02*
G01*
X90452306Y-77799802D01*
X90467195Y-77808687D01*
X90544623Y-77870891D01*
X90594392Y-77947196D01*
X90619769Y-78044583D01*
X90624673Y-78144923D01*
X90608889Y-78278787D01*
X90568081Y-78399687D01*
X90506138Y-78502654D01*
X90426949Y-78582718D01*
X90334404Y-78634908D01*
X90232394Y-78654255D01*
X90226058Y-78654263D01*
X90170028Y-78647109D01*
X90127733Y-78632181D01*
X90041497Y-78560056D01*
X89974646Y-78455693D01*
X89928106Y-78320621D01*
X89921732Y-78292075D01*
X89908908Y-78219853D01*
X89907223Y-78166764D01*
X89910216Y-78151605D01*
X90234343Y-78151605D01*
X90238833Y-78208212D01*
X90250121Y-78251729D01*
X90267968Y-78269968D01*
X90268831Y-78269999D01*
X90282915Y-78253165D01*
X90296321Y-78211613D01*
X90298503Y-78201037D01*
X90304069Y-78139312D01*
X90299439Y-78082249D01*
X90286688Y-78040432D01*
X90267890Y-78024449D01*
X90264042Y-78025126D01*
X90246709Y-78047873D01*
X90236889Y-78094095D01*
X90234343Y-78151605D01*
X89910216Y-78151605D01*
X89917469Y-78114871D01*
X89931498Y-78071578D01*
X89989624Y-77944532D01*
X90063347Y-77848160D01*
X90149572Y-77783983D01*
X90245204Y-77753518D01*
X90347147Y-77758285D01*
G37*
G36*
X89221028Y-81196735D02*
G01*
X89220096Y-81200837D01*
X89216116Y-81241633D01*
X89234169Y-81260988D01*
X89248376Y-81265619D01*
X89275268Y-81279865D01*
X89289022Y-81310295D01*
X89292032Y-81365323D01*
X89289831Y-81411325D01*
X89295851Y-81451124D01*
X89314273Y-81464075D01*
X89335421Y-81445515D01*
X89339969Y-81435489D01*
X89357757Y-81415914D01*
X89376171Y-81426940D01*
X89385405Y-81462123D01*
X89385454Y-81465377D01*
X89392584Y-81496041D01*
X89402005Y-81502727D01*
X89413085Y-81520055D01*
X89423820Y-81564573D01*
X89429283Y-81603749D01*
X89438261Y-81669472D01*
X89449163Y-81724204D01*
X89454821Y-81743257D01*
X89462450Y-81769512D01*
X89448910Y-81764618D01*
X89438006Y-81756032D01*
X89402270Y-81739261D01*
X89376711Y-81757535D01*
X89359557Y-81810205D01*
X89341407Y-81854241D01*
X89316981Y-81868808D01*
X89296201Y-81853173D01*
X89288814Y-81815416D01*
X89276611Y-81760846D01*
X89252144Y-81715342D01*
X89223881Y-81684486D01*
X89201614Y-81682529D01*
X89183555Y-81695029D01*
X89165140Y-81719469D01*
X89159551Y-81756940D01*
X89166817Y-81815460D01*
X89184279Y-81892386D01*
X89185476Y-81931037D01*
X89171697Y-81947357D01*
X89152793Y-81935417D01*
X89144320Y-81916439D01*
X89127050Y-81862532D01*
X89115609Y-81838188D01*
X89103976Y-81836353D01*
X89086969Y-81849279D01*
X89062489Y-81885261D01*
X89058333Y-81905496D01*
X89047385Y-81946711D01*
X89031859Y-81974153D01*
X89012647Y-81995887D01*
X88997698Y-81990887D01*
X88976887Y-81955247D01*
X88975400Y-81952376D01*
X88945473Y-81904218D01*
X88915436Y-81869512D01*
X88915284Y-81869386D01*
X88891944Y-81828475D01*
X88884242Y-81768004D01*
X88891627Y-81703325D01*
X88913545Y-81649791D01*
X88923636Y-81637423D01*
X88957750Y-81582697D01*
X88953490Y-81525060D01*
X88938810Y-81499194D01*
X89120883Y-81499194D01*
X89124341Y-81553433D01*
X89156086Y-81606148D01*
X89193066Y-81640962D01*
X89219101Y-81640538D01*
X89231003Y-81605434D01*
X89231408Y-81592992D01*
X89226210Y-81547124D01*
X89213500Y-81487265D01*
X89210068Y-81474353D01*
X89188835Y-81397874D01*
X89152448Y-81442811D01*
X89120883Y-81499194D01*
X88938810Y-81499194D01*
X88934711Y-81491972D01*
X88917735Y-81472905D01*
X88903796Y-81475249D01*
X88886630Y-81504179D01*
X88867362Y-81547617D01*
X88844711Y-81603495D01*
X88830238Y-81645219D01*
X88827424Y-81658261D01*
X88812918Y-81675581D01*
X88809478Y-81675908D01*
X88789375Y-81691642D01*
X88780726Y-81709958D01*
X88753693Y-81744284D01*
X88700137Y-81779693D01*
X88631265Y-81809678D01*
X88586894Y-81822443D01*
X88548465Y-81829770D01*
X88541963Y-81822942D01*
X88560403Y-81799055D01*
X88585204Y-81755012D01*
X88603235Y-81697408D01*
X88604075Y-81692982D01*
X88623711Y-81635384D01*
X88654595Y-81589509D01*
X88657112Y-81587149D01*
X88690040Y-81546722D01*
X88723591Y-81489233D01*
X88733197Y-81468644D01*
X88761544Y-81416866D01*
X88791732Y-81381971D01*
X88802862Y-81375497D01*
X88884287Y-81344426D01*
X88933719Y-81311258D01*
X88957486Y-81270349D01*
X88962254Y-81233333D01*
X88962977Y-81185227D01*
X89001463Y-81233333D01*
X89033568Y-81285950D01*
X89051547Y-81334355D01*
X89061945Y-81373687D01*
X89076785Y-81383872D01*
X89107719Y-81368310D01*
X89108150Y-81368030D01*
X89154545Y-81368030D01*
X89169188Y-81386713D01*
X89173788Y-81387272D01*
X89192471Y-81372629D01*
X89193030Y-81368030D01*
X89178387Y-81349346D01*
X89173788Y-81348787D01*
X89155104Y-81363430D01*
X89154545Y-81368030D01*
X89108150Y-81368030D01*
X89126359Y-81356195D01*
X89159133Y-81328706D01*
X89174516Y-81304653D01*
X89167529Y-81293400D01*
X89159356Y-81294115D01*
X89131200Y-81289804D01*
X89112738Y-81283006D01*
X89093361Y-81270060D01*
X89099604Y-81251498D01*
X89122359Y-81227034D01*
X89156908Y-81199287D01*
X89181545Y-81191020D01*
X89181646Y-81191053D01*
X89206141Y-81182747D01*
X89215904Y-81171810D01*
X89224654Y-81167499D01*
X89221028Y-81196735D01*
G37*
G36*
X83497273Y-71419696D02*
G01*
X83493005Y-71467895D01*
X83482343Y-71494703D01*
X83478030Y-71496666D01*
X83459324Y-71508929D01*
X83458788Y-71512680D01*
X83474787Y-71529225D01*
X83512827Y-71545464D01*
X83557967Y-71557291D01*
X83595268Y-71560602D01*
X83609520Y-71554101D01*
X83630958Y-71542038D01*
X83676317Y-71535523D01*
X83691300Y-71535151D01*
X83738903Y-71530798D01*
X83764982Y-71519951D01*
X83766666Y-71515908D01*
X83749360Y-71504932D01*
X83705111Y-71497964D01*
X83670454Y-71496666D01*
X83610386Y-71494154D01*
X83582286Y-71481248D01*
X83579706Y-71449889D01*
X83593485Y-71400454D01*
X83604542Y-71368350D01*
X83608993Y-71371383D01*
X83610809Y-71407713D01*
X83613773Y-71440047D01*
X83626372Y-71455267D01*
X83658576Y-71457965D01*
X83710567Y-71453676D01*
X83773951Y-71450800D01*
X83808003Y-71458568D01*
X83818914Y-71471657D01*
X83846159Y-71491451D01*
X83889153Y-71493042D01*
X83934732Y-71494870D01*
X83954094Y-71515361D01*
X83955399Y-71520719D01*
X83951481Y-71548882D01*
X83941259Y-71554393D01*
X83925737Y-71570851D01*
X83920606Y-71602499D01*
X83929626Y-71640222D01*
X83959091Y-71650605D01*
X83990299Y-71639438D01*
X83997576Y-71623800D01*
X84006612Y-71598149D01*
X84037261Y-71587161D01*
X84094839Y-71590109D01*
X84161136Y-71601473D01*
X84225775Y-71615794D01*
X84265578Y-71632995D01*
X84293579Y-71662802D01*
X84322814Y-71714937D01*
X84328727Y-71726489D01*
X84357503Y-71781921D01*
X84378986Y-71821547D01*
X84387259Y-71835036D01*
X84409047Y-71843729D01*
X84456888Y-71857944D01*
X84519303Y-71874692D01*
X84584813Y-71890983D01*
X84641938Y-71903827D01*
X84673263Y-71909525D01*
X84716314Y-71927265D01*
X84767745Y-71964171D01*
X84790662Y-71985616D01*
X84833415Y-72025597D01*
X84867639Y-72050538D01*
X84878881Y-72054696D01*
X84903597Y-72069397D01*
X84937417Y-72105179D01*
X84970617Y-72149557D01*
X84993472Y-72190049D01*
X84998182Y-72207833D01*
X85005879Y-72216978D01*
X85032063Y-72222604D01*
X85081375Y-72224869D01*
X85158452Y-72223930D01*
X85267937Y-72219944D01*
X85306060Y-72218257D01*
X85423174Y-72213145D01*
X85507165Y-72210800D01*
X85563351Y-72212220D01*
X85597055Y-72218403D01*
X85613595Y-72230348D01*
X85618293Y-72249053D01*
X85616469Y-72275517D01*
X85616363Y-72276496D01*
X85631028Y-72297320D01*
X85671086Y-72324477D01*
X85725580Y-72351649D01*
X85782310Y-72372172D01*
X85818587Y-72390439D01*
X85821327Y-72410474D01*
X85791932Y-72424195D01*
X85778797Y-72434290D01*
X85795271Y-72450390D01*
X85833547Y-72469486D01*
X85885819Y-72488567D01*
X85944282Y-72504624D01*
X86001131Y-72514648D01*
X86031370Y-72516514D01*
X86106675Y-72523198D01*
X86150112Y-72542555D01*
X86152727Y-72545378D01*
X86185488Y-72569830D01*
X86203189Y-72574242D01*
X86226643Y-72589695D01*
X86229697Y-72603105D01*
X86241373Y-72622402D01*
X86280828Y-72630983D01*
X86313602Y-72631969D01*
X86409700Y-72648895D01*
X86467542Y-72679495D01*
X86511399Y-72706760D01*
X86532398Y-72711481D01*
X86537576Y-72696524D01*
X86541024Y-72677294D01*
X86558102Y-72680504D01*
X86585005Y-72697104D01*
X86629421Y-72719943D01*
X86661974Y-72728181D01*
X86685888Y-72744834D01*
X86691515Y-72776287D01*
X86696466Y-72812525D01*
X86705947Y-72824525D01*
X86727541Y-72840100D01*
X86756437Y-72877837D01*
X86784445Y-72924668D01*
X86803375Y-72967525D01*
X86806970Y-72985708D01*
X86819915Y-73026858D01*
X86835833Y-73048430D01*
X86859944Y-73088888D01*
X86864697Y-73113465D01*
X86869449Y-73151206D01*
X86881724Y-73211018D01*
X86894043Y-73261219D01*
X86912968Y-73342822D01*
X86931543Y-73438391D01*
X86942550Y-73506012D01*
X86954444Y-73575640D01*
X86967311Y-73630831D01*
X86978392Y-73659783D01*
X86978525Y-73659951D01*
X86987183Y-73687450D01*
X86996073Y-73743401D01*
X87003758Y-73817803D01*
X87006391Y-73853863D01*
X87017357Y-73984872D01*
X87032026Y-74099208D01*
X87049299Y-74190146D01*
X87068078Y-74250958D01*
X87072737Y-74260412D01*
X87088033Y-74279608D01*
X87104335Y-74269920D01*
X87120536Y-74246487D01*
X87130443Y-74223231D01*
X87139016Y-74184065D01*
X87146634Y-74124892D01*
X87153680Y-74041613D01*
X87160533Y-73930128D01*
X87167575Y-73786339D01*
X87171334Y-73699923D01*
X87178406Y-73536500D01*
X87186364Y-73359770D01*
X87194659Y-73181495D01*
X87202738Y-73013438D01*
X87210052Y-72867360D01*
X87212645Y-72817632D01*
X87219614Y-72672342D01*
X87223188Y-72559474D01*
X87223320Y-72473114D01*
X87219963Y-72407345D01*
X87213070Y-72356252D01*
X87208827Y-72336572D01*
X87192367Y-72277020D01*
X87176482Y-72232786D01*
X87169064Y-72219219D01*
X87156719Y-72187247D01*
X87152721Y-72151870D01*
X87141041Y-72098026D01*
X87123858Y-72065450D01*
X87103862Y-72013962D01*
X87096640Y-71935485D01*
X87102171Y-71839324D01*
X87120430Y-71734787D01*
X87124713Y-71717186D01*
X87141154Y-71654111D01*
X87155742Y-71605422D01*
X87173167Y-71558175D01*
X87198118Y-71499424D01*
X87227237Y-71434128D01*
X87268288Y-71342727D01*
X87670594Y-71342727D01*
X88072900Y-71342727D01*
X88130710Y-71396730D01*
X88188764Y-71438993D01*
X88256546Y-71472889D01*
X88267243Y-71476714D01*
X88318175Y-71495653D01*
X88362976Y-71518992D01*
X88412524Y-71553570D01*
X88477697Y-71606222D01*
X88490895Y-71617279D01*
X88546913Y-71657138D01*
X88604404Y-71687639D01*
X88614500Y-71691535D01*
X88668836Y-71719743D01*
X88723425Y-71761502D01*
X88730349Y-71768157D01*
X88772111Y-71803503D01*
X88807232Y-71822658D01*
X88813967Y-71823787D01*
X88848651Y-71837434D01*
X88867076Y-71854057D01*
X88899205Y-71881968D01*
X88949392Y-71915393D01*
X88968165Y-71926216D01*
X89026576Y-71958417D01*
X89078609Y-71987090D01*
X89089718Y-71993208D01*
X89123496Y-72017818D01*
X89135303Y-72036504D01*
X89150981Y-72052472D01*
X89165321Y-72054696D01*
X89196240Y-72065785D01*
X89244625Y-72094405D01*
X89284182Y-72122533D01*
X89341122Y-72162122D01*
X89392883Y-72191648D01*
X89417725Y-72201589D01*
X89452119Y-72216670D01*
X89462424Y-72230568D01*
X89477764Y-72252081D01*
X89491574Y-72259514D01*
X89523696Y-72279292D01*
X89567353Y-72314564D01*
X89579310Y-72325427D01*
X89635319Y-72368039D01*
X89696050Y-72400959D01*
X89704099Y-72404094D01*
X89747391Y-72423515D01*
X89769548Y-72440821D01*
X89770303Y-72443410D01*
X89786354Y-72456158D01*
X89806575Y-72458787D01*
X89843598Y-72473746D01*
X89871595Y-72502663D01*
X89904353Y-72539133D01*
X89955287Y-72582482D01*
X89984452Y-72603631D01*
X90033682Y-72637959D01*
X90068519Y-72663939D01*
X90078182Y-72672422D01*
X90101164Y-72685393D01*
X90146227Y-72703012D01*
X90159962Y-72707642D01*
X90205847Y-72728803D01*
X90230677Y-72752328D01*
X90232121Y-72758170D01*
X90248540Y-72782483D01*
X90280735Y-72797376D01*
X90325681Y-72820434D01*
X90349049Y-72846388D01*
X90371636Y-72871036D01*
X90387026Y-72871903D01*
X90404083Y-72873638D01*
X90405303Y-72879739D01*
X90421589Y-72898069D01*
X90461835Y-72919066D01*
X90472651Y-72923225D01*
X90523331Y-72951040D01*
X90540000Y-72982198D01*
X90551168Y-73012425D01*
X90564053Y-73019037D01*
X90601964Y-73024577D01*
X90607348Y-73025727D01*
X90642787Y-73031448D01*
X90658072Y-73033129D01*
X90686073Y-73051112D01*
X90715625Y-73091919D01*
X90721496Y-73103372D01*
X90760258Y-73158103D01*
X90811290Y-73199661D01*
X90815090Y-73201662D01*
X90866257Y-73233694D01*
X90905270Y-73268593D01*
X90906360Y-73269937D01*
X90947789Y-73300901D01*
X90981449Y-73310660D01*
X91020702Y-73326343D01*
X91035856Y-73348254D01*
X91055328Y-73377128D01*
X91070323Y-73382423D01*
X91096475Y-73397580D01*
X91126573Y-73434624D01*
X91129955Y-73440151D01*
X91158050Y-73479049D01*
X91181770Y-73498008D01*
X91183959Y-73498351D01*
X91204743Y-73514347D01*
X91229955Y-73553034D01*
X91233917Y-73560889D01*
X91248276Y-73598465D01*
X91254817Y-73641975D01*
X91254065Y-73701849D01*
X91246545Y-73788517D01*
X91245750Y-73796136D01*
X91237740Y-73886194D01*
X91236638Y-73949430D01*
X91242998Y-73996979D01*
X91257378Y-74039974D01*
X91258010Y-74041477D01*
X91290317Y-74095829D01*
X91326547Y-74113635D01*
X91326726Y-74113636D01*
X91364573Y-74132006D01*
X91404814Y-74184665D01*
X91408221Y-74190605D01*
X91438789Y-74236691D01*
X91466035Y-74264182D01*
X91474766Y-74267575D01*
X91503879Y-74280496D01*
X91544411Y-74311858D01*
X91584425Y-74350561D01*
X91611982Y-74385504D01*
X91617576Y-74400371D01*
X91634031Y-74416260D01*
X91665682Y-74421514D01*
X91704180Y-74431412D01*
X91713788Y-74449934D01*
X91728568Y-74480067D01*
X91761894Y-74509875D01*
X91791913Y-74536040D01*
X91806186Y-74571798D01*
X91809989Y-74630991D01*
X91810000Y-74636012D01*
X91816132Y-74714516D01*
X91832416Y-74782225D01*
X91855683Y-74831130D01*
X91882765Y-74853221D01*
X91895527Y-74852214D01*
X91920883Y-74852506D01*
X91925454Y-74862031D01*
X91909000Y-74878039D01*
X91877348Y-74883333D01*
X91846780Y-74887541D01*
X91831983Y-74907185D01*
X91826311Y-74952791D01*
X91825723Y-74965113D01*
X91824447Y-75064287D01*
X91831264Y-75131275D01*
X91847015Y-75171686D01*
X91858549Y-75183711D01*
X91875371Y-75211815D01*
X91884931Y-75256214D01*
X91886411Y-75302552D01*
X91878997Y-75336474D01*
X91867727Y-75345151D01*
X91834571Y-75360608D01*
X91799782Y-75397097D01*
X91775711Y-75439798D01*
X91771515Y-75460605D01*
X91757909Y-75492765D01*
X91733030Y-75499090D01*
X91701831Y-75510652D01*
X91694545Y-75526863D01*
X91680146Y-75559152D01*
X91658644Y-75579781D01*
X91640731Y-75598939D01*
X91628622Y-75631743D01*
X91620579Y-75686143D01*
X91614864Y-75770091D01*
X91614233Y-75782918D01*
X91611865Y-75860266D01*
X91612548Y-75920635D01*
X91616056Y-75955581D01*
X91619027Y-75960908D01*
X91632216Y-75977285D01*
X91641346Y-76008064D01*
X91643032Y-76042369D01*
X91631329Y-76047657D01*
X91610116Y-76029304D01*
X91583274Y-75992687D01*
X91554682Y-75943181D01*
X91528220Y-75886162D01*
X91508380Y-75828777D01*
X91540606Y-75828777D01*
X91547754Y-75861512D01*
X91562820Y-75876316D01*
X91576044Y-75864215D01*
X91570778Y-75832559D01*
X91562013Y-75820679D01*
X91544289Y-75811370D01*
X91540606Y-75828777D01*
X91508380Y-75828777D01*
X91507768Y-75827008D01*
X91506047Y-75820583D01*
X91491851Y-75783847D01*
X91477617Y-75772121D01*
X91460206Y-75760689D01*
X91431570Y-75724893D01*
X91397926Y-75674674D01*
X91396502Y-75672272D01*
X91502121Y-75672272D01*
X91515932Y-75690964D01*
X91520228Y-75691514D01*
X91546289Y-75677527D01*
X91550227Y-75672272D01*
X91545865Y-75655799D01*
X91532120Y-75653030D01*
X91505793Y-75663076D01*
X91502121Y-75672272D01*
X91396502Y-75672272D01*
X91365489Y-75619974D01*
X91340473Y-75570737D01*
X91329093Y-75536903D01*
X91328939Y-75534290D01*
X91315971Y-75512796D01*
X91284042Y-75476086D01*
X91366832Y-75476086D01*
X91367684Y-75509935D01*
X91374051Y-75527466D01*
X91396288Y-75575059D01*
X91407806Y-75532264D01*
X91411200Y-75491906D01*
X91404672Y-75472865D01*
X91381046Y-75460367D01*
X91366832Y-75476086D01*
X91284042Y-75476086D01*
X91281928Y-75473656D01*
X91234100Y-75425234D01*
X91232727Y-75423915D01*
X91184823Y-75376588D01*
X91164344Y-75354772D01*
X91213485Y-75354772D01*
X91223106Y-75364393D01*
X91232727Y-75354772D01*
X91223106Y-75345151D01*
X91213485Y-75354772D01*
X91164344Y-75354772D01*
X91150362Y-75339877D01*
X91136537Y-75321461D01*
X91136515Y-75321215D01*
X91123940Y-75303030D01*
X91090947Y-75265363D01*
X91044631Y-75215539D01*
X90992091Y-75160883D01*
X90940424Y-75108721D01*
X90896725Y-75066376D01*
X90868092Y-75041174D01*
X90861411Y-75037272D01*
X90841766Y-75024810D01*
X90805699Y-74993151D01*
X90784011Y-74972121D01*
X90736097Y-74929998D01*
X90691552Y-74900052D01*
X90677536Y-74893855D01*
X90644968Y-74876586D01*
X90636212Y-74862793D01*
X90620758Y-74846546D01*
X90609407Y-74844848D01*
X90579701Y-74829326D01*
X90571526Y-74815984D01*
X90550457Y-74790471D01*
X90539320Y-74787120D01*
X90511554Y-74776294D01*
X90468922Y-74749408D01*
X90456936Y-74740594D01*
X90415199Y-74713683D01*
X90352364Y-74678681D01*
X90277507Y-74640007D01*
X90199704Y-74602081D01*
X90128031Y-74569321D01*
X90071564Y-74546149D01*
X90039379Y-74536982D01*
X90038767Y-74536969D01*
X90011553Y-74532691D01*
X89955947Y-74521144D01*
X89880926Y-74504259D01*
X89821115Y-74490164D01*
X89678236Y-74458312D01*
X89557183Y-74438093D01*
X89444195Y-74428549D01*
X89325510Y-74428719D01*
X89187364Y-74437643D01*
X89135303Y-74442333D01*
X89025648Y-74451874D01*
X88916922Y-74459928D01*
X88821399Y-74465671D01*
X88751354Y-74468276D01*
X88749121Y-74468305D01*
X88676624Y-74471202D01*
X88629964Y-74480267D01*
X88596578Y-74499143D01*
X88575940Y-74518505D01*
X88540485Y-74547308D01*
X88479908Y-74588335D01*
X88403107Y-74635817D01*
X88329771Y-74678029D01*
X88123386Y-74803968D01*
X87923150Y-74947615D01*
X87736921Y-75102437D01*
X87572561Y-75261902D01*
X87438386Y-75418873D01*
X87379153Y-75495686D01*
X87312667Y-75580151D01*
X87268881Y-75634737D01*
X87182705Y-75743628D01*
X87113818Y-75838472D01*
X87054538Y-75931399D01*
X86997187Y-76034538D01*
X86934085Y-76160019D01*
X86926774Y-76175065D01*
X86886206Y-76261053D01*
X86851135Y-76339640D01*
X86825659Y-76401378D01*
X86814546Y-76433800D01*
X86792353Y-76503647D01*
X86762215Y-76575181D01*
X86730205Y-76635532D01*
X86702395Y-76671831D01*
X86702124Y-76672058D01*
X86680086Y-76681853D01*
X86658175Y-76666138D01*
X86634624Y-76631304D01*
X86609514Y-76587292D01*
X86596078Y-76558238D01*
X86595375Y-76554826D01*
X86579695Y-76534593D01*
X86541854Y-76508178D01*
X86495391Y-76483763D01*
X86454430Y-76469643D01*
X86418387Y-76455396D01*
X86406149Y-76442160D01*
X86384752Y-76423265D01*
X86379973Y-76422727D01*
X86351031Y-76414478D01*
X86300494Y-76393371D01*
X86239523Y-76364858D01*
X86179283Y-76334395D01*
X86130935Y-76307436D01*
X86105644Y-76289435D01*
X86104754Y-76288244D01*
X86079907Y-76277530D01*
X86069651Y-76279722D01*
X86040756Y-76278050D01*
X85987117Y-76265009D01*
X85919793Y-76243344D01*
X85912716Y-76240802D01*
X85847299Y-76218558D01*
X85797247Y-76204321D01*
X85772194Y-76200783D01*
X85771250Y-76201275D01*
X85751467Y-76197440D01*
X85715179Y-76176393D01*
X85712323Y-76174399D01*
X85656697Y-76145301D01*
X85594697Y-76125698D01*
X85531973Y-76108645D01*
X85463047Y-76083360D01*
X85450379Y-76077861D01*
X85386043Y-76051295D01*
X85308019Y-76022287D01*
X85267576Y-76008448D01*
X85208404Y-75987028D01*
X85165532Y-75967808D01*
X85151098Y-75957862D01*
X85129010Y-75944360D01*
X85080029Y-75922798D01*
X85013755Y-75897323D01*
X84997159Y-75891376D01*
X84921107Y-75860878D01*
X84853596Y-75827481D01*
X84807978Y-75797874D01*
X84804704Y-75794982D01*
X84744616Y-75758544D01*
X84696417Y-75749242D01*
X84647476Y-75741398D01*
X84615965Y-75723549D01*
X84585249Y-75702052D01*
X84533673Y-75678822D01*
X84512586Y-75671439D01*
X84460851Y-75652834D01*
X84426712Y-75636932D01*
X84420909Y-75632468D01*
X84386678Y-75607293D01*
X84325355Y-75579321D01*
X84247664Y-75552909D01*
X84185189Y-75536760D01*
X84126184Y-75521157D01*
X84086044Y-75505741D01*
X84074545Y-75496028D01*
X84059114Y-75481279D01*
X84048390Y-75479848D01*
X84018586Y-75471249D01*
X83967175Y-75448867D01*
X83914057Y-75422120D01*
X83849514Y-75391461D01*
X83791883Y-75370527D01*
X83759765Y-75364393D01*
X83713647Y-75352991D01*
X83689697Y-75335530D01*
X83661223Y-75311302D01*
X83647481Y-75306666D01*
X83620281Y-75294388D01*
X83600357Y-75277802D01*
X83560004Y-75253697D01*
X83535519Y-75248939D01*
X83499256Y-75239781D01*
X83487651Y-75229696D01*
X83462039Y-75216634D01*
X83415499Y-75210517D01*
X83410150Y-75210454D01*
X83366125Y-75206499D01*
X83353171Y-75192227D01*
X83355617Y-75181590D01*
X83352257Y-75156399D01*
X83315473Y-75148962D01*
X83293236Y-75150643D01*
X83257938Y-75143519D01*
X83202026Y-75121031D01*
X83137084Y-75088893D01*
X83074696Y-75052821D01*
X83027885Y-75019733D01*
X83022673Y-75012788D01*
X83018076Y-74999621D01*
X83014056Y-74977956D01*
X83010574Y-74945518D01*
X83007593Y-74900032D01*
X83005075Y-74839224D01*
X83002982Y-74760819D01*
X83001275Y-74662541D01*
X82999918Y-74542115D01*
X82999139Y-74434365D01*
X88626464Y-74434365D01*
X88637879Y-74439252D01*
X88672927Y-74422266D01*
X88690779Y-74401174D01*
X88688276Y-74391406D01*
X88666667Y-74392907D01*
X88644163Y-74409602D01*
X88626464Y-74434365D01*
X82999139Y-74434365D01*
X82998871Y-74397267D01*
X82998097Y-74225722D01*
X82997558Y-74025205D01*
X82997216Y-73793441D01*
X82997033Y-73528155D01*
X82996971Y-73227072D01*
X82996970Y-73168401D01*
X82996970Y-71342727D01*
X83247121Y-71342727D01*
X83497273Y-71342727D01*
X83497273Y-71419696D01*
G37*
G36*
X88962882Y-75287423D02*
G01*
X88963497Y-75352196D01*
X88950440Y-75393950D01*
X88934071Y-75414434D01*
X88913569Y-75450358D01*
X88897619Y-75503650D01*
X88889906Y-75557244D01*
X88894111Y-75594074D01*
X88894975Y-75595630D01*
X88916273Y-75614235D01*
X88933870Y-75594895D01*
X88947888Y-75537437D01*
X88950822Y-75517290D01*
X88960388Y-75460154D01*
X88972225Y-75433447D01*
X88990895Y-75429182D01*
X88999822Y-75431493D01*
X89032593Y-75428689D01*
X89070190Y-75396568D01*
X89088664Y-75373801D01*
X89124748Y-75332271D01*
X89147589Y-75321760D01*
X89157303Y-75329711D01*
X89172731Y-75371113D01*
X89162786Y-75398023D01*
X89146060Y-75402878D01*
X89111509Y-75416198D01*
X89104565Y-75447005D01*
X89120072Y-75472864D01*
X89161315Y-75492014D01*
X89206221Y-75479305D01*
X89246532Y-75439469D01*
X89271537Y-75386094D01*
X89295138Y-75334456D01*
X89319743Y-75319321D01*
X89339102Y-75339904D01*
X89346969Y-75395419D01*
X89346970Y-75395577D01*
X89351941Y-75451112D01*
X89363930Y-75493943D01*
X89364233Y-75494541D01*
X89385147Y-75538599D01*
X89401416Y-75576060D01*
X89421335Y-75624166D01*
X89422637Y-75572155D01*
X89425149Y-75556817D01*
X89616363Y-75556817D01*
X89623404Y-75572656D01*
X89629192Y-75569646D01*
X89631495Y-75546809D01*
X89629192Y-75543989D01*
X89617752Y-75546631D01*
X89616363Y-75556817D01*
X89425149Y-75556817D01*
X89434204Y-75501515D01*
X89461568Y-75448866D01*
X89499483Y-75423245D01*
X89509770Y-75422120D01*
X89553244Y-75412692D01*
X89572393Y-75400667D01*
X89592445Y-75395294D01*
X89615494Y-75422157D01*
X89624841Y-75439152D01*
X89652295Y-75480374D01*
X89677063Y-75499184D01*
X89691848Y-75491248D01*
X89693333Y-75479848D01*
X89707976Y-75461164D01*
X89712576Y-75460605D01*
X89728426Y-75476651D01*
X89731818Y-75497516D01*
X89738493Y-75547475D01*
X89744398Y-75567210D01*
X89756120Y-75587034D01*
X89772365Y-75578224D01*
X89789362Y-75557060D01*
X89821747Y-75514126D01*
X89862724Y-75583578D01*
X89892534Y-75626748D01*
X89917738Y-75651063D01*
X89923593Y-75653030D01*
X89941135Y-75668647D01*
X89943485Y-75682497D01*
X89959052Y-75714604D01*
X89972348Y-75723041D01*
X89996619Y-75749266D01*
X90001212Y-75770846D01*
X90006882Y-75815849D01*
X90020961Y-75870028D01*
X90039058Y-75920433D01*
X90056778Y-75954110D01*
X90065683Y-75960908D01*
X90074701Y-75946797D01*
X90071599Y-75933025D01*
X90072621Y-75913266D01*
X90086034Y-75914786D01*
X90107363Y-75937822D01*
X90130152Y-75983683D01*
X90136559Y-76001362D01*
X90159065Y-76060278D01*
X90179317Y-76085515D01*
X90202745Y-76081101D01*
X90221865Y-76064628D01*
X90250675Y-76042438D01*
X90266925Y-76052533D01*
X90276171Y-76092005D01*
X90301380Y-76143306D01*
X90350933Y-76179972D01*
X90399357Y-76191205D01*
X90438197Y-76199579D01*
X90453409Y-76211060D01*
X90479422Y-76224923D01*
X90521893Y-76230302D01*
X90586683Y-76247558D01*
X90634302Y-76292903D01*
X90655197Y-76356702D01*
X90655454Y-76364999D01*
X90661028Y-76405531D01*
X90674457Y-76422722D01*
X90674697Y-76422727D01*
X90686173Y-76439925D01*
X90693056Y-76483440D01*
X90693939Y-76509317D01*
X90697513Y-76560962D01*
X90706554Y-76591938D01*
X90711929Y-76595908D01*
X90741805Y-76602240D01*
X90781369Y-76615470D01*
X90815531Y-76632804D01*
X90817560Y-76651646D01*
X90808909Y-76663841D01*
X90798456Y-76686893D01*
X90810631Y-76713732D01*
X90845302Y-76750280D01*
X90882605Y-76790990D01*
X90903988Y-76824117D01*
X90905938Y-76831795D01*
X90920239Y-76866948D01*
X90953354Y-76900506D01*
X90991961Y-76922151D01*
X91022268Y-76921876D01*
X91056283Y-76904801D01*
X91062242Y-76912822D01*
X91039501Y-76944024D01*
X91032367Y-76951893D01*
X90980403Y-76989458D01*
X90913021Y-77000837D01*
X90844663Y-77005857D01*
X90768700Y-77017258D01*
X90751666Y-77020748D01*
X90676102Y-77034566D01*
X90592635Y-77045892D01*
X90568863Y-77048272D01*
X90500611Y-77055640D01*
X90413007Y-77066941D01*
X90324660Y-77079768D01*
X90322105Y-77080165D01*
X90245109Y-77093399D01*
X90196833Y-77106468D01*
X90167760Y-77123579D01*
X90148374Y-77148939D01*
X90142655Y-77159499D01*
X90113717Y-77199150D01*
X90080819Y-77206560D01*
X90075371Y-77205355D01*
X90033624Y-77207879D01*
X89982176Y-77227303D01*
X89975805Y-77230837D01*
X89885049Y-77264578D01*
X89783276Y-77271951D01*
X89776915Y-77271432D01*
X89763004Y-77254405D01*
X89764727Y-77230908D01*
X89765034Y-77202427D01*
X89738955Y-77192842D01*
X89724441Y-77192423D01*
X89690464Y-77197089D01*
X89676543Y-77218709D01*
X89674091Y-77259772D01*
X89665253Y-77307114D01*
X89643785Y-77329385D01*
X89617251Y-77321181D01*
X89606742Y-77307878D01*
X89584511Y-77289787D01*
X89559505Y-77306529D01*
X89531062Y-77355984D01*
X89506543Y-77399115D01*
X89485556Y-77422144D01*
X89481747Y-77423333D01*
X89465374Y-77439665D01*
X89439733Y-77482236D01*
X89409478Y-77541407D01*
X89379263Y-77607540D01*
X89353745Y-77670994D01*
X89337707Y-77721590D01*
X89318643Y-77834400D01*
X89314892Y-77942433D01*
X89326726Y-78031999D01*
X89331237Y-78047239D01*
X89355828Y-78105020D01*
X89381909Y-78128548D01*
X89414769Y-78121870D01*
X89422702Y-78117214D01*
X89440293Y-78097920D01*
X89426913Y-78071560D01*
X89425156Y-78069420D01*
X89410150Y-78045761D01*
X89424612Y-78039177D01*
X89429712Y-78039090D01*
X89455381Y-78021333D01*
X89479524Y-77973871D01*
X89498371Y-77905420D01*
X89504647Y-77865908D01*
X89521162Y-77826539D01*
X89552510Y-77815682D01*
X89599537Y-77800632D01*
X89627465Y-77780586D01*
X89659400Y-77762241D01*
X89681096Y-77780323D01*
X89691904Y-77833989D01*
X89693038Y-77866035D01*
X89699071Y-77934303D01*
X89712727Y-78000732D01*
X89721700Y-78062637D01*
X89717869Y-78147444D01*
X89707916Y-78221893D01*
X89691250Y-78367840D01*
X89687982Y-78502084D01*
X89697896Y-78616390D01*
X89720424Y-78701678D01*
X89740579Y-78763675D01*
X89750760Y-78821921D01*
X89751060Y-78830379D01*
X89756235Y-78869893D01*
X89768244Y-78885757D01*
X89774927Y-78880486D01*
X91607544Y-78880486D01*
X91616019Y-78930833D01*
X91627253Y-78955891D01*
X91661336Y-78990589D01*
X91690675Y-78990264D01*
X91708886Y-78955466D01*
X91710058Y-78948755D01*
X91707137Y-78907729D01*
X91705080Y-78900399D01*
X91876073Y-78900399D01*
X91894987Y-78903480D01*
X91919945Y-78899942D01*
X91920243Y-78893374D01*
X91894489Y-78888780D01*
X91883362Y-78891854D01*
X91876073Y-78900399D01*
X91705080Y-78900399D01*
X91692677Y-78856200D01*
X91672002Y-78807722D01*
X91650439Y-78775847D01*
X91639941Y-78770302D01*
X91620411Y-78786964D01*
X91609310Y-78828111D01*
X91607544Y-78880486D01*
X89774927Y-78880486D01*
X89790002Y-78868596D01*
X89804974Y-78825348D01*
X89808788Y-78784122D01*
X89813116Y-78757086D01*
X89829434Y-78764070D01*
X89831879Y-78766454D01*
X89872281Y-78788274D01*
X89908911Y-78772355D01*
X89925181Y-78749307D01*
X89935119Y-78715936D01*
X89928546Y-78673375D01*
X89906615Y-78615853D01*
X89881993Y-78552184D01*
X89869267Y-78506353D01*
X89868414Y-78482875D01*
X89879407Y-78486262D01*
X89902220Y-78521028D01*
X89907100Y-78530057D01*
X89938254Y-78584495D01*
X89967119Y-78627961D01*
X89974448Y-78637120D01*
X89996501Y-78671265D01*
X90001212Y-78688446D01*
X90017631Y-78706870D01*
X90059447Y-78730398D01*
X90089094Y-78742954D01*
X90141219Y-78761113D01*
X90181079Y-78766847D01*
X90225218Y-78760103D01*
X90285393Y-78742341D01*
X90328362Y-78724552D01*
X91636818Y-78724552D01*
X91652533Y-78731015D01*
X91665682Y-78731817D01*
X91690637Y-78716237D01*
X91694545Y-78700598D01*
X91689484Y-78680179D01*
X91668479Y-78691040D01*
X91665682Y-78693333D01*
X91641767Y-78716390D01*
X91636818Y-78724552D01*
X90328362Y-78724552D01*
X90419168Y-78686959D01*
X90453243Y-78664471D01*
X92064526Y-78664471D01*
X92085434Y-78686486D01*
X92109393Y-78693333D01*
X92134258Y-78682243D01*
X92137121Y-78673486D01*
X92122035Y-78651136D01*
X92091203Y-78637485D01*
X92067016Y-78641569D01*
X92064526Y-78664471D01*
X90453243Y-78664471D01*
X90529400Y-78614211D01*
X90610911Y-78528187D01*
X90651870Y-78452802D01*
X90675669Y-78389451D01*
X90687994Y-78356424D01*
X91245075Y-78356424D01*
X91248043Y-78379332D01*
X91274501Y-78384154D01*
X91313983Y-78370916D01*
X91337156Y-78356177D01*
X91361027Y-78330663D01*
X91362105Y-78315993D01*
X91332953Y-78309717D01*
X91291423Y-78320453D01*
X91255758Y-78341899D01*
X91245075Y-78356424D01*
X90687994Y-78356424D01*
X90695113Y-78337348D01*
X90706776Y-78288220D01*
X90707467Y-78282937D01*
X91839263Y-78282937D01*
X91841526Y-78298863D01*
X91854085Y-78324146D01*
X91858106Y-78327727D01*
X91868676Y-78312743D01*
X91874686Y-78298863D01*
X91871824Y-78274016D01*
X91858106Y-78269999D01*
X91839263Y-78282937D01*
X90707467Y-78282937D01*
X90716116Y-78216776D01*
X90717039Y-78202651D01*
X91502121Y-78202651D01*
X91511742Y-78212272D01*
X91521363Y-78202651D01*
X91511742Y-78193030D01*
X91502121Y-78202651D01*
X90717039Y-78202651D01*
X90720809Y-78144960D01*
X90725059Y-78010300D01*
X90851562Y-78007337D01*
X90922844Y-78003044D01*
X90982440Y-77994816D01*
X91013994Y-77985780D01*
X91056225Y-77970241D01*
X91114581Y-77955629D01*
X91126747Y-77953285D01*
X91191015Y-77939360D01*
X91217413Y-77926145D01*
X91206430Y-77911229D01*
X91158553Y-77892200D01*
X91140295Y-77886335D01*
X91041331Y-77855342D01*
X91068848Y-77802303D01*
X91085216Y-77755948D01*
X91085518Y-77720995D01*
X91089670Y-77696760D01*
X91110403Y-77691214D01*
X91157756Y-77677463D01*
X91218541Y-77645222D01*
X91279183Y-77603420D01*
X91326111Y-77560986D01*
X91342126Y-77538765D01*
X91354422Y-77490467D01*
X91348988Y-77463036D01*
X91339829Y-77429608D01*
X91332669Y-77373833D01*
X91327793Y-77305507D01*
X91325484Y-77234426D01*
X91326025Y-77170385D01*
X91329700Y-77123181D01*
X91336792Y-77102609D01*
X91338560Y-77102523D01*
X91353466Y-77123833D01*
X91366766Y-77169043D01*
X91369504Y-77184306D01*
X91377147Y-77223068D01*
X91382719Y-77232463D01*
X91383936Y-77226098D01*
X91395891Y-77197887D01*
X91414831Y-77194978D01*
X91425139Y-77219423D01*
X91425151Y-77220683D01*
X91437949Y-77240115D01*
X91453748Y-77237970D01*
X91482542Y-77244884D01*
X91501377Y-77277058D01*
X91530760Y-77317806D01*
X91566637Y-77327120D01*
X91611193Y-77338145D01*
X91642704Y-77364363D01*
X91650316Y-77395488D01*
X91646960Y-77403247D01*
X91647076Y-77421608D01*
X91653789Y-77423333D01*
X91681187Y-77409362D01*
X91684122Y-77405388D01*
X91702103Y-77407004D01*
X91735510Y-77431868D01*
X91776815Y-77472336D01*
X91818490Y-77520764D01*
X91853008Y-77569509D01*
X91862873Y-77586893D01*
X91888734Y-77629717D01*
X91922576Y-77667331D01*
X91974237Y-77709635D01*
X92012757Y-77737736D01*
X92046008Y-77772541D01*
X92086227Y-77830310D01*
X92124904Y-77898772D01*
X92126168Y-77901297D01*
X92162785Y-77974378D01*
X92197281Y-78042513D01*
X92222064Y-78090718D01*
X92253879Y-78171779D01*
X92280195Y-78276274D01*
X92298340Y-78389257D01*
X92305642Y-78495781D01*
X92303891Y-78548300D01*
X92302919Y-78646975D01*
X92320564Y-78723078D01*
X92323927Y-78731103D01*
X92344391Y-78795664D01*
X92357319Y-78869784D01*
X92358579Y-78885757D01*
X92362286Y-78936631D01*
X92369193Y-79015988D01*
X92378400Y-79114043D01*
X92389012Y-79221012D01*
X92392126Y-79251363D01*
X92408453Y-79390104D01*
X92427331Y-79501940D01*
X92452020Y-79598444D01*
X92485781Y-79691189D01*
X92531876Y-79791748D01*
X92560210Y-79847878D01*
X92602859Y-79934777D01*
X92657410Y-80052565D01*
X92721645Y-80196331D01*
X92793344Y-80361163D01*
X92816636Y-80415530D01*
X92848398Y-80489815D01*
X92887797Y-80581812D01*
X92927273Y-80673872D01*
X92934481Y-80690666D01*
X93003030Y-80850348D01*
X93003030Y-81753810D01*
X93003030Y-82657272D01*
X92714394Y-82657272D01*
X92425757Y-82657272D01*
X92425602Y-82488901D01*
X92422695Y-82395934D01*
X92414999Y-82282296D01*
X92403836Y-82165314D01*
X92395828Y-82099242D01*
X92383548Y-81988051D01*
X92374584Y-81868778D01*
X92370093Y-81759093D01*
X92370036Y-81704772D01*
X92369738Y-81591374D01*
X92362793Y-81481099D01*
X92347938Y-81365151D01*
X92323912Y-81234734D01*
X92289454Y-81081050D01*
X92267936Y-80992802D01*
X92245117Y-80898870D01*
X92221771Y-80799303D01*
X92202874Y-80715324D01*
X92202541Y-80713787D01*
X92185242Y-80642386D01*
X92167262Y-80581310D01*
X92154267Y-80547742D01*
X92143682Y-80507301D01*
X92155940Y-80458297D01*
X92163130Y-80441909D01*
X92185590Y-80380525D01*
X92198600Y-80321324D01*
X92198810Y-80319317D01*
X92197959Y-80277723D01*
X92177696Y-80260110D01*
X92152961Y-80255637D01*
X92116936Y-80245231D01*
X92084665Y-80226926D01*
X92065133Y-80207987D01*
X92067326Y-80195683D01*
X92077038Y-80194242D01*
X92093408Y-80177826D01*
X92098636Y-80147271D01*
X92105731Y-80106527D01*
X92117879Y-80088408D01*
X92135610Y-80089934D01*
X92137121Y-80096894D01*
X92153276Y-80113287D01*
X92176741Y-80117272D01*
X92204070Y-80109498D01*
X92202798Y-80095325D01*
X92193137Y-80062371D01*
X92187486Y-80010886D01*
X92187230Y-80004122D01*
X92180311Y-79954724D01*
X92155903Y-79923823D01*
X92117879Y-79902258D01*
X92063589Y-79880619D01*
X92017537Y-79869745D01*
X92012045Y-79869450D01*
X91964519Y-79864761D01*
X91917636Y-79855746D01*
X91866776Y-79856956D01*
X91830610Y-79881377D01*
X91819178Y-79920458D01*
X91823001Y-79936339D01*
X91818163Y-79959498D01*
X91802437Y-79963333D01*
X91775516Y-79954888D01*
X91771515Y-79946759D01*
X91756200Y-79937986D01*
X91721046Y-79939959D01*
X91682241Y-79949885D01*
X91655972Y-79964973D01*
X91654464Y-79966946D01*
X91630089Y-79974250D01*
X91591402Y-79963798D01*
X91554086Y-79941945D01*
X91534907Y-79918508D01*
X91539438Y-79885476D01*
X91561146Y-79856325D01*
X91589587Y-79820154D01*
X91598333Y-79793494D01*
X91610492Y-79756815D01*
X91628931Y-79730507D01*
X91648748Y-79685813D01*
X91641519Y-79650853D01*
X91760618Y-79650853D01*
X91779533Y-79653935D01*
X91804490Y-79650397D01*
X91804788Y-79643828D01*
X91779034Y-79639235D01*
X91767907Y-79642309D01*
X91760618Y-79650853D01*
X91641519Y-79650853D01*
X91639417Y-79640689D01*
X91604373Y-79610779D01*
X91602506Y-79610128D01*
X91564888Y-79590586D01*
X91519576Y-79558539D01*
X91518055Y-79557309D01*
X91466763Y-79528676D01*
X91422979Y-79535644D01*
X91382109Y-79579446D01*
X91371640Y-79596590D01*
X91324092Y-79648279D01*
X91252112Y-79691053D01*
X91169748Y-79716684D01*
X91165379Y-79717404D01*
X91138172Y-79731012D01*
X91127670Y-79767179D01*
X91126894Y-79790470D01*
X91123011Y-79836373D01*
X91104846Y-79856870D01*
X91070896Y-79863885D01*
X91011892Y-79879354D01*
X90969802Y-79899819D01*
X90942148Y-79914846D01*
X90917557Y-79914558D01*
X90884933Y-79895536D01*
X90839758Y-79859759D01*
X90788175Y-79821475D01*
X90744790Y-79796192D01*
X90725511Y-79790151D01*
X90689584Y-79799784D01*
X90686703Y-79828326D01*
X90716700Y-79875240D01*
X90768883Y-79930077D01*
X90826068Y-79988328D01*
X90853072Y-80024965D01*
X90849743Y-80039506D01*
X90815924Y-80031465D01*
X90798948Y-80024186D01*
X90756535Y-80007617D01*
X90731519Y-80001817D01*
X90713055Y-80011536D01*
X90720416Y-80033200D01*
X90748711Y-80055571D01*
X90756477Y-80059152D01*
X90811659Y-80088572D01*
X90855261Y-80123450D01*
X90878620Y-80155740D01*
X90878374Y-80172359D01*
X90846983Y-80192924D01*
X90803839Y-80181873D01*
X90772474Y-80157322D01*
X90743620Y-80132788D01*
X90723700Y-80135974D01*
X90707599Y-80152512D01*
X90662840Y-80210498D01*
X90649084Y-80252823D01*
X90668048Y-80287700D01*
X90721446Y-80323342D01*
X90745970Y-80336191D01*
X90785877Y-80366618D01*
X90823413Y-80411187D01*
X90851717Y-80458942D01*
X90863927Y-80498927D01*
X90858993Y-80516663D01*
X90835829Y-80516204D01*
X90791857Y-80500160D01*
X90765072Y-80487058D01*
X90707672Y-80461148D01*
X90657668Y-80445982D01*
X90643236Y-80444340D01*
X90602553Y-80429295D01*
X90573082Y-80400025D01*
X90536586Y-80362106D01*
X90482391Y-80324572D01*
X90422789Y-80293934D01*
X90370073Y-80276707D01*
X90340928Y-80277029D01*
X90311602Y-80302996D01*
X90309474Y-80339496D01*
X90329741Y-80375689D01*
X90367598Y-80400733D01*
X90398050Y-80405908D01*
X90436370Y-80419075D01*
X90483302Y-80451497D01*
X90526795Y-80492561D01*
X90554800Y-80531651D01*
X90559242Y-80547905D01*
X90576020Y-80567012D01*
X90618485Y-80590143D01*
X90674837Y-80612620D01*
X90733277Y-80629765D01*
X90782004Y-80636902D01*
X90783767Y-80636913D01*
X90849299Y-80645645D01*
X90880696Y-80672047D01*
X90877875Y-80715859D01*
X90840756Y-80776821D01*
X90831490Y-80788317D01*
X90791781Y-80829108D01*
X90749727Y-80850260D01*
X90688350Y-80859799D01*
X90678614Y-80860564D01*
X90626246Y-80863042D01*
X90588636Y-80857462D01*
X90553949Y-80838461D01*
X90510347Y-80800678D01*
X90478008Y-80769687D01*
X90414550Y-80714338D01*
X90348151Y-80665846D01*
X90296420Y-80636341D01*
X90243737Y-80608289D01*
X90206299Y-80579484D01*
X90199103Y-80570299D01*
X90169787Y-80546954D01*
X90120134Y-80529619D01*
X90110750Y-80527858D01*
X90064071Y-80522794D01*
X90043994Y-80531315D01*
X90039697Y-80558037D01*
X90039697Y-80558154D01*
X90052232Y-80593737D01*
X90084836Y-80644271D01*
X90123157Y-80690558D01*
X90168965Y-80743382D01*
X90203997Y-80789484D01*
X90218829Y-80814976D01*
X90244694Y-80848031D01*
X90279687Y-80870982D01*
X90315249Y-80892344D01*
X90328333Y-80909300D01*
X90344530Y-80922288D01*
X90368115Y-80925454D01*
X90396876Y-80917776D01*
X90396175Y-80888550D01*
X90395682Y-80886969D01*
X90390793Y-80856374D01*
X90395669Y-80848484D01*
X90417663Y-80860617D01*
X90457492Y-80891635D01*
X90506171Y-80933465D01*
X90554714Y-80978035D01*
X90594133Y-81017275D01*
X90615443Y-81043110D01*
X90616970Y-81047268D01*
X90600801Y-81077142D01*
X90564580Y-81097936D01*
X90526731Y-81099882D01*
X90521709Y-81097767D01*
X90449905Y-81062650D01*
X90379001Y-81032085D01*
X90320079Y-81010526D01*
X90284349Y-81002423D01*
X90252681Y-80987992D01*
X90215885Y-80952485D01*
X90209836Y-80944696D01*
X90177562Y-80906987D01*
X90152417Y-80887644D01*
X90149176Y-80886969D01*
X90145001Y-80898953D01*
X90157606Y-80919435D01*
X90173845Y-80942661D01*
X90162413Y-80943603D01*
X90152344Y-80940050D01*
X90114504Y-80927231D01*
X90058611Y-80909663D01*
X90039958Y-80904016D01*
X89987752Y-80877348D01*
X90212879Y-80877348D01*
X90222500Y-80886969D01*
X90232121Y-80877348D01*
X90222500Y-80867727D01*
X90212879Y-80877348D01*
X89987752Y-80877348D01*
X89956534Y-80861401D01*
X89910595Y-80816053D01*
X89876290Y-80776274D01*
X89849383Y-80753996D01*
X89843907Y-80752272D01*
X89826412Y-80768357D01*
X89801734Y-80809402D01*
X89787057Y-80840006D01*
X89750540Y-80907506D01*
X89715994Y-80937728D01*
X89681183Y-80931649D01*
X89650471Y-80899713D01*
X89613361Y-80863945D01*
X89575420Y-80848499D01*
X89574472Y-80848484D01*
X89537633Y-80831841D01*
X89525727Y-80809999D01*
X89509960Y-80779861D01*
X89491309Y-80771784D01*
X89481696Y-80790541D01*
X89481666Y-80792360D01*
X89467820Y-80806646D01*
X89457613Y-80805254D01*
X89440568Y-80782947D01*
X89430418Y-80750762D01*
X89612921Y-80750762D01*
X89620660Y-80831913D01*
X89671262Y-80787282D01*
X89709665Y-80751616D01*
X89735032Y-80724877D01*
X89736167Y-80723408D01*
X89748749Y-80699678D01*
X89741824Y-80676189D01*
X89711287Y-80639871D01*
X89709233Y-80637663D01*
X89679265Y-80608052D01*
X89660623Y-80605411D01*
X89638532Y-80628428D01*
X89636294Y-80631189D01*
X89613723Y-80685227D01*
X89612921Y-80750762D01*
X89430418Y-80750762D01*
X89425776Y-80736041D01*
X89421511Y-80712249D01*
X89411482Y-80643232D01*
X89468838Y-80643232D01*
X89471480Y-80654671D01*
X89481666Y-80656060D01*
X89497505Y-80649019D01*
X89494495Y-80643232D01*
X89471658Y-80640929D01*
X89468838Y-80643232D01*
X89411482Y-80643232D01*
X89404297Y-80593786D01*
X89390022Y-80508169D01*
X89389285Y-80504969D01*
X89886715Y-80504969D01*
X89900669Y-80566638D01*
X89927671Y-80601306D01*
X89966784Y-80624022D01*
X89990716Y-80611561D01*
X89999148Y-80564248D01*
X89997714Y-80530658D01*
X89984542Y-80474978D01*
X89960124Y-80437876D01*
X89931235Y-80425638D01*
X89904747Y-80444393D01*
X89886715Y-80504969D01*
X89389285Y-80504969D01*
X89378145Y-80456580D01*
X89443182Y-80456580D01*
X89454108Y-80487171D01*
X89456010Y-80489292D01*
X89476618Y-80493857D01*
X89478780Y-80492179D01*
X89476124Y-80472409D01*
X89465952Y-80459466D01*
X89446579Y-80448619D01*
X89443182Y-80456580D01*
X89378145Y-80456580D01*
X89376649Y-80450082D01*
X89362143Y-80414206D01*
X89344469Y-80395226D01*
X89321592Y-80387824D01*
X89296874Y-80386666D01*
X89272305Y-80383755D01*
X89265242Y-80378354D01*
X89718398Y-80378354D01*
X89731033Y-80414482D01*
X89732698Y-80416590D01*
X89760436Y-80433549D01*
X89780328Y-80420139D01*
X89784153Y-80384475D01*
X89780539Y-80369360D01*
X89763027Y-80337245D01*
X89749160Y-80328939D01*
X89725510Y-80344141D01*
X89718398Y-80378354D01*
X89265242Y-80378354D01*
X89255138Y-80370628D01*
X89243043Y-80340691D01*
X89238695Y-80315897D01*
X89560086Y-80315897D01*
X89571464Y-80335353D01*
X89598925Y-80347681D01*
X89614865Y-80325972D01*
X89616363Y-80309696D01*
X89604332Y-80278354D01*
X89587500Y-80271211D01*
X89563270Y-80285506D01*
X89560086Y-80315897D01*
X89238695Y-80315897D01*
X89233688Y-80287351D01*
X89227377Y-80228543D01*
X89292091Y-80228543D01*
X89297512Y-80265006D01*
X89309902Y-80286675D01*
X89328059Y-80278616D01*
X89340687Y-80266499D01*
X89360574Y-80229960D01*
X89360366Y-80223105D01*
X89404697Y-80223105D01*
X89411753Y-80271108D01*
X89436059Y-80286709D01*
X89470471Y-80278774D01*
X89497955Y-80253997D01*
X89491250Y-80217619D01*
X89465673Y-80187561D01*
X89430601Y-80167030D01*
X89410250Y-80182019D01*
X89404697Y-80223105D01*
X89360366Y-80223105D01*
X89359826Y-80205355D01*
X89339278Y-80178936D01*
X89327727Y-80174999D01*
X89303100Y-80191095D01*
X89292091Y-80228543D01*
X89227377Y-80228543D01*
X89224745Y-80204016D01*
X89222050Y-80174999D01*
X89219646Y-80106439D01*
X89924990Y-80106439D01*
X89933701Y-80150655D01*
X89948018Y-80168180D01*
X89982983Y-80177036D01*
X90032891Y-80177610D01*
X90078601Y-80179585D01*
X90101622Y-80200987D01*
X90107683Y-80216968D01*
X90137314Y-80280027D01*
X90175899Y-80308340D01*
X90187477Y-80309696D01*
X90205316Y-80298551D01*
X90210561Y-80260474D01*
X90209174Y-80230685D01*
X90203008Y-80186428D01*
X90187414Y-80152922D01*
X90154834Y-80119981D01*
X90097710Y-80077418D01*
X90092980Y-80074085D01*
X90032295Y-80033457D01*
X89993304Y-80013982D01*
X89967838Y-80012536D01*
X89953473Y-80020755D01*
X89931802Y-80057153D01*
X89924990Y-80106439D01*
X89219646Y-80106439D01*
X89218763Y-80081259D01*
X89230419Y-80000571D01*
X89232937Y-79992196D01*
X90337954Y-79992196D01*
X90472651Y-80003230D01*
X90542500Y-80009157D01*
X90597579Y-80014208D01*
X90626263Y-80017316D01*
X90626591Y-80017367D01*
X90658494Y-80010817D01*
X90672535Y-80003561D01*
X90687421Y-79986162D01*
X90674959Y-79961294D01*
X90662913Y-79947708D01*
X90633548Y-79925268D01*
X90583488Y-79895109D01*
X90522283Y-79862042D01*
X90459485Y-79830880D01*
X90404644Y-79806437D01*
X90367313Y-79793525D01*
X90356995Y-79793559D01*
X90352110Y-79814850D01*
X90346833Y-79862004D01*
X90344219Y-79896134D01*
X90337954Y-79992196D01*
X89232937Y-79992196D01*
X89248519Y-79940368D01*
X89284248Y-79858940D01*
X89326840Y-79785024D01*
X90097424Y-79785024D01*
X90109488Y-79828366D01*
X90121077Y-79844591D01*
X90159094Y-79863755D01*
X90190461Y-79849943D01*
X90203257Y-79809130D01*
X90194719Y-79772287D01*
X90161815Y-79756824D01*
X90150341Y-79755198D01*
X90110928Y-79756726D01*
X90097754Y-79777734D01*
X90097424Y-79785024D01*
X89326840Y-79785024D01*
X89334748Y-79771301D01*
X89392451Y-79688507D01*
X89449790Y-79621613D01*
X89490492Y-79586857D01*
X89539620Y-79544464D01*
X89574779Y-79495347D01*
X89588423Y-79451243D01*
X89586262Y-79437880D01*
X89581582Y-79432218D01*
X91836613Y-79432218D01*
X91844111Y-79492370D01*
X91848696Y-79501909D01*
X91872661Y-79527279D01*
X91915979Y-79538440D01*
X91956369Y-79539999D01*
X92023991Y-79547126D01*
X92069469Y-79566204D01*
X92073090Y-79569432D01*
X92093404Y-79611470D01*
X92086803Y-79656841D01*
X92057692Y-79690149D01*
X92036454Y-79697415D01*
X91999599Y-79716947D01*
X91974363Y-79754495D01*
X91966332Y-79796027D01*
X91981090Y-79827515D01*
X91983879Y-79829474D01*
X92007272Y-79843308D01*
X92025974Y-79844411D01*
X92055980Y-79831134D01*
X92077904Y-79819785D01*
X92119400Y-79788929D01*
X92141732Y-79755355D01*
X92167602Y-79723925D01*
X92209096Y-79707445D01*
X92253537Y-79690813D01*
X92277688Y-79667912D01*
X92275794Y-79626965D01*
X92246224Y-79591995D01*
X92199433Y-79574192D01*
X92189632Y-79573673D01*
X92149745Y-79563815D01*
X92110284Y-79539932D01*
X92080775Y-79510566D01*
X92070743Y-79484256D01*
X92077947Y-79473545D01*
X92089536Y-79455131D01*
X92198381Y-79455131D01*
X92202036Y-79492490D01*
X92223547Y-79508268D01*
X92253783Y-79505091D01*
X92271534Y-79485974D01*
X92271818Y-79482569D01*
X92258782Y-79459098D01*
X92244667Y-79445209D01*
X92215445Y-79435889D01*
X92198381Y-79455131D01*
X92089536Y-79455131D01*
X92097398Y-79442640D01*
X92087377Y-79401394D01*
X92071277Y-79380692D01*
X92042667Y-79338875D01*
X92044677Y-79294513D01*
X92077791Y-79237958D01*
X92078475Y-79237037D01*
X92109932Y-79198253D01*
X92132548Y-79186541D01*
X92159107Y-79197140D01*
X92168848Y-79203363D01*
X92224640Y-79228067D01*
X92271237Y-79227493D01*
X92298487Y-79202038D01*
X92298308Y-79164433D01*
X92281342Y-79117941D01*
X92255294Y-79077751D01*
X92227867Y-79059051D01*
X92225903Y-79058939D01*
X92192244Y-79056448D01*
X92137243Y-79050163D01*
X92110943Y-79046702D01*
X92056861Y-79040418D01*
X92030728Y-79044583D01*
X92022377Y-79064338D01*
X92021666Y-79091864D01*
X92008870Y-79149080D01*
X91982762Y-79194120D01*
X91957637Y-79234835D01*
X91963519Y-79258640D01*
X91981480Y-79287456D01*
X91967788Y-79312010D01*
X91919348Y-79337724D01*
X91918091Y-79338250D01*
X91862604Y-79377707D01*
X91836613Y-79432218D01*
X89581582Y-79432218D01*
X89562537Y-79409174D01*
X89527501Y-79384844D01*
X89524009Y-79383417D01*
X91097548Y-79383417D01*
X91110858Y-79411716D01*
X91145583Y-79424439D01*
X91197606Y-79423839D01*
X91248977Y-79412042D01*
X91281501Y-79391514D01*
X91293514Y-79356038D01*
X91273913Y-79332938D01*
X91228414Y-79325239D01*
X91171931Y-79333498D01*
X91117624Y-79355423D01*
X91097548Y-79383417D01*
X89524009Y-79383417D01*
X89489422Y-79369285D01*
X89468597Y-79377071D01*
X89464095Y-79383356D01*
X89445953Y-79393152D01*
X89413910Y-79377002D01*
X89390410Y-79358413D01*
X89327781Y-79317866D01*
X89278605Y-79313212D01*
X89242412Y-79344469D01*
X89232808Y-79363695D01*
X89217699Y-79407831D01*
X89213510Y-79435854D01*
X89210874Y-79482322D01*
X89187266Y-79501856D01*
X89152241Y-79489701D01*
X89136554Y-79474159D01*
X89123771Y-79442943D01*
X89137851Y-79408373D01*
X89152088Y-79371858D01*
X89137240Y-79340293D01*
X89136600Y-79339516D01*
X89101191Y-79312113D01*
X89073721Y-79315981D01*
X89059268Y-79344014D01*
X89062913Y-79389104D01*
X89076830Y-79423152D01*
X89082886Y-79467490D01*
X89070151Y-79492143D01*
X89047085Y-79514010D01*
X89015860Y-79514863D01*
X88982544Y-79504809D01*
X88934555Y-79492848D01*
X88903958Y-79501021D01*
X88891637Y-79511523D01*
X88850649Y-79535453D01*
X88826050Y-79539999D01*
X88792667Y-79549020D01*
X88790761Y-79573912D01*
X88818415Y-79611416D01*
X88873711Y-79658274D01*
X88910799Y-79683980D01*
X88951671Y-79724285D01*
X88982642Y-79776657D01*
X89004972Y-79826447D01*
X89025434Y-79862226D01*
X89026133Y-79863158D01*
X89037774Y-79895787D01*
X89046401Y-79951548D01*
X89048914Y-79988234D01*
X89058129Y-80062848D01*
X89077074Y-80134556D01*
X89086999Y-80158672D01*
X89107756Y-80205249D01*
X89110019Y-80235849D01*
X89092821Y-80268756D01*
X89080236Y-80286718D01*
X89052287Y-80338103D01*
X89039221Y-80386027D01*
X89039091Y-80389818D01*
X89023769Y-80435515D01*
X89000606Y-80459170D01*
X88968619Y-80500452D01*
X88962121Y-80539490D01*
X88955858Y-80581085D01*
X88929554Y-80598496D01*
X88909204Y-80601865D01*
X88874655Y-80609702D01*
X88861467Y-80630410D01*
X88862248Y-80676249D01*
X88862510Y-80679298D01*
X88862129Y-80735249D01*
X88853005Y-80778290D01*
X88851191Y-80781988D01*
X88836623Y-80798114D01*
X88817242Y-80790231D01*
X88784329Y-80754718D01*
X88783673Y-80753939D01*
X88747645Y-80716314D01*
X88719513Y-80695811D01*
X88714508Y-80694545D01*
X88691046Y-80710202D01*
X88682744Y-80747964D01*
X88690946Y-80794017D01*
X88702579Y-80817272D01*
X88725506Y-80875525D01*
X88728460Y-80939348D01*
X88712945Y-80995327D01*
X88680464Y-81030049D01*
X88678639Y-81030892D01*
X88641108Y-81062331D01*
X88616351Y-81105205D01*
X88593810Y-81145162D01*
X88567901Y-81149500D01*
X88542897Y-81152238D01*
X88538788Y-81166588D01*
X88526438Y-81191776D01*
X88516250Y-81194848D01*
X88485749Y-81206756D01*
X88457474Y-81227643D01*
X88410142Y-81253406D01*
X88369368Y-81261317D01*
X88331134Y-81268555D01*
X88317716Y-81296529D01*
X88316649Y-81315276D01*
X88304589Y-81367184D01*
X88283682Y-81400473D01*
X88258441Y-81421976D01*
X88245342Y-81414642D01*
X88238950Y-81399713D01*
X88227651Y-81384167D01*
X88208296Y-81390253D01*
X88173630Y-81421315D01*
X88158305Y-81436884D01*
X88119228Y-81486942D01*
X88089418Y-81543000D01*
X88071737Y-81595953D01*
X88069049Y-81636699D01*
X88084217Y-81656133D01*
X88089174Y-81656666D01*
X88112429Y-81672124D01*
X88115454Y-81685530D01*
X88101779Y-81711078D01*
X88089945Y-81714393D01*
X88053208Y-81728752D01*
X88018169Y-81762969D01*
X87995053Y-81803751D01*
X87994085Y-81837809D01*
X87994463Y-81838512D01*
X88010304Y-81858396D01*
X88030477Y-81851861D01*
X88050093Y-81835301D01*
X88076339Y-81797006D01*
X88080805Y-81765094D01*
X88083601Y-81738533D01*
X88099185Y-81738248D01*
X88117248Y-81762239D01*
X88119882Y-81795986D01*
X88128024Y-81840628D01*
X88159628Y-81859249D01*
X88207331Y-81848871D01*
X88225287Y-81838618D01*
X88264321Y-81819258D01*
X88293894Y-81825506D01*
X88304356Y-81832737D01*
X88332895Y-81854004D01*
X88342449Y-81860576D01*
X88342066Y-81879430D01*
X88322890Y-81916869D01*
X88291892Y-81962890D01*
X88256038Y-82007487D01*
X88222297Y-82040656D01*
X88211984Y-82047887D01*
X88165627Y-82085494D01*
X88157205Y-82122193D01*
X88184879Y-82158692D01*
X88209662Y-82171995D01*
X88232412Y-82159188D01*
X88252533Y-82133968D01*
X88292152Y-82093111D01*
X88344401Y-82055932D01*
X88398560Y-82028083D01*
X88443906Y-82015215D01*
X88467761Y-82020518D01*
X88474584Y-82051561D01*
X88461122Y-82098849D01*
X88433394Y-82150533D01*
X88397417Y-82194763D01*
X88368491Y-82215989D01*
X88309176Y-82235815D01*
X88259773Y-82243221D01*
X88173186Y-82247477D01*
X88118423Y-82252827D01*
X88088822Y-82260514D01*
X88077722Y-82271783D01*
X88076970Y-82277347D01*
X88092860Y-82300990D01*
X88131438Y-82325586D01*
X88134697Y-82327066D01*
X88168886Y-82349783D01*
X88189758Y-82376517D01*
X88193543Y-82397720D01*
X88176470Y-82403841D01*
X88163560Y-82400162D01*
X88138783Y-82399762D01*
X88134697Y-82407724D01*
X88118261Y-82421858D01*
X88087726Y-82426363D01*
X88043425Y-82435963D01*
X88023467Y-82459312D01*
X88034530Y-82487833D01*
X88064432Y-82501086D01*
X88117035Y-82511672D01*
X88143084Y-82514471D01*
X88206352Y-82514855D01*
X88248255Y-82500805D01*
X88272727Y-82480757D01*
X88313449Y-82440035D01*
X88300454Y-82491811D01*
X88294129Y-82544779D01*
X88307808Y-82566606D01*
X88339317Y-82555477D01*
X88358015Y-82539910D01*
X88389913Y-82503877D01*
X88404051Y-82475904D01*
X88404091Y-82474963D01*
X88421004Y-82460636D01*
X88462631Y-82453487D01*
X88471439Y-82453302D01*
X88515979Y-82455991D01*
X88538215Y-82462601D01*
X88538788Y-82463993D01*
X88525336Y-82481601D01*
X88491324Y-82513781D01*
X88471439Y-82530839D01*
X88430516Y-82572239D01*
X88406623Y-82610492D01*
X88404091Y-82622133D01*
X88402953Y-82627615D01*
X88398135Y-82632496D01*
X88387527Y-82636811D01*
X88369021Y-82640594D01*
X88340508Y-82643881D01*
X88299880Y-82646705D01*
X88245028Y-82649103D01*
X88173845Y-82651109D01*
X88084220Y-82652758D01*
X87974046Y-82654084D01*
X87841213Y-82655123D01*
X87683614Y-82655909D01*
X87499140Y-82656477D01*
X87285683Y-82656862D01*
X87041133Y-82657099D01*
X86763382Y-82657223D01*
X86450322Y-82657268D01*
X86277803Y-82657272D01*
X85946337Y-82657263D01*
X85651242Y-82657212D01*
X85390405Y-82657081D01*
X85161713Y-82656830D01*
X84963050Y-82656422D01*
X84792304Y-82655818D01*
X84647362Y-82654981D01*
X84526109Y-82653871D01*
X84426432Y-82652452D01*
X84346218Y-82650683D01*
X84283352Y-82648528D01*
X84235722Y-82645948D01*
X84201213Y-82642905D01*
X84177712Y-82639360D01*
X84163106Y-82635275D01*
X84155280Y-82630612D01*
X84152121Y-82625333D01*
X84151516Y-82619399D01*
X84151515Y-82618787D01*
X84165121Y-82586627D01*
X84190000Y-82580302D01*
X84208284Y-82577409D01*
X84219646Y-82563844D01*
X84225713Y-82532284D01*
X84228112Y-82475404D01*
X84228485Y-82407120D01*
X84228485Y-82325550D01*
X87854406Y-82325550D01*
X87873321Y-82328632D01*
X87898278Y-82325094D01*
X87898576Y-82318525D01*
X87872822Y-82313932D01*
X87861695Y-82317006D01*
X87854406Y-82325550D01*
X84228485Y-82325550D01*
X84228485Y-82309925D01*
X87923418Y-82309925D01*
X87933302Y-82326098D01*
X87947083Y-82325349D01*
X87971451Y-82301575D01*
X87977345Y-82285328D01*
X87973084Y-82262577D01*
X87953292Y-82264928D01*
X87930603Y-82284457D01*
X87923418Y-82309925D01*
X84228485Y-82309925D01*
X84228485Y-82233939D01*
X84153828Y-82233939D01*
X84079171Y-82233939D01*
X84068027Y-82344583D01*
X84058938Y-82429636D01*
X84048592Y-82519207D01*
X84044024Y-82556249D01*
X84031164Y-82657272D01*
X83562173Y-82657272D01*
X83420330Y-82656564D01*
X83298947Y-82654544D01*
X83202037Y-82651363D01*
X83133617Y-82647175D01*
X83097700Y-82642133D01*
X83093182Y-82639404D01*
X83105443Y-82612548D01*
X83122045Y-82592672D01*
X83145588Y-82562028D01*
X83150909Y-82547028D01*
X83160037Y-82510281D01*
X83181430Y-82467873D01*
X83206104Y-82435258D01*
X83220982Y-82426513D01*
X83241565Y-82410030D01*
X83255023Y-82378257D01*
X83270475Y-82342218D01*
X83285972Y-82330151D01*
X83302960Y-82314667D01*
X83304848Y-82302763D01*
X83316501Y-82271310D01*
X83345397Y-82227638D01*
X83354333Y-82216566D01*
X83383009Y-82175249D01*
X83393706Y-82144500D01*
X83392416Y-82139308D01*
X83398812Y-82117484D01*
X83425535Y-82080116D01*
X83463734Y-82036761D01*
X83504564Y-81996975D01*
X83539176Y-81970312D01*
X83554238Y-81964545D01*
X83570087Y-81948223D01*
X83574854Y-81921249D01*
X83584845Y-81877148D01*
X83607567Y-81835524D01*
X83633848Y-81811890D01*
X83640276Y-81810605D01*
X83670144Y-81793780D01*
X83707026Y-81748214D01*
X83735802Y-81699020D01*
X83760272Y-81658417D01*
X83779392Y-81637974D01*
X83781592Y-81637395D01*
X83802235Y-81623949D01*
X83844155Y-81586745D01*
X83902664Y-81530433D01*
X83973075Y-81459661D01*
X84050701Y-81379079D01*
X84130854Y-81293336D01*
X84143060Y-81280006D01*
X88119373Y-81280006D01*
X88120921Y-81284328D01*
X88145102Y-81295100D01*
X88191390Y-81300335D01*
X88200262Y-81300437D01*
X88242983Y-81296788D01*
X88272323Y-81280336D01*
X88299715Y-81242254D01*
X88317548Y-81209916D01*
X88344899Y-81153538D01*
X88362306Y-81108048D01*
X88365606Y-81091697D01*
X88357633Y-81079393D01*
X88404091Y-81079393D01*
X88411131Y-81095232D01*
X88416919Y-81092221D01*
X88419222Y-81069385D01*
X88416919Y-81066565D01*
X88405479Y-81069206D01*
X88404091Y-81079393D01*
X88357633Y-81079393D01*
X88353179Y-81072519D01*
X88323818Y-81074952D01*
X88289398Y-81095094D01*
X88263933Y-81125103D01*
X88235911Y-81156770D01*
X88213743Y-81165984D01*
X88185419Y-81179763D01*
X88153292Y-81212231D01*
X88127798Y-81250080D01*
X88119373Y-81280006D01*
X84143060Y-81280006D01*
X84154253Y-81267783D01*
X84265411Y-81146415D01*
X84347431Y-81058298D01*
X87382769Y-81058298D01*
X87398329Y-81077337D01*
X87413106Y-81079393D01*
X87438713Y-81069003D01*
X87441970Y-81060151D01*
X87457793Y-81043674D01*
X87474591Y-81040908D01*
X87513702Y-81026292D01*
X87558573Y-80990761D01*
X87591071Y-80953108D01*
X88502882Y-80953108D01*
X88514706Y-80987532D01*
X88536444Y-80991945D01*
X88543826Y-80987051D01*
X88579556Y-80970560D01*
X88624942Y-80960831D01*
X88666412Y-80949789D01*
X88679927Y-80923942D01*
X88679997Y-80911022D01*
X88676447Y-80866066D01*
X88668505Y-80852416D01*
X88650471Y-80862917D01*
X88645157Y-80867281D01*
X88616957Y-80879869D01*
X88587382Y-80861316D01*
X88585197Y-80859157D01*
X88546751Y-80835194D01*
X88518597Y-80847734D01*
X88503678Y-80894889D01*
X88502882Y-80953108D01*
X87591071Y-80953108D01*
X87596522Y-80946793D01*
X87610748Y-80915833D01*
X88019242Y-80915833D01*
X88023198Y-80941507D01*
X88026507Y-80944696D01*
X88043110Y-80931945D01*
X88057727Y-80915833D01*
X88071143Y-80893071D01*
X88053465Y-80886996D01*
X88050462Y-80886969D01*
X88023470Y-80901374D01*
X88019242Y-80915833D01*
X87610748Y-80915833D01*
X87614868Y-80906866D01*
X87615151Y-80902611D01*
X87612999Y-80877907D01*
X87601049Y-80870433D01*
X87571062Y-80880476D01*
X87519444Y-80905954D01*
X87463788Y-80941851D01*
X87419673Y-80983746D01*
X87391276Y-81024831D01*
X87382769Y-81058298D01*
X84347431Y-81058298D01*
X84353687Y-81051577D01*
X84421521Y-80980812D01*
X84471349Y-80931667D01*
X84505610Y-80901686D01*
X84526742Y-80888414D01*
X84532157Y-80887233D01*
X84558547Y-80871237D01*
X84568623Y-80853295D01*
X84590643Y-80813390D01*
X84616012Y-80781136D01*
X84665800Y-80722834D01*
X88261433Y-80722834D01*
X88271127Y-80744739D01*
X88302881Y-80760821D01*
X88333166Y-80747733D01*
X88346363Y-80712864D01*
X88334711Y-80673574D01*
X88307453Y-80662964D01*
X88276422Y-80685216D01*
X88261433Y-80722834D01*
X84665800Y-80722834D01*
X84684294Y-80701177D01*
X84733475Y-80630898D01*
X84746913Y-80603143D01*
X88385460Y-80603143D01*
X88395074Y-80644860D01*
X88420635Y-80654788D01*
X88455233Y-80632102D01*
X88470348Y-80613293D01*
X88477467Y-80598333D01*
X88808182Y-80598333D01*
X88815222Y-80614171D01*
X88821010Y-80611161D01*
X88823313Y-80588325D01*
X88821010Y-80585504D01*
X88809570Y-80588146D01*
X88808182Y-80598333D01*
X88477467Y-80598333D01*
X88496150Y-80559071D01*
X88495351Y-80514348D01*
X88470515Y-80489482D01*
X88436215Y-80493964D01*
X88406141Y-80526704D01*
X88387839Y-80577618D01*
X88385460Y-80603143D01*
X84746913Y-80603143D01*
X84756478Y-80583388D01*
X84793459Y-80528365D01*
X84833481Y-80505888D01*
X88000000Y-80505888D01*
X88011251Y-80533751D01*
X88038752Y-80534750D01*
X88073124Y-80510729D01*
X88091292Y-80487925D01*
X88109305Y-80455422D01*
X88102788Y-80439486D01*
X88088536Y-80432856D01*
X88047141Y-80434436D01*
X88013237Y-80463174D01*
X88000000Y-80505888D01*
X84833481Y-80505888D01*
X84863599Y-80488973D01*
X84926023Y-80472539D01*
X84972288Y-80460081D01*
X84996935Y-80445643D01*
X84998182Y-80442252D01*
X85008725Y-80431650D01*
X88734581Y-80431650D01*
X88734701Y-80470209D01*
X88751376Y-80480912D01*
X88763445Y-80479492D01*
X88792613Y-80456556D01*
X88798560Y-80424887D01*
X88788864Y-80386154D01*
X88767305Y-80376965D01*
X88745175Y-80396128D01*
X88734581Y-80431650D01*
X85008725Y-80431650D01*
X85013626Y-80426721D01*
X85024689Y-80425151D01*
X85058096Y-80411565D01*
X85076178Y-80395050D01*
X85116117Y-80373857D01*
X85142697Y-80375375D01*
X85184100Y-80371456D01*
X85231255Y-80336477D01*
X85239621Y-80327990D01*
X85256576Y-80313374D01*
X88808182Y-80313374D01*
X88815847Y-80343306D01*
X88840275Y-80341222D01*
X88881523Y-80308947D01*
X88903504Y-80282802D01*
X88983439Y-80282802D01*
X89000735Y-80287975D01*
X89025769Y-80279590D01*
X89045544Y-80254212D01*
X89044135Y-80230697D01*
X89026357Y-80202337D01*
X89003736Y-80206186D01*
X88986644Y-80239102D01*
X88984836Y-80248666D01*
X88983439Y-80282802D01*
X88903504Y-80282802D01*
X88917164Y-80266555D01*
X88917839Y-80236693D01*
X88891990Y-80219375D01*
X88857286Y-80223710D01*
X88826241Y-80254473D01*
X88809098Y-80300177D01*
X88808182Y-80313374D01*
X85256576Y-80313374D01*
X85281121Y-80292215D01*
X85316897Y-80273686D01*
X85324587Y-80272911D01*
X85399325Y-80275204D01*
X85442582Y-80263920D01*
X85459486Y-80237360D01*
X85460196Y-80227916D01*
X85471639Y-80193377D01*
X85510609Y-80164593D01*
X85537165Y-80152375D01*
X85585555Y-80134057D01*
X85608264Y-80132597D01*
X85613939Y-80147452D01*
X85613939Y-80147565D01*
X85623678Y-80170993D01*
X85655490Y-80169991D01*
X85709599Y-80146421D01*
X85748853Y-80131751D01*
X85770515Y-80134266D01*
X85771181Y-80135570D01*
X85790898Y-80141510D01*
X85830605Y-80135441D01*
X85839138Y-80132832D01*
X88430405Y-80132832D01*
X88432676Y-80174121D01*
X88452762Y-80205292D01*
X88477746Y-80200775D01*
X88501791Y-80161841D01*
X88502928Y-80158839D01*
X88508185Y-80121498D01*
X88489041Y-80104358D01*
X88451368Y-80104812D01*
X88430405Y-80132832D01*
X85839138Y-80132832D01*
X85875460Y-80121726D01*
X85910624Y-80104726D01*
X85921818Y-80091288D01*
X85933200Y-80067089D01*
X85961408Y-80027933D01*
X85969924Y-80017551D01*
X86010036Y-79945214D01*
X86018030Y-79884886D01*
X86024020Y-79830023D01*
X86041431Y-79809481D01*
X86043028Y-79809393D01*
X86065114Y-79794127D01*
X86086453Y-79757581D01*
X86101984Y-79713634D01*
X86106648Y-79676166D01*
X86097664Y-79659549D01*
X86083707Y-79637508D01*
X86076181Y-79591769D01*
X86075757Y-79576881D01*
X86071306Y-79525120D01*
X86055884Y-79503460D01*
X86044891Y-79501514D01*
X86029835Y-79496959D01*
X86022189Y-79478325D01*
X86021120Y-79438162D01*
X86025794Y-79369019D01*
X86027651Y-79347575D01*
X86033563Y-79270474D01*
X86033790Y-79241742D01*
X91694545Y-79241742D01*
X91704166Y-79251363D01*
X91713788Y-79241742D01*
X91704166Y-79232120D01*
X91694545Y-79241742D01*
X86033790Y-79241742D01*
X86033930Y-79224118D01*
X86027918Y-79201056D01*
X86014694Y-79193838D01*
X86010412Y-79193636D01*
X85991382Y-79185094D01*
X85981955Y-79154076D01*
X85979545Y-79096820D01*
X85977424Y-79065966D01*
X91716001Y-79065966D01*
X91722949Y-79095973D01*
X91741650Y-79130665D01*
X91762738Y-79127381D01*
X91784906Y-79086456D01*
X91787389Y-79079572D01*
X91798336Y-79041095D01*
X91790478Y-79028545D01*
X91767425Y-79030863D01*
X91726525Y-79043329D01*
X91716001Y-79065966D01*
X85977424Y-79065966D01*
X85974948Y-79029936D01*
X85960203Y-78995199D01*
X85950682Y-78988927D01*
X85928253Y-78963174D01*
X85921818Y-78931804D01*
X85911405Y-78894660D01*
X85892954Y-78885757D01*
X85872885Y-78898467D01*
X85864615Y-78940598D01*
X85864091Y-78962727D01*
X85868857Y-79016246D01*
X85884656Y-79038299D01*
X85892954Y-79039696D01*
X85913024Y-79052406D01*
X85921294Y-79094538D01*
X85921818Y-79116666D01*
X85921818Y-79193636D01*
X85844848Y-79193636D01*
X85767879Y-79193636D01*
X85767879Y-79116666D01*
X85763112Y-79063147D01*
X85747313Y-79041093D01*
X85739015Y-79039696D01*
X85718945Y-79052406D01*
X85710675Y-79094538D01*
X85710151Y-79116666D01*
X85710151Y-79193636D01*
X85585076Y-79193636D01*
X85460000Y-79193636D01*
X85460000Y-79270605D01*
X85460000Y-79347575D01*
X85536970Y-79347575D01*
X85613939Y-79347575D01*
X85613939Y-79424545D01*
X85618207Y-79472743D01*
X85628868Y-79499552D01*
X85633182Y-79501514D01*
X85651865Y-79516157D01*
X85652424Y-79520757D01*
X85635118Y-79531734D01*
X85590869Y-79538701D01*
X85556212Y-79539999D01*
X85499111Y-79538440D01*
X85470625Y-79530480D01*
X85460911Y-79511199D01*
X85460000Y-79491893D01*
X85455799Y-79460899D01*
X85435983Y-79447124D01*
X85389733Y-79443804D01*
X85383030Y-79443787D01*
X85332993Y-79440775D01*
X85310811Y-79428024D01*
X85306060Y-79402575D01*
X85292931Y-79366213D01*
X85260861Y-79321157D01*
X85220827Y-79279743D01*
X85183805Y-79254312D01*
X85171539Y-79251363D01*
X85156942Y-79267829D01*
X85152121Y-79299469D01*
X85147920Y-79330463D01*
X85128104Y-79344239D01*
X85081854Y-79347558D01*
X85075151Y-79347575D01*
X84998182Y-79347575D01*
X84998182Y-79424545D01*
X85002449Y-79472743D01*
X85013111Y-79499552D01*
X85017424Y-79501514D01*
X85028401Y-79518820D01*
X85035368Y-79563069D01*
X85036666Y-79597727D01*
X85034818Y-79659816D01*
X85027124Y-79687987D01*
X85010360Y-79686717D01*
X84987186Y-79666449D01*
X84974442Y-79636872D01*
X84965294Y-79584181D01*
X84960017Y-79519096D01*
X84958889Y-79452334D01*
X84962187Y-79394614D01*
X84970189Y-79356654D01*
X84978939Y-79347575D01*
X84991457Y-79330612D01*
X84997934Y-79288698D01*
X84998182Y-79277499D01*
X84987897Y-79215910D01*
X84951431Y-79163164D01*
X84940629Y-79152423D01*
X84900150Y-79117882D01*
X84869326Y-79098767D01*
X84863660Y-79097423D01*
X84846434Y-79081841D01*
X84844242Y-79068560D01*
X84859645Y-79043049D01*
X84873106Y-79039696D01*
X84899238Y-79030879D01*
X84891898Y-79005876D01*
X84862863Y-78976280D01*
X84821456Y-78954129D01*
X84790704Y-78960934D01*
X84728299Y-79015064D01*
X84694451Y-79088405D01*
X84690303Y-79126507D01*
X84687960Y-79169488D01*
X84673533Y-79188589D01*
X84635929Y-79193486D01*
X84613333Y-79193636D01*
X84536363Y-79193636D01*
X84536363Y-79116666D01*
X84536363Y-79039696D01*
X84613333Y-79039696D01*
X84666853Y-79034930D01*
X84688906Y-79019131D01*
X84690303Y-79010833D01*
X84677593Y-78990763D01*
X84635461Y-78982493D01*
X84613333Y-78981969D01*
X84559814Y-78986735D01*
X84537760Y-79002534D01*
X84536363Y-79010833D01*
X84523654Y-79030902D01*
X84481522Y-79039172D01*
X84459394Y-79039696D01*
X84382424Y-79039696D01*
X84382424Y-78962727D01*
X84382424Y-78885757D01*
X84228485Y-78885757D01*
X84074545Y-78885757D01*
X84074545Y-78872294D01*
X85239507Y-78872294D01*
X85250078Y-78884566D01*
X85267988Y-78885757D01*
X85296907Y-78874650D01*
X85716386Y-78874650D01*
X85737411Y-78885757D01*
X85753872Y-78876136D01*
X87807576Y-78876136D01*
X87817197Y-78885757D01*
X87826818Y-78876136D01*
X87817197Y-78866514D01*
X87807576Y-78876136D01*
X85753872Y-78876136D01*
X85763919Y-78870264D01*
X85767879Y-78855290D01*
X85756690Y-78832847D01*
X85745028Y-78832439D01*
X85719617Y-78851592D01*
X85716386Y-78874650D01*
X85296907Y-78874650D01*
X85297904Y-78874267D01*
X85306060Y-78837651D01*
X85300565Y-78801732D01*
X87749848Y-78801732D01*
X87759335Y-78829946D01*
X87778347Y-78840936D01*
X87785447Y-78837330D01*
X87782791Y-78817561D01*
X87772618Y-78804618D01*
X87753245Y-78793770D01*
X87749848Y-78801732D01*
X85300565Y-78801732D01*
X85300525Y-78801473D01*
X85289907Y-78789545D01*
X85270972Y-78805073D01*
X85251834Y-78837651D01*
X85239507Y-78872294D01*
X84074545Y-78872294D01*
X84074545Y-78828030D01*
X84074545Y-78770302D01*
X83920606Y-78770302D01*
X83766666Y-78770302D01*
X83766666Y-78828030D01*
X83772240Y-78868562D01*
X83785669Y-78885752D01*
X83785909Y-78885757D01*
X83797959Y-78902828D01*
X83804661Y-78945473D01*
X83805151Y-78962727D01*
X83800884Y-79010925D01*
X83790222Y-79037734D01*
X83785909Y-79039696D01*
X83776380Y-79057700D01*
X83769683Y-79106852D01*
X83766731Y-79179864D01*
X83766666Y-79193636D01*
X83764416Y-79269870D01*
X83758272Y-79323442D01*
X83749145Y-79347062D01*
X83747424Y-79347575D01*
X83736491Y-79330260D01*
X83729519Y-79285948D01*
X83728182Y-79250468D01*
X83725745Y-79190600D01*
X83714374Y-79155375D01*
X83687977Y-79131056D01*
X83670576Y-79120582D01*
X83623605Y-79079103D01*
X83612849Y-79042606D01*
X83599816Y-79005443D01*
X83567970Y-78959432D01*
X83527953Y-78916774D01*
X83490412Y-78889666D01*
X83475995Y-78885757D01*
X83469352Y-78867756D01*
X83463901Y-78818711D01*
X83460195Y-78746058D01*
X83460156Y-78743606D01*
X87698736Y-78743606D01*
X87701742Y-78751060D01*
X87719034Y-78769417D01*
X87722120Y-78770302D01*
X87730385Y-78755415D01*
X87730606Y-78751060D01*
X87715813Y-78732557D01*
X87710228Y-78731817D01*
X87698736Y-78743606D01*
X83460156Y-78743606D01*
X83458789Y-78657230D01*
X83458788Y-78654848D01*
X83458788Y-78423939D01*
X83304848Y-78423939D01*
X83225863Y-78425298D01*
X83178461Y-78430231D01*
X83155809Y-78440018D01*
X83150909Y-78452802D01*
X83142162Y-78478432D01*
X83134755Y-78481666D01*
X83115820Y-78497194D01*
X83096683Y-78529772D01*
X83085232Y-78559344D01*
X83091881Y-78573340D01*
X83124413Y-78577587D01*
X83160943Y-78577878D01*
X83247121Y-78577878D01*
X83247121Y-78654848D01*
X83251887Y-78708367D01*
X83267687Y-78730420D01*
X83275985Y-78731817D01*
X83301719Y-78742321D01*
X83300700Y-78766709D01*
X83275795Y-78794294D01*
X83256202Y-78805532D01*
X83215986Y-78831982D01*
X83196416Y-78856727D01*
X83169634Y-78879753D01*
X83123666Y-78884510D01*
X83072733Y-78871831D01*
X83035454Y-78847272D01*
X83028211Y-78839238D01*
X83021938Y-78828872D01*
X83016567Y-78813520D01*
X83012027Y-78790529D01*
X83008248Y-78757245D01*
X83005160Y-78711015D01*
X83002694Y-78649186D01*
X83000780Y-78569104D01*
X82999349Y-78468116D01*
X82998738Y-78393471D01*
X88059246Y-78393471D01*
X88062784Y-78418429D01*
X88069353Y-78418727D01*
X88073946Y-78392973D01*
X88070872Y-78381846D01*
X88062328Y-78374557D01*
X88059246Y-78393471D01*
X82998738Y-78393471D01*
X82998329Y-78343569D01*
X82997652Y-78192809D01*
X82997247Y-78013182D01*
X82997045Y-77802036D01*
X82996976Y-77556717D01*
X82996970Y-77384848D01*
X82996970Y-75960908D01*
X83038144Y-75960908D01*
X83081470Y-75972782D01*
X83100681Y-75988067D01*
X83128308Y-76008037D01*
X83181288Y-76035440D01*
X83248748Y-76064718D01*
X83256742Y-76067875D01*
X83324304Y-76097013D01*
X83377716Y-76125090D01*
X83406556Y-76146551D01*
X83407898Y-76148463D01*
X83428124Y-76164051D01*
X83469988Y-76170928D01*
X83541186Y-76170226D01*
X83552217Y-76169678D01*
X83621990Y-76168775D01*
X83669327Y-76173757D01*
X83685648Y-76182196D01*
X83674338Y-76200061D01*
X83651974Y-76207588D01*
X83615537Y-76217244D01*
X83611797Y-76227190D01*
X83635095Y-76234588D01*
X83679771Y-76236602D01*
X83706439Y-76234891D01*
X83770684Y-76233363D01*
X83808403Y-76242506D01*
X83813408Y-76247337D01*
X83841099Y-76263975D01*
X83873635Y-76268787D01*
X83910780Y-76278273D01*
X83920606Y-76307272D01*
X83929425Y-76338527D01*
X83941688Y-76345757D01*
X83970692Y-76356122D01*
X84012661Y-76381311D01*
X84016020Y-76383673D01*
X84055041Y-76405881D01*
X84080223Y-76410166D01*
X84081765Y-76409093D01*
X84103645Y-76411146D01*
X84141868Y-76432081D01*
X84151260Y-76438738D01*
X84219076Y-76471598D01*
X84311780Y-76485354D01*
X84314493Y-76485477D01*
X84368583Y-76488961D01*
X84399318Y-76493253D01*
X84401576Y-76496489D01*
X84383786Y-76518546D01*
X84382424Y-76528436D01*
X84396357Y-76543381D01*
X84440582Y-76555340D01*
X84518736Y-76565192D01*
X84543852Y-76567416D01*
X84624053Y-76575143D01*
X84674463Y-76583868D01*
X84703734Y-76596389D01*
X84720518Y-76615506D01*
X84726001Y-76626339D01*
X84760182Y-76666177D01*
X84795482Y-76684054D01*
X84831909Y-76700567D01*
X84844374Y-76718260D01*
X84860148Y-76744259D01*
X84898664Y-76776378D01*
X84947075Y-76806092D01*
X84992534Y-76824875D01*
X85008994Y-76827499D01*
X85053490Y-76837424D01*
X85094394Y-76855681D01*
X85145007Y-76873622D01*
X85209612Y-76883343D01*
X85224280Y-76883863D01*
X85282609Y-76889742D01*
X85305556Y-76906472D01*
X85306060Y-76910522D01*
X85322787Y-76931106D01*
X85365982Y-76957927D01*
X85425169Y-76986447D01*
X85489871Y-77012124D01*
X85549612Y-77030420D01*
X85593915Y-77036795D01*
X85597038Y-77036607D01*
X85687797Y-77033404D01*
X85743934Y-77043534D01*
X85767060Y-77067356D01*
X85767879Y-77074784D01*
X85776368Y-77098891D01*
X85807498Y-77114382D01*
X85859280Y-77124390D01*
X85923897Y-77138212D01*
X85978647Y-77157294D01*
X85993300Y-77165059D01*
X86025487Y-77177559D01*
X86079735Y-77185958D01*
X86161313Y-77190747D01*
X86275488Y-77192410D01*
X86289042Y-77192423D01*
X86542166Y-77192423D01*
X86530541Y-77380037D01*
X86520158Y-77558746D01*
X86511949Y-77723241D01*
X86506040Y-77869323D01*
X86502555Y-77992793D01*
X86501621Y-78089451D01*
X86503364Y-78155099D01*
X86506524Y-78181541D01*
X86523010Y-78218331D01*
X86542461Y-78231387D01*
X86555497Y-78216710D01*
X86556818Y-78202981D01*
X86565870Y-78162786D01*
X86589546Y-78102665D01*
X86622627Y-78032663D01*
X86653062Y-77975628D01*
X86820005Y-77975628D01*
X86836270Y-78008190D01*
X86836734Y-78008901D01*
X86867386Y-78055682D01*
X87018979Y-77980038D01*
X87089232Y-77946035D01*
X87147132Y-77919954D01*
X87183592Y-77905810D01*
X87190212Y-77904393D01*
X87201947Y-77890445D01*
X87199326Y-77876962D01*
X87203335Y-77843490D01*
X87244336Y-77818183D01*
X87322531Y-77800978D01*
X87438122Y-77791813D01*
X87475797Y-77790708D01*
X87567044Y-77789684D01*
X87626851Y-77791770D01*
X87662201Y-77797867D01*
X87680075Y-77808874D01*
X87685126Y-77817706D01*
X87680673Y-77854995D01*
X87656108Y-77886978D01*
X87626309Y-77921765D01*
X87615151Y-77947385D01*
X87602822Y-77975015D01*
X87572541Y-78013938D01*
X87566480Y-78020438D01*
X87535594Y-78061945D01*
X87519253Y-78113253D01*
X87512841Y-78180911D01*
X87512423Y-78262687D01*
X87520976Y-78308715D01*
X87539588Y-78320914D01*
X87569347Y-78301206D01*
X87576690Y-78293650D01*
X87620477Y-78262306D01*
X87663952Y-78262272D01*
X87694674Y-78265071D01*
X87717014Y-78249174D01*
X87740085Y-78206710D01*
X87747367Y-78190257D01*
X87810179Y-78080904D01*
X87888184Y-78001713D01*
X87977041Y-77954381D01*
X88072411Y-77940604D01*
X88169954Y-77962078D01*
X88237063Y-77998896D01*
X88308118Y-78054160D01*
X88358893Y-78105427D01*
X88383468Y-78146424D01*
X88384848Y-78155442D01*
X88394599Y-78184575D01*
X88416163Y-78222934D01*
X88438397Y-78285476D01*
X88444258Y-78373033D01*
X88434716Y-78476267D01*
X88410739Y-78585836D01*
X88373298Y-78692401D01*
X88365661Y-78709551D01*
X88330865Y-78778143D01*
X88296941Y-78833466D01*
X88270198Y-78865468D01*
X88266027Y-78868316D01*
X88236727Y-78896223D01*
X88234124Y-78925374D01*
X88257854Y-78942590D01*
X88268105Y-78943484D01*
X88300802Y-78929086D01*
X88343820Y-78891928D01*
X88370485Y-78861704D01*
X88413396Y-78798310D01*
X88447810Y-78730905D01*
X88457966Y-78702954D01*
X88484013Y-78609904D01*
X88499318Y-78540661D01*
X88504589Y-78482288D01*
X88500535Y-78421850D01*
X88487862Y-78346411D01*
X88479742Y-78305146D01*
X88454770Y-78159466D01*
X88445167Y-78048853D01*
X88450943Y-77973087D01*
X88472106Y-77931948D01*
X88495928Y-77923636D01*
X88524943Y-77910674D01*
X88568438Y-77877278D01*
X88601914Y-77845731D01*
X88645609Y-77798251D01*
X88666942Y-77762039D01*
X88671924Y-77722364D01*
X88668628Y-77682206D01*
X88656278Y-77625052D01*
X88628980Y-77569899D01*
X88580336Y-77504649D01*
X88565208Y-77486651D01*
X88562004Y-77482709D01*
X89014771Y-77482709D01*
X89016142Y-77542078D01*
X89020487Y-77560255D01*
X89030669Y-77615527D01*
X89037427Y-77690086D01*
X89039091Y-77745516D01*
X89040762Y-77815489D01*
X89047856Y-77852636D01*
X89063492Y-77862546D01*
X89090792Y-77850807D01*
X89096049Y-77847549D01*
X89111753Y-77829783D01*
X89114747Y-77797596D01*
X89105796Y-77740305D01*
X89104280Y-77732816D01*
X89094948Y-77665963D01*
X89156907Y-77665963D01*
X89161684Y-77692575D01*
X89167374Y-77699141D01*
X89195538Y-77711398D01*
X89211627Y-77691370D01*
X89212273Y-77683105D01*
X89196870Y-77657594D01*
X89183409Y-77654242D01*
X89156907Y-77665963D01*
X89094948Y-77665963D01*
X89094716Y-77664298D01*
X89098917Y-77623344D01*
X89102641Y-77617631D01*
X89112602Y-77587670D01*
X89111746Y-77539431D01*
X89102579Y-77486762D01*
X89087609Y-77443509D01*
X89069345Y-77423519D01*
X89067452Y-77423333D01*
X89033006Y-77439827D01*
X89014771Y-77482709D01*
X88562004Y-77482709D01*
X88520745Y-77431944D01*
X88489101Y-77388032D01*
X88476177Y-77363213D01*
X88476250Y-77361539D01*
X88471575Y-77346827D01*
X88452455Y-77351234D01*
X88435767Y-77370416D01*
X88421177Y-77381178D01*
X88398368Y-77360795D01*
X88364047Y-77334144D01*
X88330044Y-77328727D01*
X88309480Y-77345285D01*
X88307879Y-77355689D01*
X88301094Y-77371072D01*
X88275542Y-77377628D01*
X88223424Y-77376523D01*
X88187613Y-77373697D01*
X88115148Y-77366202D01*
X88051716Y-77357703D01*
X88019242Y-77351784D01*
X87992408Y-77346169D01*
X87965832Y-77343762D01*
X87929672Y-77344810D01*
X87874087Y-77349561D01*
X87797954Y-77357350D01*
X87707445Y-77367408D01*
X87645015Y-77376188D01*
X87600380Y-77385482D01*
X87563258Y-77397080D01*
X87557424Y-77399233D01*
X87510583Y-77410326D01*
X87444003Y-77418759D01*
X87403485Y-77421377D01*
X87323873Y-77431353D01*
X87255166Y-77452003D01*
X87237589Y-77460779D01*
X87178104Y-77487288D01*
X87108220Y-77507509D01*
X87095231Y-77509987D01*
X87000456Y-77532387D01*
X86927129Y-77562564D01*
X86882466Y-77597237D01*
X86874776Y-77610229D01*
X86867078Y-77644912D01*
X86858977Y-77706303D01*
X86851947Y-77782675D01*
X86850488Y-77803370D01*
X86843803Y-77876059D01*
X86835118Y-77931245D01*
X86825981Y-77959972D01*
X86823056Y-77962120D01*
X86820005Y-77975628D01*
X86653062Y-77975628D01*
X86659892Y-77962829D01*
X86696121Y-77903208D01*
X86726095Y-77863849D01*
X86737840Y-77854559D01*
X86763145Y-77836498D01*
X86773215Y-77804535D01*
X86772476Y-77750906D01*
X86765212Y-77696489D01*
X86753517Y-77660037D01*
X86748197Y-77653596D01*
X86738773Y-77628759D01*
X86741181Y-77584079D01*
X86741862Y-77580499D01*
X86753102Y-77540590D01*
X86767863Y-77532928D01*
X86782039Y-77542052D01*
X86808910Y-77554639D01*
X86827062Y-77537550D01*
X86833258Y-77510297D01*
X86825595Y-77503509D01*
X86809625Y-77481263D01*
X86809220Y-77444930D01*
X86824001Y-77415451D01*
X86827228Y-77413084D01*
X86841336Y-77386572D01*
X86840006Y-77378274D01*
X86844526Y-77347516D01*
X86865768Y-77295874D01*
X86898364Y-77233981D01*
X86936951Y-77172467D01*
X86959120Y-77142222D01*
X86986626Y-77102520D01*
X86999298Y-77074894D01*
X86999394Y-77073569D01*
X87011345Y-77048129D01*
X87037879Y-77014809D01*
X87066587Y-76971121D01*
X87076975Y-76933833D01*
X87088778Y-76885247D01*
X87101028Y-76863592D01*
X87144758Y-76827201D01*
X87211860Y-76793072D01*
X87287464Y-76767788D01*
X87337662Y-76758859D01*
X87397724Y-76743397D01*
X87447881Y-76714761D01*
X87450274Y-76712600D01*
X87486384Y-76684154D01*
X87511750Y-76672878D01*
X87534613Y-76658433D01*
X87566222Y-76624004D01*
X87596102Y-76582946D01*
X87613780Y-76548618D01*
X87615151Y-76541019D01*
X87630496Y-76519324D01*
X87644304Y-76511869D01*
X87673169Y-76486410D01*
X87691025Y-76454473D01*
X87708167Y-76426151D01*
X87739725Y-76408854D01*
X87796454Y-76397416D01*
X87814819Y-76394992D01*
X87894797Y-76377630D01*
X87959483Y-76350022D01*
X87973405Y-76340534D01*
X88024397Y-76311434D01*
X88074568Y-76298520D01*
X88075421Y-76298499D01*
X88105556Y-76295855D01*
X88119600Y-76283825D01*
X88118909Y-76254280D01*
X88104843Y-76199093D01*
X88096700Y-76171157D01*
X88061367Y-76093193D01*
X88018858Y-76053336D01*
X87976451Y-76014021D01*
X87952396Y-75962687D01*
X87952176Y-75948768D01*
X88174787Y-75948768D01*
X88179968Y-75960908D01*
X88196480Y-75946464D01*
X88225158Y-75910052D01*
X88238878Y-75890504D01*
X88268638Y-75838856D01*
X88274104Y-75802562D01*
X88267470Y-75784131D01*
X88244851Y-75760093D01*
X88229630Y-75759654D01*
X88218877Y-75781700D01*
X88221094Y-75787413D01*
X88217680Y-75807885D01*
X88213394Y-75810136D01*
X88200372Y-75829355D01*
X88187443Y-75868580D01*
X88177838Y-75913241D01*
X88174787Y-75948768D01*
X87952176Y-75948768D01*
X87951615Y-75913257D01*
X87962132Y-75892816D01*
X87996315Y-75875808D01*
X88039706Y-75873985D01*
X88078492Y-75873802D01*
X88103750Y-75854557D01*
X88126574Y-75810350D01*
X88170591Y-75715762D01*
X88208123Y-75648083D01*
X88236596Y-75611900D01*
X88239081Y-75610029D01*
X88273531Y-75595903D01*
X88290852Y-75614071D01*
X88292475Y-75666211D01*
X88291950Y-75672106D01*
X88293021Y-75729524D01*
X88312551Y-75757772D01*
X88354260Y-75758451D01*
X88421871Y-75733164D01*
X88427606Y-75730493D01*
X88488156Y-75706263D01*
X88532315Y-75701505D01*
X88565852Y-75710073D01*
X88612998Y-75726479D01*
X88628698Y-75726425D01*
X88616658Y-75709117D01*
X88608655Y-75700906D01*
X88586839Y-75661220D01*
X88569923Y-75599825D01*
X88560945Y-75533452D01*
X88562942Y-75478833D01*
X88566209Y-75467047D01*
X88583644Y-75448088D01*
X88606398Y-75465842D01*
X88633588Y-75519037D01*
X88664331Y-75606404D01*
X88665359Y-75609734D01*
X88685989Y-75671004D01*
X88703993Y-75714324D01*
X88715085Y-75729999D01*
X88725500Y-75712956D01*
X88736685Y-75670067D01*
X88740547Y-75648219D01*
X88754166Y-75570503D01*
X88766856Y-75524546D01*
X88781058Y-75503768D01*
X88795208Y-75500861D01*
X88846121Y-75499807D01*
X88865783Y-75481164D01*
X88865909Y-75478792D01*
X88873250Y-75450079D01*
X88891770Y-75401319D01*
X88901904Y-75377769D01*
X88926151Y-75322316D01*
X88944476Y-75278518D01*
X88948491Y-75268181D01*
X88957343Y-75259478D01*
X88962882Y-75287423D01*
G37*
%TO.C,SW104*%
D14*
X128780000Y-86534125D02*
X142750000Y-86534125D01*
X128780000Y-100504125D02*
X128780000Y-86534125D01*
X142750000Y-86534125D02*
X142750000Y-100504125D01*
X142750000Y-100504125D02*
X128780000Y-100504125D01*
%TO.C,SW109*%
X151450000Y-89419125D02*
X152050000Y-89419125D01*
X151750000Y-89719125D02*
X151450000Y-89419125D01*
X152050000Y-89419125D02*
X151750000Y-89719125D01*
X153150000Y-87619125D02*
X153150000Y-99419125D01*
X157250000Y-87619125D02*
X153150000Y-87619125D01*
X157250000Y-99419125D02*
X153150000Y-99419125D01*
X158750000Y-93519125D02*
X159750000Y-93519125D01*
X159250000Y-93019125D02*
X159250000Y-94019125D01*
X161250000Y-87619125D02*
X165350000Y-87619125D01*
X165350000Y-87619125D02*
X165350000Y-90019125D01*
X165350000Y-92219125D02*
X165350000Y-94819125D01*
X165350000Y-97019125D02*
X165350000Y-99419125D01*
X165350000Y-99419125D02*
X161250000Y-99419125D01*
X162250000Y-93519125D02*
G75*
G02*
X156250000Y-93519125I-3000000J0D01*
G01*
X156250000Y-93519125D02*
G75*
G02*
X162250000Y-93519125I3000000J0D01*
G01*
%TO.C,SW102*%
X85770000Y-86534125D02*
X99740000Y-86534125D01*
X85770000Y-100504125D02*
X85770000Y-86534125D01*
X99740000Y-86534125D02*
X99740000Y-100504125D01*
X99740000Y-100504125D02*
X85770000Y-100504125D01*
%TO.C,SW106*%
X196755000Y-86534125D02*
X210725000Y-86534125D01*
X196755000Y-100504125D02*
X196755000Y-86534125D01*
X210725000Y-86534125D02*
X210725000Y-100504125D01*
X210725000Y-100504125D02*
X196755000Y-100504125D01*
%TO.C,SW105*%
X175250000Y-86534125D02*
X189220000Y-86534125D01*
X175250000Y-100504125D02*
X175250000Y-86534125D01*
X189220000Y-86534125D02*
X189220000Y-100504125D01*
X189220000Y-100504125D02*
X175250000Y-100504125D01*
%TO.C,SW107*%
X218260000Y-86534125D02*
X232230000Y-86534125D01*
X218260000Y-100504125D02*
X218260000Y-86534125D01*
X232230000Y-86534125D02*
X232230000Y-100504125D01*
X232230000Y-100504125D02*
X218260000Y-100504125D01*
%TO.C,SW103*%
X107275000Y-86534125D02*
X121245000Y-86534125D01*
X107275000Y-100504125D02*
X107275000Y-86534125D01*
X121245000Y-86534125D02*
X121245000Y-100504125D01*
X121245000Y-100504125D02*
X107275000Y-100504125D01*
%TO.C,SW101*%
X64265000Y-86534125D02*
X78235000Y-86534125D01*
X64265000Y-100504125D02*
X64265000Y-86534125D01*
X78235000Y-86534125D02*
X78235000Y-100504125D01*
X78235000Y-100504125D02*
X64265000Y-100504125D01*
%TO.C,SW108*%
X239765000Y-86534125D02*
X253735000Y-86534125D01*
X239765000Y-100504125D02*
X239765000Y-86534125D01*
X253735000Y-86534125D02*
X253735000Y-100504125D01*
X253735000Y-100504125D02*
X239765000Y-100504125D01*
%TD*%
M02*
