%TF.GenerationSoftware,KiCad,Pcbnew,10.0.5*%
%TF.CreationDate,2026-07-28T13:57:35-03:00*%
%TF.ProjectId,mainBoard,6d61696e-426f-4617-9264-2e6b69636164,rev?*%
%TF.SameCoordinates,Original*%
%TF.FileFunction,Soldermask,Bot*%
%TF.FilePolarity,Negative*%
%FSLAX46Y46*%
G04 Gerber Fmt 4.6, Leading zero omitted, Abs format (unit mm)*
G04 Created by KiCad (PCBNEW 10.0.5) date 2026-07-28 13:57:35*
%MOMM*%
%LPD*%
G01*
G04 APERTURE LIST*
G04 Aperture macros list*
%AMRoundRect*
0 Rectangle with rounded corners*
0 $1 Rounding radius*
0 $2 $3 $4 $5 $6 $7 $8 $9 X,Y pos of 4 corners*
0 Add a 4 corners polygon primitive as box body*
4,1,4,$2,$3,$4,$5,$6,$7,$8,$9,$2,$3,0*
0 Add four circle primitives for the rounded corners*
1,1,$1+$1,$2,$3*
1,1,$1+$1,$4,$5*
1,1,$1+$1,$6,$7*
1,1,$1+$1,$8,$9*
0 Add four rect primitives between the rounded corners*
20,1,$1+$1,$2,$3,$4,$5,0*
20,1,$1+$1,$4,$5,$6,$7,0*
20,1,$1+$1,$6,$7,$8,$9,0*
20,1,$1+$1,$8,$9,$2,$3,0*%
%AMFreePoly0*
4,1,37,0.603843,0.796157,0.639018,0.796157,0.711114,0.766294,0.766294,0.711114,0.796157,0.639018,0.796157,0.603843,0.800000,0.600000,0.800000,-0.600000,0.796157,-0.603843,0.796157,-0.639018,0.766294,-0.711114,0.711114,-0.766294,0.639018,-0.796157,0.603843,-0.796157,0.600000,-0.800000,0.000000,-0.800000,0.000000,-0.796148,-0.078414,-0.796148,-0.232228,-0.765552,-0.377117,-0.705537,
-0.507515,-0.618408,-0.618408,-0.507515,-0.705537,-0.377117,-0.765552,-0.232228,-0.796148,-0.078414,-0.796148,0.078414,-0.765552,0.232228,-0.705537,0.377117,-0.618408,0.507515,-0.507515,0.618408,-0.377117,0.705537,-0.232228,0.765552,-0.078414,0.796148,0.000000,0.796148,0.000000,0.800000,0.600000,0.800000,0.603843,0.796157,0.603843,0.796157,$1*%
%AMFreePoly1*
4,1,37,0.000000,0.796148,0.078414,0.796148,0.232228,0.765552,0.377117,0.705537,0.507515,0.618408,0.618408,0.507515,0.705537,0.377117,0.765552,0.232228,0.796148,0.078414,0.796148,-0.078414,0.765552,-0.232228,0.705537,-0.377117,0.618408,-0.507515,0.507515,-0.618408,0.377117,-0.705537,0.232228,-0.765552,0.078414,-0.796148,0.000000,-0.796148,0.000000,-0.800000,-0.600000,-0.800000,
-0.603843,-0.796157,-0.639018,-0.796157,-0.711114,-0.766294,-0.766294,-0.711114,-0.796157,-0.639018,-0.796157,-0.603843,-0.800000,-0.600000,-0.800000,0.600000,-0.796157,0.603843,-0.796157,0.639018,-0.766294,0.711114,-0.711114,0.766294,-0.639018,0.796157,-0.603843,0.796157,-0.600000,0.800000,0.000000,0.800000,0.000000,0.796148,0.000000,0.796148,$1*%
G04 Aperture macros list end*
%ADD10C,3.200000*%
%ADD11RoundRect,0.250000X-0.725000X0.600000X-0.725000X-0.600000X0.725000X-0.600000X0.725000X0.600000X0*%
%ADD12O,1.950000X1.700000*%
%ADD13RoundRect,0.250000X0.600000X0.750000X-0.600000X0.750000X-0.600000X-0.750000X0.600000X-0.750000X0*%
%ADD14O,1.700000X2.000000*%
%ADD15RoundRect,0.250000X-0.600000X-0.725000X0.600000X-0.725000X0.600000X0.725000X-0.600000X0.725000X0*%
%ADD16O,1.700000X1.950000*%
%ADD17C,2.200000*%
%ADD18C,1.850000*%
%ADD19RoundRect,0.200000X-0.600000X0.600000X-0.600000X-0.600000X0.600000X-0.600000X0.600000X0.600000X0*%
%ADD20C,1.600000*%
%ADD21FreePoly0,270.000000*%
%ADD22FreePoly1,270.000000*%
%ADD23RoundRect,0.250000X0.600000X0.725000X-0.600000X0.725000X-0.600000X-0.725000X0.600000X-0.725000X0*%
%ADD24RoundRect,0.250000X-0.600000X0.600000X-0.600000X-0.600000X0.600000X-0.600000X0.600000X0.600000X0*%
%ADD25O,1.700000X1.700000*%
%ADD26C,1.700000*%
G04 APERTURE END LIST*
D10*
%TO.C,REF\u002A\u002A*%
X204000000Y-114900000D03*
%TD*%
D11*
%TO.C,J1*%
X194400000Y-72800000D03*
D12*
X194400000Y-75300000D03*
X194400000Y-77800000D03*
X194400000Y-80300000D03*
%TD*%
D10*
%TO.C,REF\u002A\u002A*%
X143599646Y-114800000D03*
%TD*%
%TO.C,REF\u002A\u002A*%
X143599646Y-75200000D03*
%TD*%
D13*
%TO.C,MES2*%
X116500000Y-89062500D03*
D14*
X114000000Y-89062500D03*
%TD*%
D15*
%TO.C,J6*%
X178700000Y-113950000D03*
D16*
X181200000Y-113950000D03*
X183700000Y-113950000D03*
D15*
X186200000Y-113950000D03*
%TD*%
D10*
%TO.C,REF\u002A\u002A*%
X204000000Y-75300000D03*
%TD*%
D11*
%TO.C,J4*%
X151025000Y-102875000D03*
D12*
X151025000Y-105375000D03*
X151025000Y-107875000D03*
%TD*%
D17*
%TO.C,A1*%
X205462500Y-92275000D03*
D18*
X202432500Y-92575000D03*
X202432500Y-97425000D03*
D17*
X205462500Y-97725000D03*
D19*
X205592500Y-86110000D03*
D20*
X203052500Y-86110000D03*
D21*
X200512500Y-86110000D03*
D20*
X197972500Y-86110000D03*
X195432500Y-86110000D03*
X192892500Y-86110000D03*
X190352500Y-86110000D03*
D21*
X187812500Y-86110000D03*
D20*
X185272500Y-86110000D03*
X182732500Y-86110000D03*
X180192500Y-86110000D03*
X177652500Y-86110000D03*
D21*
X175112500Y-86110000D03*
D20*
X172572500Y-86110000D03*
X170032500Y-86110000D03*
X167492500Y-86110000D03*
X164952500Y-86110000D03*
D21*
X162412500Y-86110000D03*
D20*
X159872500Y-86110000D03*
X157332500Y-86110000D03*
X157332500Y-103890000D03*
X159872500Y-103890000D03*
D22*
X162412500Y-103890000D03*
D20*
X164952500Y-103890000D03*
X167492500Y-103890000D03*
X170032500Y-103890000D03*
X172572500Y-103890000D03*
D22*
X175112500Y-103890000D03*
D20*
X177652500Y-103890000D03*
X180192500Y-103890000D03*
X182732500Y-103890000D03*
X185272500Y-103890000D03*
D22*
X187812500Y-103890000D03*
D20*
X190352500Y-103890000D03*
X192892500Y-103890000D03*
X195432500Y-103890000D03*
X197972500Y-103890000D03*
D22*
X200512500Y-103890000D03*
D20*
X203052500Y-103890000D03*
X205592500Y-103890000D03*
%TD*%
D13*
%TO.C,MES1*%
X116500000Y-79137500D03*
D14*
X114000000Y-79137500D03*
%TD*%
D13*
%TO.C,MES3*%
X116500000Y-98987500D03*
D14*
X114000000Y-98987500D03*
%TD*%
D16*
%TO.C,J5*%
X159250000Y-114000000D03*
X161750000Y-114000000D03*
X164250000Y-114000000D03*
X166750000Y-114000000D03*
D15*
X169250000Y-114000000D03*
%TD*%
D23*
%TO.C,J2*%
X184960000Y-75925000D03*
D16*
X182460000Y-75925000D03*
X179960000Y-75925000D03*
X177460000Y-75925000D03*
X174960000Y-75925000D03*
%TD*%
D24*
%TO.C,J3*%
X167620000Y-75400000D03*
D25*
X165080000Y-75400000D03*
D26*
X162540000Y-75400000D03*
X160000000Y-75400000D03*
X157460000Y-75400000D03*
X154920000Y-75400000D03*
X152380000Y-75400000D03*
X149840000Y-75400000D03*
%TD*%
D13*
%TO.C,MES4*%
X116500000Y-108912500D03*
D14*
X114000000Y-108912500D03*
%TD*%
M02*
