ISO-10303-21;
HEADER;
/*Generated by software containing ST-Developer
 * from STEP Tools, Inc. (www.steptools.com) 
 */
/*OPTION: using custom renumber hook */
/*description */
/*implementation_level */
FILE_DESCRIPTION(('STEP AP242 Edition 2','STEP AP242 Edition 2''CAx-IF Rec.Pracs.---Representation and Presentation of Product Manufa
cturing Information (PMI)---4.0---2014-10-13','STEP AP242 Edition 2''CAx-IF Rec.Pracs.---Representation and Presentation of Product Manufa
cturing Information (PMI)---4.0---2014-10-13''CAx-IF Rec.Pracs.---3D Tessellated Geometry---0.4---2014-09-14','STEP AP242 Edition 2''CAx-IF Rec.Pracs.---Representation and Presentation of Product Manufa
cturing Information (PMI)---4.0---2014-10-13''CAx-IF Rec.Pracs.---3D Tessellated Geometry---0.4---2014-09-14''2;1','STEP AP242 Edition 2''CAx-IF Rec.Pracs.---Representation and Presentation of Product Manufa
cturing Information (PMI)---4.0---2014-10-13''CAx-IF Rec.Pracs.---3D Tessellated Geometry---0.4---2014-09-14''2;1''CAx-IF Rec.Pracs.---User Defined Attributes---1.5---2016-08-15'),'2;1');
/*name */
/*time_stamp */
/*author */
/*organization */
/*preprocessor_version */
/*originating_system */
/*authorisation */
FILE_NAME('/vol/tmp/translate-192958462375041452/anaDash Printables - rightCase.step','2026-08-30T15:28:34',(''),(''),'ST-DEVELOPER v20','ONSHAPE BY PTC INC, 1.220','  ');
FILE_SCHEMA(('AP242_MANAGED_MODEL_BASED_3D_ENGINEERING_MIM_LF { 1 0 10303 442 3 1 4 }'));
ENDSEC;
DATA;
#10=SHAPE_REPRESENTATION_RELATIONSHIP('','',#760,#11);
#11=ADVANCED_BREP_SHAPE_REPRESENTATION('',(#758),#1302);
#12=CONICAL_SURFACE('',#822,0.00195,0.785398163397447);
#13=CONICAL_SURFACE('',#823,0.00195,0.785398163397447);
#14=CONICAL_SURFACE('',#824,0.00195,0.78539816339747);
#15=CONICAL_SURFACE('',#825,0.00195,0.785398163397452);
#16=CONICAL_SURFACE('',#850,0.00195,0.785398163397448);
#17=CONICAL_SURFACE('',#851,0.00195,0.785398163397448);
#18=CONICAL_SURFACE('',#852,0.00195,0.785398163397448);
#19=CONICAL_SURFACE('',#853,0.00195,0.785398163397448);
#20=ELLIPSE('',#774,0.00282842712474634,0.0020000000000001);
#21=ELLIPSE('',#778,0.00282842712474623,0.00200000000000003);
#22=ELLIPSE('',#788,0.00282842712474619,0.002);
#23=ELLIPSE('',#789,0.00282842712474619,0.002);
#24=ELLIPSE('',#797,0.00275771644662753,0.00195);
#25=ELLIPSE('',#803,0.00275771644662753,0.00195);
#26=CYLINDRICAL_SURFACE('',#773,0.0020000000000001);
#27=CYLINDRICAL_SURFACE('',#777,0.00200000000000003);
#28=CYLINDRICAL_SURFACE('',#791,0.002);
#29=CYLINDRICAL_SURFACE('',#794,0.002);
#30=CYLINDRICAL_SURFACE('',#806,0.00195);
#31=CYLINDRICAL_SURFACE('',#810,0.00195);
#32=CYLINDRICAL_SURFACE('',#814,0.00195);
#33=CYLINDRICAL_SURFACE('',#818,0.00195);
#34=CYLINDRICAL_SURFACE('',#827,0.002);
#35=CYLINDRICAL_SURFACE('',#829,0.002);
#36=CYLINDRICAL_SURFACE('',#831,0.002);
#37=CYLINDRICAL_SURFACE('',#833,0.002);
#38=CYLINDRICAL_SURFACE('',#834,0.00195);
#39=CYLINDRICAL_SURFACE('',#838,0.00195);
#40=CYLINDRICAL_SURFACE('',#842,0.00195);
#41=CYLINDRICAL_SURFACE('',#846,0.00195);
#42=CIRCLE('',#763,0.002);
#43=CIRCLE('',#764,0.002);
#44=CIRCLE('',#765,0.002);
#45=CIRCLE('',#766,0.002);
#46=CIRCLE('',#768,0.002);
#47=CIRCLE('',#769,0.002);
#48=CIRCLE('',#770,0.002);
#49=CIRCLE('',#771,0.002);
#50=CIRCLE('',#775,0.0020000000000001);
#51=CIRCLE('',#776,0.0020000000000001);
#52=CIRCLE('',#779,0.00200000000000003);
#53=CIRCLE('',#784,0.00245);
#54=CIRCLE('',#785,0.00245);
#55=CIRCLE('',#786,0.00245);
#56=CIRCLE('',#787,0.00245);
#57=CIRCLE('',#792,0.002);
#58=CIRCLE('',#793,0.002);
#59=CIRCLE('',#795,0.002);
#60=CIRCLE('',#799,0.00245);
#61=CIRCLE('',#800,0.00245);
#62=CIRCLE('',#801,0.00245);
#63=CIRCLE('',#802,0.00245);
#64=CIRCLE('',#807,0.00195);
#65=CIRCLE('',#808,0.00195);
#66=CIRCLE('',#811,0.00195);
#67=CIRCLE('',#812,0.00195);
#68=CIRCLE('',#815,0.00195);
#69=CIRCLE('',#816,0.00195);
#70=CIRCLE('',#819,0.00195);
#71=CIRCLE('',#820,0.00195);
#72=CIRCLE('',#835,0.00195);
#73=CIRCLE('',#836,0.00195);
#74=CIRCLE('',#839,0.00195);
#75=CIRCLE('',#840,0.00195);
#76=CIRCLE('',#843,0.00195);
#77=CIRCLE('',#844,0.00195);
#78=CIRCLE('',#847,0.00195);
#79=CIRCLE('',#848,0.00195);
#80=ORIENTED_EDGE('',*,*,#266,.F.);
#81=ORIENTED_EDGE('',*,*,#267,.T.);
#82=ORIENTED_EDGE('',*,*,#268,.T.);
#83=ORIENTED_EDGE('',*,*,#269,.F.);
#84=ORIENTED_EDGE('',*,*,#270,.F.);
#85=ORIENTED_EDGE('',*,*,#271,.T.);
#86=ORIENTED_EDGE('',*,*,#272,.F.);
#87=ORIENTED_EDGE('',*,*,#273,.T.);
#88=ORIENTED_EDGE('',*,*,#274,.F.);
#89=ORIENTED_EDGE('',*,*,#275,.F.);
#90=ORIENTED_EDGE('',*,*,#276,.F.);
#91=ORIENTED_EDGE('',*,*,#277,.F.);
#92=ORIENTED_EDGE('',*,*,#278,.T.);
#93=ORIENTED_EDGE('',*,*,#279,.T.);
#94=ORIENTED_EDGE('',*,*,#280,.T.);
#95=ORIENTED_EDGE('',*,*,#281,.F.);
#96=ORIENTED_EDGE('',*,*,#282,.F.);
#97=ORIENTED_EDGE('',*,*,#283,.T.);
#98=ORIENTED_EDGE('',*,*,#284,.T.);
#99=ORIENTED_EDGE('',*,*,#285,.T.);
#100=ORIENTED_EDGE('',*,*,#286,.T.);
#101=ORIENTED_EDGE('',*,*,#287,.T.);
#102=ORIENTED_EDGE('',*,*,#288,.F.);
#103=ORIENTED_EDGE('',*,*,#289,.T.);
#104=ORIENTED_EDGE('',*,*,#290,.F.);
#105=ORIENTED_EDGE('',*,*,#291,.T.);
#106=ORIENTED_EDGE('',*,*,#292,.T.);
#107=ORIENTED_EDGE('',*,*,#293,.F.);
#108=ORIENTED_EDGE('',*,*,#268,.F.);
#109=ORIENTED_EDGE('',*,*,#294,.T.);
#110=ORIENTED_EDGE('',*,*,#295,.F.);
#111=ORIENTED_EDGE('',*,*,#293,.T.);
#112=ORIENTED_EDGE('',*,*,#296,.T.);
#113=ORIENTED_EDGE('',*,*,#297,.F.);
#114=ORIENTED_EDGE('',*,*,#298,.T.);
#115=ORIENTED_EDGE('',*,*,#266,.T.);
#116=ORIENTED_EDGE('',*,*,#299,.T.);
#117=ORIENTED_EDGE('',*,*,#300,.F.);
#118=ORIENTED_EDGE('',*,*,#301,.T.);
#119=ORIENTED_EDGE('',*,*,#297,.T.);
#120=ORIENTED_EDGE('',*,*,#302,.F.);
#121=ORIENTED_EDGE('',*,*,#303,.F.);
#122=ORIENTED_EDGE('',*,*,#290,.T.);
#123=ORIENTED_EDGE('',*,*,#295,.T.);
#124=ORIENTED_EDGE('',*,*,#304,.T.);
#125=ORIENTED_EDGE('',*,*,#292,.F.);
#126=ORIENTED_EDGE('',*,*,#305,.T.);
#127=ORIENTED_EDGE('',*,*,#302,.T.);
#128=ORIENTED_EDGE('',*,*,#299,.F.);
#129=ORIENTED_EDGE('',*,*,#269,.T.);
#130=ORIENTED_EDGE('',*,*,#296,.F.);
#131=ORIENTED_EDGE('',*,*,#306,.T.);
#132=ORIENTED_EDGE('',*,*,#307,.T.);
#133=ORIENTED_EDGE('',*,*,#308,.T.);
#134=ORIENTED_EDGE('',*,*,#309,.T.);
#135=ORIENTED_EDGE('',*,*,#310,.F.);
#136=ORIENTED_EDGE('',*,*,#304,.F.);
#137=ORIENTED_EDGE('',*,*,#294,.F.);
#138=ORIENTED_EDGE('',*,*,#267,.F.);
#139=ORIENTED_EDGE('',*,*,#298,.F.);
#140=ORIENTED_EDGE('',*,*,#301,.F.);
#141=ORIENTED_EDGE('',*,*,#311,.F.);
#142=ORIENTED_EDGE('',*,*,#312,.F.);
#143=ORIENTED_EDGE('',*,*,#313,.T.);
#144=ORIENTED_EDGE('',*,*,#278,.F.);
#145=ORIENTED_EDGE('',*,*,#314,.T.);
#146=ORIENTED_EDGE('',*,*,#315,.F.);
#147=ORIENTED_EDGE('',*,*,#316,.F.);
#148=ORIENTED_EDGE('',*,*,#317,.T.);
#149=ORIENTED_EDGE('',*,*,#318,.T.);
#150=ORIENTED_EDGE('',*,*,#319,.F.);
#151=ORIENTED_EDGE('',*,*,#281,.T.);
#152=ORIENTED_EDGE('',*,*,#320,.F.);
#153=ORIENTED_EDGE('',*,*,#318,.F.);
#154=ORIENTED_EDGE('',*,*,#321,.T.);
#155=ORIENTED_EDGE('',*,*,#314,.F.);
#156=ORIENTED_EDGE('',*,*,#322,.T.);
#157=ORIENTED_EDGE('',*,*,#323,.F.);
#158=ORIENTED_EDGE('',*,*,#279,.F.);
#159=ORIENTED_EDGE('',*,*,#313,.F.);
#160=ORIENTED_EDGE('',*,*,#324,.T.);
#161=ORIENTED_EDGE('',*,*,#325,.T.);
#162=ORIENTED_EDGE('',*,*,#326,.T.);
#163=ORIENTED_EDGE('',*,*,#322,.F.);
#164=ORIENTED_EDGE('',*,*,#312,.T.);
#165=ORIENTED_EDGE('',*,*,#327,.T.);
#166=ORIENTED_EDGE('',*,*,#328,.T.);
#167=ORIENTED_EDGE('',*,*,#329,.T.);
#168=ORIENTED_EDGE('',*,*,#330,.T.);
#169=ORIENTED_EDGE('',*,*,#331,.T.);
#170=ORIENTED_EDGE('',*,*,#332,.F.);
#171=ORIENTED_EDGE('',*,*,#324,.F.);
#172=ORIENTED_EDGE('',*,*,#333,.F.);
#173=ORIENTED_EDGE('',*,*,#319,.T.);
#174=ORIENTED_EDGE('',*,*,#320,.T.);
#175=ORIENTED_EDGE('',*,*,#280,.F.);
#176=ORIENTED_EDGE('',*,*,#323,.T.);
#177=ORIENTED_EDGE('',*,*,#326,.F.);
#178=ORIENTED_EDGE('',*,*,#317,.F.);
#179=ORIENTED_EDGE('',*,*,#334,.T.);
#180=ORIENTED_EDGE('',*,*,#315,.T.);
#181=ORIENTED_EDGE('',*,*,#321,.F.);
#182=ORIENTED_EDGE('',*,*,#291,.F.);
#183=ORIENTED_EDGE('',*,*,#303,.T.);
#184=ORIENTED_EDGE('',*,*,#310,.T.);
#185=ORIENTED_EDGE('',*,*,#334,.F.);
#186=ORIENTED_EDGE('',*,*,#316,.T.);
#187=ORIENTED_EDGE('',*,*,#333,.T.);
#188=ORIENTED_EDGE('',*,*,#327,.F.);
#189=ORIENTED_EDGE('',*,*,#311,.T.);
#190=ORIENTED_EDGE('',*,*,#300,.T.);
#191=ORIENTED_EDGE('',*,*,#305,.F.);
#192=ORIENTED_EDGE('',*,*,#335,.T.);
#193=ORIENTED_EDGE('',*,*,#336,.F.);
#194=ORIENTED_EDGE('',*,*,#332,.T.);
#195=ORIENTED_EDGE('',*,*,#325,.F.);
#196=ORIENTED_EDGE('',*,*,#336,.T.);
#197=ORIENTED_EDGE('',*,*,#337,.T.);
#198=ORIENTED_EDGE('',*,*,#338,.F.);
#199=ORIENTED_EDGE('',*,*,#338,.T.);
#200=ORIENTED_EDGE('',*,*,#339,.T.);
#201=ORIENTED_EDGE('',*,*,#340,.F.);
#202=ORIENTED_EDGE('',*,*,#340,.T.);
#203=ORIENTED_EDGE('',*,*,#341,.T.);
#204=ORIENTED_EDGE('',*,*,#342,.F.);
#205=ORIENTED_EDGE('',*,*,#342,.T.);
#206=ORIENTED_EDGE('',*,*,#306,.F.);
#207=ORIENTED_EDGE('',*,*,#335,.F.);
#208=ORIENTED_EDGE('',*,*,#307,.F.);
#209=ORIENTED_EDGE('',*,*,#341,.F.);
#210=ORIENTED_EDGE('',*,*,#308,.F.);
#211=ORIENTED_EDGE('',*,*,#339,.F.);
#212=ORIENTED_EDGE('',*,*,#309,.F.);
#213=ORIENTED_EDGE('',*,*,#337,.F.);
#214=ORIENTED_EDGE('',*,*,#282,.T.);
#215=ORIENTED_EDGE('',*,*,#343,.T.);
#216=ORIENTED_EDGE('',*,*,#271,.F.);
#217=ORIENTED_EDGE('',*,*,#344,.F.);
#218=ORIENTED_EDGE('',*,*,#344,.T.);
#219=ORIENTED_EDGE('',*,*,#270,.T.);
#220=ORIENTED_EDGE('',*,*,#345,.F.);
#221=ORIENTED_EDGE('',*,*,#283,.F.);
#222=ORIENTED_EDGE('',*,*,#345,.T.);
#223=ORIENTED_EDGE('',*,*,#277,.T.);
#224=ORIENTED_EDGE('',*,*,#346,.F.);
#225=ORIENTED_EDGE('',*,*,#284,.F.);
#226=ORIENTED_EDGE('',*,*,#346,.T.);
#227=ORIENTED_EDGE('',*,*,#276,.T.);
#228=ORIENTED_EDGE('',*,*,#347,.F.);
#229=ORIENTED_EDGE('',*,*,#285,.F.);
#230=ORIENTED_EDGE('',*,*,#347,.T.);
#231=ORIENTED_EDGE('',*,*,#275,.T.);
#232=ORIENTED_EDGE('',*,*,#348,.F.);
#233=ORIENTED_EDGE('',*,*,#286,.F.);
#234=ORIENTED_EDGE('',*,*,#348,.T.);
#235=ORIENTED_EDGE('',*,*,#274,.T.);
#236=ORIENTED_EDGE('',*,*,#349,.F.);
#237=ORIENTED_EDGE('',*,*,#287,.F.);
#238=ORIENTED_EDGE('',*,*,#288,.T.);
#239=ORIENTED_EDGE('',*,*,#349,.T.);
#240=ORIENTED_EDGE('',*,*,#273,.F.);
#241=ORIENTED_EDGE('',*,*,#350,.F.);
#242=ORIENTED_EDGE('',*,*,#350,.T.);
#243=ORIENTED_EDGE('',*,*,#272,.T.);
#244=ORIENTED_EDGE('',*,*,#343,.F.);
#245=ORIENTED_EDGE('',*,*,#289,.F.);
#246=ORIENTED_EDGE('',*,*,#351,.T.);
#247=ORIENTED_EDGE('',*,*,#352,.F.);
#248=ORIENTED_EDGE('',*,*,#352,.T.);
#249=ORIENTED_EDGE('',*,*,#353,.T.);
#250=ORIENTED_EDGE('',*,*,#354,.F.);
#251=ORIENTED_EDGE('',*,*,#354,.T.);
#252=ORIENTED_EDGE('',*,*,#355,.T.);
#253=ORIENTED_EDGE('',*,*,#356,.F.);
#254=ORIENTED_EDGE('',*,*,#356,.T.);
#255=ORIENTED_EDGE('',*,*,#357,.T.);
#256=ORIENTED_EDGE('',*,*,#358,.F.);
#257=ORIENTED_EDGE('',*,*,#358,.T.);
#258=ORIENTED_EDGE('',*,*,#328,.F.);
#259=ORIENTED_EDGE('',*,*,#357,.F.);
#260=ORIENTED_EDGE('',*,*,#329,.F.);
#261=ORIENTED_EDGE('',*,*,#351,.F.);
#262=ORIENTED_EDGE('',*,*,#330,.F.);
#263=ORIENTED_EDGE('',*,*,#353,.F.);
#264=ORIENTED_EDGE('',*,*,#331,.F.);
#265=ORIENTED_EDGE('',*,*,#355,.F.);
#266=EDGE_CURVE('',#359,#360,#429,.T.);
#267=EDGE_CURVE('',#359,#361,#430,.F.);
#268=EDGE_CURVE('',#361,#362,#431,.T.);
#269=EDGE_CURVE('',#360,#362,#432,.T.);
#270=EDGE_CURVE('',#363,#364,#42,.T.);
#271=EDGE_CURVE('',#363,#365,#433,.T.);
#272=EDGE_CURVE('',#366,#365,#43,.T.);
#273=EDGE_CURVE('',#366,#367,#434,.T.);
#274=EDGE_CURVE('',#368,#367,#44,.T.);
#275=EDGE_CURVE('',#369,#368,#435,.T.);
#276=EDGE_CURVE('',#370,#369,#45,.T.);
#277=EDGE_CURVE('',#364,#370,#436,.T.);
#278=EDGE_CURVE('',#371,#372,#437,.F.);
#279=EDGE_CURVE('',#372,#373,#438,.T.);
#280=EDGE_CURVE('',#373,#374,#439,.T.);
#281=EDGE_CURVE('',#371,#374,#440,.T.);
#282=EDGE_CURVE('',#375,#376,#441,.T.);
#283=EDGE_CURVE('',#375,#377,#46,.T.);
#284=EDGE_CURVE('',#377,#378,#442,.T.);
#285=EDGE_CURVE('',#378,#379,#47,.T.);
#286=EDGE_CURVE('',#379,#380,#443,.T.);
#287=EDGE_CURVE('',#380,#381,#48,.T.);
#288=EDGE_CURVE('',#382,#381,#444,.T.);
#289=EDGE_CURVE('',#382,#376,#49,.T.);
#290=EDGE_CURVE('',#383,#384,#445,.T.);
#291=EDGE_CURVE('',#383,#385,#446,.T.);
#292=EDGE_CURVE('',#385,#386,#447,.T.);
#293=EDGE_CURVE('',#384,#386,#448,.T.);
#294=EDGE_CURVE('',#361,#387,#20,.T.);
#295=EDGE_CURVE('',#384,#387,#50,.T.);
#296=EDGE_CURVE('',#386,#362,#51,.T.);
#297=EDGE_CURVE('',#388,#389,#449,.T.);
#298=EDGE_CURVE('',#388,#359,#21,.T.);
#299=EDGE_CURVE('',#360,#389,#52,.T.);
#300=EDGE_CURVE('',#390,#391,#450,.T.);
#301=EDGE_CURVE('',#390,#388,#451,.T.);
#302=EDGE_CURVE('',#391,#389,#452,.T.);
#303=EDGE_CURVE('',#383,#392,#453,.T.);
#304=EDGE_CURVE('',#387,#392,#454,.T.);
#305=EDGE_CURVE('',#385,#391,#455,.T.);
#306=EDGE_CURVE('',#393,#393,#53,.T.);
#307=EDGE_CURVE('',#394,#394,#54,.T.);
#308=EDGE_CURVE('',#395,#395,#55,.T.);
#309=EDGE_CURVE('',#396,#396,#56,.T.);
#310=EDGE_CURVE('',#392,#397,#456,.F.);
#311=EDGE_CURVE('',#398,#390,#457,.F.);
#312=EDGE_CURVE('',#399,#398,#458,.F.);
#313=EDGE_CURVE('',#399,#372,#22,.T.);
#314=EDGE_CURVE('',#371,#400,#23,.T.);
#315=EDGE_CURVE('',#397,#400,#459,.F.);
#316=EDGE_CURVE('',#401,#402,#460,.T.);
#317=EDGE_CURVE('',#401,#403,#461,.T.);
#318=EDGE_CURVE('',#403,#404,#462,.T.);
#319=EDGE_CURVE('',#402,#404,#463,.T.);
#320=EDGE_CURVE('',#404,#374,#57,.T.);
#321=EDGE_CURVE('',#403,#400,#58,.T.);
#322=EDGE_CURVE('',#399,#405,#464,.T.);
#323=EDGE_CURVE('',#373,#405,#59,.T.);
#324=EDGE_CURVE('',#406,#407,#465,.T.);
#325=EDGE_CURVE('',#407,#408,#24,.T.);
#326=EDGE_CURVE('',#408,#405,#466,.T.);
#327=EDGE_CURVE('',#398,#406,#467,.T.);
#328=EDGE_CURVE('',#409,#409,#60,.F.);
#329=EDGE_CURVE('',#410,#410,#61,.F.);
#330=EDGE_CURVE('',#411,#411,#62,.F.);
#331=EDGE_CURVE('',#412,#412,#63,.F.);
#332=EDGE_CURVE('',#407,#408,#25,.T.);
#333=EDGE_CURVE('',#402,#406,#468,.T.);
#334=EDGE_CURVE('',#401,#397,#469,.T.);
#335=EDGE_CURVE('',#413,#413,#64,.T.);
#336=EDGE_CURVE('',#414,#414,#65,.T.);
#337=EDGE_CURVE('',#415,#415,#66,.T.);
#338=EDGE_CURVE('',#416,#416,#67,.T.);
#339=EDGE_CURVE('',#417,#417,#68,.T.);
#340=EDGE_CURVE('',#418,#418,#69,.T.);
#341=EDGE_CURVE('',#419,#419,#70,.T.);
#342=EDGE_CURVE('',#420,#420,#71,.T.);
#343=EDGE_CURVE('',#376,#365,#470,.T.);
#344=EDGE_CURVE('',#375,#363,#471,.T.);
#345=EDGE_CURVE('',#377,#364,#472,.T.);
#346=EDGE_CURVE('',#378,#370,#473,.T.);
#347=EDGE_CURVE('',#379,#369,#474,.T.);
#348=EDGE_CURVE('',#380,#368,#475,.T.);
#349=EDGE_CURVE('',#381,#367,#476,.T.);
#350=EDGE_CURVE('',#382,#366,#477,.T.);
#351=EDGE_CURVE('',#421,#421,#72,.T.);
#352=EDGE_CURVE('',#422,#422,#73,.T.);
#353=EDGE_CURVE('',#423,#423,#74,.T.);
#354=EDGE_CURVE('',#424,#424,#75,.T.);
#355=EDGE_CURVE('',#425,#425,#76,.T.);
#356=EDGE_CURVE('',#426,#426,#77,.T.);
#357=EDGE_CURVE('',#427,#427,#78,.T.);
#358=EDGE_CURVE('',#428,#428,#79,.T.);
#359=VERTEX_POINT('',#1092);
#360=VERTEX_POINT('',#1093);
#361=VERTEX_POINT('',#1095);
#362=VERTEX_POINT('',#1097);
#363=VERTEX_POINT('',#1100);
#364=VERTEX_POINT('',#1101);
#365=VERTEX_POINT('',#1103);
#366=VERTEX_POINT('',#1105);
#367=VERTEX_POINT('',#1107);
#368=VERTEX_POINT('',#1109);
#369=VERTEX_POINT('',#1111);
#370=VERTEX_POINT('',#1113);
#371=VERTEX_POINT('',#1117);
#372=VERTEX_POINT('',#1118);
#373=VERTEX_POINT('',#1120);
#374=VERTEX_POINT('',#1122);
#375=VERTEX_POINT('',#1125);
#376=VERTEX_POINT('',#1126);
#377=VERTEX_POINT('',#1128);
#378=VERTEX_POINT('',#1130);
#379=VERTEX_POINT('',#1132);
#380=VERTEX_POINT('',#1134);
#381=VERTEX_POINT('',#1136);
#382=VERTEX_POINT('',#1138);
#383=VERTEX_POINT('',#1142);
#384=VERTEX_POINT('',#1143);
#385=VERTEX_POINT('',#1145);
#386=VERTEX_POINT('',#1147);
#387=VERTEX_POINT('',#1151);
#388=VERTEX_POINT('',#1156);
#389=VERTEX_POINT('',#1157);
#390=VERTEX_POINT('',#1162);
#391=VERTEX_POINT('',#1163);
#392=VERTEX_POINT('',#1168);
#393=VERTEX_POINT('',#1174);
#394=VERTEX_POINT('',#1176);
#395=VERTEX_POINT('',#1178);
#396=VERTEX_POINT('',#1180);
#397=VERTEX_POINT('',#1182);
#398=VERTEX_POINT('',#1184);
#399=VERTEX_POINT('',#1186);
#400=VERTEX_POINT('',#1189);
#401=VERTEX_POINT('',#1193);
#402=VERTEX_POINT('',#1194);
#403=VERTEX_POINT('',#1196);
#404=VERTEX_POINT('',#1198);
#405=VERTEX_POINT('',#1205);
#406=VERTEX_POINT('',#1209);
#407=VERTEX_POINT('',#1210);
#408=VERTEX_POINT('',#1212);
#409=VERTEX_POINT('',#1217);
#410=VERTEX_POINT('',#1219);
#411=VERTEX_POINT('',#1221);
#412=VERTEX_POINT('',#1223);
#413=VERTEX_POINT('',#1231);
#414=VERTEX_POINT('',#1233);
#415=VERTEX_POINT('',#1237);
#416=VERTEX_POINT('',#1239);
#417=VERTEX_POINT('',#1243);
#418=VERTEX_POINT('',#1245);
#419=VERTEX_POINT('',#1249);
#420=VERTEX_POINT('',#1251);
#421=VERTEX_POINT('',#1275);
#422=VERTEX_POINT('',#1277);
#423=VERTEX_POINT('',#1281);
#424=VERTEX_POINT('',#1283);
#425=VERTEX_POINT('',#1287);
#426=VERTEX_POINT('',#1289);
#427=VERTEX_POINT('',#1293);
#428=VERTEX_POINT('',#1295);
#429=LINE('',#1091,#478);
#430=LINE('',#1094,#479);
#431=LINE('',#1096,#480);
#432=LINE('',#1098,#481);
#433=LINE('',#1102,#482);
#434=LINE('',#1106,#483);
#435=LINE('',#1110,#484);
#436=LINE('',#1114,#485);
#437=LINE('',#1116,#486);
#438=LINE('',#1119,#487);
#439=LINE('',#1121,#488);
#440=LINE('',#1123,#489);
#441=LINE('',#1124,#490);
#442=LINE('',#1129,#491);
#443=LINE('',#1133,#492);
#444=LINE('',#1137,#493);
#445=LINE('',#1141,#494);
#446=LINE('',#1144,#495);
#447=LINE('',#1146,#496);
#448=LINE('',#1148,#497);
#449=LINE('',#1155,#498);
#450=LINE('',#1161,#499);
#451=LINE('',#1164,#500);
#452=LINE('',#1165,#501);
#453=LINE('',#1167,#502);
#454=LINE('',#1169,#503);
#455=LINE('',#1171,#504);
#456=LINE('',#1181,#505);
#457=LINE('',#1183,#506);
#458=LINE('',#1185,#507);
#459=LINE('',#1190,#508);
#460=LINE('',#1192,#509);
#461=LINE('',#1195,#510);
#462=LINE('',#1197,#511);
#463=LINE('',#1199,#512);
#464=LINE('',#1204,#513);
#465=LINE('',#1208,#514);
#466=LINE('',#1213,#515);
#467=LINE('',#1214,#516);
#468=LINE('',#1225,#517);
#469=LINE('',#1227,#518);
#470=LINE('',#1258,#519);
#471=LINE('',#1259,#520);
#472=LINE('',#1261,#521);
#473=LINE('',#1263,#522);
#474=LINE('',#1265,#523);
#475=LINE('',#1267,#524);
#476=LINE('',#1269,#525);
#477=LINE('',#1271,#526);
#478=VECTOR('',#858,1.);
#479=VECTOR('',#859,1.);
#480=VECTOR('',#860,1.);
#481=VECTOR('',#861,1.);
#482=VECTOR('',#864,1.);
#483=VECTOR('',#867,1.);
#484=VECTOR('',#870,1.);
#485=VECTOR('',#873,1.);
#486=VECTOR('',#876,1.);
#487=VECTOR('',#877,1.);
#488=VECTOR('',#878,1.);
#489=VECTOR('',#879,1.);
#490=VECTOR('',#880,1.);
#491=VECTOR('',#883,1.);
#492=VECTOR('',#886,1.);
#493=VECTOR('',#889,1.);
#494=VECTOR('',#894,1.);
#495=VECTOR('',#895,1.);
#496=VECTOR('',#896,1.);
#497=VECTOR('',#897,1.);
#498=VECTOR('',#908,1.);
#499=VECTOR('',#915,1.);
#500=VECTOR('',#916,1.);
#501=VECTOR('',#917,1.);
#502=VECTOR('',#920,1.);
#503=VECTOR('',#921,1.);
#504=VECTOR('',#924,1.);
#505=VECTOR('',#935,1.);
#506=VECTOR('',#936,1.);
#507=VECTOR('',#937,1.);
#508=VECTOR('',#942,1.);
#509=VECTOR('',#945,1.);
#510=VECTOR('',#946,1.);
#511=VECTOR('',#947,1.);
#512=VECTOR('',#948,1.);
#513=VECTOR('',#957,1.);
#514=VECTOR('',#962,1.);
#515=VECTOR('',#965,1.);
#516=VECTOR('',#966,1.);
#517=VECTOR('',#979,1.);
#518=VECTOR('',#982,1.);
#519=VECTOR('',#1027,1.);
#520=VECTOR('',#1028,1.);
#521=VECTOR('',#1031,1.);
#522=VECTOR('',#1034,1.);
#523=VECTOR('',#1037,1.);
#524=VECTOR('',#1040,1.);
#525=VECTOR('',#1043,1.);
#526=VECTOR('',#1046,1.);
#527=EDGE_LOOP('',(#80,#81,#82,#83));
#528=EDGE_LOOP('',(#84,#85,#86,#87,#88,#89,#90,#91));
#529=EDGE_LOOP('',(#92,#93,#94,#95));
#530=EDGE_LOOP('',(#96,#97,#98,#99,#100,#101,#102,#103));
#531=EDGE_LOOP('',(#104,#105,#106,#107));
#532=EDGE_LOOP('',(#108,#109,#110,#111,#112));
#533=EDGE_LOOP('',(#113,#114,#115,#116));
#534=EDGE_LOOP('',(#117,#118,#119,#120));
#535=EDGE_LOOP('',(#121,#122,#123,#124));
#536=EDGE_LOOP('',(#125,#126,#127,#128,#129,#130));
#537=EDGE_LOOP('',(#131));
#538=EDGE_LOOP('',(#132));
#539=EDGE_LOOP('',(#133));
#540=EDGE_LOOP('',(#134));
#541=EDGE_LOOP('',(#135,#136,#137,#138,#139,#140,#141,#142,#143,#144,#145,#146));
#542=EDGE_LOOP('',(#147,#148,#149,#150));
#543=EDGE_LOOP('',(#151,#152,#153,#154,#155));
#544=EDGE_LOOP('',(#156,#157,#158,#159));
#545=EDGE_LOOP('',(#160,#161,#162,#163,#164,#165));
#546=EDGE_LOOP('',(#166));
#547=EDGE_LOOP('',(#167));
#548=EDGE_LOOP('',(#168));
#549=EDGE_LOOP('',(#169));
#550=EDGE_LOOP('',(#170,#171,#172,#173,#174,#175,#176,#177));
#551=EDGE_LOOP('',(#178,#179,#180,#181));
#552=EDGE_LOOP('',(#182,#183,#184,#185,#186,#187,#188,#189,#190,#191));
#553=EDGE_LOOP('',(#192));
#554=EDGE_LOOP('',(#193));
#555=EDGE_LOOP('',(#194,#195));
#556=EDGE_LOOP('',(#196));
#557=EDGE_LOOP('',(#197));
#558=EDGE_LOOP('',(#198));
#559=EDGE_LOOP('',(#199));
#560=EDGE_LOOP('',(#200));
#561=EDGE_LOOP('',(#201));
#562=EDGE_LOOP('',(#202));
#563=EDGE_LOOP('',(#203));
#564=EDGE_LOOP('',(#204));
#565=EDGE_LOOP('',(#205));
#566=EDGE_LOOP('',(#206));
#567=EDGE_LOOP('',(#207));
#568=EDGE_LOOP('',(#208));
#569=EDGE_LOOP('',(#209));
#570=EDGE_LOOP('',(#210));
#571=EDGE_LOOP('',(#211));
#572=EDGE_LOOP('',(#212));
#573=EDGE_LOOP('',(#213));
#574=EDGE_LOOP('',(#214,#215,#216,#217));
#575=EDGE_LOOP('',(#218,#219,#220,#221));
#576=EDGE_LOOP('',(#222,#223,#224,#225));
#577=EDGE_LOOP('',(#226,#227,#228,#229));
#578=EDGE_LOOP('',(#230,#231,#232,#233));
#579=EDGE_LOOP('',(#234,#235,#236,#237));
#580=EDGE_LOOP('',(#238,#239,#240,#241));
#581=EDGE_LOOP('',(#242,#243,#244,#245));
#582=EDGE_LOOP('',(#246));
#583=EDGE_LOOP('',(#247));
#584=EDGE_LOOP('',(#248));
#585=EDGE_LOOP('',(#249));
#586=EDGE_LOOP('',(#250));
#587=EDGE_LOOP('',(#251));
#588=EDGE_LOOP('',(#252));
#589=EDGE_LOOP('',(#253));
#590=EDGE_LOOP('',(#254));
#591=EDGE_LOOP('',(#255));
#592=EDGE_LOOP('',(#256));
#593=EDGE_LOOP('',(#257));
#594=EDGE_LOOP('',(#258));
#595=EDGE_LOOP('',(#259));
#596=EDGE_LOOP('',(#260));
#597=EDGE_LOOP('',(#261));
#598=EDGE_LOOP('',(#262));
#599=EDGE_LOOP('',(#263));
#600=EDGE_LOOP('',(#264));
#601=EDGE_LOOP('',(#265));
#602=FACE_BOUND('',#527,.T.);
#603=FACE_BOUND('',#528,.T.);
#604=FACE_BOUND('',#529,.T.);
#605=FACE_BOUND('',#530,.T.);
#606=FACE_BOUND('',#531,.T.);
#607=FACE_BOUND('',#532,.T.);
#608=FACE_BOUND('',#533,.T.);
#609=FACE_BOUND('',#534,.T.);
#610=FACE_BOUND('',#535,.T.);
#611=FACE_BOUND('',#536,.T.);
#612=FACE_BOUND('',#537,.T.);
#613=FACE_BOUND('',#538,.T.);
#614=FACE_BOUND('',#539,.T.);
#615=FACE_BOUND('',#540,.T.);
#616=FACE_BOUND('',#541,.T.);
#617=FACE_BOUND('',#542,.T.);
#618=FACE_BOUND('',#543,.T.);
#619=FACE_BOUND('',#544,.T.);
#620=FACE_BOUND('',#545,.T.);
#621=FACE_BOUND('',#546,.T.);
#622=FACE_BOUND('',#547,.T.);
#623=FACE_BOUND('',#548,.T.);
#624=FACE_BOUND('',#549,.T.);
#625=FACE_BOUND('',#550,.T.);
#626=FACE_BOUND('',#551,.T.);
#627=FACE_BOUND('',#552,.T.);
#628=FACE_BOUND('',#553,.T.);
#629=FACE_BOUND('',#554,.T.);
#630=FACE_BOUND('',#555,.T.);
#631=FACE_BOUND('',#556,.T.);
#632=FACE_BOUND('',#557,.T.);
#633=FACE_BOUND('',#558,.T.);
#634=FACE_BOUND('',#559,.T.);
#635=FACE_BOUND('',#560,.T.);
#636=FACE_BOUND('',#561,.T.);
#637=FACE_BOUND('',#562,.T.);
#638=FACE_BOUND('',#563,.T.);
#639=FACE_BOUND('',#564,.T.);
#640=FACE_BOUND('',#565,.T.);
#641=FACE_BOUND('',#566,.T.);
#642=FACE_BOUND('',#567,.T.);
#643=FACE_BOUND('',#568,.T.);
#644=FACE_BOUND('',#569,.T.);
#645=FACE_BOUND('',#570,.T.);
#646=FACE_BOUND('',#571,.T.);
#647=FACE_BOUND('',#572,.T.);
#648=FACE_BOUND('',#573,.T.);
#649=FACE_BOUND('',#574,.T.);
#650=FACE_BOUND('',#575,.T.);
#651=FACE_BOUND('',#576,.T.);
#652=FACE_BOUND('',#577,.T.);
#653=FACE_BOUND('',#578,.T.);
#654=FACE_BOUND('',#579,.T.);
#655=FACE_BOUND('',#580,.T.);
#656=FACE_BOUND('',#581,.T.);
#657=FACE_BOUND('',#582,.T.);
#658=FACE_BOUND('',#583,.T.);
#659=FACE_BOUND('',#584,.T.);
#660=FACE_BOUND('',#585,.T.);
#661=FACE_BOUND('',#586,.T.);
#662=FACE_BOUND('',#587,.T.);
#663=FACE_BOUND('',#588,.T.);
#664=FACE_BOUND('',#589,.T.);
#665=FACE_BOUND('',#590,.T.);
#666=FACE_BOUND('',#591,.T.);
#667=FACE_BOUND('',#592,.T.);
#668=FACE_BOUND('',#593,.T.);
#669=FACE_BOUND('',#594,.T.);
#670=FACE_BOUND('',#595,.T.);
#671=FACE_BOUND('',#596,.T.);
#672=FACE_BOUND('',#597,.T.);
#673=FACE_BOUND('',#598,.T.);
#674=FACE_BOUND('',#599,.T.);
#675=FACE_BOUND('',#600,.T.);
#676=FACE_BOUND('',#601,.T.);
#677=PLANE('',#762);
#678=PLANE('',#767);
#679=PLANE('',#772);
#680=PLANE('',#780);
#681=PLANE('',#781);
#682=PLANE('',#782);
#683=PLANE('',#783);
#684=PLANE('',#790);
#685=PLANE('',#796);
#686=PLANE('',#798);
#687=PLANE('',#804);
#688=PLANE('',#805);
#689=PLANE('',#809);
#690=PLANE('',#813);
#691=PLANE('',#817);
#692=PLANE('',#821);
#693=PLANE('',#826);
#694=PLANE('',#828);
#695=PLANE('',#830);
#696=PLANE('',#832);
#697=PLANE('',#837);
#698=PLANE('',#841);
#699=PLANE('',#845);
#700=PLANE('',#849);
#701=ADVANCED_FACE('',(#602,#603),#677,.T.);
#702=ADVANCED_FACE('',(#604,#605),#678,.F.);
#703=ADVANCED_FACE('',(#606),#679,.F.);
#704=ADVANCED_FACE('',(#607),#26,.T.);
#705=ADVANCED_FACE('',(#608),#27,.T.);
#706=ADVANCED_FACE('',(#609),#680,.T.);
#707=ADVANCED_FACE('',(#610),#681,.T.);
#708=ADVANCED_FACE('',(#611),#682,.F.);
#709=ADVANCED_FACE('',(#612,#613,#614,#615,#616),#683,.F.);
#710=ADVANCED_FACE('',(#617),#684,.T.);
#711=ADVANCED_FACE('',(#618),#28,.F.);
#712=ADVANCED_FACE('',(#619),#29,.F.);
#713=ADVANCED_FACE('',(#620),#685,.F.);
#714=ADVANCED_FACE('',(#621,#622,#623,#624,#625),#686,.T.);
#715=ADVANCED_FACE('',(#626),#687,.F.);
#716=ADVANCED_FACE('',(#627),#688,.F.);
#717=ADVANCED_FACE('',(#628,#629,#630),#30,.F.);
#718=ADVANCED_FACE('',(#631),#689,.T.);
#719=ADVANCED_FACE('',(#632,#633),#31,.F.);
#720=ADVANCED_FACE('',(#634),#690,.T.);
#721=ADVANCED_FACE('',(#635,#636),#32,.F.);
#722=ADVANCED_FACE('',(#637),#691,.T.);
#723=ADVANCED_FACE('',(#638,#639),#33,.F.);
#724=ADVANCED_FACE('',(#640),#692,.T.);
#725=ADVANCED_FACE('',(#641,#642),#12,.F.);
#726=ADVANCED_FACE('',(#643,#644),#13,.F.);
#727=ADVANCED_FACE('',(#645,#646),#14,.F.);
#728=ADVANCED_FACE('',(#647,#648),#15,.F.);
#729=ADVANCED_FACE('',(#649),#693,.T.);
#730=ADVANCED_FACE('',(#650),#34,.F.);
#731=ADVANCED_FACE('',(#651),#694,.F.);
#732=ADVANCED_FACE('',(#652),#35,.F.);
#733=ADVANCED_FACE('',(#653),#695,.F.);
#734=ADVANCED_FACE('',(#654),#36,.F.);
#735=ADVANCED_FACE('',(#655),#696,.T.);
#736=ADVANCED_FACE('',(#656),#37,.F.);
#737=ADVANCED_FACE('',(#657,#658),#38,.F.);
#738=ADVANCED_FACE('',(#659),#697,.T.);
#739=ADVANCED_FACE('',(#660,#661),#39,.F.);
#740=ADVANCED_FACE('',(#662),#698,.T.);
#741=ADVANCED_FACE('',(#663,#664),#40,.F.);
#742=ADVANCED_FACE('',(#665),#699,.T.);
#743=ADVANCED_FACE('',(#666,#667),#41,.F.);
#744=ADVANCED_FACE('',(#668),#700,.T.);
#745=ADVANCED_FACE('',(#669,#670),#16,.F.);
#746=ADVANCED_FACE('',(#671,#672),#17,.F.);
#747=ADVANCED_FACE('',(#673,#674),#18,.F.);
#748=ADVANCED_FACE('',(#675,#676),#19,.F.);
#749=CLOSED_SHELL('',(#701,#702,#703,#704,#705,#706,#707,#708,#709,#710,#711,#712,#713,#714,#715,#716,#717,#718,#719,#720,#721,#722,#723,#724,#725,#726,#727,#728,#729,#730,#731,#732,#733,#734,#735,#736,#737,#738,#739,#740,#741,#742,#743,#744,#745,#746,#747,#748));
#750=STYLED_ITEM('',(#751),#758);
#751=PRESENTATION_STYLE_ASSIGNMENT((#752));
#752=SURFACE_STYLE_USAGE(.BOTH.,#753);
#753=SURFACE_SIDE_STYLE('',(#754));
#754=SURFACE_STYLE_FILL_AREA(#755);
#755=FILL_AREA_STYLE('',(#756));
#756=FILL_AREA_STYLE_COLOUR('',#757);
#757=COLOUR_RGB('',0.917647058823529,0.917647058823529,0.917647058823529);
#758=MANIFOLD_SOLID_BREP('rightCase',#749);
#759=SHAPE_DEFINITION_REPRESENTATION(#1307,#760);
#760=SHAPE_REPRESENTATION('rightCase',(#761),#1302);
#761=AXIS2_PLACEMENT_3D('',#1089,#854,#855);
#762=AXIS2_PLACEMENT_3D('',#1090,#856,#857);
#763=AXIS2_PLACEMENT_3D('',#1099,#862,#863);
#764=AXIS2_PLACEMENT_3D('',#1104,#865,#866);
#765=AXIS2_PLACEMENT_3D('',#1108,#868,#869);
#766=AXIS2_PLACEMENT_3D('',#1112,#871,#872);
#767=AXIS2_PLACEMENT_3D('',#1115,#874,#875);
#768=AXIS2_PLACEMENT_3D('',#1127,#881,#882);
#769=AXIS2_PLACEMENT_3D('',#1131,#884,#885);
#770=AXIS2_PLACEMENT_3D('',#1135,#887,#888);
#771=AXIS2_PLACEMENT_3D('',#1139,#890,#891);
#772=AXIS2_PLACEMENT_3D('',#1140,#892,#893);
#773=AXIS2_PLACEMENT_3D('',#1149,#898,#899);
#774=AXIS2_PLACEMENT_3D('',#1150,#900,#901);
#775=AXIS2_PLACEMENT_3D('',#1152,#902,#903);
#776=AXIS2_PLACEMENT_3D('',#1153,#904,#905);
#777=AXIS2_PLACEMENT_3D('',#1154,#906,#907);
#778=AXIS2_PLACEMENT_3D('',#1158,#909,#910);
#779=AXIS2_PLACEMENT_3D('',#1159,#911,#912);
#780=AXIS2_PLACEMENT_3D('',#1160,#913,#914);
#781=AXIS2_PLACEMENT_3D('',#1166,#918,#919);
#782=AXIS2_PLACEMENT_3D('',#1170,#922,#923);
#783=AXIS2_PLACEMENT_3D('',#1172,#925,#926);
#784=AXIS2_PLACEMENT_3D('',#1173,#927,#928);
#785=AXIS2_PLACEMENT_3D('',#1175,#929,#930);
#786=AXIS2_PLACEMENT_3D('',#1177,#931,#932);
#787=AXIS2_PLACEMENT_3D('',#1179,#933,#934);
#788=AXIS2_PLACEMENT_3D('',#1187,#938,#939);
#789=AXIS2_PLACEMENT_3D('',#1188,#940,#941);
#790=AXIS2_PLACEMENT_3D('',#1191,#943,#944);
#791=AXIS2_PLACEMENT_3D('',#1200,#949,#950);
#792=AXIS2_PLACEMENT_3D('',#1201,#951,#952);
#793=AXIS2_PLACEMENT_3D('',#1202,#953,#954);
#794=AXIS2_PLACEMENT_3D('',#1203,#955,#956);
#795=AXIS2_PLACEMENT_3D('',#1206,#958,#959);
#796=AXIS2_PLACEMENT_3D('',#1207,#960,#961);
#797=AXIS2_PLACEMENT_3D('',#1211,#963,#964);
#798=AXIS2_PLACEMENT_3D('',#1215,#967,#968);
#799=AXIS2_PLACEMENT_3D('',#1216,#969,#970);
#800=AXIS2_PLACEMENT_3D('',#1218,#971,#972);
#801=AXIS2_PLACEMENT_3D('',#1220,#973,#974);
#802=AXIS2_PLACEMENT_3D('',#1222,#975,#976);
#803=AXIS2_PLACEMENT_3D('',#1224,#977,#978);
#804=AXIS2_PLACEMENT_3D('',#1226,#980,#981);
#805=AXIS2_PLACEMENT_3D('',#1228,#983,#984);
#806=AXIS2_PLACEMENT_3D('',#1229,#985,#986);
#807=AXIS2_PLACEMENT_3D('',#1230,#987,#988);
#808=AXIS2_PLACEMENT_3D('',#1232,#989,#990);
#809=AXIS2_PLACEMENT_3D('',#1234,#991,#992);
#810=AXIS2_PLACEMENT_3D('',#1235,#993,#994);
#811=AXIS2_PLACEMENT_3D('',#1236,#995,#996);
#812=AXIS2_PLACEMENT_3D('',#1238,#997,#998);
#813=AXIS2_PLACEMENT_3D('',#1240,#999,#1000);
#814=AXIS2_PLACEMENT_3D('',#1241,#1001,#1002);
#815=AXIS2_PLACEMENT_3D('',#1242,#1003,#1004);
#816=AXIS2_PLACEMENT_3D('',#1244,#1005,#1006);
#817=AXIS2_PLACEMENT_3D('',#1246,#1007,#1008);
#818=AXIS2_PLACEMENT_3D('',#1247,#1009,#1010);
#819=AXIS2_PLACEMENT_3D('',#1248,#1011,#1012);
#820=AXIS2_PLACEMENT_3D('',#1250,#1013,#1014);
#821=AXIS2_PLACEMENT_3D('',#1252,#1015,#1016);
#822=AXIS2_PLACEMENT_3D('',#1253,#1017,#1018);
#823=AXIS2_PLACEMENT_3D('',#1254,#1019,#1020);
#824=AXIS2_PLACEMENT_3D('',#1255,#1021,#1022);
#825=AXIS2_PLACEMENT_3D('',#1256,#1023,#1024);
#826=AXIS2_PLACEMENT_3D('',#1257,#1025,#1026);
#827=AXIS2_PLACEMENT_3D('',#1260,#1029,#1030);
#828=AXIS2_PLACEMENT_3D('',#1262,#1032,#1033);
#829=AXIS2_PLACEMENT_3D('',#1264,#1035,#1036);
#830=AXIS2_PLACEMENT_3D('',#1266,#1038,#1039);
#831=AXIS2_PLACEMENT_3D('',#1268,#1041,#1042);
#832=AXIS2_PLACEMENT_3D('',#1270,#1044,#1045);
#833=AXIS2_PLACEMENT_3D('',#1272,#1047,#1048);
#834=AXIS2_PLACEMENT_3D('',#1273,#1049,#1050);
#835=AXIS2_PLACEMENT_3D('',#1274,#1051,#1052);
#836=AXIS2_PLACEMENT_3D('',#1276,#1053,#1054);
#837=AXIS2_PLACEMENT_3D('',#1278,#1055,#1056);
#838=AXIS2_PLACEMENT_3D('',#1279,#1057,#1058);
#839=AXIS2_PLACEMENT_3D('',#1280,#1059,#1060);
#840=AXIS2_PLACEMENT_3D('',#1282,#1061,#1062);
#841=AXIS2_PLACEMENT_3D('',#1284,#1063,#1064);
#842=AXIS2_PLACEMENT_3D('',#1285,#1065,#1066);
#843=AXIS2_PLACEMENT_3D('',#1286,#1067,#1068);
#844=AXIS2_PLACEMENT_3D('',#1288,#1069,#1070);
#845=AXIS2_PLACEMENT_3D('',#1290,#1071,#1072);
#846=AXIS2_PLACEMENT_3D('',#1291,#1073,#1074);
#847=AXIS2_PLACEMENT_3D('',#1292,#1075,#1076);
#848=AXIS2_PLACEMENT_3D('',#1294,#1077,#1078);
#849=AXIS2_PLACEMENT_3D('',#1296,#1079,#1080);
#850=AXIS2_PLACEMENT_3D('',#1297,#1081,#1082);
#851=AXIS2_PLACEMENT_3D('',#1298,#1083,#1084);
#852=AXIS2_PLACEMENT_3D('',#1299,#1085,#1086);
#853=AXIS2_PLACEMENT_3D('',#1300,#1087,#1088);
#854=DIRECTION('',(0.,0.,1.));
#855=DIRECTION('',(1.,0.,0.));
#856=DIRECTION('',(1.,0.,0.));
#857=DIRECTION('',(0.,0.,-1.));
#858=DIRECTION('',(0.,1.,0.));
#859=DIRECTION('',(0.,0.707106781186548,0.707106781186548));
#860=DIRECTION('',(0.,1.,0.));
#861=DIRECTION('',(0.,0.,-1.));
#862=DIRECTION('',(1.,0.,0.));
#863=DIRECTION('',(0.,0.,-1.));
#864=DIRECTION('',(0.,1.,1.09792625061823E-16));
#865=DIRECTION('',(1.,0.,0.));
#866=DIRECTION('',(0.,0.,-1.));
#867=DIRECTION('',(0.,0.,-1.));
#868=DIRECTION('',(1.,0.,0.));
#869=DIRECTION('',(0.,0.,-1.));
#870=DIRECTION('',(0.,1.,0.));
#871=DIRECTION('',(1.,0.,0.));
#872=DIRECTION('',(0.,0.,-1.));
#873=DIRECTION('',(0.,0.,-1.));
#874=DIRECTION('',(1.,0.,0.));
#875=DIRECTION('',(0.,0.,-1.));
#876=DIRECTION('',(0.,-0.707106781186548,-0.707106781186548));
#877=DIRECTION('',(0.,1.,0.));
#878=DIRECTION('',(0.,0.,-1.));
#879=DIRECTION('',(0.,1.,0.));
#880=DIRECTION('',(0.,1.,1.09792625061823E-16));
#881=DIRECTION('',(1.,0.,0.));
#882=DIRECTION('',(0.,0.,-1.));
#883=DIRECTION('',(0.,0.,-1.));
#884=DIRECTION('',(1.,0.,0.));
#885=DIRECTION('',(0.,0.,-1.));
#886=DIRECTION('',(0.,1.,0.));
#887=DIRECTION('',(1.,0.,0.));
#888=DIRECTION('',(0.,0.,-1.));
#889=DIRECTION('',(0.,0.,-1.));
#890=DIRECTION('',(1.,0.,0.));
#891=DIRECTION('',(0.,0.,-1.));
#892=DIRECTION('',(0.,0.,1.));
#893=DIRECTION('',(1.,0.,0.));
#894=DIRECTION('',(1.,0.,0.));
#895=DIRECTION('',(0.,1.,0.));
#896=DIRECTION('',(1.,0.,0.));
#897=DIRECTION('',(0.,1.,0.));
#898=DIRECTION('',(0.,1.,0.));
#899=DIRECTION('',(0.,0.,1.));
#900=DIRECTION('',(0.,0.707106781186548,-0.707106781186548));
#901=DIRECTION('',(0.,0.707106781186548,0.707106781186548));
#902=DIRECTION('',(0.,-1.,0.));
#903=DIRECTION('',(0.,0.,-1.));
#904=DIRECTION('',(0.,-1.,0.));
#905=DIRECTION('',(0.,0.,-1.));
#906=DIRECTION('',(0.,1.,0.));
#907=DIRECTION('',(0.,0.,1.));
#908=DIRECTION('',(0.,1.,0.));
#909=DIRECTION('',(0.,0.707106781186548,-0.707106781186548));
#910=DIRECTION('',(0.,0.707106781186548,0.707106781186548));
#911=DIRECTION('',(0.,-1.,0.));
#912=DIRECTION('',(0.,0.,-1.));
#913=DIRECTION('',(0.,0.,1.));
#914=DIRECTION('',(1.,0.,0.));
#915=DIRECTION('',(0.,1.,0.));
#916=DIRECTION('',(1.,0.,0.));
#917=DIRECTION('',(1.,0.,0.));
#918=DIRECTION('',(0.,-1.,0.));
#919=DIRECTION('',(1.,0.,0.));
#920=DIRECTION('',(1.93343792988127E-16,0.,1.));
#921=DIRECTION('',(-1.,0.,0.));
#922=DIRECTION('',(0.,-1.,0.));
#923=DIRECTION('',(1.,0.,0.));
#924=DIRECTION('',(1.93343792988127E-16,0.,1.));
#925=DIRECTION('',(0.,0.707106781186548,-0.707106781186548));
#926=DIRECTION('',(1.,0.,0.));
#927=DIRECTION('',(0.,0.707106781186548,-0.707106781186548));
#928=DIRECTION('',(0.,0.707106781186548,0.707106781186548));
#929=DIRECTION('',(0.,0.707106781186548,-0.707106781186548));
#930=DIRECTION('',(0.,0.707106781186548,0.707106781186548));
#931=DIRECTION('',(0.,0.707106781186548,-0.707106781186548));
#932=DIRECTION('',(0.,0.707106781186548,0.707106781186548));
#933=DIRECTION('',(0.,0.707106781186548,-0.707106781186548));
#934=DIRECTION('',(0.,0.707106781186548,0.707106781186548));
#935=DIRECTION('',(-1.36714707122233E-16,-0.707106781186548,-0.707106781186548));
#936=DIRECTION('',(-1.36714707122233E-16,-0.707106781186548,-0.707106781186548));
#937=DIRECTION('',(1.,0.,0.));
#938=DIRECTION('',(0.,0.707106781186548,-0.707106781186548));
#939=DIRECTION('',(0.,0.707106781186548,0.707106781186548));
#940=DIRECTION('',(0.,0.707106781186548,-0.707106781186548));
#941=DIRECTION('',(0.,0.707106781186548,0.707106781186548));
#942=DIRECTION('',(-1.,0.,0.));
#943=DIRECTION('',(0.,0.,1.));
#944=DIRECTION('',(1.,0.,0.));
#945=DIRECTION('',(0.,1.,0.));
#946=DIRECTION('',(1.,0.,0.));
#947=DIRECTION('',(0.,1.,0.));
#948=DIRECTION('',(1.,0.,0.));
#949=DIRECTION('',(0.,1.,0.));
#950=DIRECTION('',(0.,0.,1.));
#951=DIRECTION('',(0.,-1.,0.));
#952=DIRECTION('',(0.,0.,-1.));
#953=DIRECTION('',(0.,-1.,0.));
#954=DIRECTION('',(0.,0.,-1.));
#955=DIRECTION('',(0.,1.,0.));
#956=DIRECTION('',(0.,0.,1.));
#957=DIRECTION('',(0.,1.,0.));
#958=DIRECTION('',(0.,-1.,0.));
#959=DIRECTION('',(0.,0.,-1.));
#960=DIRECTION('',(0.,0.,1.));
#961=DIRECTION('',(1.,0.,0.));
#962=DIRECTION('',(1.,0.,0.));
#963=DIRECTION('',(0.,0.,1.));
#964=DIRECTION('',(0.,-1.,0.));
#965=DIRECTION('',(1.,0.,0.));
#966=DIRECTION('',(0.,1.,0.));
#967=DIRECTION('',(0.,-1.,0.));
#968=DIRECTION('',(1.,0.,0.));
#969=DIRECTION('',(0.,-1.,0.));
#970=DIRECTION('',(0.,0.,-1.));
#971=DIRECTION('',(0.,-1.,0.));
#972=DIRECTION('',(0.,0.,-1.));
#973=DIRECTION('',(0.,-1.,0.));
#974=DIRECTION('',(0.,0.,-1.));
#975=DIRECTION('',(0.,-1.,0.));
#976=DIRECTION('',(0.,0.,-1.));
#977=DIRECTION('',(0.,-1.,0.));
#978=DIRECTION('',(0.,0.,1.));
#979=DIRECTION('',(1.93343792988127E-16,0.,1.));
#980=DIRECTION('',(0.,-1.,0.));
#981=DIRECTION('',(1.,0.,0.));
#982=DIRECTION('',(1.93343792988127E-16,0.,1.));
#983=DIRECTION('',(1.,0.,-1.93343792988127E-16));
#984=DIRECTION('',(0.,1.,0.));
#985=DIRECTION('',(0.,-0.707106781186548,0.707106781186548));
#986=DIRECTION('',(0.,-0.707106781186548,-0.707106781186548));
#987=DIRECTION('',(0.,-0.707106781186547,0.707106781186548));
#988=DIRECTION('',(0.,-0.707106781186548,-0.707106781186547));
#989=DIRECTION('',(0.,-0.707106781186548,0.707106781186548));
#990=DIRECTION('',(0.,-0.707106781186548,-0.707106781186548));
#991=DIRECTION('',(0.,-0.707106781186548,0.707106781186548));
#992=DIRECTION('',(1.,0.,0.));
#993=DIRECTION('',(0.,-0.707106781186548,0.707106781186548));
#994=DIRECTION('',(0.,-0.707106781186548,-0.707106781186548));
#995=DIRECTION('',(0.,-0.707106781186547,0.707106781186548));
#996=DIRECTION('',(0.,-0.707106781186548,-0.707106781186547));
#997=DIRECTION('',(0.,-0.707106781186548,0.707106781186548));
#998=DIRECTION('',(0.,-0.707106781186548,-0.707106781186548));
#999=DIRECTION('',(0.,-0.707106781186548,0.707106781186548));
#1000=DIRECTION('',(1.,0.,0.));
#1001=DIRECTION('',(0.,-0.707106781186548,0.707106781186548));
#1002=DIRECTION('',(0.,-0.707106781186548,-0.707106781186548));
#1003=DIRECTION('',(0.,-0.707106781186555,0.707106781186541));
#1004=DIRECTION('',(0.,-0.707106781186541,-0.707106781186555));
#1005=DIRECTION('',(0.,-0.707106781186548,0.707106781186548));
#1006=DIRECTION('',(0.,-0.707106781186548,-0.707106781186548));
#1007=DIRECTION('',(0.,-0.707106781186548,0.707106781186548));
#1008=DIRECTION('',(1.,0.,0.));
#1009=DIRECTION('',(0.,-0.707106781186548,0.707106781186548));
#1010=DIRECTION('',(0.,-0.707106781186548,-0.707106781186548));
#1011=DIRECTION('',(0.,-0.707106781186548,0.707106781186548));
#1012=DIRECTION('',(0.,-0.707106781186548,-0.707106781186548));
#1013=DIRECTION('',(0.,-0.707106781186548,0.707106781186548));
#1014=DIRECTION('',(0.,-0.707106781186548,-0.707106781186548));
#1015=DIRECTION('',(0.,-0.707106781186548,0.707106781186548));
#1016=DIRECTION('',(1.,0.,0.));
#1017=DIRECTION('',(0.,-0.707106781186547,0.707106781186548));
#1018=DIRECTION('',(0.,-0.707106781186548,-0.707106781186547));
#1019=DIRECTION('',(0.,-0.707106781186548,0.707106781186548));
#1020=DIRECTION('',(0.,-0.707106781186548,-0.707106781186548));
#1021=DIRECTION('',(0.,-0.707106781186555,0.707106781186541));
#1022=DIRECTION('',(0.,-0.707106781186541,-0.707106781186555));
#1023=DIRECTION('',(0.,-0.707106781186547,0.707106781186548));
#1024=DIRECTION('',(0.,-0.707106781186548,-0.707106781186547));
#1025=DIRECTION('',(0.,1.09792625061823E-16,-1.));
#1026=DIRECTION('',(0.,1.,1.09792625061823E-16));
#1027=DIRECTION('',(1.,0.,0.));
#1028=DIRECTION('',(1.,0.,0.));
#1029=DIRECTION('',(1.,0.,0.));
#1030=DIRECTION('',(0.,0.,-1.));
#1031=DIRECTION('',(1.,0.,0.));
#1032=DIRECTION('',(0.,-1.,0.));
#1033=DIRECTION('',(0.,0.,-1.));
#1034=DIRECTION('',(1.,0.,0.));
#1035=DIRECTION('',(1.,0.,0.));
#1036=DIRECTION('',(0.,0.,-1.));
#1037=DIRECTION('',(1.,0.,0.));
#1038=DIRECTION('',(0.,0.,-1.));
#1039=DIRECTION('',(-1.,0.,0.));
#1040=DIRECTION('',(1.,0.,0.));
#1041=DIRECTION('',(1.,0.,0.));
#1042=DIRECTION('',(0.,0.,-1.));
#1043=DIRECTION('',(1.,0.,0.));
#1044=DIRECTION('',(0.,-1.,0.));
#1045=DIRECTION('',(0.,0.,-1.));
#1046=DIRECTION('',(1.,0.,0.));
#1047=DIRECTION('',(1.,0.,0.));
#1048=DIRECTION('',(0.,0.,-1.));
#1049=DIRECTION('',(0.,-1.,0.));
#1050=DIRECTION('',(0.,0.,-1.));
#1051=DIRECTION('',(0.,-1.,0.));
#1052=DIRECTION('',(0.,0.,-1.));
#1053=DIRECTION('',(0.,-1.,0.));
#1054=DIRECTION('',(0.,0.,-1.));
#1055=DIRECTION('',(0.,-1.,0.));
#1056=DIRECTION('',(1.,0.,0.));
#1057=DIRECTION('',(0.,-1.,0.));
#1058=DIRECTION('',(0.,0.,-1.));
#1059=DIRECTION('',(0.,-1.,0.));
#1060=DIRECTION('',(0.,0.,-1.));
#1061=DIRECTION('',(0.,-1.,0.));
#1062=DIRECTION('',(0.,0.,-1.));
#1063=DIRECTION('',(0.,-1.,0.));
#1064=DIRECTION('',(1.,0.,0.));
#1065=DIRECTION('',(0.,-1.,0.));
#1066=DIRECTION('',(0.,0.,-1.));
#1067=DIRECTION('',(0.,-1.,0.));
#1068=DIRECTION('',(0.,0.,-1.));
#1069=DIRECTION('',(0.,-1.,0.));
#1070=DIRECTION('',(0.,0.,-1.));
#1071=DIRECTION('',(0.,-1.,0.));
#1072=DIRECTION('',(1.,0.,0.));
#1073=DIRECTION('',(0.,-1.,0.));
#1074=DIRECTION('',(0.,0.,-1.));
#1075=DIRECTION('',(0.,-1.,0.));
#1076=DIRECTION('',(0.,0.,-1.));
#1077=DIRECTION('',(0.,-1.,0.));
#1078=DIRECTION('',(0.,0.,-1.));
#1079=DIRECTION('',(0.,-1.,0.));
#1080=DIRECTION('',(1.,0.,0.));
#1081=DIRECTION('',(0.,-1.,0.));
#1082=DIRECTION('',(0.,0.,-1.));
#1083=DIRECTION('',(0.,-1.,0.));
#1084=DIRECTION('',(0.,0.,-1.));
#1085=DIRECTION('',(0.,-1.,0.));
#1086=DIRECTION('',(0.,0.,-1.));
#1087=DIRECTION('',(0.,-1.,0.));
#1088=DIRECTION('',(0.,0.,-1.));
#1089=CARTESIAN_POINT('',(0.,0.,0.));
#1090=CARTESIAN_POINT('',(0.1695,-0.08702,2.08166817117217E-17));
#1091=CARTESIAN_POINT('',(0.1695,-0.08702,0.04006));
#1092=CARTESIAN_POINT('',(0.1695,-0.00682,0.04006));
#1093=CARTESIAN_POINT('',(0.1695,0.,0.04006));
#1094=CARTESIAN_POINT('',(0.1695,-0.06695,-0.02007));
#1095=CARTESIAN_POINT('',(0.1695,-0.08694,-0.04006));
#1096=CARTESIAN_POINT('',(0.1695,-0.08702,-0.04006));
#1097=CARTESIAN_POINT('',(0.1695,0.,-0.04006));
#1098=CARTESIAN_POINT('',(0.1695,0.,2.08166817117217E-17));
#1099=CARTESIAN_POINT('',(0.1695,-0.0138631493696511,-0.00555595711637505));
#1100=CARTESIAN_POINT('',(0.1695,-0.0138631493696511,-0.00355595711637505));
#1101=CARTESIAN_POINT('',(0.1695,-0.0158631493696511,-0.00555595711637505));
#1102=CARTESIAN_POINT('',(0.1695,-0.0118881493696511,-0.00355595711637505));
#1103=CARTESIAN_POINT('',(0.1695,-0.00991314936965113,-0.00355595711637505));
#1104=CARTESIAN_POINT('',(0.1695,-0.00991314936965113,-0.00555595711637505));
#1105=CARTESIAN_POINT('',(0.1695,-0.00791314936965112,-0.00555595711637505));
#1106=CARTESIAN_POINT('',(0.1695,-0.00791314936965112,-0.0095559571163751));
#1107=CARTESIAN_POINT('',(0.1695,-0.00791314936965112,-0.0135559571163751));
#1108=CARTESIAN_POINT('',(0.1695,-0.00991314936965113,-0.0135559571163751));
#1109=CARTESIAN_POINT('',(0.1695,-0.00991314936965112,-0.0155559571163751));
#1110=CARTESIAN_POINT('',(0.1695,-0.0118881493696511,-0.0155559571163751));
#1111=CARTESIAN_POINT('',(0.1695,-0.0138631493696511,-0.0155559571163751));
#1112=CARTESIAN_POINT('',(0.1695,-0.0138631493696511,-0.0135559571163751));
#1113=CARTESIAN_POINT('',(0.1695,-0.0158631493696511,-0.0135559571163751));
#1114=CARTESIAN_POINT('',(0.1695,-0.0158631493696511,-0.0095559571163751));
#1115=CARTESIAN_POINT('',(0.1635,-0.481592136129437,-4.85722573273506E-17));
#1116=CARTESIAN_POINT('',(0.1635,-0.00482,0.04206));
#1117=CARTESIAN_POINT('',(0.1635,-0.08094,-0.03406));
#1118=CARTESIAN_POINT('',(0.1635,-0.01282,0.03406));
#1119=CARTESIAN_POINT('',(0.1635,-0.481592136129437,0.03406));
#1120=CARTESIAN_POINT('',(0.1635,-0.006,0.03406));
#1121=CARTESIAN_POINT('',(0.1635,-0.006,-4.85722573273506E-17));
#1122=CARTESIAN_POINT('',(0.1635,-0.006,-0.03406));
#1123=CARTESIAN_POINT('',(0.1635,-0.481592136129437,-0.03406));
#1124=CARTESIAN_POINT('',(0.1635,-0.481592136129437,-0.0035559571163751));
#1125=CARTESIAN_POINT('',(0.1635,-0.0138631493696511,-0.00355595711637505));
#1126=CARTESIAN_POINT('',(0.1635,-0.00991314936965113,-0.00355595711637505));
#1127=CARTESIAN_POINT('',(0.1635,-0.0138631493696511,-0.00555595711637505));
#1128=CARTESIAN_POINT('',(0.1635,-0.0158631493696511,-0.00555595711637505));
#1129=CARTESIAN_POINT('',(0.1635,-0.0158631493696511,-4.85722573273506E-17));
#1130=CARTESIAN_POINT('',(0.1635,-0.0158631493696511,-0.0135559571163751));
#1131=CARTESIAN_POINT('',(0.1635,-0.0138631493696511,-0.0135559571163751));
#1132=CARTESIAN_POINT('',(0.1635,-0.0138631493696511,-0.0155559571163751));
#1133=CARTESIAN_POINT('',(0.1635,-0.481592136129437,-0.0155559571163751));
#1134=CARTESIAN_POINT('',(0.1635,-0.00991314936965112,-0.0155559571163751));
#1135=CARTESIAN_POINT('',(0.1635,-0.00991314936965113,-0.0135559571163751));
#1136=CARTESIAN_POINT('',(0.1635,-0.00791314936965112,-0.0135559571163751));
#1137=CARTESIAN_POINT('',(0.1635,-0.0079131493696511,-4.85722573273506E-17));
#1138=CARTESIAN_POINT('',(0.1635,-0.00791314936965112,-0.00555595711637505));
#1139=CARTESIAN_POINT('',(0.1635,-0.00991314936965113,-0.00555595711637505));
#1140=CARTESIAN_POINT('',(-0.08375,-0.08702,-0.04206));
#1141=CARTESIAN_POINT('',(-0.08375,-0.08702,-0.04206));
#1142=CARTESIAN_POINT('',(-1.51040171082325E-17,-0.08702,-0.04206));
#1143=CARTESIAN_POINT('',(0.1675,-0.08702,-0.04206));
#1144=CARTESIAN_POINT('',(-1.38777878078145E-17,-0.08702,-0.04206));
#1145=CARTESIAN_POINT('',(-1.38777878078145E-17,0.,-0.04206));
#1146=CARTESIAN_POINT('',(-0.08375,0.,-0.04206));
#1147=CARTESIAN_POINT('',(0.1675,0.,-0.04206));
#1148=CARTESIAN_POINT('',(0.1675,-0.08702,-0.04206));
#1149=CARTESIAN_POINT('',(0.1675,-0.08702,-0.04006));
#1150=CARTESIAN_POINT('',(0.1675,-0.08694,-0.04006));
#1151=CARTESIAN_POINT('',(0.169498399359487,-0.08702,-0.04014));
#1152=CARTESIAN_POINT('',(0.1675,-0.08702,-0.04006));
#1153=CARTESIAN_POINT('',(0.1675,0.,-0.04006));
#1154=CARTESIAN_POINT('',(0.1675,-0.08702,0.04006));
#1155=CARTESIAN_POINT('',(0.1675,-0.08702,0.04206));
#1156=CARTESIAN_POINT('',(0.1675,-0.00482,0.04206));
#1157=CARTESIAN_POINT('',(0.1675,0.,0.04206));
#1158=CARTESIAN_POINT('',(0.1675,-0.00682,0.04006));
#1159=CARTESIAN_POINT('',(0.1675,0.,0.04006));
#1160=CARTESIAN_POINT('',(-0.08375,-0.08702,0.04206));
#1161=CARTESIAN_POINT('',(0.,-0.08702,0.04206));
#1162=CARTESIAN_POINT('',(4.13506371996604E-33,-0.00482,0.04206));
#1163=CARTESIAN_POINT('',(0.,0.,0.04206));
#1164=CARTESIAN_POINT('',(-0.08375,-0.00482,0.04206));
#1165=CARTESIAN_POINT('',(-0.08375,0.,0.04206));
#1166=CARTESIAN_POINT('',(0.,-0.08702,-2.77555756156289E-17));
#1167=CARTESIAN_POINT('',(-6.97197717515187E-18,-0.08702,-2.77555756156289E-17));
#1168=CARTESIAN_POINT('',(-1.5892859783624E-17,-0.08702,-0.04014));
#1169=CARTESIAN_POINT('',(0.,-0.08702,-0.04014));
#1170=CARTESIAN_POINT('',(0.,0.,-2.77555756156289E-17));
#1171=CARTESIAN_POINT('',(-6.97197717515187E-18,0.,-2.77555756156289E-17));
#1172=CARTESIAN_POINT('',(-0.08375,-0.00482,0.04206));
#1173=CARTESIAN_POINT('',(0.00995,-0.0076484271247462,0.0392315728752538));
#1174=CARTESIAN_POINT('',(0.00995,-0.00591601551083916,0.0409639844891608));
#1175=CARTESIAN_POINT('',(0.00995,-0.0841915728752538,-0.0373115728752538));
#1176=CARTESIAN_POINT('',(0.00995,-0.0824591612613468,-0.0355791612613468));
#1177=CARTESIAN_POINT('',(0.1655,-0.0841915728752538,-0.0373115728752538));
#1178=CARTESIAN_POINT('',(0.1655,-0.0824591612613468,-0.0355791612613468));
#1179=CARTESIAN_POINT('',(0.1655,-0.00764842712474619,0.0392315728752539));
#1180=CARTESIAN_POINT('',(0.1655,-0.00591601551083915,0.0409639844891609));
#1181=CARTESIAN_POINT('',(0.,-0.00482,0.04206));
#1182=CARTESIAN_POINT('',(-1.35727342677665E-17,-0.08102,-0.03414));
#1183=CARTESIAN_POINT('',(0.,-0.00482,0.04206));
#1184=CARTESIAN_POINT('',(0.,-0.01082,0.03606));
#1185=CARTESIAN_POINT('',(-0.08375,-0.01082,0.03606));
#1186=CARTESIAN_POINT('',(0.1615,-0.01082,0.03606));
#1187=CARTESIAN_POINT('',(0.1615,-0.01282,0.03406));
#1188=CARTESIAN_POINT('',(0.1615,-0.08094,-0.03406));
#1189=CARTESIAN_POINT('',(0.163498399359488,-0.08102,-0.03414));
#1190=CARTESIAN_POINT('',(-0.08375,-0.08102,-0.03414));
#1191=CARTESIAN_POINT('',(-0.08075,-0.481592136129437,-0.03606));
#1192=CARTESIAN_POINT('',(-1.38777878078145E-17,-0.481592136129437,-0.03606));
#1193=CARTESIAN_POINT('',(-1.38777878078145E-17,-0.08102,-0.03606));
#1194=CARTESIAN_POINT('',(-1.38777878078145E-17,-0.006,-0.03606));
#1195=CARTESIAN_POINT('',(-0.08075,-0.08102,-0.03606));
#1196=CARTESIAN_POINT('',(0.1615,-0.08102,-0.03606));
#1197=CARTESIAN_POINT('',(0.1615,-0.481592136129437,-0.03606));
#1198=CARTESIAN_POINT('',(0.1615,-0.006,-0.03606));
#1199=CARTESIAN_POINT('',(-0.08075,-0.006,-0.03606));
#1200=CARTESIAN_POINT('',(0.1615,-0.481592136129437,-0.03406));
#1201=CARTESIAN_POINT('',(0.1615,-0.006,-0.03406));
#1202=CARTESIAN_POINT('',(0.1615,-0.08102,-0.03406));
#1203=CARTESIAN_POINT('',(0.1615,-0.481592136129437,0.03406));
#1204=CARTESIAN_POINT('',(0.1615,-0.481592136129437,0.03606));
#1205=CARTESIAN_POINT('',(0.1615,-0.006,0.03606));
#1206=CARTESIAN_POINT('',(0.1615,-0.006,0.03406));
#1207=CARTESIAN_POINT('',(-0.08075,-0.481592136129437,0.03606));
#1208=CARTESIAN_POINT('',(-0.08075,-0.006,0.03606));
#1209=CARTESIAN_POINT('',(0.,-0.006,0.03606));
#1210=CARTESIAN_POINT('',(0.00832441902343953,-0.006,0.03606));
#1211=CARTESIAN_POINT('',(0.00995,-0.00447685424949238,0.03606));
#1212=CARTESIAN_POINT('',(0.0115755809765605,-0.006,0.03606));
#1213=CARTESIAN_POINT('',(-0.08075,-0.006,0.03606));
#1214=CARTESIAN_POINT('',(0.,-0.481592136129437,0.03606));
#1215=CARTESIAN_POINT('',(0.,-0.006,-2.77555756156289E-17));
#1216=CARTESIAN_POINT('',(0.1595,-0.006,0.0101440428836249));
#1217=CARTESIAN_POINT('',(0.1595,-0.006,0.00769404288362494));
#1218=CARTESIAN_POINT('',(0.1595,-0.006,-0.029455957116375));
#1219=CARTESIAN_POINT('',(0.1595,-0.006,-0.031905957116375));
#1220=CARTESIAN_POINT('',(0.0990996460000001,-0.006,-0.0293559571163751));
#1221=CARTESIAN_POINT('',(0.0990996460000001,-0.006,-0.0318059571163751));
#1222=CARTESIAN_POINT('',(0.0990996460000001,-0.006,0.0102440428836249));
#1223=CARTESIAN_POINT('',(0.0990996460000001,-0.006,0.00779404288362494));
#1224=CARTESIAN_POINT('',(0.00995,-0.006,0.0375831457505076));
#1225=CARTESIAN_POINT('',(-6.97197717515187E-18,-0.006,-2.77555756156289E-17));
#1226=CARTESIAN_POINT('',(0.,-0.08102,-2.77555756156289E-17));
#1227=CARTESIAN_POINT('',(-6.97197717515187E-18,-0.08102,-2.77555756156289E-17));
#1228=CARTESIAN_POINT('',(0.,-0.01082,0.03606));
#1229=CARTESIAN_POINT('',(0.00995,-0.00446644660940673,0.0360495923599144));
#1230=CARTESIAN_POINT('',(0.00995,-0.00729487373415293,0.0388780194846605));
#1231=CARTESIAN_POINT('',(0.00995,-0.0086737319574667,0.0374991612613468));
#1232=CARTESIAN_POINT('',(0.00995,-0.00446644660940673,0.0360495923599144));
#1233=CARTESIAN_POINT('',(0.00995,-0.0058453048327205,0.0346707341366006));
#1234=CARTESIAN_POINT('',(0.,-0.0427733748237199,-0.00225733585439878));
#1235=CARTESIAN_POINT('',(0.1655,-0.00446644660940673,0.0360495923599144));
#1236=CARTESIAN_POINT('',(0.1655,-0.00729487373415292,0.0388780194846605));
#1237=CARTESIAN_POINT('',(0.1655,-0.00867373195746669,0.0374991612613468));
#1238=CARTESIAN_POINT('',(0.1655,-0.00446644660940673,0.0360495923599144));
#1239=CARTESIAN_POINT('',(0.1655,-0.00584530483272049,0.0346707341366006));
#1240=CARTESIAN_POINT('',(0.,-0.0427733748237199,-0.00225733585439878));
#1241=CARTESIAN_POINT('',(0.1655,-0.0810095923599143,-0.0404935533905932));
#1242=CARTESIAN_POINT('',(0.1655,-0.0838380194846606,-0.0376651262658471));
#1243=CARTESIAN_POINT('',(0.1655,-0.0852168777079744,-0.0390439844891608));
#1244=CARTESIAN_POINT('',(0.1655,-0.0810095923599143,-0.0404935533905932));
#1245=CARTESIAN_POINT('',(0.1655,-0.0823884505832281,-0.041872411613907));
#1246=CARTESIAN_POINT('',(0.,-0.0427733748237199,-0.00225733585439878));
#1247=CARTESIAN_POINT('',(0.00995,-0.0810095923599143,-0.0404935533905932));
#1248=CARTESIAN_POINT('',(0.00995,-0.0838380194846605,-0.0376651262658471));
#1249=CARTESIAN_POINT('',(0.00995,-0.0852168777079743,-0.0390439844891609));
#1250=CARTESIAN_POINT('',(0.00995,-0.0810095923599143,-0.0404935533905932));
#1251=CARTESIAN_POINT('',(0.00995,-0.0823884505832281,-0.041872411613907));
#1252=CARTESIAN_POINT('',(0.,-0.0427733748237199,-0.00225733585439878));
#1253=CARTESIAN_POINT('',(0.00995,-0.00729487373415293,0.0388780194846605));
#1254=CARTESIAN_POINT('',(0.00995,-0.0838380194846605,-0.0376651262658471));
#1255=CARTESIAN_POINT('',(0.1655,-0.0838380194846606,-0.0376651262658471));
#1256=CARTESIAN_POINT('',(0.1655,-0.00729487373415292,0.0388780194846605));
#1257=CARTESIAN_POINT('',(0.1445,-0.0118881493696511,-0.00355595711637505));
#1258=CARTESIAN_POINT('',(0.1445,-0.00991314936965113,-0.00355595711637505));
#1259=CARTESIAN_POINT('',(0.1445,-0.0138631493696511,-0.00355595711637505));
#1260=CARTESIAN_POINT('',(0.1445,-0.0138631493696511,-0.00555595711637505));
#1261=CARTESIAN_POINT('',(0.1445,-0.0158631493696511,-0.00555595711637505));
#1262=CARTESIAN_POINT('',(0.1445,-0.0158631493696511,-0.0095559571163751));
#1263=CARTESIAN_POINT('',(0.1445,-0.0158631493696511,-0.0135559571163751));
#1264=CARTESIAN_POINT('',(0.1445,-0.0138631493696511,-0.0135559571163751));
#1265=CARTESIAN_POINT('',(0.1445,-0.0138631493696511,-0.0155559571163751));
#1266=CARTESIAN_POINT('',(0.1445,-0.0118881493696511,-0.0155559571163751));
#1267=CARTESIAN_POINT('',(0.1445,-0.00991314936965112,-0.0155559571163751));
#1268=CARTESIAN_POINT('',(0.1445,-0.00991314936965113,-0.0135559571163751));
#1269=CARTESIAN_POINT('',(0.1445,-0.00791314936965112,-0.0135559571163751));
#1270=CARTESIAN_POINT('',(0.1445,-0.00791314936965112,-0.0095559571163751));
#1271=CARTESIAN_POINT('',(0.1445,-0.00791314936965112,-0.00555595711637505));
#1272=CARTESIAN_POINT('',(0.1445,-0.00991314936965113,-0.00555595711637505));
#1273=CARTESIAN_POINT('',(0.1595,-0.0015,-0.029455957116375));
#1274=CARTESIAN_POINT('',(0.1595,-0.0055,-0.029455957116375));
#1275=CARTESIAN_POINT('',(0.1595,-0.0055,-0.031405957116375));
#1276=CARTESIAN_POINT('',(0.1595,-0.0015,-0.029455957116375));
#1277=CARTESIAN_POINT('',(0.1595,-0.0015,-0.031405957116375));
#1278=CARTESIAN_POINT('',(0.129299823,-0.0015,-0.00960595711637505));
#1279=CARTESIAN_POINT('',(0.0990996460000001,-0.0015,-0.0293559571163751));
#1280=CARTESIAN_POINT('',(0.0990996460000001,-0.0055,-0.0293559571163751));
#1281=CARTESIAN_POINT('',(0.0990996460000001,-0.0055,-0.0313059571163751));
#1282=CARTESIAN_POINT('',(0.0990996460000001,-0.0015,-0.0293559571163751));
#1283=CARTESIAN_POINT('',(0.0990996460000001,-0.0015,-0.0313059571163751));
#1284=CARTESIAN_POINT('',(0.129299823,-0.0015,-0.00960595711637505));
#1285=CARTESIAN_POINT('',(0.0990996460000001,-0.0015,0.0102440428836249));
#1286=CARTESIAN_POINT('',(0.0990996460000001,-0.0055,0.0102440428836249));
#1287=CARTESIAN_POINT('',(0.0990996460000001,-0.0055,0.00829404288362494));
#1288=CARTESIAN_POINT('',(0.0990996460000001,-0.0015,0.0102440428836249));
#1289=CARTESIAN_POINT('',(0.0990996460000001,-0.0015,0.00829404288362494));
#1290=CARTESIAN_POINT('',(0.129299823,-0.0015,-0.00960595711637505));
#1291=CARTESIAN_POINT('',(0.1595,-0.0015,0.0101440428836249));
#1292=CARTESIAN_POINT('',(0.1595,-0.0055,0.0101440428836249));
#1293=CARTESIAN_POINT('',(0.1595,-0.0055,0.00819404288362494));
#1294=CARTESIAN_POINT('',(0.1595,-0.0015,0.0101440428836249));
#1295=CARTESIAN_POINT('',(0.1595,-0.0015,0.00819404288362494));
#1296=CARTESIAN_POINT('',(0.129299823,-0.0015,-0.00960595711637505));
#1297=CARTESIAN_POINT('',(0.1595,-0.0055,0.0101440428836249));
#1298=CARTESIAN_POINT('',(0.1595,-0.0055,-0.029455957116375));
#1299=CARTESIAN_POINT('',(0.0990996460000001,-0.0055,-0.0293559571163751));
#1300=CARTESIAN_POINT('',(0.0990996460000001,-0.0055,0.0102440428836249));
#1301=MECHANICAL_DESIGN_GEOMETRIC_PRESENTATION_REPRESENTATION('',(#750),#1302);
#1302=(
GEOMETRIC_REPRESENTATION_CONTEXT(3)
GLOBAL_UNCERTAINTY_ASSIGNED_CONTEXT((#1303))
GLOBAL_UNIT_ASSIGNED_CONTEXT((#1306,#1305,#1304))
REPRESENTATION_CONTEXT('rightCase','TOP_LEVEL_ASSEMBLY_PART')
);
#1303=UNCERTAINTY_MEASURE_WITH_UNIT(LENGTH_MEASURE(1.E-08),#1306,'DISTANCE_ACCURACY_VALUE','Maximum Tolerance applied to model');
#1304=(
NAMED_UNIT(*)
SI_UNIT($,.STERADIAN.)
SOLID_ANGLE_UNIT()
);
#1305=(
NAMED_UNIT(*)
PLANE_ANGLE_UNIT()
SI_UNIT($,.RADIAN.)
);
#1306=(
LENGTH_UNIT()
NAMED_UNIT(*)
SI_UNIT($,.METRE.)
);
#1307=PRODUCT_DEFINITION_SHAPE('','',#1308);
#1308=PRODUCT_DEFINITION('','',#1310,#1309);
#1309=PRODUCT_DEFINITION_CONTEXT('',#1316,'design');
#1310=PRODUCT_DEFINITION_FORMATION_WITH_SPECIFIED_SOURCE('','',#1312,.NOT_KNOWN.);
#1311=PRODUCT_RELATED_PRODUCT_CATEGORY('','',(#1312));
#1312=PRODUCT('rightCase','rightCase','rightCase',(#1314));
#1313=PRODUCT_CATEGORY('','');
#1314=PRODUCT_CONTEXT('',#1316,'mechanical');
#1315=APPLICATION_PROTOCOL_DEFINITION('international standard','ap242_managed_model_based_3d_engineering',2020,#1316);
#1316=APPLICATION_CONTEXT('managed model based 3d engineering');
ENDSEC;
END-ISO-10303-21;
