ISO-10303-21;
HEADER;
/*Generated by software containing ST-Developer
 * from STEP Tools, Inc. (www.steptools.com) 
 */
/*OPTION: using custom renumber hook */
/*description */
/*implementation_level */
FILE_DESCRIPTION(('STEP AP242 Edition 2','STEP AP242 Edition 2''CAx-IF Rec.Pracs.---Representation and Presentation of Product Manufa
cturing Information (PMI)---4.0---2014-10-13','STEP AP242 Edition 2''CAx-IF Rec.Pracs.---Representation and Presentation of Product Manufa
cturing Information (PMI)---4.0---2014-10-13''CAx-IF Rec.Pracs.---3D Tessellated Geometry---0.4---2014-09-14','STEP AP242 Edition 2''CAx-IF Rec.Pracs.---Representation and Presentation of Product Manufa
cturing Information (PMI)---4.0---2014-10-13''CAx-IF Rec.Pracs.---3D Tessellated Geometry---0.4---2014-09-14''2;1','STEP AP242 Edition 2''CAx-IF Rec.Pracs.---Representation and Presentation of Product Manufa
cturing Information (PMI)---4.0---2014-10-13''CAx-IF Rec.Pracs.---3D Tessellated Geometry---0.4---2014-09-14''2;1''CAx-IF Rec.Pracs.---User Defined Attributes---1.5---2016-08-15'),'2;1');
/*name */
/*time_stamp */
/*author */
/*organization */
/*preprocessor_version */
/*originating_system */
/*authorisation */
FILE_NAME('/vol/tmp/translate-8435467296228090845/anaDash Printables - leftCase.step','2026-09-05T19:47:17',(''),(''),'ST-DEVELOPER v20','ONSHAPE BY PTC INC, 1.220','  ');
FILE_SCHEMA(('AP242_MANAGED_MODEL_BASED_3D_ENGINEERING_MIM_LF { 1 0 10303 442 3 1 4 }'));
ENDSEC;
DATA;
#10=SHAPE_REPRESENTATION_RELATIONSHIP('','',#464,#11);
#11=ADVANCED_BREP_SHAPE_REPRESENTATION('',(#462),#786);
#12=CONICAL_SURFACE('',#514,0.00195,0.785398163397447);
#13=CONICAL_SURFACE('',#515,0.00195,0.785398163397447);
#14=CONICAL_SURFACE('',#516,0.00195,0.785398163397441);
#15=CONICAL_SURFACE('',#517,0.00195,0.785398163397451);
#16=ELLIPSE('',#469,0.0028284271247463,0.00200000000000008);
#17=ELLIPSE('',#473,0.00282842712474635,0.00200000000000011);
#18=ELLIPSE('',#478,0.00282842712474619,0.002);
#19=ELLIPSE('',#482,0.00282842712474619,0.002);
#20=ELLIPSE('',#485,0.00275771644662753,0.00195);
#21=ELLIPSE('',#487,0.00275771644662753,0.00195);
#22=CIRCLE('',#468,0.00200000000000008);
#23=CIRCLE('',#470,0.00200000000000008);
#24=CIRCLE('',#474,0.00200000000000011);
#25=CIRCLE('',#476,0.002);
#26=CIRCLE('',#477,0.002);
#27=CIRCLE('',#481,0.002);
#28=CIRCLE('',#491,0.00245);
#29=CIRCLE('',#492,0.00245);
#30=CIRCLE('',#493,0.00245);
#31=CIRCLE('',#494,0.00245);
#32=CIRCLE('',#499,0.00195);
#33=CIRCLE('',#500,0.00195);
#34=CIRCLE('',#503,0.00195);
#35=CIRCLE('',#504,0.00195);
#36=CIRCLE('',#507,0.00195);
#37=CIRCLE('',#508,0.00195);
#38=CIRCLE('',#511,0.00195);
#39=CIRCLE('',#512,0.00195);
#40=CYLINDRICAL_SURFACE('',#467,0.00200000000000008);
#41=CYLINDRICAL_SURFACE('',#472,0.00200000000000011);
#42=CYLINDRICAL_SURFACE('',#475,0.002);
#43=CYLINDRICAL_SURFACE('',#480,0.002);
#44=CYLINDRICAL_SURFACE('',#498,0.00195);
#45=CYLINDRICAL_SURFACE('',#502,0.00195);
#46=CYLINDRICAL_SURFACE('',#506,0.00195);
#47=CYLINDRICAL_SURFACE('',#510,0.00195);
#48=ORIENTED_EDGE('',*,*,#162,.T.);
#49=ORIENTED_EDGE('',*,*,#163,.T.);
#50=ORIENTED_EDGE('',*,*,#164,.F.);
#51=ORIENTED_EDGE('',*,*,#165,.F.);
#52=ORIENTED_EDGE('',*,*,#166,.T.);
#53=ORIENTED_EDGE('',*,*,#167,.F.);
#54=ORIENTED_EDGE('',*,*,#168,.F.);
#55=ORIENTED_EDGE('',*,*,#169,.T.);
#56=ORIENTED_EDGE('',*,*,#170,.F.);
#57=ORIENTED_EDGE('',*,*,#171,.F.);
#58=ORIENTED_EDGE('',*,*,#172,.F.);
#59=ORIENTED_EDGE('',*,*,#173,.T.);
#60=ORIENTED_EDGE('',*,*,#174,.T.);
#61=ORIENTED_EDGE('',*,*,#175,.T.);
#62=ORIENTED_EDGE('',*,*,#176,.F.);
#63=ORIENTED_EDGE('',*,*,#174,.F.);
#64=ORIENTED_EDGE('',*,*,#177,.T.);
#65=ORIENTED_EDGE('',*,*,#178,.T.);
#66=ORIENTED_EDGE('',*,*,#179,.T.);
#67=ORIENTED_EDGE('',*,*,#178,.F.);
#68=ORIENTED_EDGE('',*,*,#180,.T.);
#69=ORIENTED_EDGE('',*,*,#181,.T.);
#70=ORIENTED_EDGE('',*,*,#182,.T.);
#71=ORIENTED_EDGE('',*,*,#183,.T.);
#72=ORIENTED_EDGE('',*,*,#184,.T.);
#73=ORIENTED_EDGE('',*,*,#185,.F.);
#74=ORIENTED_EDGE('',*,*,#186,.F.);
#75=ORIENTED_EDGE('',*,*,#187,.F.);
#76=ORIENTED_EDGE('',*,*,#186,.T.);
#77=ORIENTED_EDGE('',*,*,#188,.F.);
#78=ORIENTED_EDGE('',*,*,#189,.F.);
#79=ORIENTED_EDGE('',*,*,#190,.F.);
#80=ORIENTED_EDGE('',*,*,#189,.T.);
#81=ORIENTED_EDGE('',*,*,#191,.F.);
#82=ORIENTED_EDGE('',*,*,#192,.F.);
#83=ORIENTED_EDGE('',*,*,#193,.F.);
#84=ORIENTED_EDGE('',*,*,#163,.F.);
#85=ORIENTED_EDGE('',*,*,#194,.F.);
#86=ORIENTED_EDGE('',*,*,#175,.F.);
#87=ORIENTED_EDGE('',*,*,#179,.F.);
#88=ORIENTED_EDGE('',*,*,#182,.F.);
#89=ORIENTED_EDGE('',*,*,#195,.T.);
#90=ORIENTED_EDGE('',*,*,#196,.F.);
#91=ORIENTED_EDGE('',*,*,#197,.F.);
#92=ORIENTED_EDGE('',*,*,#191,.T.);
#93=ORIENTED_EDGE('',*,*,#188,.T.);
#94=ORIENTED_EDGE('',*,*,#185,.T.);
#95=ORIENTED_EDGE('',*,*,#198,.T.);
#96=ORIENTED_EDGE('',*,*,#167,.T.);
#97=ORIENTED_EDGE('',*,*,#199,.F.);
#98=ORIENTED_EDGE('',*,*,#197,.T.);
#99=ORIENTED_EDGE('',*,*,#200,.T.);
#100=ORIENTED_EDGE('',*,*,#199,.T.);
#101=ORIENTED_EDGE('',*,*,#166,.F.);
#102=ORIENTED_EDGE('',*,*,#201,.T.);
#103=ORIENTED_EDGE('',*,*,#192,.T.);
#104=ORIENTED_EDGE('',*,*,#202,.T.);
#105=ORIENTED_EDGE('',*,*,#168,.T.);
#106=ORIENTED_EDGE('',*,*,#198,.F.);
#107=ORIENTED_EDGE('',*,*,#184,.F.);
#108=ORIENTED_EDGE('',*,*,#169,.F.);
#109=ORIENTED_EDGE('',*,*,#202,.F.);
#110=ORIENTED_EDGE('',*,*,#183,.F.);
#111=ORIENTED_EDGE('',*,*,#203,.T.);
#112=ORIENTED_EDGE('',*,*,#204,.T.);
#113=ORIENTED_EDGE('',*,*,#205,.T.);
#114=ORIENTED_EDGE('',*,*,#206,.T.);
#115=ORIENTED_EDGE('',*,*,#207,.T.);
#116=ORIENTED_EDGE('',*,*,#208,.F.);
#117=ORIENTED_EDGE('',*,*,#170,.T.);
#118=ORIENTED_EDGE('',*,*,#203,.F.);
#119=ORIENTED_EDGE('',*,*,#187,.T.);
#120=ORIENTED_EDGE('',*,*,#190,.T.);
#121=ORIENTED_EDGE('',*,*,#193,.T.);
#122=ORIENTED_EDGE('',*,*,#201,.F.);
#123=ORIENTED_EDGE('',*,*,#165,.T.);
#124=ORIENTED_EDGE('',*,*,#209,.F.);
#125=ORIENTED_EDGE('',*,*,#180,.F.);
#126=ORIENTED_EDGE('',*,*,#177,.F.);
#127=ORIENTED_EDGE('',*,*,#173,.F.);
#128=ORIENTED_EDGE('',*,*,#210,.T.);
#129=ORIENTED_EDGE('',*,*,#171,.T.);
#130=ORIENTED_EDGE('',*,*,#208,.T.);
#131=ORIENTED_EDGE('',*,*,#172,.T.);
#132=ORIENTED_EDGE('',*,*,#209,.T.);
#133=ORIENTED_EDGE('',*,*,#164,.T.);
#134=ORIENTED_EDGE('',*,*,#195,.F.);
#135=ORIENTED_EDGE('',*,*,#181,.F.);
#136=ORIENTED_EDGE('',*,*,#162,.F.);
#137=ORIENTED_EDGE('',*,*,#210,.F.);
#138=ORIENTED_EDGE('',*,*,#176,.T.);
#139=ORIENTED_EDGE('',*,*,#194,.T.);
#140=ORIENTED_EDGE('',*,*,#211,.T.);
#141=ORIENTED_EDGE('',*,*,#212,.F.);
#142=ORIENTED_EDGE('',*,*,#212,.T.);
#143=ORIENTED_EDGE('',*,*,#213,.T.);
#144=ORIENTED_EDGE('',*,*,#214,.F.);
#145=ORIENTED_EDGE('',*,*,#214,.T.);
#146=ORIENTED_EDGE('',*,*,#215,.T.);
#147=ORIENTED_EDGE('',*,*,#196,.T.);
#148=ORIENTED_EDGE('',*,*,#200,.F.);
#149=ORIENTED_EDGE('',*,*,#216,.F.);
#150=ORIENTED_EDGE('',*,*,#216,.T.);
#151=ORIENTED_EDGE('',*,*,#217,.T.);
#152=ORIENTED_EDGE('',*,*,#218,.F.);
#153=ORIENTED_EDGE('',*,*,#218,.T.);
#154=ORIENTED_EDGE('',*,*,#204,.F.);
#155=ORIENTED_EDGE('',*,*,#213,.F.);
#156=ORIENTED_EDGE('',*,*,#205,.F.);
#157=ORIENTED_EDGE('',*,*,#215,.F.);
#158=ORIENTED_EDGE('',*,*,#206,.F.);
#159=ORIENTED_EDGE('',*,*,#217,.F.);
#160=ORIENTED_EDGE('',*,*,#207,.F.);
#161=ORIENTED_EDGE('',*,*,#211,.F.);
#162=EDGE_CURVE('',#219,#220,#261,.T.);
#163=EDGE_CURVE('',#220,#221,#262,.T.);
#164=EDGE_CURVE('',#222,#221,#263,.T.);
#165=EDGE_CURVE('',#223,#222,#264,.F.);
#166=EDGE_CURVE('',#223,#224,#265,.T.);
#167=EDGE_CURVE('',#225,#224,#266,.T.);
#168=EDGE_CURVE('',#226,#225,#267,.T.);
#169=EDGE_CURVE('',#226,#227,#268,.T.);
#170=EDGE_CURVE('',#228,#227,#269,.F.);
#171=EDGE_CURVE('',#219,#228,#270,.T.);
#172=EDGE_CURVE('',#229,#230,#22,.T.);
#173=EDGE_CURVE('',#229,#231,#16,.T.);
#174=EDGE_CURVE('',#231,#232,#271,.T.);
#175=EDGE_CURVE('',#232,#233,#23,.T.);
#176=EDGE_CURVE('',#230,#233,#272,.T.);
#177=EDGE_CURVE('',#231,#234,#273,.F.);
#178=EDGE_CURVE('',#234,#235,#274,.T.);
#179=EDGE_CURVE('',#235,#232,#275,.T.);
#180=EDGE_CURVE('',#234,#236,#17,.T.);
#181=EDGE_CURVE('',#236,#237,#276,.T.);
#182=EDGE_CURVE('',#237,#235,#24,.T.);
#183=EDGE_CURVE('',#238,#239,#25,.T.);
#184=EDGE_CURVE('',#239,#240,#277,.T.);
#185=EDGE_CURVE('',#241,#240,#26,.T.);
#186=EDGE_CURVE('',#242,#241,#278,.T.);
#187=EDGE_CURVE('',#238,#242,#18,.T.);
#188=EDGE_CURVE('',#243,#241,#279,.T.);
#189=EDGE_CURVE('',#244,#243,#280,.T.);
#190=EDGE_CURVE('',#242,#244,#281,.F.);
#191=EDGE_CURVE('',#245,#243,#27,.T.);
#192=EDGE_CURVE('',#246,#245,#282,.T.);
#193=EDGE_CURVE('',#244,#246,#19,.T.);
#194=EDGE_CURVE('',#233,#220,#283,.T.);
#195=EDGE_CURVE('',#237,#221,#284,.T.);
#196=EDGE_CURVE('',#247,#248,#20,.T.);
#197=EDGE_CURVE('',#245,#247,#285,.T.);
#198=EDGE_CURVE('',#240,#225,#286,.T.);
#199=EDGE_CURVE('',#248,#224,#287,.T.);
#200=EDGE_CURVE('',#247,#248,#21,.T.);
#201=EDGE_CURVE('',#223,#246,#288,.F.);
#202=EDGE_CURVE('',#239,#226,#289,.T.);
#203=EDGE_CURVE('',#238,#227,#290,.F.);
#204=EDGE_CURVE('',#249,#249,#28,.T.);
#205=EDGE_CURVE('',#250,#250,#29,.T.);
#206=EDGE_CURVE('',#251,#251,#30,.T.);
#207=EDGE_CURVE('',#252,#252,#31,.T.);
#208=EDGE_CURVE('',#228,#229,#291,.T.);
#209=EDGE_CURVE('',#236,#222,#292,.T.);
#210=EDGE_CURVE('',#230,#219,#293,.T.);
#211=EDGE_CURVE('',#253,#253,#32,.T.);
#212=EDGE_CURVE('',#254,#254,#33,.T.);
#213=EDGE_CURVE('',#255,#255,#34,.T.);
#214=EDGE_CURVE('',#256,#256,#35,.T.);
#215=EDGE_CURVE('',#257,#257,#36,.T.);
#216=EDGE_CURVE('',#258,#258,#37,.T.);
#217=EDGE_CURVE('',#259,#259,#38,.T.);
#218=EDGE_CURVE('',#260,#260,#39,.T.);
#219=VERTEX_POINT('',#660);
#220=VERTEX_POINT('',#661);
#221=VERTEX_POINT('',#663);
#222=VERTEX_POINT('',#665);
#223=VERTEX_POINT('',#667);
#224=VERTEX_POINT('',#669);
#225=VERTEX_POINT('',#671);
#226=VERTEX_POINT('',#673);
#227=VERTEX_POINT('',#675);
#228=VERTEX_POINT('',#677);
#229=VERTEX_POINT('',#681);
#230=VERTEX_POINT('',#682);
#231=VERTEX_POINT('',#684);
#232=VERTEX_POINT('',#686);
#233=VERTEX_POINT('',#688);
#234=VERTEX_POINT('',#692);
#235=VERTEX_POINT('',#694);
#236=VERTEX_POINT('',#698);
#237=VERTEX_POINT('',#700);
#238=VERTEX_POINT('',#704);
#239=VERTEX_POINT('',#705);
#240=VERTEX_POINT('',#707);
#241=VERTEX_POINT('',#709);
#242=VERTEX_POINT('',#711);
#243=VERTEX_POINT('',#715);
#244=VERTEX_POINT('',#717);
#245=VERTEX_POINT('',#721);
#246=VERTEX_POINT('',#723);
#247=VERTEX_POINT('',#730);
#248=VERTEX_POINT('',#731);
#249=VERTEX_POINT('',#744);
#250=VERTEX_POINT('',#746);
#251=VERTEX_POINT('',#748);
#252=VERTEX_POINT('',#750);
#253=VERTEX_POINT('',#759);
#254=VERTEX_POINT('',#761);
#255=VERTEX_POINT('',#765);
#256=VERTEX_POINT('',#767);
#257=VERTEX_POINT('',#771);
#258=VERTEX_POINT('',#773);
#259=VERTEX_POINT('',#777);
#260=VERTEX_POINT('',#779);
#261=LINE('',#659,#294);
#262=LINE('',#662,#295);
#263=LINE('',#664,#296);
#264=LINE('',#666,#297);
#265=LINE('',#668,#298);
#266=LINE('',#670,#299);
#267=LINE('',#672,#300);
#268=LINE('',#674,#301);
#269=LINE('',#676,#302);
#270=LINE('',#678,#303);
#271=LINE('',#685,#304);
#272=LINE('',#689,#305);
#273=LINE('',#691,#306);
#274=LINE('',#693,#307);
#275=LINE('',#695,#308);
#276=LINE('',#699,#309);
#277=LINE('',#706,#310);
#278=LINE('',#710,#311);
#279=LINE('',#714,#312);
#280=LINE('',#716,#313);
#281=LINE('',#718,#314);
#282=LINE('',#722,#315);
#283=LINE('',#726,#316);
#284=LINE('',#727,#317);
#285=LINE('',#732,#318);
#286=LINE('',#733,#319);
#287=LINE('',#734,#320);
#288=LINE('',#737,#321);
#289=LINE('',#739,#322);
#290=LINE('',#741,#323);
#291=LINE('',#751,#324);
#292=LINE('',#752,#325);
#293=LINE('',#754,#326);
#294=VECTOR('',#522,1.);
#295=VECTOR('',#523,1.);
#296=VECTOR('',#524,1.);
#297=VECTOR('',#525,1.);
#298=VECTOR('',#526,1.);
#299=VECTOR('',#527,1.);
#300=VECTOR('',#528,1.);
#301=VECTOR('',#529,1.);
#302=VECTOR('',#530,1.);
#303=VECTOR('',#531,1.);
#304=VECTOR('',#538,1.);
#305=VECTOR('',#541,1.);
#306=VECTOR('',#544,1.);
#307=VECTOR('',#545,1.);
#308=VECTOR('',#546,1.);
#309=VECTOR('',#551,1.);
#310=VECTOR('',#558,1.);
#311=VECTOR('',#561,1.);
#312=VECTOR('',#566,1.);
#313=VECTOR('',#567,1.);
#314=VECTOR('',#568,1.);
#315=VECTOR('',#573,1.);
#316=VECTOR('',#578,1.);
#317=VECTOR('',#579,1.);
#318=VECTOR('',#584,1.);
#319=VECTOR('',#585,1.);
#320=VECTOR('',#586,1.);
#321=VECTOR('',#591,1.);
#322=VECTOR('',#594,1.);
#323=VECTOR('',#597,1.);
#324=VECTOR('',#608,1.);
#325=VECTOR('',#609,1.);
#326=VECTOR('',#612,1.);
#327=EDGE_LOOP('',(#48,#49,#50,#51,#52,#53,#54,#55,#56,#57));
#328=EDGE_LOOP('',(#58,#59,#60,#61,#62));
#329=EDGE_LOOP('',(#63,#64,#65,#66));
#330=EDGE_LOOP('',(#67,#68,#69,#70));
#331=EDGE_LOOP('',(#71,#72,#73,#74,#75));
#332=EDGE_LOOP('',(#76,#77,#78,#79));
#333=EDGE_LOOP('',(#80,#81,#82,#83));
#334=EDGE_LOOP('',(#84,#85,#86,#87,#88,#89));
#335=EDGE_LOOP('',(#90,#91,#92,#93,#94,#95,#96,#97));
#336=EDGE_LOOP('',(#98,#99,#100,#101,#102,#103));
#337=EDGE_LOOP('',(#104,#105,#106,#107));
#338=EDGE_LOOP('',(#108,#109,#110,#111));
#339=EDGE_LOOP('',(#112));
#340=EDGE_LOOP('',(#113));
#341=EDGE_LOOP('',(#114));
#342=EDGE_LOOP('',(#115));
#343=EDGE_LOOP('',(#116,#117,#118,#119,#120,#121,#122,#123,#124,#125,#126,#127));
#344=EDGE_LOOP('',(#128,#129,#130,#131));
#345=EDGE_LOOP('',(#132,#133,#134,#135));
#346=EDGE_LOOP('',(#136,#137,#138,#139));
#347=EDGE_LOOP('',(#140));
#348=EDGE_LOOP('',(#141));
#349=EDGE_LOOP('',(#142));
#350=EDGE_LOOP('',(#143));
#351=EDGE_LOOP('',(#144));
#352=EDGE_LOOP('',(#145));
#353=EDGE_LOOP('',(#146));
#354=EDGE_LOOP('',(#147,#148));
#355=EDGE_LOOP('',(#149));
#356=EDGE_LOOP('',(#150));
#357=EDGE_LOOP('',(#151));
#358=EDGE_LOOP('',(#152));
#359=EDGE_LOOP('',(#153));
#360=EDGE_LOOP('',(#154));
#361=EDGE_LOOP('',(#155));
#362=EDGE_LOOP('',(#156));
#363=EDGE_LOOP('',(#157));
#364=EDGE_LOOP('',(#158));
#365=EDGE_LOOP('',(#159));
#366=EDGE_LOOP('',(#160));
#367=EDGE_LOOP('',(#161));
#368=FACE_BOUND('',#327,.T.);
#369=FACE_BOUND('',#328,.T.);
#370=FACE_BOUND('',#329,.T.);
#371=FACE_BOUND('',#330,.T.);
#372=FACE_BOUND('',#331,.T.);
#373=FACE_BOUND('',#332,.T.);
#374=FACE_BOUND('',#333,.T.);
#375=FACE_BOUND('',#334,.T.);
#376=FACE_BOUND('',#335,.T.);
#377=FACE_BOUND('',#336,.T.);
#378=FACE_BOUND('',#337,.T.);
#379=FACE_BOUND('',#338,.T.);
#380=FACE_BOUND('',#339,.T.);
#381=FACE_BOUND('',#340,.T.);
#382=FACE_BOUND('',#341,.T.);
#383=FACE_BOUND('',#342,.T.);
#384=FACE_BOUND('',#343,.T.);
#385=FACE_BOUND('',#344,.T.);
#386=FACE_BOUND('',#345,.T.);
#387=FACE_BOUND('',#346,.T.);
#388=FACE_BOUND('',#347,.T.);
#389=FACE_BOUND('',#348,.T.);
#390=FACE_BOUND('',#349,.T.);
#391=FACE_BOUND('',#350,.T.);
#392=FACE_BOUND('',#351,.T.);
#393=FACE_BOUND('',#352,.T.);
#394=FACE_BOUND('',#353,.T.);
#395=FACE_BOUND('',#354,.T.);
#396=FACE_BOUND('',#355,.T.);
#397=FACE_BOUND('',#356,.T.);
#398=FACE_BOUND('',#357,.T.);
#399=FACE_BOUND('',#358,.T.);
#400=FACE_BOUND('',#359,.T.);
#401=FACE_BOUND('',#360,.T.);
#402=FACE_BOUND('',#361,.T.);
#403=FACE_BOUND('',#362,.T.);
#404=FACE_BOUND('',#363,.T.);
#405=FACE_BOUND('',#364,.T.);
#406=FACE_BOUND('',#365,.T.);
#407=FACE_BOUND('',#366,.T.);
#408=FACE_BOUND('',#367,.T.);
#409=PLANE('',#466);
#410=PLANE('',#471);
#411=PLANE('',#479);
#412=PLANE('',#483);
#413=PLANE('',#484);
#414=PLANE('',#486);
#415=PLANE('',#488);
#416=PLANE('',#489);
#417=PLANE('',#490);
#418=PLANE('',#495);
#419=PLANE('',#496);
#420=PLANE('',#497);
#421=PLANE('',#501);
#422=PLANE('',#505);
#423=PLANE('',#509);
#424=PLANE('',#513);
#425=ADVANCED_FACE('',(#368),#409,.T.);
#426=ADVANCED_FACE('',(#369),#40,.T.);
#427=ADVANCED_FACE('',(#370),#410,.F.);
#428=ADVANCED_FACE('',(#371),#41,.T.);
#429=ADVANCED_FACE('',(#372),#42,.F.);
#430=ADVANCED_FACE('',(#373),#411,.T.);
#431=ADVANCED_FACE('',(#374),#43,.F.);
#432=ADVANCED_FACE('',(#375),#412,.F.);
#433=ADVANCED_FACE('',(#376),#413,.T.);
#434=ADVANCED_FACE('',(#377),#414,.F.);
#435=ADVANCED_FACE('',(#378),#415,.T.);
#436=ADVANCED_FACE('',(#379),#416,.F.);
#437=ADVANCED_FACE('',(#380,#381,#382,#383,#384),#417,.F.);
#438=ADVANCED_FACE('',(#385),#418,.T.);
#439=ADVANCED_FACE('',(#386),#419,.T.);
#440=ADVANCED_FACE('',(#387),#420,.F.);
#441=ADVANCED_FACE('',(#388,#389),#44,.F.);
#442=ADVANCED_FACE('',(#390),#421,.T.);
#443=ADVANCED_FACE('',(#391,#392),#45,.F.);
#444=ADVANCED_FACE('',(#393),#422,.T.);
#445=ADVANCED_FACE('',(#394,#395,#396),#46,.F.);
#446=ADVANCED_FACE('',(#397),#423,.T.);
#447=ADVANCED_FACE('',(#398,#399),#47,.F.);
#448=ADVANCED_FACE('',(#400),#424,.T.);
#449=ADVANCED_FACE('',(#401,#402),#12,.F.);
#450=ADVANCED_FACE('',(#403,#404),#13,.F.);
#451=ADVANCED_FACE('',(#405,#406),#14,.F.);
#452=ADVANCED_FACE('',(#407,#408),#15,.F.);
#453=CLOSED_SHELL('',(#425,#426,#427,#428,#429,#430,#431,#432,#433,#434,#435,#436,#437,#438,#439,#440,#441,#442,#443,#444,#445,#446,#447,#448,#449,#450,#451,#452));
#454=STYLED_ITEM('',(#455),#462);
#455=PRESENTATION_STYLE_ASSIGNMENT((#456));
#456=SURFACE_STYLE_USAGE(.BOTH.,#457);
#457=SURFACE_SIDE_STYLE('',(#458));
#458=SURFACE_STYLE_FILL_AREA(#459);
#459=FILL_AREA_STYLE('',(#460));
#460=FILL_AREA_STYLE_COLOUR('',#461);
#461=COLOUR_RGB('',0.647058823529412,0.647058823529412,0.647058823529412);
#462=MANIFOLD_SOLID_BREP('leftCase',#453);
#463=SHAPE_DEFINITION_REPRESENTATION(#791,#464);
#464=SHAPE_REPRESENTATION('leftCase',(#465),#786);
#465=AXIS2_PLACEMENT_3D('',#657,#518,#519);
#466=AXIS2_PLACEMENT_3D('',#658,#520,#521);
#467=AXIS2_PLACEMENT_3D('',#679,#532,#533);
#468=AXIS2_PLACEMENT_3D('',#680,#534,#535);
#469=AXIS2_PLACEMENT_3D('',#683,#536,#537);
#470=AXIS2_PLACEMENT_3D('',#687,#539,#540);
#471=AXIS2_PLACEMENT_3D('',#690,#542,#543);
#472=AXIS2_PLACEMENT_3D('',#696,#547,#548);
#473=AXIS2_PLACEMENT_3D('',#697,#549,#550);
#474=AXIS2_PLACEMENT_3D('',#701,#552,#553);
#475=AXIS2_PLACEMENT_3D('',#702,#554,#555);
#476=AXIS2_PLACEMENT_3D('',#703,#556,#557);
#477=AXIS2_PLACEMENT_3D('',#708,#559,#560);
#478=AXIS2_PLACEMENT_3D('',#712,#562,#563);
#479=AXIS2_PLACEMENT_3D('',#713,#564,#565);
#480=AXIS2_PLACEMENT_3D('',#719,#569,#570);
#481=AXIS2_PLACEMENT_3D('',#720,#571,#572);
#482=AXIS2_PLACEMENT_3D('',#724,#574,#575);
#483=AXIS2_PLACEMENT_3D('',#725,#576,#577);
#484=AXIS2_PLACEMENT_3D('',#728,#580,#581);
#485=AXIS2_PLACEMENT_3D('',#729,#582,#583);
#486=AXIS2_PLACEMENT_3D('',#735,#587,#588);
#487=AXIS2_PLACEMENT_3D('',#736,#589,#590);
#488=AXIS2_PLACEMENT_3D('',#738,#592,#593);
#489=AXIS2_PLACEMENT_3D('',#740,#595,#596);
#490=AXIS2_PLACEMENT_3D('',#742,#598,#599);
#491=AXIS2_PLACEMENT_3D('',#743,#600,#601);
#492=AXIS2_PLACEMENT_3D('',#745,#602,#603);
#493=AXIS2_PLACEMENT_3D('',#747,#604,#605);
#494=AXIS2_PLACEMENT_3D('',#749,#606,#607);
#495=AXIS2_PLACEMENT_3D('',#753,#610,#611);
#496=AXIS2_PLACEMENT_3D('',#755,#613,#614);
#497=AXIS2_PLACEMENT_3D('',#756,#615,#616);
#498=AXIS2_PLACEMENT_3D('',#757,#617,#618);
#499=AXIS2_PLACEMENT_3D('',#758,#619,#620);
#500=AXIS2_PLACEMENT_3D('',#760,#621,#622);
#501=AXIS2_PLACEMENT_3D('',#762,#623,#624);
#502=AXIS2_PLACEMENT_3D('',#763,#625,#626);
#503=AXIS2_PLACEMENT_3D('',#764,#627,#628);
#504=AXIS2_PLACEMENT_3D('',#766,#629,#630);
#505=AXIS2_PLACEMENT_3D('',#768,#631,#632);
#506=AXIS2_PLACEMENT_3D('',#769,#633,#634);
#507=AXIS2_PLACEMENT_3D('',#770,#635,#636);
#508=AXIS2_PLACEMENT_3D('',#772,#637,#638);
#509=AXIS2_PLACEMENT_3D('',#774,#639,#640);
#510=AXIS2_PLACEMENT_3D('',#775,#641,#642);
#511=AXIS2_PLACEMENT_3D('',#776,#643,#644);
#512=AXIS2_PLACEMENT_3D('',#778,#645,#646);
#513=AXIS2_PLACEMENT_3D('',#780,#647,#648);
#514=AXIS2_PLACEMENT_3D('',#781,#649,#650);
#515=AXIS2_PLACEMENT_3D('',#782,#651,#652);
#516=AXIS2_PLACEMENT_3D('',#783,#653,#654);
#517=AXIS2_PLACEMENT_3D('',#784,#655,#656);
#518=DIRECTION('',(0.,0.,1.));
#519=DIRECTION('',(1.,0.,0.));
#520=DIRECTION('',(1.,0.,-1.93343792988127E-16));
#521=DIRECTION('',(0.,1.,0.));
#522=DIRECTION('',(0.,1.,0.));
#523=DIRECTION('',(1.93343792988127E-16,0.,1.));
#524=DIRECTION('',(0.,1.,0.));
#525=DIRECTION('',(-1.36714707122233E-16,-0.707106781186548,-0.707106781186548));
#526=DIRECTION('',(0.,1.,0.));
#527=DIRECTION('',(1.93343792988127E-16,0.,1.));
#528=DIRECTION('',(0.,1.,0.));
#529=DIRECTION('',(1.93343792988127E-16,0.,1.));
#530=DIRECTION('',(-1.36714707122233E-16,-0.707106781186548,-0.707106781186548));
#531=DIRECTION('',(1.93343792988127E-16,0.,1.));
#532=DIRECTION('',(0.,1.,0.));
#533=DIRECTION('',(0.,0.,1.));
#534=DIRECTION('',(0.,-1.,0.));
#535=DIRECTION('',(0.,0.,-1.));
#536=DIRECTION('',(0.,0.707106781186548,-0.707106781186548));
#537=DIRECTION('',(0.,0.707106781186548,0.707106781186548));
#538=DIRECTION('',(0.,1.,0.));
#539=DIRECTION('',(0.,-1.,0.));
#540=DIRECTION('',(0.,0.,-1.));
#541=DIRECTION('',(0.,1.,0.));
#542=DIRECTION('',(1.,0.,0.));
#543=DIRECTION('',(0.,0.,-1.));
#544=DIRECTION('',(0.,-0.707106781186548,-0.707106781186548));
#545=DIRECTION('',(0.,1.,0.));
#546=DIRECTION('',(0.,0.,-1.));
#547=DIRECTION('',(0.,1.,0.));
#548=DIRECTION('',(0.,0.,1.));
#549=DIRECTION('',(0.,0.707106781186548,-0.707106781186548));
#550=DIRECTION('',(0.,0.707106781186548,0.707106781186548));
#551=DIRECTION('',(0.,1.,0.));
#552=DIRECTION('',(0.,-1.,0.));
#553=DIRECTION('',(0.,0.,-1.));
#554=DIRECTION('',(0.,1.,0.));
#555=DIRECTION('',(0.,0.,1.));
#556=DIRECTION('',(0.,-1.,0.));
#557=DIRECTION('',(0.,0.,-1.));
#558=DIRECTION('',(0.,1.,0.));
#559=DIRECTION('',(0.,-1.,0.));
#560=DIRECTION('',(0.,0.,-1.));
#561=DIRECTION('',(0.,1.,0.));
#562=DIRECTION('',(0.,0.707106781186548,-0.707106781186548));
#563=DIRECTION('',(0.,0.707106781186548,0.707106781186548));
#564=DIRECTION('',(1.,0.,0.));
#565=DIRECTION('',(0.,0.,-1.));
#566=DIRECTION('',(0.,0.,-1.));
#567=DIRECTION('',(0.,1.,0.));
#568=DIRECTION('',(0.,-0.707106781186548,-0.707106781186548));
#569=DIRECTION('',(0.,1.,0.));
#570=DIRECTION('',(0.,0.,1.));
#571=DIRECTION('',(0.,-1.,0.));
#572=DIRECTION('',(0.,0.,-1.));
#573=DIRECTION('',(0.,1.,0.));
#574=DIRECTION('',(0.,0.707106781186548,-0.707106781186548));
#575=DIRECTION('',(0.,0.707106781186548,0.707106781186548));
#576=DIRECTION('',(0.,-1.,0.));
#577=DIRECTION('',(1.,0.,0.));
#578=DIRECTION('',(1.,0.,0.));
#579=DIRECTION('',(1.,0.,0.));
#580=DIRECTION('',(0.,-1.,0.));
#581=DIRECTION('',(1.,0.,0.));
#582=DIRECTION('',(0.,-1.,0.));
#583=DIRECTION('',(0.,0.,1.));
#584=DIRECTION('',(1.,0.,0.));
#585=DIRECTION('',(1.,0.,0.));
#586=DIRECTION('',(1.,0.,0.));
#587=DIRECTION('',(0.,0.,1.));
#588=DIRECTION('',(1.,0.,0.));
#589=DIRECTION('',(0.,0.,1.));
#590=DIRECTION('',(0.,-1.,0.));
#591=DIRECTION('',(1.,0.,0.));
#592=DIRECTION('',(0.,0.,1.));
#593=DIRECTION('',(1.,0.,0.));
#594=DIRECTION('',(1.,0.,0.));
#595=DIRECTION('',(0.,-1.,0.));
#596=DIRECTION('',(1.,0.,0.));
#597=DIRECTION('',(-1.,0.,0.));
#598=DIRECTION('',(0.,0.707106781186548,-0.707106781186548));
#599=DIRECTION('',(1.,0.,0.));
#600=DIRECTION('',(0.,0.707106781186548,-0.707106781186548));
#601=DIRECTION('',(0.,0.707106781186548,0.707106781186548));
#602=DIRECTION('',(0.,0.707106781186548,-0.707106781186548));
#603=DIRECTION('',(0.,0.707106781186548,0.707106781186548));
#604=DIRECTION('',(0.,0.707106781186548,-0.707106781186548));
#605=DIRECTION('',(0.,0.707106781186548,0.707106781186548));
#606=DIRECTION('',(0.,0.707106781186548,-0.707106781186548));
#607=DIRECTION('',(0.,0.707106781186548,0.707106781186548));
#608=DIRECTION('',(-1.,0.,0.));
#609=DIRECTION('',(1.,0.,0.));
#610=DIRECTION('',(0.,-1.,0.));
#611=DIRECTION('',(1.,0.,0.));
#612=DIRECTION('',(1.,0.,0.));
#613=DIRECTION('',(0.,0.,1.));
#614=DIRECTION('',(1.,0.,0.));
#615=DIRECTION('',(0.,0.,1.));
#616=DIRECTION('',(1.,0.,0.));
#617=DIRECTION('',(0.,-0.707106781186548,0.707106781186548));
#618=DIRECTION('',(0.,-0.707106781186548,-0.707106781186548));
#619=DIRECTION('',(0.,-0.707106781186546,0.707106781186549));
#620=DIRECTION('',(0.,-0.707106781186549,-0.707106781186546));
#621=DIRECTION('',(0.,-0.707106781186548,0.707106781186548));
#622=DIRECTION('',(0.,-0.707106781186548,-0.707106781186548));
#623=DIRECTION('',(0.,-0.707106781186548,0.707106781186548));
#624=DIRECTION('',(1.,0.,0.));
#625=DIRECTION('',(0.,-0.707106781186548,0.707106781186548));
#626=DIRECTION('',(0.,-0.707106781186548,-0.707106781186548));
#627=DIRECTION('',(0.,-0.707106781186548,0.707106781186548));
#628=DIRECTION('',(0.,-0.707106781186548,-0.707106781186548));
#629=DIRECTION('',(0.,-0.707106781186548,0.707106781186548));
#630=DIRECTION('',(0.,-0.707106781186548,-0.707106781186548));
#631=DIRECTION('',(0.,-0.707106781186548,0.707106781186548));
#632=DIRECTION('',(1.,0.,0.));
#633=DIRECTION('',(0.,-0.707106781186548,0.707106781186548));
#634=DIRECTION('',(0.,-0.707106781186548,-0.707106781186548));
#635=DIRECTION('',(0.,-0.707106781186547,0.707106781186548));
#636=DIRECTION('',(0.,-0.707106781186548,-0.707106781186547));
#637=DIRECTION('',(0.,-0.707106781186548,0.707106781186548));
#638=DIRECTION('',(0.,-0.707106781186548,-0.707106781186548));
#639=DIRECTION('',(0.,-0.707106781186548,0.707106781186548));
#640=DIRECTION('',(1.,0.,0.));
#641=DIRECTION('',(0.,-0.707106781186548,0.707106781186548));
#642=DIRECTION('',(0.,-0.707106781186548,-0.707106781186548));
#643=DIRECTION('',(0.,-0.707106781186548,0.707106781186548));
#644=DIRECTION('',(0.,-0.707106781186548,-0.707106781186548));
#645=DIRECTION('',(0.,-0.707106781186548,0.707106781186548));
#646=DIRECTION('',(0.,-0.707106781186548,-0.707106781186548));
#647=DIRECTION('',(0.,-0.707106781186548,0.707106781186548));
#648=DIRECTION('',(1.,0.,0.));
#649=DIRECTION('',(0.,-0.707106781186548,0.707106781186548));
#650=DIRECTION('',(0.,-0.707106781186548,-0.707106781186548));
#651=DIRECTION('',(0.,-0.707106781186547,0.707106781186548));
#652=DIRECTION('',(0.,-0.707106781186548,-0.707106781186547));
#653=DIRECTION('',(0.,-0.707106781186548,0.707106781186548));
#654=DIRECTION('',(0.,-0.707106781186548,-0.707106781186548));
#655=DIRECTION('',(0.,-0.707106781186546,0.707106781186549));
#656=DIRECTION('',(0.,-0.707106781186549,-0.707106781186546));
#657=CARTESIAN_POINT('',(0.,0.,0.));
#658=CARTESIAN_POINT('',(0.,-0.01082,0.03606));
#659=CARTESIAN_POINT('',(-1.38777878078145E-17,-0.08702,-0.04206));
#660=CARTESIAN_POINT('',(-1.51040171082325E-17,-0.08702,-0.04206));
#661=CARTESIAN_POINT('',(-1.38777878078145E-17,0.,-0.04206));
#662=CARTESIAN_POINT('',(-6.97197717515187E-18,0.,-2.77555756156289E-17));
#663=CARTESIAN_POINT('',(0.,0.,0.04206));
#664=CARTESIAN_POINT('',(0.,-0.08702,0.04206));
#665=CARTESIAN_POINT('',(4.13506371996604E-33,-0.00482,0.04206));
#666=CARTESIAN_POINT('',(0.,-0.00482,0.04206));
#667=CARTESIAN_POINT('',(0.,-0.01082,0.03606));
#668=CARTESIAN_POINT('',(0.,-0.481592136129437,0.03606));
#669=CARTESIAN_POINT('',(-1.38777878078145E-17,-0.006,0.03606));
#670=CARTESIAN_POINT('',(-6.97197717515187E-18,-0.006,-2.77555756156289E-17));
#671=CARTESIAN_POINT('',(-1.39439543503037E-17,-0.006,-0.03606));
#672=CARTESIAN_POINT('',(-1.38777878078145E-17,-0.481592136129437,-0.03606));
#673=CARTESIAN_POINT('',(-1.38777878078145E-17,-0.08102,-0.03606));
#674=CARTESIAN_POINT('',(-6.97197717515187E-18,-0.08102,-2.77555756156289E-17));
#675=CARTESIAN_POINT('',(-1.35727342677665E-17,-0.08102,-0.03414));
#676=CARTESIAN_POINT('',(0.,-0.00482,0.04206));
#677=CARTESIAN_POINT('',(-1.5892859783624E-17,-0.08702,-0.04014));
#678=CARTESIAN_POINT('',(-6.97197717515187E-18,-0.08702,-2.77555756156289E-17));
#679=CARTESIAN_POINT('',(-0.1675,-0.08702,-0.04006));
#680=CARTESIAN_POINT('',(-0.1675,-0.08702,-0.04006));
#681=CARTESIAN_POINT('',(-0.169498399359487,-0.08702,-0.04014));
#682=CARTESIAN_POINT('',(-0.1675,-0.08702,-0.04206));
#683=CARTESIAN_POINT('',(-0.1675,-0.08694,-0.04006));
#684=CARTESIAN_POINT('',(-0.1695,-0.08694,-0.04006));
#685=CARTESIAN_POINT('',(-0.1695,-0.08702,-0.04006));
#686=CARTESIAN_POINT('',(-0.1695,0.,-0.04006));
#687=CARTESIAN_POINT('',(-0.1675,0.,-0.04006));
#688=CARTESIAN_POINT('',(-0.1675,0.,-0.04206));
#689=CARTESIAN_POINT('',(-0.1675,-0.08702,-0.04206));
#690=CARTESIAN_POINT('',(-0.1695,-0.08702,0.));
#691=CARTESIAN_POINT('',(-0.1695,-0.00482,0.04206));
#692=CARTESIAN_POINT('',(-0.1695,-0.0068200000000001,0.04006));
#693=CARTESIAN_POINT('',(-0.1695,-0.08702,0.04006));
#694=CARTESIAN_POINT('',(-0.1695,0.,0.04006));
#695=CARTESIAN_POINT('',(-0.1695,0.,0.));
#696=CARTESIAN_POINT('',(-0.1675,-0.08702,0.04006));
#697=CARTESIAN_POINT('',(-0.1675,-0.0068200000000001,0.04006));
#698=CARTESIAN_POINT('',(-0.1675,-0.00482,0.04206));
#699=CARTESIAN_POINT('',(-0.1675,-0.08702,0.04206));
#700=CARTESIAN_POINT('',(-0.1675,0.,0.04206));
#701=CARTESIAN_POINT('',(-0.1675,0.,0.04006));
#702=CARTESIAN_POINT('',(-0.1615,-0.481592136129437,-0.03406));
#703=CARTESIAN_POINT('',(-0.1615,-0.08102,-0.03406));
#704=CARTESIAN_POINT('',(-0.163498399359488,-0.08102,-0.03414));
#705=CARTESIAN_POINT('',(-0.1615,-0.08102,-0.03606));
#706=CARTESIAN_POINT('',(-0.1615,-0.481592136129437,-0.03606));
#707=CARTESIAN_POINT('',(-0.1615,-0.006,-0.03606));
#708=CARTESIAN_POINT('',(-0.1615,-0.006,-0.03406));
#709=CARTESIAN_POINT('',(-0.1635,-0.006,-0.03406));
#710=CARTESIAN_POINT('',(-0.1635,-0.481592136129437,-0.03406));
#711=CARTESIAN_POINT('',(-0.1635,-0.08094,-0.03406));
#712=CARTESIAN_POINT('',(-0.1615,-0.08094,-0.03406));
#713=CARTESIAN_POINT('',(-0.1635,-0.481592136129437,6.93889390390723E-18));
#714=CARTESIAN_POINT('',(-0.1635,-0.006,6.93889390390723E-18));
#715=CARTESIAN_POINT('',(-0.1635,-0.006,0.03406));
#716=CARTESIAN_POINT('',(-0.1635,-0.481592136129437,0.03406));
#717=CARTESIAN_POINT('',(-0.1635,-0.01282,0.03406));
#718=CARTESIAN_POINT('',(-0.1635,-0.00482,0.04206));
#719=CARTESIAN_POINT('',(-0.1615,-0.481592136129437,0.03406));
#720=CARTESIAN_POINT('',(-0.1615,-0.006,0.03406));
#721=CARTESIAN_POINT('',(-0.1615,-0.006,0.03606));
#722=CARTESIAN_POINT('',(-0.1615,-0.481592136129437,0.03606));
#723=CARTESIAN_POINT('',(-0.1615,-0.01082,0.03606));
#724=CARTESIAN_POINT('',(-0.1615,-0.01282,0.03406));
#725=CARTESIAN_POINT('',(0.,0.,-2.77555756156289E-17));
#726=CARTESIAN_POINT('',(-0.08375,0.,-0.04206));
#727=CARTESIAN_POINT('',(-0.08375,0.,0.04206));
#728=CARTESIAN_POINT('',(0.,-0.006,-2.77555756156289E-17));
#729=CARTESIAN_POINT('',(-0.00995,-0.006,0.0375831457505076));
#730=CARTESIAN_POINT('',(-0.0115755809765605,-0.006,0.03606));
#731=CARTESIAN_POINT('',(-0.00832441902343953,-0.006,0.03606));
#732=CARTESIAN_POINT('',(-0.08075,-0.006,0.03606));
#733=CARTESIAN_POINT('',(-0.08075,-0.006,-0.03606));
#734=CARTESIAN_POINT('',(-0.08075,-0.006,0.03606));
#735=CARTESIAN_POINT('',(-0.08075,-0.481592136129437,0.03606));
#736=CARTESIAN_POINT('',(-0.00995,-0.00447685424949238,0.03606));
#737=CARTESIAN_POINT('',(-0.08375,-0.01082,0.03606));
#738=CARTESIAN_POINT('',(-0.08075,-0.481592136129437,-0.03606));
#739=CARTESIAN_POINT('',(-0.08075,-0.08102,-0.03606));
#740=CARTESIAN_POINT('',(0.,-0.08102,-2.77555756156289E-17));
#741=CARTESIAN_POINT('',(-0.08375,-0.08102,-0.03414));
#742=CARTESIAN_POINT('',(-0.08375,-0.00482,0.04206));
#743=CARTESIAN_POINT('',(-0.00995,-0.0841915728752538,-0.0373115728752538));
#744=CARTESIAN_POINT('',(-0.00995,-0.0824591612613468,-0.0355791612613468));
#745=CARTESIAN_POINT('',(-0.00995,-0.0076484271247462,0.0392315728752538));
#746=CARTESIAN_POINT('',(-0.00995,-0.00591601551083916,0.0409639844891608));
#747=CARTESIAN_POINT('',(-0.1655,-0.0842622835533725,-0.0373822835533725));
#748=CARTESIAN_POINT('',(-0.1655,-0.0825298719394655,-0.0356498719394654));
#749=CARTESIAN_POINT('',(-0.1655,-0.0076484271247462,0.0392315728752538));
#750=CARTESIAN_POINT('',(-0.1655,-0.00591601551083916,0.0409639844891608));
#751=CARTESIAN_POINT('',(0.,-0.08702,-0.04014));
#752=CARTESIAN_POINT('',(-0.08375,-0.00482,0.04206));
#753=CARTESIAN_POINT('',(0.,-0.08702,-2.77555756156289E-17));
#754=CARTESIAN_POINT('',(-0.08375,-0.08702,-0.04206));
#755=CARTESIAN_POINT('',(-0.08375,-0.08702,0.04206));
#756=CARTESIAN_POINT('',(-0.08375,-0.08702,-0.04206));
#757=CARTESIAN_POINT('',(-0.1655,-0.00446644660940673,0.0360495923599144));
#758=CARTESIAN_POINT('',(-0.1655,-0.00729487373415293,0.0388780194846605));
#759=CARTESIAN_POINT('',(-0.1655,-0.0086737319574667,0.0374991612613468));
#760=CARTESIAN_POINT('',(-0.1655,-0.00446644660940673,0.0360495923599144));
#761=CARTESIAN_POINT('',(-0.1655,-0.0058453048327205,0.0346707341366006));
#762=CARTESIAN_POINT('',(0.,-0.0427733748237199,-0.00225733585439878));
#763=CARTESIAN_POINT('',(-0.00995,-0.0810095923599143,-0.0404935533905932));
#764=CARTESIAN_POINT('',(-0.00995,-0.0838380194846605,-0.0376651262658471));
#765=CARTESIAN_POINT('',(-0.00995,-0.0852168777079743,-0.0390439844891609));
#766=CARTESIAN_POINT('',(-0.00995,-0.0810095923599143,-0.0404935533905932));
#767=CARTESIAN_POINT('',(-0.00995,-0.0823884505832281,-0.041872411613907));
#768=CARTESIAN_POINT('',(0.,-0.0427733748237199,-0.00225733585439878));
#769=CARTESIAN_POINT('',(-0.00995,-0.00446644660940673,0.0360495923599144));
#770=CARTESIAN_POINT('',(-0.00995,-0.00729487373415293,0.0388780194846605));
#771=CARTESIAN_POINT('',(-0.00995,-0.0086737319574667,0.0374991612613468));
#772=CARTESIAN_POINT('',(-0.00995,-0.00446644660940673,0.0360495923599144));
#773=CARTESIAN_POINT('',(-0.00995,-0.0058453048327205,0.0346707341366006));
#774=CARTESIAN_POINT('',(0.,-0.0427733748237199,-0.00225733585439878));
#775=CARTESIAN_POINT('',(-0.1655,-0.081080303038033,-0.040564264068712));
#776=CARTESIAN_POINT('',(-0.1655,-0.0839087301627792,-0.0377358369439657));
#777=CARTESIAN_POINT('',(-0.1655,-0.085287588386093,-0.0391146951672795));
#778=CARTESIAN_POINT('',(-0.1655,-0.081080303038033,-0.040564264068712));
#779=CARTESIAN_POINT('',(-0.1655,-0.0824591612613468,-0.0419431222920257));
#780=CARTESIAN_POINT('',(0.,-0.0427733748237199,-0.00225733585439878));
#781=CARTESIAN_POINT('',(-0.00995,-0.0838380194846605,-0.0376651262658471));
#782=CARTESIAN_POINT('',(-0.00995,-0.00729487373415293,0.0388780194846605));
#783=CARTESIAN_POINT('',(-0.1655,-0.0839087301627792,-0.0377358369439657));
#784=CARTESIAN_POINT('',(-0.1655,-0.00729487373415293,0.0388780194846605));
#785=MECHANICAL_DESIGN_GEOMETRIC_PRESENTATION_REPRESENTATION('',(#454),#786);
#786=(
GEOMETRIC_REPRESENTATION_CONTEXT(3)
GLOBAL_UNCERTAINTY_ASSIGNED_CONTEXT((#787))
GLOBAL_UNIT_ASSIGNED_CONTEXT((#790,#789,#788))
REPRESENTATION_CONTEXT('leftCase','TOP_LEVEL_ASSEMBLY_PART')
);
#787=UNCERTAINTY_MEASURE_WITH_UNIT(LENGTH_MEASURE(1.E-08),#790,'DISTANCE_ACCURACY_VALUE','Maximum Tolerance applied to model');
#788=(
NAMED_UNIT(*)
SI_UNIT($,.STERADIAN.)
SOLID_ANGLE_UNIT()
);
#789=(
NAMED_UNIT(*)
PLANE_ANGLE_UNIT()
SI_UNIT($,.RADIAN.)
);
#790=(
LENGTH_UNIT()
NAMED_UNIT(*)
SI_UNIT($,.METRE.)
);
#791=PRODUCT_DEFINITION_SHAPE('','',#792);
#792=PRODUCT_DEFINITION('','',#794,#793);
#793=PRODUCT_DEFINITION_CONTEXT('',#800,'design');
#794=PRODUCT_DEFINITION_FORMATION_WITH_SPECIFIED_SOURCE('','',#796,.NOT_KNOWN.);
#795=PRODUCT_RELATED_PRODUCT_CATEGORY('','',(#796));
#796=PRODUCT('leftCase','leftCase','leftCase',(#798));
#797=PRODUCT_CATEGORY('','');
#798=PRODUCT_CONTEXT('',#800,'mechanical');
#799=APPLICATION_PROTOCOL_DEFINITION('international standard','ap242_managed_model_based_3d_engineering',2020,#800);
#800=APPLICATION_CONTEXT('managed model based 3d engineering');
ENDSEC;
END-ISO-10303-21;
