ISO-10303-21;
HEADER;
/*Generated by software containing ST-Developer
 * from STEP Tools, Inc. (www.steptools.com) 
 */
/*OPTION: using custom renumber hook */
/*description */
/*implementation_level */
FILE_DESCRIPTION(('STEP AP242 Edition 2','STEP AP242 Edition 2''CAx-IF Rec.Pracs.---Representation and Presentation of Product Manufa
cturing Information (PMI)---4.0---2014-10-13','STEP AP242 Edition 2''CAx-IF Rec.Pracs.---Representation and Presentation of Product Manufa
cturing Information (PMI)---4.0---2014-10-13''CAx-IF Rec.Pracs.---3D Tessellated Geometry---0.4---2014-09-14','STEP AP242 Edition 2''CAx-IF Rec.Pracs.---Representation and Presentation of Product Manufa
cturing Information (PMI)---4.0---2014-10-13''CAx-IF Rec.Pracs.---3D Tessellated Geometry---0.4---2014-09-14''2;1','STEP AP242 Edition 2''CAx-IF Rec.Pracs.---Representation and Presentation of Product Manufa
cturing Information (PMI)---4.0---2014-10-13''CAx-IF Rec.Pracs.---3D Tessellated Geometry---0.4---2014-09-14''2;1''CAx-IF Rec.Pracs.---User Defined Attributes---1.5---2016-08-15'),'2;1');
/*name */
/*time_stamp */
/*author */
/*organization */
/*preprocessor_version */
/*originating_system */
/*authorisation */
FILE_NAME('/vol/tmp/translate-192958462375041452/anaDash Printables - rightFront.step','2026-08-30T15:28:34',(''),(''),'ST-DEVELOPER v20','ONSHAPE BY PTC INC, 1.220','  ');
FILE_SCHEMA(('AP242_MANAGED_MODEL_BASED_3D_ENGINEERING_MIM_LF { 1 0 10303 442 3 1 4 }'));
ENDSEC;
DATA;
#10=SHAPE_REPRESENTATION_RELATIONSHIP('','',#624,#11);
#11=ADVANCED_BREP_SHAPE_REPRESENTATION('',(#622),#988);
#12=CONICAL_SURFACE('',#658,0.0027,0.785398163397445);
#13=CONICAL_SURFACE('',#661,0.0027,0.785398163397445);
#14=CIRCLE('',#630,0.00200000000000003);
#15=CIRCLE('',#631,0.00200000000000003);
#16=CIRCLE('',#636,0.0027);
#17=CIRCLE('',#637,0.0027);
#18=CIRCLE('',#639,0.0017);
#19=CIRCLE('',#640,0.0017);
#20=CIRCLE('',#657,0.0017);
#21=CIRCLE('',#660,0.0017);
#22=CYLINDRICAL_SURFACE('',#629,0.00200000000000003);
#23=CYLINDRICAL_SURFACE('',#656,0.0017);
#24=CYLINDRICAL_SURFACE('',#659,0.0017);
#25=ORIENTED_EDGE('',*,*,#187,.F.);
#26=ORIENTED_EDGE('',*,*,#188,.T.);
#27=ORIENTED_EDGE('',*,*,#189,.T.);
#28=ORIENTED_EDGE('',*,*,#190,.F.);
#29=ORIENTED_EDGE('',*,*,#191,.F.);
#30=ORIENTED_EDGE('',*,*,#190,.T.);
#31=ORIENTED_EDGE('',*,*,#192,.T.);
#32=ORIENTED_EDGE('',*,*,#193,.F.);
#33=ORIENTED_EDGE('',*,*,#194,.F.);
#34=ORIENTED_EDGE('',*,*,#195,.T.);
#35=ORIENTED_EDGE('',*,*,#193,.T.);
#36=ORIENTED_EDGE('',*,*,#196,.F.);
#37=ORIENTED_EDGE('',*,*,#197,.T.);
#38=ORIENTED_EDGE('',*,*,#198,.T.);
#39=ORIENTED_EDGE('',*,*,#199,.F.);
#40=ORIENTED_EDGE('',*,*,#200,.F.);
#41=ORIENTED_EDGE('',*,*,#201,.F.);
#42=ORIENTED_EDGE('',*,*,#202,.T.);
#43=ORIENTED_EDGE('',*,*,#199,.T.);
#44=ORIENTED_EDGE('',*,*,#203,.F.);
#45=ORIENTED_EDGE('',*,*,#204,.F.);
#46=ORIENTED_EDGE('',*,*,#205,.T.);
#47=ORIENTED_EDGE('',*,*,#206,.T.);
#48=ORIENTED_EDGE('',*,*,#207,.F.);
#49=ORIENTED_EDGE('',*,*,#207,.T.);
#50=ORIENTED_EDGE('',*,*,#208,.T.);
#51=ORIENTED_EDGE('',*,*,#197,.F.);
#52=ORIENTED_EDGE('',*,*,#209,.F.);
#53=ORIENTED_EDGE('',*,*,#210,.F.);
#54=ORIENTED_EDGE('',*,*,#204,.T.);
#55=ORIENTED_EDGE('',*,*,#209,.T.);
#56=ORIENTED_EDGE('',*,*,#200,.T.);
#57=ORIENTED_EDGE('',*,*,#202,.F.);
#58=ORIENTED_EDGE('',*,*,#211,.F.);
#59=ORIENTED_EDGE('',*,*,#212,.T.);
#60=ORIENTED_EDGE('',*,*,#213,.T.);
#61=ORIENTED_EDGE('',*,*,#214,.F.);
#62=ORIENTED_EDGE('',*,*,#215,.F.);
#63=ORIENTED_EDGE('',*,*,#216,.T.);
#64=ORIENTED_EDGE('',*,*,#217,.T.);
#65=ORIENTED_EDGE('',*,*,#218,.F.);
#66=ORIENTED_EDGE('',*,*,#219,.T.);
#67=ORIENTED_EDGE('',*,*,#220,.T.);
#68=ORIENTED_EDGE('',*,*,#221,.F.);
#69=ORIENTED_EDGE('',*,*,#222,.T.);
#70=ORIENTED_EDGE('',*,*,#223,.T.);
#71=ORIENTED_EDGE('',*,*,#224,.F.);
#72=ORIENTED_EDGE('',*,*,#225,.F.);
#73=ORIENTED_EDGE('',*,*,#226,.T.);
#74=ORIENTED_EDGE('',*,*,#227,.T.);
#75=ORIENTED_EDGE('',*,*,#228,.F.);
#76=ORIENTED_EDGE('',*,*,#229,.F.);
#77=ORIENTED_EDGE('',*,*,#230,.F.);
#78=ORIENTED_EDGE('',*,*,#206,.F.);
#79=ORIENTED_EDGE('',*,*,#231,.T.);
#80=ORIENTED_EDGE('',*,*,#196,.T.);
#81=ORIENTED_EDGE('',*,*,#192,.F.);
#82=ORIENTED_EDGE('',*,*,#189,.F.);
#83=ORIENTED_EDGE('',*,*,#232,.T.);
#84=ORIENTED_EDGE('',*,*,#203,.T.);
#85=ORIENTED_EDGE('',*,*,#198,.F.);
#86=ORIENTED_EDGE('',*,*,#208,.F.);
#87=ORIENTED_EDGE('',*,*,#195,.F.);
#88=ORIENTED_EDGE('',*,*,#233,.T.);
#89=ORIENTED_EDGE('',*,*,#234,.T.);
#90=ORIENTED_EDGE('',*,*,#235,.F.);
#91=ORIENTED_EDGE('',*,*,#236,.F.);
#92=ORIENTED_EDGE('',*,*,#237,.T.);
#93=ORIENTED_EDGE('',*,*,#238,.T.);
#94=ORIENTED_EDGE('',*,*,#239,.F.);
#95=ORIENTED_EDGE('',*,*,#240,.F.);
#96=ORIENTED_EDGE('',*,*,#241,.T.);
#97=ORIENTED_EDGE('',*,*,#187,.T.);
#98=ORIENTED_EDGE('',*,*,#191,.T.);
#99=ORIENTED_EDGE('',*,*,#242,.T.);
#100=ORIENTED_EDGE('',*,*,#243,.T.);
#101=ORIENTED_EDGE('',*,*,#244,.F.);
#102=ORIENTED_EDGE('',*,*,#245,.F.);
#103=ORIENTED_EDGE('',*,*,#246,.T.);
#104=ORIENTED_EDGE('',*,*,#247,.T.);
#105=ORIENTED_EDGE('',*,*,#248,.F.);
#106=ORIENTED_EDGE('',*,*,#249,.F.);
#107=ORIENTED_EDGE('',*,*,#246,.F.);
#108=ORIENTED_EDGE('',*,*,#250,.F.);
#109=ORIENTED_EDGE('',*,*,#221,.T.);
#110=ORIENTED_EDGE('',*,*,#251,.T.);
#111=ORIENTED_EDGE('',*,*,#249,.T.);
#112=ORIENTED_EDGE('',*,*,#252,.F.);
#113=ORIENTED_EDGE('',*,*,#222,.F.);
#114=ORIENTED_EDGE('',*,*,#250,.T.);
#115=ORIENTED_EDGE('',*,*,#248,.T.);
#116=ORIENTED_EDGE('',*,*,#253,.F.);
#117=ORIENTED_EDGE('',*,*,#223,.F.);
#118=ORIENTED_EDGE('',*,*,#252,.T.);
#119=ORIENTED_EDGE('',*,*,#242,.F.);
#120=ORIENTED_EDGE('',*,*,#254,.F.);
#121=ORIENTED_EDGE('',*,*,#225,.T.);
#122=ORIENTED_EDGE('',*,*,#255,.T.);
#123=ORIENTED_EDGE('',*,*,#245,.T.);
#124=ORIENTED_EDGE('',*,*,#256,.F.);
#125=ORIENTED_EDGE('',*,*,#226,.F.);
#126=ORIENTED_EDGE('',*,*,#254,.T.);
#127=ORIENTED_EDGE('',*,*,#244,.T.);
#128=ORIENTED_EDGE('',*,*,#257,.F.);
#129=ORIENTED_EDGE('',*,*,#227,.F.);
#130=ORIENTED_EDGE('',*,*,#256,.T.);
#131=ORIENTED_EDGE('',*,*,#239,.T.);
#132=ORIENTED_EDGE('',*,*,#258,.F.);
#133=ORIENTED_EDGE('',*,*,#213,.F.);
#134=ORIENTED_EDGE('',*,*,#259,.T.);
#135=ORIENTED_EDGE('',*,*,#260,.F.);
#136=ORIENTED_EDGE('',*,*,#214,.T.);
#137=ORIENTED_EDGE('',*,*,#258,.T.);
#138=ORIENTED_EDGE('',*,*,#238,.F.);
#139=ORIENTED_EDGE('',*,*,#216,.F.);
#140=ORIENTED_EDGE('',*,*,#261,.T.);
#141=ORIENTED_EDGE('',*,*,#236,.T.);
#142=ORIENTED_EDGE('',*,*,#262,.F.);
#143=ORIENTED_EDGE('',*,*,#235,.T.);
#144=ORIENTED_EDGE('',*,*,#263,.F.);
#145=ORIENTED_EDGE('',*,*,#217,.F.);
#146=ORIENTED_EDGE('',*,*,#262,.T.);
#147=ORIENTED_EDGE('',*,*,#264,.F.);
#148=ORIENTED_EDGE('',*,*,#218,.T.);
#149=ORIENTED_EDGE('',*,*,#263,.T.);
#150=ORIENTED_EDGE('',*,*,#234,.F.);
#151=ORIENTED_EDGE('',*,*,#243,.F.);
#152=ORIENTED_EDGE('',*,*,#255,.F.);
#153=ORIENTED_EDGE('',*,*,#228,.T.);
#154=ORIENTED_EDGE('',*,*,#257,.T.);
#155=ORIENTED_EDGE('',*,*,#212,.F.);
#156=ORIENTED_EDGE('',*,*,#265,.T.);
#157=ORIENTED_EDGE('',*,*,#240,.T.);
#158=ORIENTED_EDGE('',*,*,#259,.F.);
#159=ORIENTED_EDGE('',*,*,#247,.F.);
#160=ORIENTED_EDGE('',*,*,#251,.F.);
#161=ORIENTED_EDGE('',*,*,#224,.T.);
#162=ORIENTED_EDGE('',*,*,#253,.T.);
#163=ORIENTED_EDGE('',*,*,#230,.T.);
#164=ORIENTED_EDGE('',*,*,#266,.F.);
#165=ORIENTED_EDGE('',*,*,#266,.T.);
#166=ORIENTED_EDGE('',*,*,#220,.F.);
#167=ORIENTED_EDGE('',*,*,#229,.T.);
#168=ORIENTED_EDGE('',*,*,#267,.F.);
#169=ORIENTED_EDGE('',*,*,#267,.T.);
#170=ORIENTED_EDGE('',*,*,#219,.F.);
#171=ORIENTED_EDGE('',*,*,#188,.F.);
#172=ORIENTED_EDGE('',*,*,#241,.F.);
#173=ORIENTED_EDGE('',*,*,#265,.F.);
#174=ORIENTED_EDGE('',*,*,#211,.T.);
#175=ORIENTED_EDGE('',*,*,#201,.T.);
#176=ORIENTED_EDGE('',*,*,#232,.F.);
#177=ORIENTED_EDGE('',*,*,#205,.F.);
#178=ORIENTED_EDGE('',*,*,#210,.T.);
#179=ORIENTED_EDGE('',*,*,#264,.T.);
#180=ORIENTED_EDGE('',*,*,#233,.F.);
#181=ORIENTED_EDGE('',*,*,#194,.T.);
#182=ORIENTED_EDGE('',*,*,#231,.F.);
#183=ORIENTED_EDGE('',*,*,#260,.T.);
#184=ORIENTED_EDGE('',*,*,#237,.F.);
#185=ORIENTED_EDGE('',*,*,#261,.F.);
#186=ORIENTED_EDGE('',*,*,#215,.T.);
#187=EDGE_CURVE('',#268,#269,#324,.T.);
#188=EDGE_CURVE('',#268,#270,#325,.T.);
#189=EDGE_CURVE('',#270,#271,#326,.T.);
#190=EDGE_CURVE('',#269,#271,#327,.T.);
#191=EDGE_CURVE('',#269,#272,#328,.T.);
#192=EDGE_CURVE('',#271,#273,#329,.T.);
#193=EDGE_CURVE('',#272,#273,#330,.T.);
#194=EDGE_CURVE('',#274,#275,#331,.T.);
#195=EDGE_CURVE('',#274,#272,#332,.T.);
#196=EDGE_CURVE('',#275,#273,#333,.T.);
#197=EDGE_CURVE('',#276,#277,#334,.T.);
#198=EDGE_CURVE('',#277,#278,#14,.T.);
#199=EDGE_CURVE('',#279,#278,#335,.T.);
#200=EDGE_CURVE('',#276,#279,#15,.T.);
#201=EDGE_CURVE('',#280,#281,#336,.T.);
#202=EDGE_CURVE('',#280,#279,#337,.T.);
#203=EDGE_CURVE('',#281,#278,#338,.T.);
#204=EDGE_CURVE('',#282,#283,#339,.T.);
#205=EDGE_CURVE('',#282,#284,#340,.T.);
#206=EDGE_CURVE('',#284,#285,#341,.T.);
#207=EDGE_CURVE('',#283,#285,#342,.T.);
#208=EDGE_CURVE('',#285,#277,#343,.T.);
#209=EDGE_CURVE('',#283,#276,#344,.T.);
#210=EDGE_CURVE('',#282,#286,#345,.T.);
#211=EDGE_CURVE('',#287,#280,#346,.T.);
#212=EDGE_CURVE('',#287,#288,#347,.T.);
#213=EDGE_CURVE('',#288,#289,#348,.T.);
#214=EDGE_CURVE('',#290,#289,#349,.T.);
#215=EDGE_CURVE('',#291,#290,#350,.T.);
#216=EDGE_CURVE('',#291,#292,#351,.T.);
#217=EDGE_CURVE('',#292,#293,#352,.T.);
#218=EDGE_CURVE('',#286,#293,#353,.T.);
#219=EDGE_CURVE('',#294,#294,#16,.T.);
#220=EDGE_CURVE('',#295,#295,#17,.T.);
#221=EDGE_CURVE('',#296,#297,#354,.T.);
#222=EDGE_CURVE('',#296,#298,#355,.T.);
#223=EDGE_CURVE('',#298,#299,#356,.T.);
#224=EDGE_CURVE('',#297,#299,#357,.T.);
#225=EDGE_CURVE('',#300,#301,#358,.T.);
#226=EDGE_CURVE('',#300,#302,#359,.T.);
#227=EDGE_CURVE('',#302,#303,#360,.T.);
#228=EDGE_CURVE('',#301,#303,#361,.T.);
#229=EDGE_CURVE('',#304,#304,#18,.T.);
#230=EDGE_CURVE('',#305,#305,#19,.T.);
#231=EDGE_CURVE('',#284,#275,#362,.T.);
#232=EDGE_CURVE('',#270,#281,#363,.T.);
#233=EDGE_CURVE('',#274,#306,#364,.T.);
#234=EDGE_CURVE('',#306,#307,#365,.T.);
#235=EDGE_CURVE('',#308,#307,#366,.T.);
#236=EDGE_CURVE('',#309,#308,#367,.T.);
#237=EDGE_CURVE('',#309,#310,#368,.T.);
#238=EDGE_CURVE('',#310,#311,#369,.T.);
#239=EDGE_CURVE('',#312,#311,#370,.T.);
#240=EDGE_CURVE('',#313,#312,#371,.T.);
#241=EDGE_CURVE('',#313,#268,#372,.T.);
#242=EDGE_CURVE('',#314,#315,#373,.T.);
#243=EDGE_CURVE('',#315,#316,#374,.T.);
#244=EDGE_CURVE('',#317,#316,#375,.T.);
#245=EDGE_CURVE('',#314,#317,#376,.T.);
#246=EDGE_CURVE('',#318,#319,#377,.T.);
#247=EDGE_CURVE('',#319,#320,#378,.T.);
#248=EDGE_CURVE('',#321,#320,#379,.T.);
#249=EDGE_CURVE('',#318,#321,#380,.T.);
#250=EDGE_CURVE('',#296,#318,#381,.T.);
#251=EDGE_CURVE('',#297,#319,#382,.T.);
#252=EDGE_CURVE('',#298,#321,#383,.T.);
#253=EDGE_CURVE('',#299,#320,#384,.T.);
#254=EDGE_CURVE('',#300,#314,#385,.T.);
#255=EDGE_CURVE('',#301,#315,#386,.T.);
#256=EDGE_CURVE('',#302,#317,#387,.T.);
#257=EDGE_CURVE('',#303,#316,#388,.T.);
#258=EDGE_CURVE('',#289,#311,#389,.T.);
#259=EDGE_CURVE('',#288,#312,#390,.T.);
#260=EDGE_CURVE('',#290,#310,#391,.T.);
#261=EDGE_CURVE('',#291,#309,#392,.T.);
#262=EDGE_CURVE('',#292,#308,#393,.T.);
#263=EDGE_CURVE('',#293,#307,#394,.T.);
#264=EDGE_CURVE('',#286,#306,#395,.T.);
#265=EDGE_CURVE('',#287,#313,#396,.T.);
#266=EDGE_CURVE('',#322,#322,#20,.T.);
#267=EDGE_CURVE('',#323,#323,#21,.T.);
#268=VERTEX_POINT('',#821);
#269=VERTEX_POINT('',#822);
#270=VERTEX_POINT('',#824);
#271=VERTEX_POINT('',#826);
#272=VERTEX_POINT('',#830);
#273=VERTEX_POINT('',#832);
#274=VERTEX_POINT('',#836);
#275=VERTEX_POINT('',#837);
#276=VERTEX_POINT('',#842);
#277=VERTEX_POINT('',#843);
#278=VERTEX_POINT('',#845);
#279=VERTEX_POINT('',#847);
#280=VERTEX_POINT('',#851);
#281=VERTEX_POINT('',#852);
#282=VERTEX_POINT('',#857);
#283=VERTEX_POINT('',#858);
#284=VERTEX_POINT('',#860);
#285=VERTEX_POINT('',#862);
#286=VERTEX_POINT('',#869);
#287=VERTEX_POINT('',#871);
#288=VERTEX_POINT('',#873);
#289=VERTEX_POINT('',#875);
#290=VERTEX_POINT('',#877);
#291=VERTEX_POINT('',#879);
#292=VERTEX_POINT('',#881);
#293=VERTEX_POINT('',#883);
#294=VERTEX_POINT('',#886);
#295=VERTEX_POINT('',#888);
#296=VERTEX_POINT('',#890);
#297=VERTEX_POINT('',#891);
#298=VERTEX_POINT('',#893);
#299=VERTEX_POINT('',#895);
#300=VERTEX_POINT('',#898);
#301=VERTEX_POINT('',#899);
#302=VERTEX_POINT('',#901);
#303=VERTEX_POINT('',#903);
#304=VERTEX_POINT('',#907);
#305=VERTEX_POINT('',#909);
#306=VERTEX_POINT('',#914);
#307=VERTEX_POINT('',#916);
#308=VERTEX_POINT('',#918);
#309=VERTEX_POINT('',#920);
#310=VERTEX_POINT('',#922);
#311=VERTEX_POINT('',#924);
#312=VERTEX_POINT('',#926);
#313=VERTEX_POINT('',#928);
#314=VERTEX_POINT('',#931);
#315=VERTEX_POINT('',#932);
#316=VERTEX_POINT('',#934);
#317=VERTEX_POINT('',#936);
#318=VERTEX_POINT('',#939);
#319=VERTEX_POINT('',#940);
#320=VERTEX_POINT('',#942);
#321=VERTEX_POINT('',#944);
#322=VERTEX_POINT('',#978);
#323=VERTEX_POINT('',#982);
#324=LINE('',#820,#397);
#325=LINE('',#823,#398);
#326=LINE('',#825,#399);
#327=LINE('',#827,#400);
#328=LINE('',#829,#401);
#329=LINE('',#831,#402);
#330=LINE('',#833,#403);
#331=LINE('',#835,#404);
#332=LINE('',#838,#405);
#333=LINE('',#839,#406);
#334=LINE('',#841,#407);
#335=LINE('',#846,#408);
#336=LINE('',#850,#409);
#337=LINE('',#853,#410);
#338=LINE('',#854,#411);
#339=LINE('',#856,#412);
#340=LINE('',#859,#413);
#341=LINE('',#861,#414);
#342=LINE('',#863,#415);
#343=LINE('',#865,#416);
#344=LINE('',#866,#417);
#345=LINE('',#868,#418);
#346=LINE('',#870,#419);
#347=LINE('',#872,#420);
#348=LINE('',#874,#421);
#349=LINE('',#876,#422);
#350=LINE('',#878,#423);
#351=LINE('',#880,#424);
#352=LINE('',#882,#425);
#353=LINE('',#884,#426);
#354=LINE('',#889,#427);
#355=LINE('',#892,#428);
#356=LINE('',#894,#429);
#357=LINE('',#896,#430);
#358=LINE('',#897,#431);
#359=LINE('',#900,#432);
#360=LINE('',#902,#433);
#361=LINE('',#904,#434);
#362=LINE('',#910,#435);
#363=LINE('',#911,#436);
#364=LINE('',#913,#437);
#365=LINE('',#915,#438);
#366=LINE('',#917,#439);
#367=LINE('',#919,#440);
#368=LINE('',#921,#441);
#369=LINE('',#923,#442);
#370=LINE('',#925,#443);
#371=LINE('',#927,#444);
#372=LINE('',#929,#445);
#373=LINE('',#930,#446);
#374=LINE('',#933,#447);
#375=LINE('',#935,#448);
#376=LINE('',#937,#449);
#377=LINE('',#938,#450);
#378=LINE('',#941,#451);
#379=LINE('',#943,#452);
#380=LINE('',#945,#453);
#381=LINE('',#947,#454);
#382=LINE('',#948,#455);
#383=LINE('',#950,#456);
#384=LINE('',#952,#457);
#385=LINE('',#954,#458);
#386=LINE('',#955,#459);
#387=LINE('',#957,#460);
#388=LINE('',#959,#461);
#389=LINE('',#961,#462);
#390=LINE('',#962,#463);
#391=LINE('',#964,#464);
#392=LINE('',#966,#465);
#393=LINE('',#967,#466);
#394=LINE('',#969,#467);
#395=LINE('',#971,#468);
#396=LINE('',#974,#469);
#397=VECTOR('',#669,1.);
#398=VECTOR('',#670,1.);
#399=VECTOR('',#671,1.);
#400=VECTOR('',#672,1.);
#401=VECTOR('',#675,1.);
#402=VECTOR('',#676,1.);
#403=VECTOR('',#677,1.);
#404=VECTOR('',#680,1.);
#405=VECTOR('',#681,1.);
#406=VECTOR('',#682,1.);
#407=VECTOR('',#685,1.);
#408=VECTOR('',#688,1.);
#409=VECTOR('',#693,1.);
#410=VECTOR('',#694,1.);
#411=VECTOR('',#695,1.);
#412=VECTOR('',#698,1.);
#413=VECTOR('',#699,1.);
#414=VECTOR('',#700,1.);
#415=VECTOR('',#701,1.);
#416=VECTOR('',#704,1.);
#417=VECTOR('',#705,1.);
#418=VECTOR('',#708,1.);
#419=VECTOR('',#709,1.);
#420=VECTOR('',#710,1.);
#421=VECTOR('',#711,1.);
#422=VECTOR('',#712,1.);
#423=VECTOR('',#713,1.);
#424=VECTOR('',#714,1.);
#425=VECTOR('',#715,1.);
#426=VECTOR('',#716,1.);
#427=VECTOR('',#721,1.);
#428=VECTOR('',#722,1.);
#429=VECTOR('',#723,1.);
#430=VECTOR('',#724,1.);
#431=VECTOR('',#725,1.);
#432=VECTOR('',#726,1.);
#433=VECTOR('',#727,1.);
#434=VECTOR('',#728,1.);
#435=VECTOR('',#735,1.);
#436=VECTOR('',#736,1.);
#437=VECTOR('',#739,1.);
#438=VECTOR('',#740,1.);
#439=VECTOR('',#741,1.);
#440=VECTOR('',#742,1.);
#441=VECTOR('',#743,1.);
#442=VECTOR('',#744,1.);
#443=VECTOR('',#745,1.);
#444=VECTOR('',#746,1.);
#445=VECTOR('',#747,1.);
#446=VECTOR('',#748,1.);
#447=VECTOR('',#749,1.);
#448=VECTOR('',#750,1.);
#449=VECTOR('',#751,1.);
#450=VECTOR('',#752,1.);
#451=VECTOR('',#753,1.);
#452=VECTOR('',#754,1.);
#453=VECTOR('',#755,1.);
#454=VECTOR('',#758,1.);
#455=VECTOR('',#759,1.);
#456=VECTOR('',#762,1.);
#457=VECTOR('',#765,1.);
#458=VECTOR('',#768,1.);
#459=VECTOR('',#769,1.);
#460=VECTOR('',#772,1.);
#461=VECTOR('',#775,1.);
#462=VECTOR('',#778,1.);
#463=VECTOR('',#779,1.);
#464=VECTOR('',#782,1.);
#465=VECTOR('',#785,1.);
#466=VECTOR('',#786,1.);
#467=VECTOR('',#789,1.);
#468=VECTOR('',#792,1.);
#469=VECTOR('',#797,1.);
#470=EDGE_LOOP('',(#25,#26,#27,#28));
#471=EDGE_LOOP('',(#29,#30,#31,#32));
#472=EDGE_LOOP('',(#33,#34,#35,#36));
#473=EDGE_LOOP('',(#37,#38,#39,#40));
#474=EDGE_LOOP('',(#41,#42,#43,#44));
#475=EDGE_LOOP('',(#45,#46,#47,#48));
#476=EDGE_LOOP('',(#49,#50,#51,#52));
#477=EDGE_LOOP('',(#53,#54,#55,#56,#57,#58,#59,#60,#61,#62,#63,#64,#65));
#478=EDGE_LOOP('',(#66));
#479=EDGE_LOOP('',(#67));
#480=EDGE_LOOP('',(#68,#69,#70,#71));
#481=EDGE_LOOP('',(#72,#73,#74,#75));
#482=EDGE_LOOP('',(#76));
#483=EDGE_LOOP('',(#77));
#484=EDGE_LOOP('',(#78,#79,#80,#81,#82,#83,#84,#85,#86));
#485=EDGE_LOOP('',(#87,#88,#89,#90,#91,#92,#93,#94,#95,#96,#97,#98));
#486=EDGE_LOOP('',(#99,#100,#101,#102));
#487=EDGE_LOOP('',(#103,#104,#105,#106));
#488=EDGE_LOOP('',(#107,#108,#109,#110));
#489=EDGE_LOOP('',(#111,#112,#113,#114));
#490=EDGE_LOOP('',(#115,#116,#117,#118));
#491=EDGE_LOOP('',(#119,#120,#121,#122));
#492=EDGE_LOOP('',(#123,#124,#125,#126));
#493=EDGE_LOOP('',(#127,#128,#129,#130));
#494=EDGE_LOOP('',(#131,#132,#133,#134));
#495=EDGE_LOOP('',(#135,#136,#137,#138));
#496=EDGE_LOOP('',(#139,#140,#141,#142));
#497=EDGE_LOOP('',(#143,#144,#145,#146));
#498=EDGE_LOOP('',(#147,#148,#149,#150));
#499=EDGE_LOOP('',(#151,#152,#153,#154));
#500=EDGE_LOOP('',(#155,#156,#157,#158));
#501=EDGE_LOOP('',(#159,#160,#161,#162));
#502=EDGE_LOOP('',(#163));
#503=EDGE_LOOP('',(#164));
#504=EDGE_LOOP('',(#165));
#505=EDGE_LOOP('',(#166));
#506=EDGE_LOOP('',(#167));
#507=EDGE_LOOP('',(#168));
#508=EDGE_LOOP('',(#169));
#509=EDGE_LOOP('',(#170));
#510=EDGE_LOOP('',(#171,#172,#173,#174,#175,#176));
#511=EDGE_LOOP('',(#177,#178,#179,#180,#181,#182));
#512=EDGE_LOOP('',(#183,#184,#185,#186));
#513=FACE_BOUND('',#470,.T.);
#514=FACE_BOUND('',#471,.T.);
#515=FACE_BOUND('',#472,.T.);
#516=FACE_BOUND('',#473,.T.);
#517=FACE_BOUND('',#474,.T.);
#518=FACE_BOUND('',#475,.T.);
#519=FACE_BOUND('',#476,.T.);
#520=FACE_BOUND('',#477,.T.);
#521=FACE_BOUND('',#478,.T.);
#522=FACE_BOUND('',#479,.T.);
#523=FACE_BOUND('',#480,.T.);
#524=FACE_BOUND('',#481,.T.);
#525=FACE_BOUND('',#482,.T.);
#526=FACE_BOUND('',#483,.T.);
#527=FACE_BOUND('',#484,.T.);
#528=FACE_BOUND('',#485,.T.);
#529=FACE_BOUND('',#486,.T.);
#530=FACE_BOUND('',#487,.T.);
#531=FACE_BOUND('',#488,.T.);
#532=FACE_BOUND('',#489,.T.);
#533=FACE_BOUND('',#490,.T.);
#534=FACE_BOUND('',#491,.T.);
#535=FACE_BOUND('',#492,.T.);
#536=FACE_BOUND('',#493,.T.);
#537=FACE_BOUND('',#494,.T.);
#538=FACE_BOUND('',#495,.T.);
#539=FACE_BOUND('',#496,.T.);
#540=FACE_BOUND('',#497,.T.);
#541=FACE_BOUND('',#498,.T.);
#542=FACE_BOUND('',#499,.T.);
#543=FACE_BOUND('',#500,.T.);
#544=FACE_BOUND('',#501,.T.);
#545=FACE_BOUND('',#502,.T.);
#546=FACE_BOUND('',#503,.T.);
#547=FACE_BOUND('',#504,.T.);
#548=FACE_BOUND('',#505,.T.);
#549=FACE_BOUND('',#506,.T.);
#550=FACE_BOUND('',#507,.T.);
#551=FACE_BOUND('',#508,.T.);
#552=FACE_BOUND('',#509,.T.);
#553=FACE_BOUND('',#510,.T.);
#554=FACE_BOUND('',#511,.T.);
#555=FACE_BOUND('',#512,.T.);
#556=PLANE('',#626);
#557=PLANE('',#627);
#558=PLANE('',#628);
#559=PLANE('',#632);
#560=PLANE('',#633);
#561=PLANE('',#634);
#562=PLANE('',#635);
#563=PLANE('',#638);
#564=PLANE('',#641);
#565=PLANE('',#642);
#566=PLANE('',#643);
#567=PLANE('',#644);
#568=PLANE('',#645);
#569=PLANE('',#646);
#570=PLANE('',#647);
#571=PLANE('',#648);
#572=PLANE('',#649);
#573=PLANE('',#650);
#574=PLANE('',#651);
#575=PLANE('',#652);
#576=PLANE('',#653);
#577=PLANE('',#654);
#578=PLANE('',#655);
#579=PLANE('',#662);
#580=PLANE('',#663);
#581=PLANE('',#664);
#582=ADVANCED_FACE('',(#513),#556,.F.);
#583=ADVANCED_FACE('',(#514),#557,.F.);
#584=ADVANCED_FACE('',(#515),#558,.T.);
#585=ADVANCED_FACE('',(#516),#22,.T.);
#586=ADVANCED_FACE('',(#517),#559,.T.);
#587=ADVANCED_FACE('',(#518),#560,.F.);
#588=ADVANCED_FACE('',(#519),#561,.F.);
#589=ADVANCED_FACE('',(#520,#521,#522,#523,#524),#562,.T.);
#590=ADVANCED_FACE('',(#525,#526,#527),#563,.F.);
#591=ADVANCED_FACE('',(#528,#529,#530),#564,.F.);
#592=ADVANCED_FACE('',(#531),#565,.T.);
#593=ADVANCED_FACE('',(#532),#566,.F.);
#594=ADVANCED_FACE('',(#533),#567,.F.);
#595=ADVANCED_FACE('',(#534),#568,.T.);
#596=ADVANCED_FACE('',(#535),#569,.F.);
#597=ADVANCED_FACE('',(#536),#570,.F.);
#598=ADVANCED_FACE('',(#537),#571,.F.);
#599=ADVANCED_FACE('',(#538),#572,.T.);
#600=ADVANCED_FACE('',(#539),#573,.F.);
#601=ADVANCED_FACE('',(#540),#574,.F.);
#602=ADVANCED_FACE('',(#541),#575,.T.);
#603=ADVANCED_FACE('',(#542),#576,.T.);
#604=ADVANCED_FACE('',(#543),#577,.F.);
#605=ADVANCED_FACE('',(#544),#578,.T.);
#606=ADVANCED_FACE('',(#545,#546),#23,.F.);
#607=ADVANCED_FACE('',(#547,#548),#12,.F.);
#608=ADVANCED_FACE('',(#549,#550),#24,.F.);
#609=ADVANCED_FACE('',(#551,#552),#13,.F.);
#610=ADVANCED_FACE('',(#553),#579,.F.);
#611=ADVANCED_FACE('',(#554),#580,.F.);
#612=ADVANCED_FACE('',(#555),#581,.F.);
#613=CLOSED_SHELL('',(#582,#583,#584,#585,#586,#587,#588,#589,#590,#591,#592,#593,#594,#595,#596,#597,#598,#599,#600,#601,#602,#603,#604,#605,#606,#607,#608,#609,#610,#611,#612));
#614=STYLED_ITEM('',(#615),#622);
#615=PRESENTATION_STYLE_ASSIGNMENT((#616));
#616=SURFACE_STYLE_USAGE(.BOTH.,#617);
#617=SURFACE_SIDE_STYLE('',(#618));
#618=SURFACE_STYLE_FILL_AREA(#619);
#619=FILL_AREA_STYLE('',(#620));
#620=FILL_AREA_STYLE_COLOUR('',#621);
#621=COLOUR_RGB('',0.917647058823529,0.917647058823529,0.917647058823529);
#622=MANIFOLD_SOLID_BREP('rightFront',#613);
#623=SHAPE_DEFINITION_REPRESENTATION(#993,#624);
#624=SHAPE_REPRESENTATION('rightFront',(#625),#988);
#625=AXIS2_PLACEMENT_3D('',#818,#665,#666);
#626=AXIS2_PLACEMENT_3D('',#819,#667,#668);
#627=AXIS2_PLACEMENT_3D('',#828,#673,#674);
#628=AXIS2_PLACEMENT_3D('',#834,#678,#679);
#629=AXIS2_PLACEMENT_3D('',#840,#683,#684);
#630=AXIS2_PLACEMENT_3D('',#844,#686,#687);
#631=AXIS2_PLACEMENT_3D('',#848,#689,#690);
#632=AXIS2_PLACEMENT_3D('',#849,#691,#692);
#633=AXIS2_PLACEMENT_3D('',#855,#696,#697);
#634=AXIS2_PLACEMENT_3D('',#864,#702,#703);
#635=AXIS2_PLACEMENT_3D('',#867,#706,#707);
#636=AXIS2_PLACEMENT_3D('',#885,#717,#718);
#637=AXIS2_PLACEMENT_3D('',#887,#719,#720);
#638=AXIS2_PLACEMENT_3D('',#905,#729,#730);
#639=AXIS2_PLACEMENT_3D('',#906,#731,#732);
#640=AXIS2_PLACEMENT_3D('',#908,#733,#734);
#641=AXIS2_PLACEMENT_3D('',#912,#737,#738);
#642=AXIS2_PLACEMENT_3D('',#946,#756,#757);
#643=AXIS2_PLACEMENT_3D('',#949,#760,#761);
#644=AXIS2_PLACEMENT_3D('',#951,#763,#764);
#645=AXIS2_PLACEMENT_3D('',#953,#766,#767);
#646=AXIS2_PLACEMENT_3D('',#956,#770,#771);
#647=AXIS2_PLACEMENT_3D('',#958,#773,#774);
#648=AXIS2_PLACEMENT_3D('',#960,#776,#777);
#649=AXIS2_PLACEMENT_3D('',#963,#780,#781);
#650=AXIS2_PLACEMENT_3D('',#965,#783,#784);
#651=AXIS2_PLACEMENT_3D('',#968,#787,#788);
#652=AXIS2_PLACEMENT_3D('',#970,#790,#791);
#653=AXIS2_PLACEMENT_3D('',#972,#793,#794);
#654=AXIS2_PLACEMENT_3D('',#973,#795,#796);
#655=AXIS2_PLACEMENT_3D('',#975,#798,#799);
#656=AXIS2_PLACEMENT_3D('',#976,#800,#801);
#657=AXIS2_PLACEMENT_3D('',#977,#802,#803);
#658=AXIS2_PLACEMENT_3D('',#979,#804,#805);
#659=AXIS2_PLACEMENT_3D('',#980,#806,#807);
#660=AXIS2_PLACEMENT_3D('',#981,#808,#809);
#661=AXIS2_PLACEMENT_3D('',#983,#810,#811);
#662=AXIS2_PLACEMENT_3D('',#984,#812,#813);
#663=AXIS2_PLACEMENT_3D('',#985,#814,#815);
#664=AXIS2_PLACEMENT_3D('',#986,#816,#817);
#665=DIRECTION('',(0.,0.,1.));
#666=DIRECTION('',(1.,0.,0.));
#667=DIRECTION('',(0.,0.707106781186548,0.707106781186548));
#668=DIRECTION('',(0.,-0.707106781186548,0.707106781186548));
#669=DIRECTION('',(1.,0.,0.));
#670=DIRECTION('',(-2.16829372056234E-17,0.707106781186548,-0.707106781186548));
#671=DIRECTION('',(1.,0.,0.));
#672=DIRECTION('',(0.,0.707106781186548,-0.707106781186548));
#673=DIRECTION('',(1.,0.,0.));
#674=DIRECTION('',(0.,0.,-1.));
#675=DIRECTION('',(0.,-0.707106781186548,-0.707106781186548));
#676=DIRECTION('',(0.,-0.707106781186548,-0.707106781186548));
#677=DIRECTION('',(0.,0.707106781186548,-0.707106781186548));
#678=DIRECTION('',(0.,0.707106781186548,0.707106781186548));
#679=DIRECTION('',(0.,-0.707106781186548,0.707106781186548));
#680=DIRECTION('',(-2.16829372056234E-17,0.707106781186548,-0.707106781186548));
#681=DIRECTION('',(1.,0.,0.));
#682=DIRECTION('',(1.,0.,0.));
#683=DIRECTION('',(0.,0.707106781186548,-0.707106781186548));
#684=DIRECTION('',(0.,0.707106781186548,0.707106781186548));
#685=DIRECTION('',(0.,0.707106781186548,-0.707106781186548));
#686=DIRECTION('',(0.,-0.707106781186548,0.707106781186548));
#687=DIRECTION('',(0.,-0.707106781186548,-0.707106781186548));
#688=DIRECTION('',(0.,0.707106781186548,-0.707106781186548));
#689=DIRECTION('',(0.,-0.707106781186548,0.707106781186548));
#690=DIRECTION('',(0.,-0.707106781186548,-0.707106781186548));
#691=DIRECTION('',(0.,0.707106781186548,0.707106781186548));
#692=DIRECTION('',(0.,-0.707106781186548,0.707106781186548));
#693=DIRECTION('',(-2.16829372056234E-17,0.707106781186548,-0.707106781186548));
#694=DIRECTION('',(1.,0.,0.));
#695=DIRECTION('',(1.,0.,0.));
#696=DIRECTION('',(0.,0.707106781186548,0.707106781186548));
#697=DIRECTION('',(0.,-0.707106781186548,0.707106781186548));
#698=DIRECTION('',(1.,0.,0.));
#699=DIRECTION('',(-2.16829372056234E-17,0.707106781186548,-0.707106781186548));
#700=DIRECTION('',(1.,0.,0.));
#701=DIRECTION('',(0.,0.707106781186548,-0.707106781186548));
#702=DIRECTION('',(-1.,0.,0.));
#703=DIRECTION('',(0.,0.,1.));
#704=DIRECTION('',(0.,0.707106781186548,0.707106781186548));
#705=DIRECTION('',(0.,0.707106781186548,0.707106781186548));
#706=DIRECTION('',(0.,-0.707106781186548,0.707106781186548));
#707=DIRECTION('',(1.,0.,0.));
#708=DIRECTION('',(7.12439365327628E-17,0.707106781186548,0.707106781186548));
#709=DIRECTION('',(7.12439365327628E-17,0.707106781186548,0.707106781186548));
#710=DIRECTION('',(1.,0.,0.));
#711=DIRECTION('',(-1.94693992814456E-16,-0.707106781186548,-0.707106781186548));
#712=DIRECTION('',(1.,0.,0.));
#713=DIRECTION('',(7.12439365327628E-17,0.707106781186548,0.707106781186548));
#714=DIRECTION('',(1.,7.11061185755138E-16,7.11061185755138E-16));
#715=DIRECTION('',(6.90437204368873E-16,-0.707106781186548,-0.707106781186548));
#716=DIRECTION('',(1.,-4.07586474077711E-16,-4.07586474077711E-16));
#717=DIRECTION('',(0.,0.707106781186548,-0.707106781186548));
#718=DIRECTION('',(0.,0.707106781186548,0.707106781186548));
#719=DIRECTION('',(0.,0.707106781186548,-0.707106781186548));
#720=DIRECTION('',(0.,0.707106781186548,0.707106781186548));
#721=DIRECTION('',(0.,-0.707106781186548,-0.707106781186548));
#722=DIRECTION('',(1.,0.,0.));
#723=DIRECTION('',(0.,-0.707106781186548,-0.707106781186548));
#724=DIRECTION('',(1.,0.,0.));
#725=DIRECTION('',(-1.82602471155453E-16,-0.707106781186548,-0.707106781186548));
#726=DIRECTION('',(1.,0.,0.));
#727=DIRECTION('',(0.,-0.707106781186548,-0.707106781186548));
#728=DIRECTION('',(1.,0.,0.));
#729=DIRECTION('',(0.,-0.707106781186548,0.707106781186548));
#730=DIRECTION('',(1.,0.,0.));
#731=DIRECTION('',(0.,0.707106781186548,-0.707106781186548));
#732=DIRECTION('',(0.,0.707106781186548,0.707106781186548));
#733=DIRECTION('',(0.,0.707106781186548,-0.707106781186548));
#734=DIRECTION('',(0.,0.707106781186548,0.707106781186548));
#735=DIRECTION('',(7.12439365327628E-17,0.707106781186548,0.707106781186548));
#736=DIRECTION('',(7.12439365327628E-17,0.707106781186548,0.707106781186548));
#737=DIRECTION('',(0.,-0.707106781186548,0.707106781186548));
#738=DIRECTION('',(1.,0.,0.));
#739=DIRECTION('',(7.12439365327628E-17,0.707106781186548,0.707106781186548));
#740=DIRECTION('',(1.,-4.07586474077711E-16,-4.07586474077711E-16));
#741=DIRECTION('',(6.90437204368873E-16,-0.707106781186548,-0.707106781186548));
#742=DIRECTION('',(1.,7.11061185755138E-16,7.11061185755138E-16));
#743=DIRECTION('',(7.12439365327628E-17,0.707106781186548,0.707106781186548));
#744=DIRECTION('',(1.,0.,0.));
#745=DIRECTION('',(-1.94693992814456E-16,-0.707106781186548,-0.707106781186548));
#746=DIRECTION('',(1.,0.,0.));
#747=DIRECTION('',(7.12439365327628E-17,0.707106781186548,0.707106781186548));
#748=DIRECTION('',(-1.82602471155453E-16,-0.707106781186548,-0.707106781186548));
#749=DIRECTION('',(1.,0.,0.));
#750=DIRECTION('',(0.,-0.707106781186548,-0.707106781186548));
#751=DIRECTION('',(1.,0.,0.));
#752=DIRECTION('',(0.,-0.707106781186548,-0.707106781186548));
#753=DIRECTION('',(1.,0.,0.));
#754=DIRECTION('',(0.,-0.707106781186548,-0.707106781186548));
#755=DIRECTION('',(1.,0.,0.));
#756=DIRECTION('',(1.,0.,0.));
#757=DIRECTION('',(0.,0.,-1.));
#758=DIRECTION('',(0.,0.707106781186548,-0.707106781186548));
#759=DIRECTION('',(0.,0.707106781186548,-0.707106781186548));
#760=DIRECTION('',(0.,0.707106781186548,0.707106781186548));
#761=DIRECTION('',(0.,-0.707106781186548,0.707106781186548));
#762=DIRECTION('',(0.,0.707106781186548,-0.707106781186548));
#763=DIRECTION('',(1.,0.,0.));
#764=DIRECTION('',(0.,0.,-1.));
#765=DIRECTION('',(0.,0.707106781186548,-0.707106781186548));
#766=DIRECTION('',(1.,-1.29119445615442E-16,-1.29119445615442E-16));
#767=DIRECTION('',(-1.29119445615442E-16,0.,-1.));
#768=DIRECTION('',(0.,0.707106781186548,-0.707106781186548));
#769=DIRECTION('',(0.,0.707106781186548,-0.707106781186548));
#770=DIRECTION('',(0.,0.707106781186548,0.707106781186548));
#771=DIRECTION('',(0.,-0.707106781186548,0.707106781186548));
#772=DIRECTION('',(0.,0.707106781186548,-0.707106781186548));
#773=DIRECTION('',(1.,0.,0.));
#774=DIRECTION('',(0.,0.,-1.));
#775=DIRECTION('',(0.,0.707106781186548,-0.707106781186548));
#776=DIRECTION('',(1.,-1.37669442575387E-16,-1.37669442575387E-16));
#777=DIRECTION('',(-1.37669442575387E-16,0.,-1.));
#778=DIRECTION('',(0.,0.707106781186548,-0.707106781186548));
#779=DIRECTION('',(0.,0.707106781186548,-0.707106781186548));
#780=DIRECTION('',(0.,0.707106781186548,0.707106781186548));
#781=DIRECTION('',(0.,-0.707106781186548,0.707106781186548));
#782=DIRECTION('',(-2.16829372056234E-17,0.707106781186548,-0.707106781186548));
#783=DIRECTION('',(-1.00559237257201E-15,0.707106781186548,0.707106781186548));
#784=DIRECTION('',(0.,-0.707106781186548,0.707106781186548));
#785=DIRECTION('',(-2.16829372056234E-17,0.707106781186548,-0.707106781186548));
#786=DIRECTION('',(0.,0.707106781186548,-0.707106781186548));
#787=DIRECTION('',(1.,4.88212829192712E-16,4.88212829192712E-16));
#788=DIRECTION('',(4.88212829192712E-16,0.,-1.));
#789=DIRECTION('',(0.,0.707106781186548,-0.707106781186548));
#790=DIRECTION('',(5.7641431948053E-16,0.707106781186548,0.707106781186548));
#791=DIRECTION('',(0.,-0.707106781186548,0.707106781186548));
#792=DIRECTION('',(-2.16829372056234E-17,0.707106781186548,-0.707106781186548));
#793=DIRECTION('',(0.,0.707106781186548,0.707106781186548));
#794=DIRECTION('',(0.,-0.707106781186548,0.707106781186548));
#795=DIRECTION('',(0.,0.707106781186548,0.707106781186548));
#796=DIRECTION('',(0.,-0.707106781186548,0.707106781186548));
#797=DIRECTION('',(-2.16829372056234E-17,0.707106781186548,-0.707106781186548));
#798=DIRECTION('',(0.,0.707106781186548,0.707106781186548));
#799=DIRECTION('',(0.,-0.707106781186548,0.707106781186548));
#800=DIRECTION('',(0.,0.707106781186548,-0.707106781186548));
#801=DIRECTION('',(0.,0.707106781186548,0.707106781186548));
#802=DIRECTION('',(0.,0.707106781186548,-0.707106781186548));
#803=DIRECTION('',(0.,0.707106781186548,0.707106781186548));
#804=DIRECTION('',(0.,-0.707106781186548,0.707106781186548));
#805=DIRECTION('',(0.,-0.707106781186548,-0.707106781186548));
#806=DIRECTION('',(0.,0.707106781186548,-0.707106781186548));
#807=DIRECTION('',(0.,0.707106781186548,0.707106781186548));
#808=DIRECTION('',(0.,0.707106781186548,-0.707106781186548));
#809=DIRECTION('',(0.,0.707106781186548,0.707106781186548));
#810=DIRECTION('',(0.,-0.707106781186548,0.707106781186548));
#811=DIRECTION('',(0.,-0.707106781186548,-0.707106781186548));
#812=DIRECTION('',(1.,-3.50449187066021E-17,-6.57092225748791E-17));
#813=DIRECTION('',(3.50449187066021E-17,1.,-2.30277436341066E-33));
#814=DIRECTION('',(1.,-3.50449187066021E-17,-6.57092225748791E-17));
#815=DIRECTION('',(3.50449187066021E-17,1.,-2.30277436341066E-33));
#816=DIRECTION('',(1.,-3.50449187066021E-17,-6.57092225748791E-17));
#817=DIRECTION('',(3.50449187066021E-17,1.,-2.30277436341066E-33));
#818=CARTESIAN_POINT('',(0.,0.,0.));
#819=CARTESIAN_POINT('',(-0.0807491996797437,-0.0239118830920368,0.0512523881554251));
#820=CARTESIAN_POINT('',(-0.0807491996797437,-0.0196692424049175,0.0470097474683058));
#821=CARTESIAN_POINT('',(1.16060914210245E-17,-0.0196692424049175,0.0470097474683059));
#822=CARTESIAN_POINT('',(0.161498399359488,-0.0196692424049175,0.0470097474683059));
#823=CARTESIAN_POINT('',(1.38777878078145E-17,-0.0239118830920368,0.0512523881554251));
#824=CARTESIAN_POINT('',(1.35525437497301E-17,-0.0133052813742386,0.0406457864376269));
#825=CARTESIAN_POINT('',(-0.0807491996797437,-0.0133052813742386,0.0406457864376269));
#826=CARTESIAN_POINT('',(0.161498399359488,-0.0133052813742385,0.040645786437627));
#827=CARTESIAN_POINT('',(0.161498399359488,-0.0239118830920367,0.0512523881554252));
#828=CARTESIAN_POINT('',(0.161498399359488,-0.0600621356237309,0.0151021356237309));
#829=CARTESIAN_POINT('',(0.161498399359488,-0.0558194949366117,0.0108594949366117));
#830=CARTESIAN_POINT('',(0.161498399359488,-0.0919697474683058,-0.0252907575950825));
#831=CARTESIAN_POINT('',(0.161498399359488,-0.0494555339059327,0.00449553390593276));
#832=CARTESIAN_POINT('',(0.161498399359488,-0.0856057864376269,-0.0316547186257614));
#833=CARTESIAN_POINT('',(0.161498399359488,-0.0962123881554251,-0.0210481169079633));
#834=CARTESIAN_POINT('',(-0.0807491996797438,-0.0962123881554251,-0.0210481169079633));
#835=CARTESIAN_POINT('',(0.,-0.0962123881554251,-0.0210481169079633));
#836=CARTESIAN_POINT('',(4.32151611914539E-18,-0.0919697474683059,-0.0252907575950825));
#837=CARTESIAN_POINT('',(-3.25244058084352E-19,-0.0856057864376269,-0.0316547186257614));
#838=CARTESIAN_POINT('',(-0.0807491996797438,-0.0919697474683058,-0.0252907575950825));
#839=CARTESIAN_POINT('',(-0.0807491996797438,-0.0856057864376269,-0.0316547186257614));
#840=CARTESIAN_POINT('',(0.1675,-0.0203763491861041,0.0547879220613578));
#841=CARTESIAN_POINT('',(0.1695,-0.0203763491861041,0.0547879220613579));
#842=CARTESIAN_POINT('',(0.1695,-0.0203763491861041,0.0547879220613579));
#843=CARTESIAN_POINT('',(0.1695,-0.00976974746830583,0.0441813203435596));
#844=CARTESIAN_POINT('',(0.1675,-0.00976974746830586,0.0441813203435596));
#845=CARTESIAN_POINT('',(0.1675,-0.00835553390593272,0.0455955339059328));
#846=CARTESIAN_POINT('',(0.1675,-0.018962135623731,0.056202135623731));
#847=CARTESIAN_POINT('',(0.1675,-0.018962135623731,0.056202135623731));
#848=CARTESIAN_POINT('',(0.1675,-0.0203763491861041,0.0547879220613578));
#849=CARTESIAN_POINT('',(-0.0837491996797438,-0.018962135623731,0.056202135623731));
#850=CARTESIAN_POINT('',(0.,-0.018962135623731,0.056202135623731));
#851=CARTESIAN_POINT('',(1.22349244132758E-17,-0.0189621356237309,0.056202135623731));
#852=CARTESIAN_POINT('',(-3.25244058084352E-19,-0.00835553390593272,0.0455955339059328));
#853=CARTESIAN_POINT('',(-0.0837491996797438,-0.018962135623731,0.056202135623731));
#854=CARTESIAN_POINT('',(-0.0837491996797438,-0.00835553390593272,0.0455955339059328));
#855=CARTESIAN_POINT('',(-0.0847491996797438,-0.101162135623731,-0.025997864376269));
#856=CARTESIAN_POINT('',(-0.0847491996797438,-0.101162135623731,-0.025997864376269));
#857=CARTESIAN_POINT('',(3.95293399993799E-18,-0.101162135623731,-0.025997864376269));
#858=CARTESIAN_POINT('',(0.1695,-0.101162135623731,-0.025997864376269));
#859=CARTESIAN_POINT('',(0.,-0.101162135623731,-0.025997864376269));
#860=CARTESIAN_POINT('',(-3.25244058084352E-19,-0.0905555339059328,-0.0366044660940673));
#861=CARTESIAN_POINT('',(-0.0847491996797438,-0.0905555339059328,-0.0366044660940672));
#862=CARTESIAN_POINT('',(0.1695,-0.0905555339059328,-0.0366044660940673));
#863=CARTESIAN_POINT('',(0.1695,-0.101162135623731,-0.025997864376269));
#864=CARTESIAN_POINT('',(0.1695,-0.0607692424049175,0.0143950288425444));
#865=CARTESIAN_POINT('',(0.1695,-0.0501626406871193,0.0037884271247462));
#866=CARTESIAN_POINT('',(0.1695,-0.0607692424049175,0.0143950288425444));
#867=CARTESIAN_POINT('',(8.00320256233444E-07,-0.0600621356237309,0.0151021356237309));
#868=CARTESIAN_POINT('',(8.09392920660687E-18,-0.0600621356237309,0.0151021356237309));
#869=CARTESIAN_POINT('',(6.93889390390723E-18,-0.0814769015539307,-0.0063126303064688));
#870=CARTESIAN_POINT('',(8.09392920660687E-18,-0.0600621356237309,0.0151021356237309));
#871=CARTESIAN_POINT('',(1.12757025938492E-17,-0.0314637835151092,0.0437004877323528));
#872=CARTESIAN_POINT('',(-0.0071575,-0.0314637835151092,0.0437004877323528));
#873=CARTESIAN_POINT('',(0.014315,-0.0314637835151092,0.0437004877323528));
#874=CARTESIAN_POINT('',(0.014315,-0.0440644263558534,0.0310998448916085));
#875=CARTESIAN_POINT('',(0.014315,-0.0566650691965977,0.0184992020508642));
#876=CARTESIAN_POINT('',(-0.0071575,-0.0566650691965977,0.0184992020508642));
#877=CARTESIAN_POINT('',(8.43619771734883E-18,-0.0566650691965977,0.0184992020508642));
#878=CARTESIAN_POINT('',(8.09392920660687E-18,-0.0600621356237309,0.0151021356237309));
#879=CARTESIAN_POINT('',(6.93889390390723E-18,-0.0672640552520812,0.00790021599538089));
#880=CARTESIAN_POINT('',(-0.0489449999999993,-0.0672640552520811,0.00790021599538078));
#881=CARTESIAN_POINT('',(0.09771,-0.067264055252081,0.00790021599538089));
#882=CARTESIAN_POINT('',(0.09771,-0.0743704784030059,0.000793792844456025));
#883=CARTESIAN_POINT('',(0.09771,-0.0814769015539307,-0.00631263030646883));
#884=CARTESIAN_POINT('',(-0.0489449999999993,-0.0814769015539307,-0.00631263030646878));
#885=CARTESIAN_POINT('',(0.08475,-0.0217905627484771,0.0533737084989848));
#886=CARTESIAN_POINT('',(0.08475,-0.0198813744392735,0.0552828968081885));
#887=CARTESIAN_POINT('',(0.08475,-0.0983337084989848,-0.0231694372515228));
#888=CARTESIAN_POINT('',(0.08475,-0.0964245201897811,-0.0212602489423192));
#889=CARTESIAN_POINT('',(0.091,-0.0444179797464467,0.0307462915010153));
#890=CARTESIAN_POINT('',(0.091,-0.02426543648263,0.0508988347648319));
#891=CARTESIAN_POINT('',(0.091,-0.0645705230102633,0.0105937482371986));
#892=CARTESIAN_POINT('',(0.1235,-0.02426543648263,0.0508988347648319));
#893=CARTESIAN_POINT('',(0.156,-0.02426543648263,0.0508988347648319));
#894=CARTESIAN_POINT('',(0.156,-0.0444179797464467,0.0307462915010153));
#895=CARTESIAN_POINT('',(0.156,-0.0645705230102633,0.0105937482371987));
#896=CARTESIAN_POINT('',(0.1235,-0.0645705230102633,0.0105937482371986));
#897=CARTESIAN_POINT('',(0.022,-0.0444179797464467,0.0307462915010153));
#898=CARTESIAN_POINT('',(0.022,-0.0242654364826301,0.0508988347648318));
#899=CARTESIAN_POINT('',(0.022,-0.0645705230102633,0.0105937482371986));
#900=CARTESIAN_POINT('',(0.0545,-0.0242654364826301,0.0508988347648318));
#901=CARTESIAN_POINT('',(0.087,-0.0242654364826301,0.0508988347648318));
#902=CARTESIAN_POINT('',(0.087,-0.0444179797464467,0.0307462915010153));
#903=CARTESIAN_POINT('',(0.087,-0.0645705230102633,0.0105937482371986));
#904=CARTESIAN_POINT('',(0.0545,-0.0645705230102633,0.0105937482371986));
#905=CARTESIAN_POINT('',(8.00320256233444E-07,-0.0494555339059327,0.00449553390593275));
#906=CARTESIAN_POINT('',(0.08475,-0.0111839610306789,0.0427671067811866));
#907=CARTESIAN_POINT('',(0.08475,-0.00998187950266179,0.0439691883092037));
#908=CARTESIAN_POINT('',(0.08475,-0.0877271067811865,-0.0337760389693211));
#909=CARTESIAN_POINT('',(0.08475,-0.0865250252531694,-0.032573957441304));
#910=CARTESIAN_POINT('',(7.76856267574282E-18,-0.0494555339059327,0.00449553390593275));
#911=CARTESIAN_POINT('',(7.76856267574282E-18,-0.0494555339059327,0.00449553390593275));
#912=CARTESIAN_POINT('',(8.00320256233444E-07,-0.0558194949366117,0.0108594949366117));
#913=CARTESIAN_POINT('',(7.96380377008493E-18,-0.0558194949366117,0.0108594949366117));
#914=CARTESIAN_POINT('',(6.80879628067349E-18,-0.0772342608668114,-0.0105552709935881));
#915=CARTESIAN_POINT('',(-0.0489449999999993,-0.0772342608668114,-0.0105552709935881));
#916=CARTESIAN_POINT('',(0.09771,-0.0772342608668115,-0.0105552709935881));
#917=CARTESIAN_POINT('',(0.09771,-0.0701278377158866,-0.00344884784266326));
#918=CARTESIAN_POINT('',(0.09771,-0.0630214145649617,0.0036575753082616));
#919=CARTESIAN_POINT('',(-0.0489449999999993,-0.0630214145649618,0.00365757530826149));
#920=CARTESIAN_POINT('',(6.93889390390723E-18,-0.0630214145649618,0.00365757530826153));
#921=CARTESIAN_POINT('',(7.96380377008493E-18,-0.0558194949366117,0.0108594949366117));
#922=CARTESIAN_POINT('',(8.30607228082689E-18,-0.0524224285094784,0.0142565613637449));
#923=CARTESIAN_POINT('',(-0.0071575,-0.0524224285094784,0.0142565613637449));
#924=CARTESIAN_POINT('',(0.014315,-0.0524224285094784,0.0142565613637449));
#925=CARTESIAN_POINT('',(0.014315,-0.0398217856687341,0.0268572042044892));
#926=CARTESIAN_POINT('',(0.014315,-0.0272211428279899,0.0394578470452335));
#927=CARTESIAN_POINT('',(-0.0071575,-0.0272211428279899,0.0394578470452335));
#928=CARTESIAN_POINT('',(1.12757025938492E-17,-0.0272211428279899,0.0394578470452335));
#929=CARTESIAN_POINT('',(7.96380377008493E-18,-0.0558194949366117,0.0108594949366117));
#930=CARTESIAN_POINT('',(0.022,-0.0401753390593274,0.026503650813896));
#931=CARTESIAN_POINT('',(0.022,-0.0200227957955108,0.0466561940777126));
#932=CARTESIAN_POINT('',(0.022,-0.060327882323144,0.00635110755007933));
#933=CARTESIAN_POINT('',(0.0545,-0.060327882323144,0.00635110755007933));
#934=CARTESIAN_POINT('',(0.087,-0.060327882323144,0.00635110755007933));
#935=CARTESIAN_POINT('',(0.087,-0.0401753390593274,0.026503650813896));
#936=CARTESIAN_POINT('',(0.087,-0.0200227957955108,0.0466561940777126));
#937=CARTESIAN_POINT('',(0.0545,-0.0200227957955108,0.0466561940777126));
#938=CARTESIAN_POINT('',(0.091,-0.0401753390593273,0.026503650813896));
#939=CARTESIAN_POINT('',(0.091,-0.0200227957955108,0.0466561940777126));
#940=CARTESIAN_POINT('',(0.091,-0.060327882323144,0.00635110755007937));
#941=CARTESIAN_POINT('',(0.1235,-0.060327882323144,0.00635110755007937));
#942=CARTESIAN_POINT('',(0.156,-0.060327882323144,0.00635110755007937));
#943=CARTESIAN_POINT('',(0.156,-0.0401753390593273,0.026503650813896));
#944=CARTESIAN_POINT('',(0.156,-0.0200227957955108,0.0466561940777126));
#945=CARTESIAN_POINT('',(0.1235,-0.0200227957955108,0.0466561940777126));
#946=CARTESIAN_POINT('',(0.091,-0.0444179797464467,0.0307462915010153));
#947=CARTESIAN_POINT('',(0.091,-0.02426543648263,0.0508988347648319));
#948=CARTESIAN_POINT('',(0.091,-0.0645705230102633,0.0105937482371986));
#949=CARTESIAN_POINT('',(0.1235,-0.02426543648263,0.0508988347648319));
#950=CARTESIAN_POINT('',(0.156,-0.02426543648263,0.0508988347648319));
#951=CARTESIAN_POINT('',(0.156,-0.0444179797464467,0.0307462915010153));
#952=CARTESIAN_POINT('',(0.156,-0.0645705230102633,0.0105937482371987));
#953=CARTESIAN_POINT('',(0.022,-0.0444179797464467,0.0307462915010153));
#954=CARTESIAN_POINT('',(0.022,-0.0242654364826301,0.0508988347648318));
#955=CARTESIAN_POINT('',(0.022,-0.0645705230102633,0.0105937482371986));
#956=CARTESIAN_POINT('',(0.0545,-0.0242654364826301,0.0508988347648318));
#957=CARTESIAN_POINT('',(0.087,-0.0242654364826301,0.0508988347648318));
#958=CARTESIAN_POINT('',(0.087,-0.0444179797464467,0.0307462915010153));
#959=CARTESIAN_POINT('',(0.087,-0.0645705230102633,0.0105937482371986));
#960=CARTESIAN_POINT('',(0.014315,-0.0440644263558534,0.0310998448916085));
#961=CARTESIAN_POINT('',(0.014315,-0.0566650691965977,0.0184992020508642));
#962=CARTESIAN_POINT('',(0.014315,-0.0314637835151092,0.0437004877323528));
#963=CARTESIAN_POINT('',(-0.0071575,-0.0566650691965977,0.0184992020508642));
#964=CARTESIAN_POINT('',(8.67361737988404E-18,-0.0566650691965977,0.0184992020508642));
#965=CARTESIAN_POINT('',(-0.0489449999999993,-0.0672640552520811,0.00790021599538078));
#966=CARTESIAN_POINT('',(6.93889390390723E-18,-0.0672640552520811,0.00790021599538082));
#967=CARTESIAN_POINT('',(0.09771,-0.067264055252081,0.00790021599538089));
#968=CARTESIAN_POINT('',(0.09771,-0.0743704784030059,0.000793792844456025));
#969=CARTESIAN_POINT('',(0.09771,-0.0814769015539307,-0.00631263030646883));
#970=CARTESIAN_POINT('',(-0.0489449999999993,-0.0814769015539307,-0.00631263030646878));
#971=CARTESIAN_POINT('',(6.93889390390723E-18,-0.0814769015539307,-0.0063126303064688));
#972=CARTESIAN_POINT('',(0.0545,-0.0645705230102633,0.0105937482371986));
#973=CARTESIAN_POINT('',(-0.0071575,-0.0314637835151092,0.0437004877323528));
#974=CARTESIAN_POINT('',(1.12757025938492E-17,-0.0314637835151092,0.0437004877323528));
#975=CARTESIAN_POINT('',(0.1235,-0.0645705230102633,0.0105937482371986));
#976=CARTESIAN_POINT('',(0.08475,-0.0983337084989848,-0.0231694372515228));
#977=CARTESIAN_POINT('',(0.08475,-0.0976266017177982,-0.0238765440327094));
#978=CARTESIAN_POINT('',(0.08475,-0.0964245201897811,-0.0226744625046923));
#979=CARTESIAN_POINT('',(0.08475,-0.0983337084989848,-0.0231694372515228));
#980=CARTESIAN_POINT('',(0.08475,-0.0217905627484771,0.0533737084989848));
#981=CARTESIAN_POINT('',(0.08475,-0.0210834559672906,0.0526666017177982));
#982=CARTESIAN_POINT('',(0.08475,-0.0198813744392735,0.0538686832458153));
#983=CARTESIAN_POINT('',(0.08475,-0.0217905627484771,0.0533737084989848));
#984=CARTESIAN_POINT('',(6.93889390390723E-18,-0.0530788745030457,-0.00619887450304573));
#985=CARTESIAN_POINT('',(6.93889390390723E-18,-0.0530788745030457,-0.00619887450304573));
#986=CARTESIAN_POINT('',(6.93889390390723E-18,-0.0530788745030457,-0.00619887450304573));
#987=MECHANICAL_DESIGN_GEOMETRIC_PRESENTATION_REPRESENTATION('',(#614),#988);
#988=(
GEOMETRIC_REPRESENTATION_CONTEXT(3)
GLOBAL_UNCERTAINTY_ASSIGNED_CONTEXT((#989))
GLOBAL_UNIT_ASSIGNED_CONTEXT((#992,#991,#990))
REPRESENTATION_CONTEXT('rightFront','TOP_LEVEL_ASSEMBLY_PART')
);
#989=UNCERTAINTY_MEASURE_WITH_UNIT(LENGTH_MEASURE(1.E-08),#992,'DISTANCE_ACCURACY_VALUE','Maximum Tolerance applied to model');
#990=(
NAMED_UNIT(*)
SI_UNIT($,.STERADIAN.)
SOLID_ANGLE_UNIT()
);
#991=(
NAMED_UNIT(*)
PLANE_ANGLE_UNIT()
SI_UNIT($,.RADIAN.)
);
#992=(
LENGTH_UNIT()
NAMED_UNIT(*)
SI_UNIT($,.METRE.)
);
#993=PRODUCT_DEFINITION_SHAPE('','',#994);
#994=PRODUCT_DEFINITION('','',#996,#995);
#995=PRODUCT_DEFINITION_CONTEXT('',#1002,'design');
#996=PRODUCT_DEFINITION_FORMATION_WITH_SPECIFIED_SOURCE('','',#998,.NOT_KNOWN.);
#997=PRODUCT_RELATED_PRODUCT_CATEGORY('','',(#998));
#998=PRODUCT('rightFront','rightFront','rightFront',(#1000));
#999=PRODUCT_CATEGORY('','');
#1000=PRODUCT_CONTEXT('',#1002,'mechanical');
#1001=APPLICATION_PROTOCOL_DEFINITION('international standard','ap242_managed_model_based_3d_engineering',2020,#1002);
#1002=APPLICATION_CONTEXT('managed model based 3d engineering');
ENDSEC;
END-ISO-10303-21;
