ISO-10303-21;
HEADER;
/*Generated by software containing ST-Developer
 * from STEP Tools, Inc. (www.steptools.com) 
 */
/*OPTION: using custom renumber hook */
/*description */
/*implementation_level */
FILE_DESCRIPTION(('STEP AP242 Edition 2','STEP AP242 Edition 2''CAx-IF Rec.Pracs.---Representation and Presentation of Product Manufa
cturing Information (PMI)---4.0---2014-10-13','STEP AP242 Edition 2''CAx-IF Rec.Pracs.---Representation and Presentation of Product Manufa
cturing Information (PMI)---4.0---2014-10-13''CAx-IF Rec.Pracs.---3D Tessellated Geometry---0.4---2014-09-14','STEP AP242 Edition 2''CAx-IF Rec.Pracs.---Representation and Presentation of Product Manufa
cturing Information (PMI)---4.0---2014-10-13''CAx-IF Rec.Pracs.---3D Tessellated Geometry---0.4---2014-09-14''2;1','STEP AP242 Edition 2''CAx-IF Rec.Pracs.---Representation and Presentation of Product Manufa
cturing Information (PMI)---4.0---2014-10-13''CAx-IF Rec.Pracs.---3D Tessellated Geometry---0.4---2014-09-14''2;1''CAx-IF Rec.Pracs.---User Defined Attributes---1.5---2016-08-15'),'2;1');
/*name */
/*time_stamp */
/*author */
/*organization */
/*preprocessor_version */
/*originating_system */
/*authorisation */
FILE_NAME('/vol/tmp/translate-192958462375041452/anaDash Printables - leftFront.step','2026-08-30T15:28:34',(''),(''),'ST-DEVELOPER v20','ONSHAPE BY PTC INC, 1.220','  ');
FILE_SCHEMA(('AP242_MANAGED_MODEL_BASED_3D_ENGINEERING_MIM_LF { 1 0 10303 442 3 1 4 }'));
ENDSEC;
DATA;
#10=SHAPE_REPRESENTATION_RELATIONSHIP('','',#624,#11);
#11=ADVANCED_BREP_SHAPE_REPRESENTATION('',(#622),#988);
#12=CYLINDRICAL_SURFACE('',#633,0.002);
#13=CYLINDRICAL_SURFACE('',#637,0.0017);
#14=CYLINDRICAL_SURFACE('',#639,0.0017);
#15=CIRCLE('',#628,0.0017);
#16=CIRCLE('',#629,0.0027);
#17=CIRCLE('',#631,0.0017);
#18=CIRCLE('',#632,0.0027);
#19=CIRCLE('',#634,0.002);
#20=CIRCLE('',#635,0.002);
#21=CIRCLE('',#638,0.0017);
#22=CIRCLE('',#640,0.0017);
#23=CONICAL_SURFACE('',#627,0.0027,0.785398163397445);
#24=CONICAL_SURFACE('',#630,0.0027,0.785398163397445);
#25=ORIENTED_EDGE('',*,*,#187,.F.);
#26=ORIENTED_EDGE('',*,*,#188,.F.);
#27=ORIENTED_EDGE('',*,*,#189,.T.);
#28=ORIENTED_EDGE('',*,*,#190,.T.);
#29=ORIENTED_EDGE('',*,*,#191,.T.);
#30=ORIENTED_EDGE('',*,*,#192,.F.);
#31=ORIENTED_EDGE('',*,*,#193,.T.);
#32=ORIENTED_EDGE('',*,*,#194,.F.);
#33=ORIENTED_EDGE('',*,*,#195,.T.);
#34=ORIENTED_EDGE('',*,*,#196,.F.);
#35=ORIENTED_EDGE('',*,*,#197,.F.);
#36=ORIENTED_EDGE('',*,*,#198,.T.);
#37=ORIENTED_EDGE('',*,*,#199,.F.);
#38=ORIENTED_EDGE('',*,*,#200,.F.);
#39=ORIENTED_EDGE('',*,*,#201,.T.);
#40=ORIENTED_EDGE('',*,*,#196,.T.);
#41=ORIENTED_EDGE('',*,*,#202,.T.);
#42=ORIENTED_EDGE('',*,*,#191,.F.);
#43=ORIENTED_EDGE('',*,*,#203,.T.);
#44=ORIENTED_EDGE('',*,*,#193,.F.);
#45=ORIENTED_EDGE('',*,*,#204,.F.);
#46=ORIENTED_EDGE('',*,*,#205,.T.);
#47=ORIENTED_EDGE('',*,*,#206,.T.);
#48=ORIENTED_EDGE('',*,*,#207,.F.);
#49=ORIENTED_EDGE('',*,*,#208,.T.);
#50=ORIENTED_EDGE('',*,*,#209,.F.);
#51=ORIENTED_EDGE('',*,*,#210,.F.);
#52=ORIENTED_EDGE('',*,*,#211,.T.);
#53=ORIENTED_EDGE('',*,*,#212,.T.);
#54=ORIENTED_EDGE('',*,*,#213,.F.);
#55=ORIENTED_EDGE('',*,*,#214,.F.);
#56=ORIENTED_EDGE('',*,*,#209,.T.);
#57=ORIENTED_EDGE('',*,*,#215,.F.);
#58=ORIENTED_EDGE('',*,*,#216,.F.);
#59=ORIENTED_EDGE('',*,*,#217,.T.);
#60=ORIENTED_EDGE('',*,*,#213,.T.);
#61=ORIENTED_EDGE('',*,*,#218,.F.);
#62=ORIENTED_EDGE('',*,*,#211,.F.);
#63=ORIENTED_EDGE('',*,*,#219,.T.);
#64=ORIENTED_EDGE('',*,*,#216,.T.);
#65=ORIENTED_EDGE('',*,*,#220,.T.);
#66=ORIENTED_EDGE('',*,*,#221,.F.);
#67=ORIENTED_EDGE('',*,*,#222,.F.);
#68=ORIENTED_EDGE('',*,*,#223,.T.);
#69=ORIENTED_EDGE('',*,*,#224,.T.);
#70=ORIENTED_EDGE('',*,*,#225,.F.);
#71=ORIENTED_EDGE('',*,*,#226,.F.);
#72=ORIENTED_EDGE('',*,*,#221,.T.);
#73=ORIENTED_EDGE('',*,*,#227,.F.);
#74=ORIENTED_EDGE('',*,*,#228,.F.);
#75=ORIENTED_EDGE('',*,*,#229,.T.);
#76=ORIENTED_EDGE('',*,*,#225,.T.);
#77=ORIENTED_EDGE('',*,*,#230,.F.);
#78=ORIENTED_EDGE('',*,*,#223,.F.);
#79=ORIENTED_EDGE('',*,*,#231,.T.);
#80=ORIENTED_EDGE('',*,*,#228,.T.);
#81=ORIENTED_EDGE('',*,*,#232,.F.);
#82=ORIENTED_EDGE('',*,*,#233,.F.);
#83=ORIENTED_EDGE('',*,*,#234,.T.);
#84=ORIENTED_EDGE('',*,*,#235,.T.);
#85=ORIENTED_EDGE('',*,*,#236,.F.);
#86=ORIENTED_EDGE('',*,*,#237,.F.);
#87=ORIENTED_EDGE('',*,*,#238,.T.);
#88=ORIENTED_EDGE('',*,*,#239,.T.);
#89=ORIENTED_EDGE('',*,*,#203,.F.);
#90=ORIENTED_EDGE('',*,*,#202,.F.);
#91=ORIENTED_EDGE('',*,*,#240,.F.);
#92=ORIENTED_EDGE('',*,*,#241,.F.);
#93=ORIENTED_EDGE('',*,*,#199,.T.);
#94=ORIENTED_EDGE('',*,*,#195,.F.);
#95=ORIENTED_EDGE('',*,*,#242,.T.);
#96=ORIENTED_EDGE('',*,*,#243,.F.);
#97=ORIENTED_EDGE('',*,*,#244,.F.);
#98=ORIENTED_EDGE('',*,*,#207,.T.);
#99=ORIENTED_EDGE('',*,*,#245,.T.);
#100=ORIENTED_EDGE('',*,*,#246,.T.);
#101=ORIENTED_EDGE('',*,*,#247,.T.);
#102=ORIENTED_EDGE('',*,*,#248,.F.);
#103=ORIENTED_EDGE('',*,*,#235,.F.);
#104=ORIENTED_EDGE('',*,*,#189,.F.);
#105=ORIENTED_EDGE('',*,*,#249,.F.);
#106=ORIENTED_EDGE('',*,*,#233,.T.);
#107=ORIENTED_EDGE('',*,*,#250,.T.);
#108=ORIENTED_EDGE('',*,*,#251,.T.);
#109=ORIENTED_EDGE('',*,*,#187,.T.);
#110=ORIENTED_EDGE('',*,*,#252,.F.);
#111=ORIENTED_EDGE('',*,*,#239,.F.);
#112=ORIENTED_EDGE('',*,*,#253,.F.);
#113=ORIENTED_EDGE('',*,*,#254,.F.);
#114=ORIENTED_EDGE('',*,*,#237,.T.);
#115=ORIENTED_EDGE('',*,*,#255,.T.);
#116=ORIENTED_EDGE('',*,*,#230,.T.);
#117=ORIENTED_EDGE('',*,*,#227,.T.);
#118=ORIENTED_EDGE('',*,*,#224,.F.);
#119=ORIENTED_EDGE('',*,*,#220,.F.);
#120=ORIENTED_EDGE('',*,*,#218,.T.);
#121=ORIENTED_EDGE('',*,*,#215,.T.);
#122=ORIENTED_EDGE('',*,*,#212,.F.);
#123=ORIENTED_EDGE('',*,*,#208,.F.);
#124=ORIENTED_EDGE('',*,*,#256,.F.);
#125=ORIENTED_EDGE('',*,*,#257,.F.);
#126=ORIENTED_EDGE('',*,*,#205,.F.);
#127=ORIENTED_EDGE('',*,*,#258,.T.);
#128=ORIENTED_EDGE('',*,*,#259,.F.);
#129=ORIENTED_EDGE('',*,*,#255,.F.);
#130=ORIENTED_EDGE('',*,*,#236,.T.);
#131=ORIENTED_EDGE('',*,*,#252,.T.);
#132=ORIENTED_EDGE('',*,*,#190,.F.);
#133=ORIENTED_EDGE('',*,*,#250,.F.);
#134=ORIENTED_EDGE('',*,*,#232,.T.);
#135=ORIENTED_EDGE('',*,*,#248,.T.);
#136=ORIENTED_EDGE('',*,*,#219,.F.);
#137=ORIENTED_EDGE('',*,*,#210,.T.);
#138=ORIENTED_EDGE('',*,*,#214,.T.);
#139=ORIENTED_EDGE('',*,*,#217,.F.);
#140=ORIENTED_EDGE('',*,*,#231,.F.);
#141=ORIENTED_EDGE('',*,*,#222,.T.);
#142=ORIENTED_EDGE('',*,*,#226,.T.);
#143=ORIENTED_EDGE('',*,*,#229,.F.);
#144=ORIENTED_EDGE('',*,*,#194,.T.);
#145=ORIENTED_EDGE('',*,*,#192,.T.);
#146=ORIENTED_EDGE('',*,*,#260,.T.);
#147=ORIENTED_EDGE('',*,*,#261,.T.);
#148=ORIENTED_EDGE('',*,*,#246,.F.);
#149=ORIENTED_EDGE('',*,*,#234,.F.);
#150=ORIENTED_EDGE('',*,*,#249,.T.);
#151=ORIENTED_EDGE('',*,*,#188,.T.);
#152=ORIENTED_EDGE('',*,*,#251,.F.);
#153=ORIENTED_EDGE('',*,*,#238,.F.);
#154=ORIENTED_EDGE('',*,*,#254,.T.);
#155=ORIENTED_EDGE('',*,*,#262,.T.);
#156=ORIENTED_EDGE('',*,*,#263,.F.);
#157=ORIENTED_EDGE('',*,*,#197,.T.);
#158=ORIENTED_EDGE('',*,*,#201,.F.);
#159=ORIENTED_EDGE('',*,*,#264,.F.);
#160=ORIENTED_EDGE('',*,*,#260,.F.);
#161=ORIENTED_EDGE('',*,*,#200,.T.);
#162=ORIENTED_EDGE('',*,*,#241,.T.);
#163=ORIENTED_EDGE('',*,*,#263,.T.);
#164=ORIENTED_EDGE('',*,*,#265,.T.);
#165=ORIENTED_EDGE('',*,*,#242,.F.);
#166=ORIENTED_EDGE('',*,*,#198,.F.);
#167=ORIENTED_EDGE('',*,*,#257,.T.);
#168=ORIENTED_EDGE('',*,*,#266,.T.);
#169=ORIENTED_EDGE('',*,*,#245,.F.);
#170=ORIENTED_EDGE('',*,*,#206,.F.);
#171=ORIENTED_EDGE('',*,*,#267,.F.);
#172=ORIENTED_EDGE('',*,*,#258,.F.);
#173=ORIENTED_EDGE('',*,*,#204,.T.);
#174=ORIENTED_EDGE('',*,*,#244,.T.);
#175=ORIENTED_EDGE('',*,*,#264,.T.);
#176=ORIENTED_EDGE('',*,*,#240,.T.);
#177=ORIENTED_EDGE('',*,*,#266,.F.);
#178=ORIENTED_EDGE('',*,*,#256,.T.);
#179=ORIENTED_EDGE('',*,*,#247,.F.);
#180=ORIENTED_EDGE('',*,*,#261,.F.);
#181=ORIENTED_EDGE('',*,*,#267,.T.);
#182=ORIENTED_EDGE('',*,*,#243,.T.);
#183=ORIENTED_EDGE('',*,*,#265,.F.);
#184=ORIENTED_EDGE('',*,*,#262,.F.);
#185=ORIENTED_EDGE('',*,*,#253,.T.);
#186=ORIENTED_EDGE('',*,*,#259,.T.);
#187=EDGE_CURVE('',#268,#269,#324,.T.);
#188=EDGE_CURVE('',#270,#268,#325,.T.);
#189=EDGE_CURVE('',#270,#271,#326,.T.);
#190=EDGE_CURVE('',#271,#269,#327,.T.);
#191=EDGE_CURVE('',#272,#272,#15,.T.);
#192=EDGE_CURVE('',#273,#273,#16,.T.);
#193=EDGE_CURVE('',#274,#274,#17,.T.);
#194=EDGE_CURVE('',#275,#275,#18,.T.);
#195=EDGE_CURVE('',#276,#277,#19,.T.);
#196=EDGE_CURVE('',#278,#277,#328,.T.);
#197=EDGE_CURVE('',#279,#278,#20,.T.);
#198=EDGE_CURVE('',#279,#276,#329,.T.);
#199=EDGE_CURVE('',#280,#277,#330,.T.);
#200=EDGE_CURVE('',#281,#280,#331,.T.);
#201=EDGE_CURVE('',#281,#278,#332,.T.);
#202=EDGE_CURVE('',#282,#282,#21,.T.);
#203=EDGE_CURVE('',#283,#283,#22,.T.);
#204=EDGE_CURVE('',#284,#285,#333,.T.);
#205=EDGE_CURVE('',#284,#286,#334,.T.);
#206=EDGE_CURVE('',#286,#287,#335,.T.);
#207=EDGE_CURVE('',#285,#287,#336,.T.);
#208=EDGE_CURVE('',#288,#289,#337,.T.);
#209=EDGE_CURVE('',#290,#289,#338,.T.);
#210=EDGE_CURVE('',#291,#290,#339,.T.);
#211=EDGE_CURVE('',#291,#288,#340,.T.);
#212=EDGE_CURVE('',#289,#292,#341,.T.);
#213=EDGE_CURVE('',#293,#292,#342,.T.);
#214=EDGE_CURVE('',#290,#293,#343,.T.);
#215=EDGE_CURVE('',#294,#292,#344,.T.);
#216=EDGE_CURVE('',#295,#294,#345,.T.);
#217=EDGE_CURVE('',#295,#293,#346,.T.);
#218=EDGE_CURVE('',#288,#294,#347,.T.);
#219=EDGE_CURVE('',#291,#295,#348,.T.);
#220=EDGE_CURVE('',#296,#297,#349,.T.);
#221=EDGE_CURVE('',#298,#297,#350,.T.);
#222=EDGE_CURVE('',#299,#298,#351,.T.);
#223=EDGE_CURVE('',#299,#296,#352,.T.);
#224=EDGE_CURVE('',#297,#300,#353,.T.);
#225=EDGE_CURVE('',#301,#300,#354,.T.);
#226=EDGE_CURVE('',#298,#301,#355,.T.);
#227=EDGE_CURVE('',#302,#300,#356,.T.);
#228=EDGE_CURVE('',#303,#302,#357,.T.);
#229=EDGE_CURVE('',#303,#301,#358,.T.);
#230=EDGE_CURVE('',#296,#302,#359,.T.);
#231=EDGE_CURVE('',#299,#303,#360,.T.);
#232=EDGE_CURVE('',#304,#305,#361,.T.);
#233=EDGE_CURVE('',#306,#304,#362,.T.);
#234=EDGE_CURVE('',#306,#307,#363,.T.);
#235=EDGE_CURVE('',#307,#305,#364,.T.);
#236=EDGE_CURVE('',#308,#309,#365,.T.);
#237=EDGE_CURVE('',#310,#308,#366,.T.);
#238=EDGE_CURVE('',#310,#311,#367,.T.);
#239=EDGE_CURVE('',#311,#309,#368,.T.);
#240=EDGE_CURVE('',#312,#313,#369,.T.);
#241=EDGE_CURVE('',#280,#312,#370,.T.);
#242=EDGE_CURVE('',#276,#314,#371,.T.);
#243=EDGE_CURVE('',#315,#314,#372,.T.);
#244=EDGE_CURVE('',#285,#315,#373,.T.);
#245=EDGE_CURVE('',#287,#313,#374,.T.);
#246=EDGE_CURVE('',#307,#316,#375,.T.);
#247=EDGE_CURVE('',#316,#317,#376,.T.);
#248=EDGE_CURVE('',#305,#317,#377,.T.);
#249=EDGE_CURVE('',#306,#270,#378,.T.);
#250=EDGE_CURVE('',#304,#271,#379,.T.);
#251=EDGE_CURVE('',#311,#268,#380,.T.);
#252=EDGE_CURVE('',#309,#269,#381,.T.);
#253=EDGE_CURVE('',#318,#319,#382,.T.);
#254=EDGE_CURVE('',#310,#318,#383,.T.);
#255=EDGE_CURVE('',#308,#319,#384,.T.);
#256=EDGE_CURVE('',#320,#317,#385,.T.);
#257=EDGE_CURVE('',#286,#320,#386,.T.);
#258=EDGE_CURVE('',#284,#321,#387,.T.);
#259=EDGE_CURVE('',#319,#321,#388,.T.);
#260=EDGE_CURVE('',#281,#322,#389,.T.);
#261=EDGE_CURVE('',#322,#316,#390,.T.);
#262=EDGE_CURVE('',#318,#323,#391,.T.);
#263=EDGE_CURVE('',#279,#323,#392,.T.);
#264=EDGE_CURVE('',#322,#312,#393,.T.);
#265=EDGE_CURVE('',#323,#314,#394,.T.);
#266=EDGE_CURVE('',#320,#313,#395,.T.);
#267=EDGE_CURVE('',#321,#315,#396,.T.);
#268=VERTEX_POINT('',#821);
#269=VERTEX_POINT('',#822);
#270=VERTEX_POINT('',#824);
#271=VERTEX_POINT('',#826);
#272=VERTEX_POINT('',#830);
#273=VERTEX_POINT('',#832);
#274=VERTEX_POINT('',#835);
#275=VERTEX_POINT('',#837);
#276=VERTEX_POINT('',#840);
#277=VERTEX_POINT('',#841);
#278=VERTEX_POINT('',#843);
#279=VERTEX_POINT('',#845);
#280=VERTEX_POINT('',#849);
#281=VERTEX_POINT('',#851);
#282=VERTEX_POINT('',#855);
#283=VERTEX_POINT('',#858);
#284=VERTEX_POINT('',#861);
#285=VERTEX_POINT('',#862);
#286=VERTEX_POINT('',#864);
#287=VERTEX_POINT('',#866);
#288=VERTEX_POINT('',#870);
#289=VERTEX_POINT('',#871);
#290=VERTEX_POINT('',#873);
#291=VERTEX_POINT('',#875);
#292=VERTEX_POINT('',#879);
#293=VERTEX_POINT('',#881);
#294=VERTEX_POINT('',#885);
#295=VERTEX_POINT('',#887);
#296=VERTEX_POINT('',#894);
#297=VERTEX_POINT('',#895);
#298=VERTEX_POINT('',#897);
#299=VERTEX_POINT('',#899);
#300=VERTEX_POINT('',#903);
#301=VERTEX_POINT('',#905);
#302=VERTEX_POINT('',#909);
#303=VERTEX_POINT('',#911);
#304=VERTEX_POINT('',#918);
#305=VERTEX_POINT('',#919);
#306=VERTEX_POINT('',#921);
#307=VERTEX_POINT('',#923);
#308=VERTEX_POINT('',#927);
#309=VERTEX_POINT('',#928);
#310=VERTEX_POINT('',#930);
#311=VERTEX_POINT('',#932);
#312=VERTEX_POINT('',#936);
#313=VERTEX_POINT('',#937);
#314=VERTEX_POINT('',#940);
#315=VERTEX_POINT('',#942);
#316=VERTEX_POINT('',#947);
#317=VERTEX_POINT('',#949);
#318=VERTEX_POINT('',#959);
#319=VERTEX_POINT('',#960);
#320=VERTEX_POINT('',#965);
#321=VERTEX_POINT('',#968);
#322=VERTEX_POINT('',#972);
#323=VERTEX_POINT('',#975);
#324=LINE('',#820,#397);
#325=LINE('',#823,#398);
#326=LINE('',#825,#399);
#327=LINE('',#827,#400);
#328=LINE('',#842,#401);
#329=LINE('',#846,#402);
#330=LINE('',#848,#403);
#331=LINE('',#850,#404);
#332=LINE('',#852,#405);
#333=LINE('',#860,#406);
#334=LINE('',#863,#407);
#335=LINE('',#865,#408);
#336=LINE('',#867,#409);
#337=LINE('',#869,#410);
#338=LINE('',#872,#411);
#339=LINE('',#874,#412);
#340=LINE('',#876,#413);
#341=LINE('',#878,#414);
#342=LINE('',#880,#415);
#343=LINE('',#882,#416);
#344=LINE('',#884,#417);
#345=LINE('',#886,#418);
#346=LINE('',#888,#419);
#347=LINE('',#890,#420);
#348=LINE('',#891,#421);
#349=LINE('',#893,#422);
#350=LINE('',#896,#423);
#351=LINE('',#898,#424);
#352=LINE('',#900,#425);
#353=LINE('',#902,#426);
#354=LINE('',#904,#427);
#355=LINE('',#906,#428);
#356=LINE('',#908,#429);
#357=LINE('',#910,#430);
#358=LINE('',#912,#431);
#359=LINE('',#914,#432);
#360=LINE('',#915,#433);
#361=LINE('',#917,#434);
#362=LINE('',#920,#435);
#363=LINE('',#922,#436);
#364=LINE('',#924,#437);
#365=LINE('',#926,#438);
#366=LINE('',#929,#439);
#367=LINE('',#931,#440);
#368=LINE('',#933,#441);
#369=LINE('',#935,#442);
#370=LINE('',#938,#443);
#371=LINE('',#939,#444);
#372=LINE('',#941,#445);
#373=LINE('',#943,#446);
#374=LINE('',#944,#447);
#375=LINE('',#946,#448);
#376=LINE('',#948,#449);
#377=LINE('',#950,#450);
#378=LINE('',#952,#451);
#379=LINE('',#953,#452);
#380=LINE('',#955,#453);
#381=LINE('',#956,#454);
#382=LINE('',#958,#455);
#383=LINE('',#961,#456);
#384=LINE('',#962,#457);
#385=LINE('',#964,#458);
#386=LINE('',#966,#459);
#387=LINE('',#967,#460);
#388=LINE('',#969,#461);
#389=LINE('',#971,#462);
#390=LINE('',#973,#463);
#391=LINE('',#974,#464);
#392=LINE('',#976,#465);
#393=LINE('',#978,#466);
#394=LINE('',#980,#467);
#395=LINE('',#982,#468);
#396=LINE('',#984,#469);
#397=VECTOR('',#669,1.);
#398=VECTOR('',#670,1.);
#399=VECTOR('',#671,1.);
#400=VECTOR('',#672,1.);
#401=VECTOR('',#689,1.);
#402=VECTOR('',#692,1.);
#403=VECTOR('',#695,1.);
#404=VECTOR('',#696,1.);
#405=VECTOR('',#697,1.);
#406=VECTOR('',#708,1.);
#407=VECTOR('',#709,1.);
#408=VECTOR('',#710,1.);
#409=VECTOR('',#711,1.);
#410=VECTOR('',#714,1.);
#411=VECTOR('',#715,1.);
#412=VECTOR('',#716,1.);
#413=VECTOR('',#717,1.);
#414=VECTOR('',#720,1.);
#415=VECTOR('',#721,1.);
#416=VECTOR('',#722,1.);
#417=VECTOR('',#725,1.);
#418=VECTOR('',#726,1.);
#419=VECTOR('',#727,1.);
#420=VECTOR('',#730,1.);
#421=VECTOR('',#731,1.);
#422=VECTOR('',#734,1.);
#423=VECTOR('',#735,1.);
#424=VECTOR('',#736,1.);
#425=VECTOR('',#737,1.);
#426=VECTOR('',#740,1.);
#427=VECTOR('',#741,1.);
#428=VECTOR('',#742,1.);
#429=VECTOR('',#745,1.);
#430=VECTOR('',#746,1.);
#431=VECTOR('',#747,1.);
#432=VECTOR('',#750,1.);
#433=VECTOR('',#751,1.);
#434=VECTOR('',#754,1.);
#435=VECTOR('',#755,1.);
#436=VECTOR('',#756,1.);
#437=VECTOR('',#757,1.);
#438=VECTOR('',#760,1.);
#439=VECTOR('',#761,1.);
#440=VECTOR('',#762,1.);
#441=VECTOR('',#763,1.);
#442=VECTOR('',#766,1.);
#443=VECTOR('',#767,1.);
#444=VECTOR('',#768,1.);
#445=VECTOR('',#769,1.);
#446=VECTOR('',#770,1.);
#447=VECTOR('',#771,1.);
#448=VECTOR('',#774,1.);
#449=VECTOR('',#775,1.);
#450=VECTOR('',#776,1.);
#451=VECTOR('',#779,1.);
#452=VECTOR('',#780,1.);
#453=VECTOR('',#783,1.);
#454=VECTOR('',#784,1.);
#455=VECTOR('',#787,1.);
#456=VECTOR('',#788,1.);
#457=VECTOR('',#789,1.);
#458=VECTOR('',#792,1.);
#459=VECTOR('',#793,1.);
#460=VECTOR('',#794,1.);
#461=VECTOR('',#795,1.);
#462=VECTOR('',#798,1.);
#463=VECTOR('',#799,1.);
#464=VECTOR('',#800,1.);
#465=VECTOR('',#801,1.);
#466=VECTOR('',#804,1.);
#467=VECTOR('',#807,1.);
#468=VECTOR('',#810,1.);
#469=VECTOR('',#813,1.);
#470=EDGE_LOOP('',(#25,#26,#27,#28));
#471=EDGE_LOOP('',(#29));
#472=EDGE_LOOP('',(#30));
#473=EDGE_LOOP('',(#31));
#474=EDGE_LOOP('',(#32));
#475=EDGE_LOOP('',(#33,#34,#35,#36));
#476=EDGE_LOOP('',(#37,#38,#39,#40));
#477=EDGE_LOOP('',(#41));
#478=EDGE_LOOP('',(#42));
#479=EDGE_LOOP('',(#43));
#480=EDGE_LOOP('',(#44));
#481=EDGE_LOOP('',(#45,#46,#47,#48));
#482=EDGE_LOOP('',(#49,#50,#51,#52));
#483=EDGE_LOOP('',(#53,#54,#55,#56));
#484=EDGE_LOOP('',(#57,#58,#59,#60));
#485=EDGE_LOOP('',(#61,#62,#63,#64));
#486=EDGE_LOOP('',(#65,#66,#67,#68));
#487=EDGE_LOOP('',(#69,#70,#71,#72));
#488=EDGE_LOOP('',(#73,#74,#75,#76));
#489=EDGE_LOOP('',(#77,#78,#79,#80));
#490=EDGE_LOOP('',(#81,#82,#83,#84));
#491=EDGE_LOOP('',(#85,#86,#87,#88));
#492=EDGE_LOOP('',(#89));
#493=EDGE_LOOP('',(#90));
#494=EDGE_LOOP('',(#91,#92,#93,#94,#95,#96,#97,#98,#99));
#495=EDGE_LOOP('',(#100,#101,#102,#103));
#496=EDGE_LOOP('',(#104,#105,#106,#107));
#497=EDGE_LOOP('',(#108,#109,#110,#111));
#498=EDGE_LOOP('',(#112,#113,#114,#115));
#499=EDGE_LOOP('',(#116,#117,#118,#119));
#500=EDGE_LOOP('',(#120,#121,#122,#123));
#501=EDGE_LOOP('',(#124,#125,#126,#127,#128,#129,#130,#131,#132,#133,#134,#135));
#502=EDGE_LOOP('',(#136,#137,#138,#139));
#503=EDGE_LOOP('',(#140,#141,#142,#143));
#504=EDGE_LOOP('',(#144));
#505=EDGE_LOOP('',(#145));
#506=EDGE_LOOP('',(#146,#147,#148,#149,#150,#151,#152,#153,#154,#155,#156,#157,#158));
#507=EDGE_LOOP('',(#159,#160,#161,#162));
#508=EDGE_LOOP('',(#163,#164,#165,#166));
#509=EDGE_LOOP('',(#167,#168,#169,#170));
#510=EDGE_LOOP('',(#171,#172,#173,#174));
#511=EDGE_LOOP('',(#175,#176,#177,#178,#179,#180));
#512=EDGE_LOOP('',(#181,#182,#183,#184,#185,#186));
#513=FACE_BOUND('',#470,.T.);
#514=FACE_BOUND('',#471,.T.);
#515=FACE_BOUND('',#472,.T.);
#516=FACE_BOUND('',#473,.T.);
#517=FACE_BOUND('',#474,.T.);
#518=FACE_BOUND('',#475,.T.);
#519=FACE_BOUND('',#476,.T.);
#520=FACE_BOUND('',#477,.T.);
#521=FACE_BOUND('',#478,.T.);
#522=FACE_BOUND('',#479,.T.);
#523=FACE_BOUND('',#480,.T.);
#524=FACE_BOUND('',#481,.T.);
#525=FACE_BOUND('',#482,.T.);
#526=FACE_BOUND('',#483,.T.);
#527=FACE_BOUND('',#484,.T.);
#528=FACE_BOUND('',#485,.T.);
#529=FACE_BOUND('',#486,.T.);
#530=FACE_BOUND('',#487,.T.);
#531=FACE_BOUND('',#488,.T.);
#532=FACE_BOUND('',#489,.T.);
#533=FACE_BOUND('',#490,.T.);
#534=FACE_BOUND('',#491,.T.);
#535=FACE_BOUND('',#492,.T.);
#536=FACE_BOUND('',#493,.T.);
#537=FACE_BOUND('',#494,.T.);
#538=FACE_BOUND('',#495,.T.);
#539=FACE_BOUND('',#496,.T.);
#540=FACE_BOUND('',#497,.T.);
#541=FACE_BOUND('',#498,.T.);
#542=FACE_BOUND('',#499,.T.);
#543=FACE_BOUND('',#500,.T.);
#544=FACE_BOUND('',#501,.T.);
#545=FACE_BOUND('',#502,.T.);
#546=FACE_BOUND('',#503,.T.);
#547=FACE_BOUND('',#504,.T.);
#548=FACE_BOUND('',#505,.T.);
#549=FACE_BOUND('',#506,.T.);
#550=FACE_BOUND('',#507,.T.);
#551=FACE_BOUND('',#508,.T.);
#552=FACE_BOUND('',#509,.T.);
#553=FACE_BOUND('',#510,.T.);
#554=FACE_BOUND('',#511,.T.);
#555=FACE_BOUND('',#512,.T.);
#556=PLANE('',#626);
#557=PLANE('',#636);
#558=PLANE('',#641);
#559=PLANE('',#642);
#560=PLANE('',#643);
#561=PLANE('',#644);
#562=PLANE('',#645);
#563=PLANE('',#646);
#564=PLANE('',#647);
#565=PLANE('',#648);
#566=PLANE('',#649);
#567=PLANE('',#650);
#568=PLANE('',#651);
#569=PLANE('',#652);
#570=PLANE('',#653);
#571=PLANE('',#654);
#572=PLANE('',#655);
#573=PLANE('',#656);
#574=PLANE('',#657);
#575=PLANE('',#658);
#576=PLANE('',#659);
#577=PLANE('',#660);
#578=PLANE('',#661);
#579=PLANE('',#662);
#580=PLANE('',#663);
#581=PLANE('',#664);
#582=ADVANCED_FACE('',(#513),#556,.T.);
#583=ADVANCED_FACE('',(#514,#515),#23,.F.);
#584=ADVANCED_FACE('',(#516,#517),#24,.F.);
#585=ADVANCED_FACE('',(#518),#12,.T.);
#586=ADVANCED_FACE('',(#519),#557,.T.);
#587=ADVANCED_FACE('',(#520,#521),#13,.F.);
#588=ADVANCED_FACE('',(#522,#523),#14,.F.);
#589=ADVANCED_FACE('',(#524),#558,.T.);
#590=ADVANCED_FACE('',(#525),#559,.F.);
#591=ADVANCED_FACE('',(#526),#560,.F.);
#592=ADVANCED_FACE('',(#527),#561,.T.);
#593=ADVANCED_FACE('',(#528),#562,.T.);
#594=ADVANCED_FACE('',(#529),#563,.F.);
#595=ADVANCED_FACE('',(#530),#564,.F.);
#596=ADVANCED_FACE('',(#531),#565,.T.);
#597=ADVANCED_FACE('',(#532),#566,.T.);
#598=ADVANCED_FACE('',(#533),#567,.T.);
#599=ADVANCED_FACE('',(#534),#568,.T.);
#600=ADVANCED_FACE('',(#535,#536,#537),#569,.F.);
#601=ADVANCED_FACE('',(#538),#570,.T.);
#602=ADVANCED_FACE('',(#539),#571,.F.);
#603=ADVANCED_FACE('',(#540),#572,.T.);
#604=ADVANCED_FACE('',(#541),#573,.F.);
#605=ADVANCED_FACE('',(#542,#543,#544),#574,.F.);
#606=ADVANCED_FACE('',(#545,#546,#547,#548,#549),#575,.T.);
#607=ADVANCED_FACE('',(#550),#576,.F.);
#608=ADVANCED_FACE('',(#551),#577,.T.);
#609=ADVANCED_FACE('',(#552),#578,.T.);
#610=ADVANCED_FACE('',(#553),#579,.F.);
#611=ADVANCED_FACE('',(#554),#580,.T.);
#612=ADVANCED_FACE('',(#555),#581,.T.);
#613=CLOSED_SHELL('',(#582,#583,#584,#585,#586,#587,#588,#589,#590,#591,#592,#593,#594,#595,#596,#597,#598,#599,#600,#601,#602,#603,#604,#605,#606,#607,#608,#609,#610,#611,#612));
#614=STYLED_ITEM('',(#615),#622);
#615=PRESENTATION_STYLE_ASSIGNMENT((#616));
#616=SURFACE_STYLE_USAGE(.BOTH.,#617);
#617=SURFACE_SIDE_STYLE('',(#618));
#618=SURFACE_STYLE_FILL_AREA(#619);
#619=FILL_AREA_STYLE('',(#620));
#620=FILL_AREA_STYLE_COLOUR('',#621);
#621=COLOUR_RGB('',0.917647058823529,0.917647058823529,0.917647058823529);
#622=MANIFOLD_SOLID_BREP('leftFront',#613);
#623=SHAPE_DEFINITION_REPRESENTATION(#993,#624);
#624=SHAPE_REPRESENTATION('leftFront',(#625),#988);
#625=AXIS2_PLACEMENT_3D('',#818,#665,#666);
#626=AXIS2_PLACEMENT_3D('',#819,#667,#668);
#627=AXIS2_PLACEMENT_3D('',#828,#673,#674);
#628=AXIS2_PLACEMENT_3D('',#829,#675,#676);
#629=AXIS2_PLACEMENT_3D('',#831,#677,#678);
#630=AXIS2_PLACEMENT_3D('',#833,#679,#680);
#631=AXIS2_PLACEMENT_3D('',#834,#681,#682);
#632=AXIS2_PLACEMENT_3D('',#836,#683,#684);
#633=AXIS2_PLACEMENT_3D('',#838,#685,#686);
#634=AXIS2_PLACEMENT_3D('',#839,#687,#688);
#635=AXIS2_PLACEMENT_3D('',#844,#690,#691);
#636=AXIS2_PLACEMENT_3D('',#847,#693,#694);
#637=AXIS2_PLACEMENT_3D('',#853,#698,#699);
#638=AXIS2_PLACEMENT_3D('',#854,#700,#701);
#639=AXIS2_PLACEMENT_3D('',#856,#702,#703);
#640=AXIS2_PLACEMENT_3D('',#857,#704,#705);
#641=AXIS2_PLACEMENT_3D('',#859,#706,#707);
#642=AXIS2_PLACEMENT_3D('',#868,#712,#713);
#643=AXIS2_PLACEMENT_3D('',#877,#718,#719);
#644=AXIS2_PLACEMENT_3D('',#883,#723,#724);
#645=AXIS2_PLACEMENT_3D('',#889,#728,#729);
#646=AXIS2_PLACEMENT_3D('',#892,#732,#733);
#647=AXIS2_PLACEMENT_3D('',#901,#738,#739);
#648=AXIS2_PLACEMENT_3D('',#907,#743,#744);
#649=AXIS2_PLACEMENT_3D('',#913,#748,#749);
#650=AXIS2_PLACEMENT_3D('',#916,#752,#753);
#651=AXIS2_PLACEMENT_3D('',#925,#758,#759);
#652=AXIS2_PLACEMENT_3D('',#934,#764,#765);
#653=AXIS2_PLACEMENT_3D('',#945,#772,#773);
#654=AXIS2_PLACEMENT_3D('',#951,#777,#778);
#655=AXIS2_PLACEMENT_3D('',#954,#781,#782);
#656=AXIS2_PLACEMENT_3D('',#957,#785,#786);
#657=AXIS2_PLACEMENT_3D('',#963,#790,#791);
#658=AXIS2_PLACEMENT_3D('',#970,#796,#797);
#659=AXIS2_PLACEMENT_3D('',#977,#802,#803);
#660=AXIS2_PLACEMENT_3D('',#979,#805,#806);
#661=AXIS2_PLACEMENT_3D('',#981,#808,#809);
#662=AXIS2_PLACEMENT_3D('',#983,#811,#812);
#663=AXIS2_PLACEMENT_3D('',#985,#814,#815);
#664=AXIS2_PLACEMENT_3D('',#986,#816,#817);
#665=DIRECTION('',(0.,0.,1.));
#666=DIRECTION('',(1.,0.,0.));
#667=DIRECTION('',(1.,-3.50449187066021E-17,-6.57092225748791E-17));
#668=DIRECTION('',(3.50449187066021E-17,1.,-2.30277436341066E-33));
#669=DIRECTION('',(-2.16829372056234E-17,0.707106781186548,-0.707106781186548));
#670=DIRECTION('',(7.12439365327628E-17,0.707106781186548,0.707106781186548));
#671=DIRECTION('',(-2.16829372056234E-17,0.707106781186548,-0.707106781186548));
#672=DIRECTION('',(7.12439365327628E-17,0.707106781186548,0.707106781186548));
#673=DIRECTION('',(0.,-0.707106781186548,0.707106781186548));
#674=DIRECTION('',(0.,-0.707106781186548,-0.707106781186548));
#675=DIRECTION('',(0.,0.707106781186548,-0.707106781186548));
#676=DIRECTION('',(0.,0.707106781186548,0.707106781186548));
#677=DIRECTION('',(0.,0.707106781186548,-0.707106781186548));
#678=DIRECTION('',(0.,0.707106781186548,0.707106781186548));
#679=DIRECTION('',(0.,-0.707106781186548,0.707106781186548));
#680=DIRECTION('',(0.,-0.707106781186548,-0.707106781186548));
#681=DIRECTION('',(0.,0.707106781186548,-0.707106781186548));
#682=DIRECTION('',(0.,0.707106781186548,0.707106781186548));
#683=DIRECTION('',(0.,0.707106781186548,-0.707106781186548));
#684=DIRECTION('',(0.,0.707106781186548,0.707106781186548));
#685=DIRECTION('',(0.,0.707106781186548,-0.707106781186548));
#686=DIRECTION('',(0.,0.707106781186548,0.707106781186548));
#687=DIRECTION('',(0.,-0.707106781186548,0.707106781186548));
#688=DIRECTION('',(0.,-0.707106781186548,-0.707106781186548));
#689=DIRECTION('',(0.,0.707106781186548,-0.707106781186548));
#690=DIRECTION('',(0.,-0.707106781186548,0.707106781186548));
#691=DIRECTION('',(0.,-0.707106781186548,-0.707106781186548));
#692=DIRECTION('',(0.,0.707106781186548,-0.707106781186548));
#693=DIRECTION('',(-1.,0.,0.));
#694=DIRECTION('',(0.,0.,1.));
#695=DIRECTION('',(0.,0.707106781186548,0.707106781186548));
#696=DIRECTION('',(0.,0.707106781186548,-0.707106781186548));
#697=DIRECTION('',(0.,0.707106781186548,0.707106781186548));
#698=DIRECTION('',(0.,0.707106781186548,-0.707106781186548));
#699=DIRECTION('',(0.,0.707106781186548,0.707106781186548));
#700=DIRECTION('',(0.,0.707106781186548,-0.707106781186548));
#701=DIRECTION('',(0.,0.707106781186548,0.707106781186548));
#702=DIRECTION('',(0.,0.707106781186548,-0.707106781186548));
#703=DIRECTION('',(0.,0.707106781186548,0.707106781186548));
#704=DIRECTION('',(0.,0.707106781186548,-0.707106781186548));
#705=DIRECTION('',(0.,0.707106781186548,0.707106781186548));
#706=DIRECTION('',(1.,0.,0.));
#707=DIRECTION('',(0.,0.,-1.));
#708=DIRECTION('',(0.,0.707106781186548,-0.707106781186548));
#709=DIRECTION('',(0.,-0.707106781186548,-0.707106781186548));
#710=DIRECTION('',(0.,0.707106781186548,-0.707106781186548));
#711=DIRECTION('',(0.,-0.707106781186548,-0.707106781186548));
#712=DIRECTION('',(0.,0.707106781186548,0.707106781186548));
#713=DIRECTION('',(0.,-0.707106781186548,0.707106781186548));
#714=DIRECTION('',(1.,0.,0.));
#715=DIRECTION('',(0.,0.707106781186548,-0.707106781186548));
#716=DIRECTION('',(1.,0.,0.));
#717=DIRECTION('',(0.,0.707106781186548,-0.707106781186548));
#718=DIRECTION('',(1.,-1.29119445615442E-16,-1.29119445615442E-16));
#719=DIRECTION('',(-1.29119445615442E-16,0.,-1.));
#720=DIRECTION('',(-1.82602471155453E-16,-0.707106781186548,-0.707106781186548));
#721=DIRECTION('',(0.,0.707106781186548,-0.707106781186548));
#722=DIRECTION('',(-1.82602471155453E-16,-0.707106781186548,-0.707106781186548));
#723=DIRECTION('',(0.,0.707106781186548,0.707106781186548));
#724=DIRECTION('',(0.,-0.707106781186548,0.707106781186548));
#725=DIRECTION('',(1.,0.,0.));
#726=DIRECTION('',(0.,0.707106781186548,-0.707106781186548));
#727=DIRECTION('',(1.,0.,0.));
#728=DIRECTION('',(1.,0.,0.));
#729=DIRECTION('',(0.,0.,-1.));
#730=DIRECTION('',(0.,-0.707106781186548,-0.707106781186548));
#731=DIRECTION('',(0.,-0.707106781186548,-0.707106781186548));
#732=DIRECTION('',(0.,0.707106781186548,0.707106781186548));
#733=DIRECTION('',(0.,-0.707106781186548,0.707106781186548));
#734=DIRECTION('',(1.,0.,0.));
#735=DIRECTION('',(0.,0.707106781186548,-0.707106781186548));
#736=DIRECTION('',(1.,0.,0.));
#737=DIRECTION('',(0.,0.707106781186548,-0.707106781186548));
#738=DIRECTION('',(1.,0.,0.));
#739=DIRECTION('',(0.,0.,-1.));
#740=DIRECTION('',(0.,-0.707106781186548,-0.707106781186548));
#741=DIRECTION('',(0.,0.707106781186548,-0.707106781186548));
#742=DIRECTION('',(0.,-0.707106781186548,-0.707106781186548));
#743=DIRECTION('',(0.,0.707106781186548,0.707106781186548));
#744=DIRECTION('',(0.,-0.707106781186548,0.707106781186548));
#745=DIRECTION('',(1.,0.,0.));
#746=DIRECTION('',(0.,0.707106781186548,-0.707106781186548));
#747=DIRECTION('',(1.,0.,0.));
#748=DIRECTION('',(1.,0.,0.));
#749=DIRECTION('',(0.,0.,-1.));
#750=DIRECTION('',(0.,-0.707106781186548,-0.707106781186548));
#751=DIRECTION('',(0.,-0.707106781186548,-0.707106781186548));
#752=DIRECTION('',(1.,0.,0.));
#753=DIRECTION('',(0.,0.,-1.));
#754=DIRECTION('',(0.,-0.707106781186548,-0.707106781186548));
#755=DIRECTION('',(0.,0.707106781186548,-0.707106781186548));
#756=DIRECTION('',(0.,-0.707106781186548,-0.707106781186548));
#757=DIRECTION('',(0.,0.707106781186548,-0.707106781186548));
#758=DIRECTION('',(1.,-1.37669442575387E-16,-1.37669442575387E-16));
#759=DIRECTION('',(-1.37669442575387E-16,0.,-1.));
#760=DIRECTION('',(-1.94693992814456E-16,-0.707106781186548,-0.707106781186548));
#761=DIRECTION('',(0.,0.707106781186548,-0.707106781186548));
#762=DIRECTION('',(-1.94693992814456E-16,-0.707106781186548,-0.707106781186548));
#763=DIRECTION('',(0.,0.707106781186548,-0.707106781186548));
#764=DIRECTION('',(0.,-0.707106781186548,0.707106781186548));
#765=DIRECTION('',(1.,0.,0.));
#766=DIRECTION('',(7.12439365327628E-17,0.707106781186548,0.707106781186548));
#767=DIRECTION('',(1.,0.,0.));
#768=DIRECTION('',(1.,0.,0.));
#769=DIRECTION('',(7.12439365327628E-17,0.707106781186548,0.707106781186548));
#770=DIRECTION('',(1.,0.,0.));
#771=DIRECTION('',(1.,0.,0.));
#772=DIRECTION('',(5.7641431948053E-16,0.707106781186548,0.707106781186548));
#773=DIRECTION('',(0.,-0.707106781186548,0.707106781186548));
#774=DIRECTION('',(1.,-4.07586474077711E-16,-4.07586474077711E-16));
#775=DIRECTION('',(-2.16829372056234E-17,0.707106781186548,-0.707106781186548));
#776=DIRECTION('',(1.,-4.07586474077711E-16,-4.07586474077711E-16));
#777=DIRECTION('',(-1.00559237257201E-15,0.707106781186548,0.707106781186548));
#778=DIRECTION('',(0.,-0.707106781186548,0.707106781186548));
#779=DIRECTION('',(1.,7.11061185755138E-16,7.11061185755138E-16));
#780=DIRECTION('',(1.,7.11061185755138E-16,7.11061185755138E-16));
#781=DIRECTION('',(0.,0.707106781186548,0.707106781186548));
#782=DIRECTION('',(0.,-0.707106781186548,0.707106781186548));
#783=DIRECTION('',(1.,0.,0.));
#784=DIRECTION('',(1.,0.,0.));
#785=DIRECTION('',(0.,0.707106781186548,0.707106781186548));
#786=DIRECTION('',(0.,-0.707106781186548,0.707106781186548));
#787=DIRECTION('',(-2.16829372056234E-17,0.707106781186548,-0.707106781186548));
#788=DIRECTION('',(1.,0.,0.));
#789=DIRECTION('',(1.,0.,0.));
#790=DIRECTION('',(0.,-0.707106781186548,0.707106781186548));
#791=DIRECTION('',(1.,0.,0.));
#792=DIRECTION('',(7.12439365327628E-17,0.707106781186548,0.707106781186548));
#793=DIRECTION('',(1.,0.,0.));
#794=DIRECTION('',(1.,0.,0.));
#795=DIRECTION('',(7.12439365327628E-17,0.707106781186548,0.707106781186548));
#796=DIRECTION('',(0.,-0.707106781186548,0.707106781186548));
#797=DIRECTION('',(1.,0.,0.));
#798=DIRECTION('',(1.,0.,0.));
#799=DIRECTION('',(7.12439365327628E-17,0.707106781186548,0.707106781186548));
#800=DIRECTION('',(7.12439365327628E-17,0.707106781186548,0.707106781186548));
#801=DIRECTION('',(1.,0.,0.));
#802=DIRECTION('',(0.,0.707106781186548,0.707106781186548));
#803=DIRECTION('',(0.,-0.707106781186548,0.707106781186548));
#804=DIRECTION('',(-2.16829372056234E-17,0.707106781186548,-0.707106781186548));
#805=DIRECTION('',(0.,0.707106781186548,0.707106781186548));
#806=DIRECTION('',(0.,-0.707106781186548,0.707106781186548));
#807=DIRECTION('',(-2.16829372056234E-17,0.707106781186548,-0.707106781186548));
#808=DIRECTION('',(0.,0.707106781186548,0.707106781186548));
#809=DIRECTION('',(0.,-0.707106781186548,0.707106781186548));
#810=DIRECTION('',(-2.16829372056234E-17,0.707106781186548,-0.707106781186548));
#811=DIRECTION('',(0.,0.707106781186548,0.707106781186548));
#812=DIRECTION('',(0.,-0.707106781186548,0.707106781186548));
#813=DIRECTION('',(-2.16829372056234E-17,0.707106781186548,-0.707106781186548));
#814=DIRECTION('',(1.,-3.50449187066021E-17,-6.57092225748791E-17));
#815=DIRECTION('',(3.50449187066021E-17,1.,-2.30277436341066E-33));
#816=DIRECTION('',(1.,-3.50449187066021E-17,-6.57092225748791E-17));
#817=DIRECTION('',(3.50449187066021E-17,1.,-2.30277436341066E-33));
#818=CARTESIAN_POINT('',(0.,0.,0.));
#819=CARTESIAN_POINT('',(6.93889390390723E-18,-0.0530788745030457,-0.00619887450304573));
#820=CARTESIAN_POINT('',(8.67361737988404E-18,-0.0566650691965977,0.0184992020508642));
#821=CARTESIAN_POINT('',(8.67361737988404E-18,-0.0566650691965977,0.0184992020508642));
#822=CARTESIAN_POINT('',(8.67361737988404E-18,-0.0524224285094784,0.0142565613637449));
#823=CARTESIAN_POINT('',(8.09392920660687E-18,-0.0600621356237309,0.0151021356237309));
#824=CARTESIAN_POINT('',(6.93889390390723E-18,-0.0672640552520811,0.00790021599538082));
#825=CARTESIAN_POINT('',(6.93889390390723E-18,-0.0672640552520811,0.00790021599538082));
#826=CARTESIAN_POINT('',(6.80879628067349E-18,-0.0630214145649617,0.00365757530826146));
#827=CARTESIAN_POINT('',(7.96380377008493E-18,-0.0558194949366117,0.0108594949366117));
#828=CARTESIAN_POINT('',(-0.0847491996797437,-0.0983337084989848,-0.0231694372515228));
#829=CARTESIAN_POINT('',(-0.0847491996797437,-0.0976266017177982,-0.0238765440327094));
#830=CARTESIAN_POINT('',(-0.0847491996797437,-0.0964245201897811,-0.0226744625046923));
#831=CARTESIAN_POINT('',(-0.0847491996797437,-0.0983337084989848,-0.0231694372515228));
#832=CARTESIAN_POINT('',(-0.0847491996797437,-0.0964245201897811,-0.0212602489423192));
#833=CARTESIAN_POINT('',(-0.08475,-0.0217905627484771,0.0533737084989848));
#834=CARTESIAN_POINT('',(-0.08475,-0.0210834559672906,0.0526666017177982));
#835=CARTESIAN_POINT('',(-0.08475,-0.0198813744392735,0.0538686832458153));
#836=CARTESIAN_POINT('',(-0.08475,-0.0217905627484771,0.0533737084989848));
#837=CARTESIAN_POINT('',(-0.08475,-0.0198813744392735,0.0552828968081885));
#838=CARTESIAN_POINT('',(-0.167498399359487,-0.020376349186104,0.0547879220613579));
#839=CARTESIAN_POINT('',(-0.167498399359487,-0.00976974746830578,0.0441813203435597));
#840=CARTESIAN_POINT('',(-0.167498399359487,-0.00835553390593272,0.0455955339059328));
#841=CARTESIAN_POINT('',(-0.169498399359487,-0.00976974746830581,0.0441813203435597));
#842=CARTESIAN_POINT('',(-0.169498399359487,-0.0203763491861041,0.0547879220613579));
#843=CARTESIAN_POINT('',(-0.169498399359487,-0.0203763491861041,0.0547879220613579));
#844=CARTESIAN_POINT('',(-0.167498399359487,-0.020376349186104,0.0547879220613579));
#845=CARTESIAN_POINT('',(-0.167498399359487,-0.018962135623731,0.056202135623731));
#846=CARTESIAN_POINT('',(-0.167498399359487,-0.018962135623731,0.056202135623731));
#847=CARTESIAN_POINT('',(-0.169498399359487,-0.0607692424049175,0.0143950288425444));
#848=CARTESIAN_POINT('',(-0.169498399359487,-0.0501626406871193,0.0037884271247462));
#849=CARTESIAN_POINT('',(-0.169498399359487,-0.0905555339059328,-0.0366044660940672));
#850=CARTESIAN_POINT('',(-0.169498399359487,-0.101162135623731,-0.025997864376269));
#851=CARTESIAN_POINT('',(-0.169498399359487,-0.101162135623731,-0.025997864376269));
#852=CARTESIAN_POINT('',(-0.169498399359487,-0.0607692424049175,0.0143950288425444));
#853=CARTESIAN_POINT('',(-0.0847491996797437,-0.0983337084989848,-0.0231694372515229));
#854=CARTESIAN_POINT('',(-0.0847491996797437,-0.0877271067811866,-0.0337760389693211));
#855=CARTESIAN_POINT('',(-0.0847491996797437,-0.0865250252531695,-0.032573957441304));
#856=CARTESIAN_POINT('',(-0.08475,-0.0217905627484771,0.0533737084989848));
#857=CARTESIAN_POINT('',(-0.08475,-0.0111839610306789,0.0427671067811866));
#858=CARTESIAN_POINT('',(-0.08475,-0.00998187950266181,0.0439691883092037));
#859=CARTESIAN_POINT('',(-0.161498399359488,-0.0600621356237309,0.0151021356237309));
#860=CARTESIAN_POINT('',(-0.161498399359488,-0.0239118830920368,0.0512523881554251));
#861=CARTESIAN_POINT('',(-0.161498399359488,-0.0196692424049175,0.0470097474683058));
#862=CARTESIAN_POINT('',(-0.161498399359488,-0.0133052813742386,0.0406457864376269));
#863=CARTESIAN_POINT('',(-0.161498399359488,-0.0558194949366117,0.0108594949366117));
#864=CARTESIAN_POINT('',(-0.161498399359488,-0.0919697474683058,-0.0252907575950825));
#865=CARTESIAN_POINT('',(-0.161498399359488,-0.0962123881554251,-0.0210481169079633));
#866=CARTESIAN_POINT('',(-0.161498399359488,-0.0856057864376269,-0.0316547186257614));
#867=CARTESIAN_POINT('',(-0.161498399359488,-0.0494555339059327,0.00449553390593276));
#868=CARTESIAN_POINT('',(-0.0545,-0.02426543648263,0.0508988347648319));
#869=CARTESIAN_POINT('',(-0.0545,-0.0200227957955108,0.0466561940777126));
#870=CARTESIAN_POINT('',(-0.087,-0.0200227957955108,0.0466561940777126));
#871=CARTESIAN_POINT('',(-0.022,-0.0200227957955108,0.0466561940777126));
#872=CARTESIAN_POINT('',(-0.022,-0.02426543648263,0.0508988347648319));
#873=CARTESIAN_POINT('',(-0.022,-0.02426543648263,0.0508988347648319));
#874=CARTESIAN_POINT('',(-0.0545,-0.02426543648263,0.0508988347648319));
#875=CARTESIAN_POINT('',(-0.087,-0.02426543648263,0.0508988347648319));
#876=CARTESIAN_POINT('',(-0.087,-0.02426543648263,0.0508988347648319));
#877=CARTESIAN_POINT('',(-0.022,-0.0444179797464467,0.0307462915010153));
#878=CARTESIAN_POINT('',(-0.022,-0.0401753390593274,0.026503650813896));
#879=CARTESIAN_POINT('',(-0.022,-0.060327882323144,0.00635110755007936));
#880=CARTESIAN_POINT('',(-0.022,-0.0645705230102633,0.0105937482371986));
#881=CARTESIAN_POINT('',(-0.022,-0.0645705230102633,0.0105937482371986));
#882=CARTESIAN_POINT('',(-0.022,-0.0444179797464467,0.0307462915010153));
#883=CARTESIAN_POINT('',(-0.0545,-0.0645705230102633,0.0105937482371986));
#884=CARTESIAN_POINT('',(-0.0545,-0.060327882323144,0.00635110755007936));
#885=CARTESIAN_POINT('',(-0.087,-0.060327882323144,0.00635110755007936));
#886=CARTESIAN_POINT('',(-0.087,-0.0645705230102633,0.0105937482371986));
#887=CARTESIAN_POINT('',(-0.087,-0.0645705230102633,0.0105937482371986));
#888=CARTESIAN_POINT('',(-0.0545,-0.0645705230102633,0.0105937482371986));
#889=CARTESIAN_POINT('',(-0.087,-0.0444179797464467,0.0307462915010153));
#890=CARTESIAN_POINT('',(-0.087,-0.0401753390593274,0.026503650813896));
#891=CARTESIAN_POINT('',(-0.087,-0.0444179797464467,0.0307462915010153));
#892=CARTESIAN_POINT('',(-0.1235,-0.02426543648263,0.0508988347648319));
#893=CARTESIAN_POINT('',(-0.1235,-0.0200227957955108,0.0466561940777126));
#894=CARTESIAN_POINT('',(-0.156,-0.0200227957955108,0.0466561940777126));
#895=CARTESIAN_POINT('',(-0.091,-0.0200227957955108,0.0466561940777126));
#896=CARTESIAN_POINT('',(-0.091,-0.02426543648263,0.0508988347648319));
#897=CARTESIAN_POINT('',(-0.091,-0.02426543648263,0.0508988347648319));
#898=CARTESIAN_POINT('',(-0.1235,-0.02426543648263,0.0508988347648319));
#899=CARTESIAN_POINT('',(-0.156,-0.02426543648263,0.0508988347648319));
#900=CARTESIAN_POINT('',(-0.156,-0.02426543648263,0.0508988347648319));
#901=CARTESIAN_POINT('',(-0.091,-0.0444179797464467,0.0307462915010153));
#902=CARTESIAN_POINT('',(-0.091,-0.0401753390593274,0.026503650813896));
#903=CARTESIAN_POINT('',(-0.091,-0.060327882323144,0.00635110755007935));
#904=CARTESIAN_POINT('',(-0.091,-0.0645705230102633,0.0105937482371986));
#905=CARTESIAN_POINT('',(-0.091,-0.0645705230102633,0.0105937482371986));
#906=CARTESIAN_POINT('',(-0.091,-0.0444179797464467,0.0307462915010153));
#907=CARTESIAN_POINT('',(-0.1235,-0.0645705230102633,0.0105937482371986));
#908=CARTESIAN_POINT('',(-0.1235,-0.060327882323144,0.00635110755007935));
#909=CARTESIAN_POINT('',(-0.156,-0.060327882323144,0.00635110755007935));
#910=CARTESIAN_POINT('',(-0.156,-0.0645705230102633,0.0105937482371986));
#911=CARTESIAN_POINT('',(-0.156,-0.0645705230102633,0.0105937482371986));
#912=CARTESIAN_POINT('',(-0.1235,-0.0645705230102633,0.0105937482371986));
#913=CARTESIAN_POINT('',(-0.156,-0.0444179797464467,0.0307462915010153));
#914=CARTESIAN_POINT('',(-0.156,-0.0401753390593274,0.026503650813896));
#915=CARTESIAN_POINT('',(-0.156,-0.0444179797464467,0.0307462915010153));
#916=CARTESIAN_POINT('',(-0.0978899999999985,-0.0743704784030059,0.000793792844456047));
#917=CARTESIAN_POINT('',(-0.0978899999999985,-0.0701278377158866,-0.00344884784266324));
#918=CARTESIAN_POINT('',(-0.0978899999999985,-0.0630214145649619,0.00365757530826146));
#919=CARTESIAN_POINT('',(-0.0978899999999985,-0.0772342608668114,-0.010555270993588));
#920=CARTESIAN_POINT('',(-0.0978899999999985,-0.0672640552520812,0.00790021599538075));
#921=CARTESIAN_POINT('',(-0.0978899999999985,-0.0672640552520812,0.00790021599538075));
#922=CARTESIAN_POINT('',(-0.0978899999999985,-0.0743704784030059,0.000793792844456047));
#923=CARTESIAN_POINT('',(-0.0978899999999985,-0.0814769015539307,-0.00631263030646876));
#924=CARTESIAN_POINT('',(-0.0978899999999985,-0.0814769015539307,-0.00631263030646876));
#925=CARTESIAN_POINT('',(-0.014315,-0.0440644263558534,0.0310998448916085));
#926=CARTESIAN_POINT('',(-0.014315,-0.0398217856687341,0.0268572042044892));
#927=CARTESIAN_POINT('',(-0.014315,-0.0272211428279899,0.0394578470452335));
#928=CARTESIAN_POINT('',(-0.014315,-0.0524224285094784,0.0142565613637449));
#929=CARTESIAN_POINT('',(-0.014315,-0.0314637835151092,0.0437004877323528));
#930=CARTESIAN_POINT('',(-0.014315,-0.0314637835151092,0.0437004877323528));
#931=CARTESIAN_POINT('',(-0.014315,-0.0440644263558534,0.0310998448916085));
#932=CARTESIAN_POINT('',(-0.014315,-0.0566650691965977,0.0184992020508642));
#933=CARTESIAN_POINT('',(-0.014315,-0.0566650691965977,0.0184992020508642));
#934=CARTESIAN_POINT('',(8.00320256233444E-07,-0.0494555339059327,0.00449553390593275));
#935=CARTESIAN_POINT('',(7.76856267574282E-18,-0.0494555339059327,0.00449553390593275));
#936=CARTESIAN_POINT('',(-3.25244058084352E-19,-0.0905555339059328,-0.0366044660940673));
#937=CARTESIAN_POINT('',(-3.25244058084352E-19,-0.0856057864376269,-0.0316547186257614));
#938=CARTESIAN_POINT('',(-0.0847491996797438,-0.0905555339059328,-0.0366044660940672));
#939=CARTESIAN_POINT('',(-0.0837491996797438,-0.00835553390593272,0.0455955339059328));
#940=CARTESIAN_POINT('',(1.38777878078145E-17,-0.00835553390593272,0.0455955339059328));
#941=CARTESIAN_POINT('',(7.76856267574282E-18,-0.0494555339059327,0.00449553390593275));
#942=CARTESIAN_POINT('',(1.38777878078145E-17,-0.0133052813742386,0.0406457864376269));
#943=CARTESIAN_POINT('',(-0.0807491996797437,-0.0133052813742386,0.0406457864376269));
#944=CARTESIAN_POINT('',(-0.0807491996797438,-0.0856057864376269,-0.0316547186257614));
#945=CARTESIAN_POINT('',(-0.0489449999999993,-0.0814769015539307,-0.00631263030646878));
#946=CARTESIAN_POINT('',(-0.0489449999999993,-0.0814769015539307,-0.00631263030646878));
#947=CARTESIAN_POINT('',(6.93889390390723E-18,-0.0814769015539307,-0.00631263030646876));
#948=CARTESIAN_POINT('',(6.93889390390723E-18,-0.0814769015539307,-0.0063126303064688));
#949=CARTESIAN_POINT('',(6.93889390390723E-18,-0.0772342608668114,-0.0105552709935881));
#950=CARTESIAN_POINT('',(-0.0489449999999993,-0.0772342608668114,-0.0105552709935881));
#951=CARTESIAN_POINT('',(-0.0489449999999993,-0.0672640552520811,0.00790021599538078));
#952=CARTESIAN_POINT('',(-0.0489449999999993,-0.0672640552520811,0.00790021599538078));
#953=CARTESIAN_POINT('',(-0.0489449999999993,-0.0630214145649618,0.00365757530826149));
#954=CARTESIAN_POINT('',(-0.0071575,-0.0566650691965977,0.0184992020508642));
#955=CARTESIAN_POINT('',(-0.0071575,-0.0566650691965977,0.0184992020508642));
#956=CARTESIAN_POINT('',(-0.0071575,-0.0524224285094784,0.0142565613637449));
#957=CARTESIAN_POINT('',(-0.0071575,-0.0314637835151092,0.0437004877323528));
#958=CARTESIAN_POINT('',(1.12757025938492E-17,-0.0314637835151092,0.0437004877323528));
#959=CARTESIAN_POINT('',(1.12757025938492E-17,-0.0314637835151092,0.0437004877323528));
#960=CARTESIAN_POINT('',(1.11456049706155E-17,-0.0272211428279899,0.0394578470452335));
#961=CARTESIAN_POINT('',(-0.0071575,-0.0314637835151092,0.0437004877323528));
#962=CARTESIAN_POINT('',(-0.0071575,-0.0272211428279899,0.0394578470452335));
#963=CARTESIAN_POINT('',(8.00320256233444E-07,-0.0558194949366117,0.0108594949366117));
#964=CARTESIAN_POINT('',(7.96380377008493E-18,-0.0558194949366117,0.0108594949366117));
#965=CARTESIAN_POINT('',(4.32151611914539E-18,-0.0919697474683059,-0.0252907575950825));
#966=CARTESIAN_POINT('',(-0.0807491996797438,-0.0919697474683058,-0.0252907575950825));
#967=CARTESIAN_POINT('',(-0.0807491996797437,-0.0196692424049175,0.0470097474683058));
#968=CARTESIAN_POINT('',(1.38777878078145E-17,-0.0196692424049175,0.0470097474683058));
#969=CARTESIAN_POINT('',(7.96380377008493E-18,-0.0558194949366117,0.0108594949366117));
#970=CARTESIAN_POINT('',(8.00320256233444E-07,-0.0600621356237309,0.0151021356237309));
#971=CARTESIAN_POINT('',(-0.0847491996797438,-0.101162135623731,-0.025997864376269));
#972=CARTESIAN_POINT('',(3.95293399993799E-18,-0.101162135623731,-0.025997864376269));
#973=CARTESIAN_POINT('',(8.09392920660687E-18,-0.0600621356237309,0.0151021356237309));
#974=CARTESIAN_POINT('',(8.09392920660687E-18,-0.0600621356237309,0.0151021356237309));
#975=CARTESIAN_POINT('',(1.38777878078145E-17,-0.018962135623731,0.056202135623731));
#976=CARTESIAN_POINT('',(-0.0837491996797438,-0.018962135623731,0.056202135623731));
#977=CARTESIAN_POINT('',(-0.0847491996797438,-0.101162135623731,-0.025997864376269));
#978=CARTESIAN_POINT('',(0.,-0.101162135623731,-0.025997864376269));
#979=CARTESIAN_POINT('',(-0.0837491996797438,-0.018962135623731,0.056202135623731));
#980=CARTESIAN_POINT('',(0.,-0.018962135623731,0.056202135623731));
#981=CARTESIAN_POINT('',(-0.0807491996797438,-0.0962123881554251,-0.0210481169079633));
#982=CARTESIAN_POINT('',(0.,-0.0962123881554251,-0.0210481169079633));
#983=CARTESIAN_POINT('',(-0.0807491996797437,-0.0239118830920368,0.0512523881554251));
#984=CARTESIAN_POINT('',(1.38777878078145E-17,-0.0239118830920368,0.0512523881554251));
#985=CARTESIAN_POINT('',(6.93889390390723E-18,-0.0530788745030457,-0.00619887450304573));
#986=CARTESIAN_POINT('',(6.93889390390723E-18,-0.0530788745030457,-0.00619887450304573));
#987=MECHANICAL_DESIGN_GEOMETRIC_PRESENTATION_REPRESENTATION('',(#614),#988);
#988=(
GEOMETRIC_REPRESENTATION_CONTEXT(3)
GLOBAL_UNCERTAINTY_ASSIGNED_CONTEXT((#989))
GLOBAL_UNIT_ASSIGNED_CONTEXT((#992,#991,#990))
REPRESENTATION_CONTEXT('leftFront','TOP_LEVEL_ASSEMBLY_PART')
);
#989=UNCERTAINTY_MEASURE_WITH_UNIT(LENGTH_MEASURE(1.E-08),#992,'DISTANCE_ACCURACY_VALUE','Maximum Tolerance applied to model');
#990=(
NAMED_UNIT(*)
SI_UNIT($,.STERADIAN.)
SOLID_ANGLE_UNIT()
);
#991=(
NAMED_UNIT(*)
PLANE_ANGLE_UNIT()
SI_UNIT($,.RADIAN.)
);
#992=(
LENGTH_UNIT()
NAMED_UNIT(*)
SI_UNIT($,.METRE.)
);
#993=PRODUCT_DEFINITION_SHAPE('','',#994);
#994=PRODUCT_DEFINITION('','',#996,#995);
#995=PRODUCT_DEFINITION_CONTEXT('',#1002,'design');
#996=PRODUCT_DEFINITION_FORMATION_WITH_SPECIFIED_SOURCE('','',#998,.NOT_KNOWN.);
#997=PRODUCT_RELATED_PRODUCT_CATEGORY('','',(#998));
#998=PRODUCT('leftFront','leftFront','leftFront',(#1000));
#999=PRODUCT_CATEGORY('','');
#1000=PRODUCT_CONTEXT('',#1002,'mechanical');
#1001=APPLICATION_PROTOCOL_DEFINITION('international standard','ap242_managed_model_based_3d_engineering',2020,#1002);
#1002=APPLICATION_CONTEXT('managed model based 3d engineering');
ENDSEC;
END-ISO-10303-21;
